<svg width="50" height="50" viewBox="0 0 50 50" fill="none" xmlns="http://www.w3.org/2000/svg">
<circle cx="25" cy="25" r="24" fill="url(#paint0_linear_2204_395)" stroke="url(#paint1_linear_2204_395)" stroke-width="2"/>
<path d="M29.6665 24C28.4672 24 27.3075 23.4784 26.3999 22.5318C25.5173 21.6085 24.9783 20.3773 24.8832 19.0659C24.7817 17.667 25.2198 16.3807 26.1164 15.4432C27.0129 14.5057 28.2665 14 29.6665 14C31.0566 14 32.3137 14.5148 33.2073 15.45C34.1097 16.3943 34.549 17.6784 34.4475 19.0653C34.3501 20.3784 33.8116 21.6091 32.9308 22.5312C32.0255 23.4784 30.8664 24 29.6665 24Z" fill="url(#paint2_linear_2204_395)"/>
<path d="M37.3565 34H21.977C21.7298 34.0013 21.4855 33.9473 21.263 33.8422C21.0405 33.7371 20.8458 33.5837 20.6937 33.3937C20.5324 33.1878 20.421 32.9491 20.3679 32.6953C20.3148 32.4415 20.3213 32.1794 20.3869 31.9284C20.878 30.0074 22.0949 28.4142 23.9055 27.3216C25.5126 26.3523 27.5583 25.8182 29.6665 25.8182C31.8161 25.8182 33.8081 26.3295 35.4246 27.2983C37.2393 28.3852 38.4579 29.9875 38.9467 31.9318C39.0115 32.183 39.0173 32.4451 38.9636 32.6988C38.9098 32.9524 38.798 33.1909 38.6364 33.3966C38.4845 33.5856 38.2902 33.7383 38.0683 33.8429C37.8465 33.9475 37.603 34.0012 37.3565 34Z" fill="url(#paint3_linear_2204_395)"/>
<path d="M18.6416 24.2273C16.5888 24.2273 14.784 22.3682 14.6166 20.0835C14.5337 18.9131 14.9082 17.8307 15.6666 17.0369C16.4167 16.2511 17.4749 15.8182 18.6416 15.8182C19.8082 15.8182 20.8582 16.2534 21.6125 17.0437C22.3766 17.8437 22.75 18.9239 22.6625 20.0847C22.495 22.3687 20.6908 24.2273 18.6416 24.2273Z" fill="url(#paint4_linear_2204_395)"/>
<path d="M22.4717 26.0142C21.4456 25.5256 20.1139 25.2812 18.6421 25.2812C16.9237 25.2812 15.2547 25.7176 13.9423 26.5096C12.4542 27.4091 11.4532 28.7187 11.0489 30.3C10.9898 30.5274 10.9842 30.7649 11.0326 30.9948C11.081 31.2246 11.1821 31.4408 11.3283 31.6273C11.4672 31.8008 11.645 31.9411 11.8481 32.0372C12.0513 32.1333 12.2744 32.1828 12.5003 32.1818H18.9752C19.0845 32.1818 19.1903 32.1444 19.2742 32.0762C19.3581 32.008 19.4148 31.9132 19.4343 31.8085C19.4407 31.7727 19.4489 31.7369 19.4582 31.7017C19.9529 29.7665 21.112 28.1312 22.8246 26.9392C22.8876 26.895 22.9383 26.8361 22.972 26.768C23.0058 26.6999 23.0215 26.6246 23.0179 26.5491C23.0142 26.4735 22.9913 26.4001 22.9511 26.3353C22.911 26.2706 22.8548 26.2167 22.7879 26.1784C22.6963 26.1261 22.5913 26.071 22.4717 26.0142Z" fill="url(#paint5_linear_2204_395)"/>
<defs>
<linearGradient id="paint0_linear_2204_395" x1="25" y1="0" x2="25" y2="50" gradientUnits="userSpaceOnUse">
<stop stop-color="#2869FF"/>
<stop offset="1" stop-color="#073FC1"/>
</linearGradient>
<linearGradient id="paint1_linear_2204_395" x1="25" y1="0" x2="25" y2="50" gradientUnits="userSpaceOnUse">
<stop stop-color="#ACC4FF"/>
<stop offset="1" stop-color="#285FDD"/>
</linearGradient>
<linearGradient id="paint2_linear_2204_395" x1="25" y1="14" x2="25" y2="34" gradientUnits="userSpaceOnUse">
<stop stop-color="white"/>
<stop offset="1" stop-color="#ACC5FF"/>
</linearGradient>
<linearGradient id="paint3_linear_2204_395" x1="25" y1="14" x2="25" y2="34" gradientUnits="userSpaceOnUse">
<stop stop-color="white"/>
<stop offset="1" stop-color="#ACC5FF"/>
</linearGradient>
<linearGradient id="paint4_linear_2204_395" x1="25" y1="14" x2="25" y2="34" gradientUnits="userSpaceOnUse">
<stop stop-color="white"/>
<stop offset="1" stop-color="#ACC5FF"/>
</linearGradient>
<linearGradient id="paint5_linear_2204_395" x1="25" y1="14" x2="25" y2="34" gradientUnits="userSpaceOnUse">
<stop stop-color="white"/>
<stop offset="1" stop-color="#ACC5FF"/>
</linearGradient>
</defs>
</svg>
