<svg width="50" height="50" viewBox="0 0 50 50" fill="none" xmlns="http://www.w3.org/2000/svg">
<circle cx="25" cy="25" r="24" fill="url(#paint0_linear_2204_393)" stroke="url(#paint1_linear_2204_393)" stroke-width="2"/>
<path d="M34.391 14.0224C34.2017 13.9782 34.0025 14.0021 33.8295 14.0897L32.6 14.6927L31.36 14.0838C31.2489 14.0293 31.1264 14.0009 31.0023 14.0009C30.8781 14.0009 30.7556 14.0293 30.6445 14.0838L29.389 14.6932L28.15 14.0838C28.0386 14.0289 27.9157 14.0002 27.791 14.0002C27.6663 14.0002 27.5434 14.0289 27.432 14.0838L26.2 14.6912L24.9775 14.0853C24.8664 14.03 24.7437 14.0009 24.6191 14.0004C24.4945 13.9999 24.3716 14.0279 24.26 14.0823L23 14.6937L21.76 14.0833C21.6487 14.0288 21.5261 14.0004 21.4017 14.0004C21.2774 14.0004 21.1548 14.0288 21.0435 14.0833L19.8 14.6927L18.558 14.0833C18.3979 14.0045 18.2155 13.9807 18.04 14.0158C17.8645 14.0509 17.706 14.1428 17.59 14.2768C17.465 14.4232 17.3975 14.6087 17.4 14.7998V26.5716L17.4025 26.574H27C27.4243 26.574 27.8313 26.7396 28.1314 27.0343C28.4314 27.329 28.6 27.7287 28.6 28.1454V33.25C28.6 34.7689 30.2535 36 31.8 36H32.4C33.0896 36 33.7509 35.731 34.2385 35.2521C34.7261 34.7732 35 34.1237 35 33.4465V14.786C35.0001 14.6102 34.9402 14.4393 34.8298 14.3009C34.7194 14.1625 34.5649 14.0644 34.391 14.0224ZM31 24.2145H24.625C24.193 24.2145 23.82 23.8884 23.801 23.4641C23.7961 23.3581 23.8132 23.2522 23.8512 23.1528C23.8891 23.0534 23.9472 22.9626 24.0218 22.8859C24.0965 22.8092 24.1862 22.7481 24.2856 22.7063C24.385 22.6646 24.4919 22.6431 24.6 22.6431H30.975C31.407 22.6431 31.78 22.9691 31.799 23.3934C31.8039 23.4994 31.7868 23.6053 31.7488 23.7047C31.7109 23.8041 31.6528 23.8949 31.5781 23.9716C31.5035 24.0483 31.4138 24.1094 31.3144 24.1512C31.215 24.1929 31.1081 24.2144 31 24.2145ZM31 20.2859H21.425C20.993 20.2859 20.62 19.9599 20.601 19.5356C20.5961 19.4296 20.6132 19.3237 20.6512 19.2243C20.6891 19.1249 20.7472 19.0341 20.8218 18.9574C20.8965 18.8806 20.9862 18.8196 21.0856 18.7778C21.185 18.7361 21.2919 18.7146 21.4 18.7145H30.975C31.407 18.7145 31.78 19.0406 31.799 19.4649C31.8039 19.5709 31.7868 19.6768 31.7488 19.7762C31.7109 19.8756 31.6528 19.9664 31.5781 20.0431C31.5035 20.1198 31.4138 20.1809 31.3144 20.2226C31.215 20.2644 31.1081 20.2859 31 20.2859Z" fill="url(#paint2_linear_2204_393)"/>
<path d="M27 33.25V28.9287C27 28.7203 26.9157 28.5204 26.7657 28.3731C26.6157 28.2257 26.4122 28.143 26.2 28.143H12.6C12.1756 28.1443 11.7691 28.3106 11.4692 28.6055C11.1694 28.9005 11.0007 29.3 11 29.7168C11 32.1992 11.289 33.2314 11.723 34.0171C12.4595 35.3513 13.793 36 15.8 36H28.084C28.1235 36 28.162 35.9886 28.1949 35.9671C28.2278 35.9457 28.2534 35.9152 28.2687 35.8794C28.2839 35.8437 28.288 35.8043 28.2805 35.7662C28.273 35.7282 28.2542 35.6932 28.2265 35.6656C27.7535 35.1996 27 34.5759 27 33.25Z" fill="url(#paint3_linear_2204_393)"/>
<defs>
<linearGradient id="paint0_linear_2204_393" x1="25" y1="0" x2="25" y2="50" gradientUnits="userSpaceOnUse">
<stop stop-color="#2869FF"/>
<stop offset="1" stop-color="#073FC1"/>
</linearGradient>
<linearGradient id="paint1_linear_2204_393" x1="25" y1="0" x2="25" y2="50" gradientUnits="userSpaceOnUse">
<stop stop-color="#ACC4FF"/>
<stop offset="1" stop-color="#285FDD"/>
</linearGradient>
<linearGradient id="paint2_linear_2204_393" x1="23" y1="14" x2="23" y2="36" gradientUnits="userSpaceOnUse">
<stop stop-color="white"/>
<stop offset="1" stop-color="#ACC5FF"/>
</linearGradient>
<linearGradient id="paint3_linear_2204_393" x1="23" y1="14" x2="23" y2="36" gradientUnits="userSpaceOnUse">
<stop stop-color="white"/>
<stop offset="1" stop-color="#ACC5FF"/>
</linearGradient>
</defs>
</svg>
