<svg width="28" height="20" viewBox="0 0 28 20" fill="none" xmlns="http://www.w3.org/2000/svg">
<path d="M18.6665 9.99999C17.4672 9.99999 16.3075 9.4784 15.3999 8.53181C14.5173 7.60851 13.9783 6.37727 13.8832 5.0659C13.7817 3.66704 14.2198 2.38068 15.1164 1.44318C16.0129 0.505681 17.2665 0 18.6665 0C20.0566 0 21.3137 0.514772 22.2073 1.45C23.1097 2.39432 23.549 3.6784 23.4475 5.06533C23.3501 6.3784 22.8116 7.60908 21.9308 8.53124C21.0255 9.4784 19.8664 9.99999 18.6665 9.99999Z" fill="#0450FF"/>
<path d="M26.3565 20H10.977C10.7298 20.0013 10.4855 19.9473 10.263 19.8422C10.0405 19.7371 9.84577 19.5837 9.69372 19.3937C9.53243 19.1878 9.42105 18.9491 9.36791 18.6953C9.31477 18.4415 9.32126 18.1794 9.38688 17.9284C9.87805 16.0074 11.0949 14.4142 12.9055 13.3216C14.5126 12.3523 16.5583 11.8182 18.6665 11.8182C20.8161 11.8182 22.8081 12.3295 24.4246 13.2983C26.2393 14.3852 27.4579 15.9875 27.9467 17.9318C28.0115 18.183 28.0173 18.4451 27.9636 18.6988C27.9098 18.9524 27.798 19.1909 27.6364 19.3966C27.4845 19.5856 27.2902 19.7383 27.0683 19.8429C26.8465 19.9475 26.603 20.0012 26.3565 20Z" fill="#0450FF"/>
<path d="M7.64156 10.2273C5.58882 10.2273 3.784 8.36817 3.61658 6.08352C3.53375 4.91306 3.90825 3.83068 4.66658 3.03693C5.41674 2.25113 6.4749 1.81818 7.64156 1.81818C8.80822 1.81818 9.85821 2.25341 10.6125 3.04375C11.3766 3.84375 11.75 4.92386 11.6625 6.08465C11.495 8.36874 9.6908 10.2273 7.64156 10.2273Z" fill="#0450FF"/>
<path d="M11.4717 12.0142C10.4456 11.5256 9.11388 11.2812 7.64214 11.2812C5.92365 11.2812 4.25474 11.7176 2.94225 12.5096C1.45418 13.4091 0.453181 14.7187 0.0489334 16.3C-0.010225 16.5274 -0.0158203 16.7649 0.032566 16.9948C0.0809522 17.2246 0.182068 17.4408 0.328349 17.6273C0.467151 17.8008 0.644971 17.9411 0.848135 18.0372C1.0513 18.1333 1.27439 18.1828 1.50026 18.1818H7.97522C8.08451 18.1818 8.19033 18.1444 8.27422 18.0762C8.35812 18.008 8.41477 17.9132 8.43431 17.8085C8.44072 17.7727 8.44889 17.7369 8.45822 17.7017C8.95289 15.7665 10.112 14.1312 11.8246 12.9392C11.8876 12.895 11.9383 12.8361 11.972 12.768C12.0058 12.6999 12.0215 12.6246 12.0179 12.5491C12.0142 12.4735 11.9913 12.4001 11.9511 12.3353C11.911 12.2706 11.8548 12.2167 11.7879 12.1784C11.6963 12.1261 11.5913 12.071 11.4717 12.0142Z" fill="#0450FF"/>
</svg>
