<svg width="22" height="20" viewBox="0 0 22 20" fill="none" xmlns="http://www.w3.org/2000/svg">
<path d="M21.4417 0.0203779C21.2682 -0.0198221 21.0856 0.0018755 20.927 0.0815377L19.8 0.629744L18.6633 0.0761806C18.5615 0.0265962 18.4492 0.000781861 18.3354 0.000781861C18.2216 0.000781861 18.1093 0.0265962 18.0075 0.0761806L16.8566 0.630191L15.7208 0.0761806C15.6187 0.0262337 15.506 0.000222692 15.3917 0.000222692C15.2775 0.000222692 15.1648 0.0262337 15.0627 0.0761806L13.9333 0.628405L12.8127 0.0775199C12.7109 0.0272294 12.5984 0.000799005 12.4842 0.000333981C12.37 -0.000131042 12.2573 0.0253821 12.155 0.0748413L11 0.630637L9.86333 0.0757341C9.76134 0.0261734 9.64892 0.000375363 9.53494 0.000375363C9.42096 0.000375363 9.30853 0.0261734 9.20654 0.0757341L8.06667 0.629744L6.92817 0.0757341C6.78139 0.00407358 6.61418 -0.0175421 6.4533 0.0143484C6.29242 0.0462389 6.14718 0.129791 6.04083 0.251625C5.92621 0.384685 5.86441 0.553386 5.86667 0.727064V11.4287L5.86896 11.4309H14.6667C15.0556 11.4309 15.4287 11.5814 15.7038 11.8493C15.9788 12.1172 16.1333 12.4806 16.1333 12.8595V17.5C16.1333 18.8808 17.649 20 19.0667 20H19.6167C20.2488 20 20.855 19.7554 21.3019 19.3201C21.7489 18.8847 22 18.2943 22 17.6786V0.714564C22.0001 0.554696 21.9452 0.399406 21.844 0.273549C21.7428 0.147693 21.6011 0.0585465 21.4417 0.0203779ZM18.3333 9.28587H12.4896C12.0936 9.28587 11.7517 8.98944 11.7342 8.60374C11.7298 8.50734 11.7454 8.41107 11.7802 8.32072C11.815 8.23038 11.8682 8.14784 11.9367 8.07808C12.0051 8.00832 12.0874 7.9528 12.1785 7.91486C12.2696 7.87691 12.3676 7.85734 12.4667 7.85732H18.3104C18.7064 7.85732 19.0483 8.15374 19.0658 8.53945C19.0702 8.63585 19.0546 8.73212 19.0198 8.82246C18.985 8.91281 18.9318 8.99535 18.8633 9.06511C18.7949 9.13486 18.7126 9.19039 18.6215 9.22833C18.5304 9.26627 18.4324 9.28585 18.3333 9.28587ZM18.3333 5.71449H9.55625C9.16025 5.71449 8.81833 5.41807 8.80092 5.03236C8.79646 4.93597 8.8121 4.83969 8.84689 4.74935C8.88169 4.659 8.93491 4.57646 9.00336 4.5067C9.07181 4.43695 9.15406 4.38142 9.24515 4.34348C9.33623 4.30554 9.43427 4.28596 9.53333 4.28594H18.3104C18.7064 4.28594 19.0483 4.58237 19.0658 4.96807C19.0702 5.06447 19.0546 5.16074 19.0198 5.25109C18.985 5.34143 18.9318 5.42397 18.8633 5.49373C18.7949 5.56349 18.7126 5.61901 18.6215 5.65695C18.5304 5.6949 18.4324 5.71447 18.3333 5.71449Z" fill="#0450FF"/>
<path d="M14.6667 17.5V13.5715C14.6667 13.3821 14.5894 13.2004 14.4519 13.0665C14.3144 12.9325 14.1278 12.8572 13.9333 12.8572H1.46667C1.07766 12.8584 0.704962 13.0096 0.430106 13.2778C0.155249 13.5459 0.000604049 13.9091 0 14.288C0 16.5447 0.264917 17.4831 0.66275 18.1973C1.33787 19.4103 2.56025 20 4.4 20H15.6603C15.6965 20 15.7319 19.9896 15.762 19.9701C15.7921 19.9506 15.8156 19.9229 15.8296 19.8904C15.8436 19.8579 15.8473 19.8221 15.8405 19.7875C15.8336 19.7529 15.8164 19.7211 15.791 19.696C15.3574 19.2723 14.6667 18.7054 14.6667 17.5Z" fill="#0450FF"/>
</svg>
