<svg width="20" height="20" viewBox="0 0 20 20" fill="none" xmlns="http://www.w3.org/2000/svg">
<path fill-rule="evenodd" clip-rule="evenodd" d="M1.62738 13.7449C-0.916975 7.49962 3.67752 0.666626 10.4212 0.666626H10.7962C15.8333 0.666626 19.9167 4.75005 19.9167 9.78721C19.9167 15.4137 15.3555 19.975 9.729 19.975H0.605339C0.357805 19.975 0.137225 19.8187 0.0550707 19.5852C-0.0270844 19.3517 0.047077 19.0918 0.240077 18.9368L2.54015 17.0896C2.74129 16.9281 2.81244 16.6536 2.71511 16.4147L1.62738 13.7449ZM11.2835 7.02497C11.2835 6.54172 10.8917 6.14997 10.4085 6.14997C9.92521 6.14997 9.53346 6.54172 9.53346 7.02497V9.35833H7.2001C6.71685 9.35833 6.3251 9.75008 6.3251 10.2333C6.3251 10.7166 6.71685 11.1083 7.2001 11.1083H9.53346V13.4416C9.53346 13.9249 9.92521 14.3166 10.4085 14.3166C10.8917 14.3166 11.2835 13.9249 11.2835 13.4416V11.1083H13.6168C14.1 11.1083 14.4918 10.7166 14.4918 10.2333C14.4918 9.75008 14.1 9.35833 13.6168 9.35833H11.2835V7.02497Z" fill="#0450FF"/>
</svg>
