<svg width="42" height="38" viewBox="0 0 42 38" fill="none" xmlns="http://www.w3.org/2000/svg">
<path d="M38.25 0.3125H3.75C2.16218 0.3125 0.875 1.59968 0.875 3.1875V4.625C0.875 6.21282 2.16218 7.5 3.75 7.5H38.25C39.8378 7.5 41.125 6.21282 41.125 4.625V3.1875C41.125 1.59968 39.8378 0.3125 38.25 0.3125Z" fill="white"/>
<path d="M4.68887 10.375C4.58786 10.3745 4.48788 10.3952 4.39543 10.4359C4.30299 10.4766 4.22015 10.5363 4.15234 10.6112C4.08452 10.686 4.03324 10.7743 4.00184 10.8703C3.97045 10.9663 3.95964 11.0679 3.97012 11.1683L6.33391 33.8593C6.33342 33.8658 6.33342 33.8724 6.33391 33.879C6.45742 34.9285 6.96198 35.8962 7.75182 36.5982C8.54167 37.3003 9.56179 37.6879 10.6186 37.6875H31.3806C32.437 37.6875 33.4567 37.2997 34.2462 36.5976C35.0356 35.8956 35.5399 34.9282 35.6634 33.879V33.8602L38.0236 11.1683C38.0341 11.0679 38.0233 10.9663 37.9919 10.8703C37.9605 10.7743 37.9092 10.686 37.8414 10.6112C37.7736 10.5363 37.6907 10.4766 37.5983 10.4359C37.5058 10.3952 37.4058 10.3745 37.3048 10.375H4.68887ZM27.0474 26.6089C27.184 26.7416 27.2929 26.9003 27.3677 27.0755C27.4426 27.2508 27.4818 27.4391 27.4831 27.6297C27.4845 27.8202 27.4479 28.0091 27.3756 28.1854C27.3033 28.3617 27.1967 28.5218 27.0619 28.6565C26.9271 28.7913 26.7669 28.8978 26.5906 28.9701C26.4143 29.0423 26.2254 29.0788 26.0348 29.0773C25.8443 29.0759 25.6559 29.0366 25.4807 28.9617C25.3055 28.8868 25.1469 28.7779 25.0142 28.6411L21 24.6269L16.9849 28.6411C16.7141 28.9043 16.3506 29.0503 15.973 29.0476C15.5954 29.0449 15.234 28.8938 14.9669 28.6268C14.6998 28.3599 14.5485 27.9986 14.5457 27.621C14.5428 27.2434 14.6887 26.8798 14.9517 26.6089L18.9668 22.5938L14.9517 18.5786C14.6887 18.3077 14.5428 17.9441 14.5457 17.5665C14.5485 17.1889 14.6998 16.8276 14.9669 16.5607C15.234 16.2937 15.5954 16.1426 15.973 16.1399C16.3506 16.1372 16.7141 16.2832 16.9849 16.5464L21 20.5606L25.0142 16.5464C25.285 16.2832 25.6485 16.1372 26.0261 16.1399C26.4037 16.1426 26.7651 16.2937 27.0322 16.5607C27.2993 16.8276 27.4506 17.1889 27.4534 17.5665C27.4563 17.9441 27.3104 18.3077 27.0474 18.5786L23.0323 22.5938L27.0474 26.6089Z" fill="white"/>
</svg>
