<?xml version="1.0" encoding="UTF-8"?>
<svg xmlns="http://www.w3.org/2000/svg" width="284" height="160">
  <!-- Created with Method Draw - http://github.com/duopixel/Method-Draw/ -->
  <g>
    <title>background</title>
    <rect fill="#eeeeee" id="canvas_background" height="162" width="286" y="-1" x="-1"></rect>
    <g display="none" overflow="visible" y="0" x="0" height="100%" width="100%" id="canvasGrid">
      <rect fill="url(#gridpattern)" stroke-width="0" y="0" x="0" height="100%" width="100%"></rect>
    </g>
  </g>
  <g>
    <title>Layer 1</title>
    <g stroke="null" id="svg_15">
      <path stroke="null" id="svg_4" fill="#00CFA6" d="m142.74577,99.834011l119.112242,0l15.508006,0l0,15.411628c0,8.511543 -6.94322,15.411628 -15.508006,15.411628l-0.0238,0l-238.668891,0l-0.023133,0c-8.564944,0 -15.508212,-6.900085 -15.508212,-15.411628l0,-15.411628l15.508212,0l119.603582,0zm-65.814459,24.396544c1.171272,0.477007 2.496132,0.715589 3.974581,0.715589c1.708832,0 3.215999,-0.362614 4.521661,-1.087683c1.305662,-0.725069 2.361742,-1.774515 3.168082,-3.148339l-2.678439,-1.68872c-0.53756,0.858738 -1.219189,1.536091 -2.044886,2.032216c-0.80634,0.496125 -1.785626,0.744029 -2.937699,0.744029c-0.92169,0 -1.756908,-0.16211 -2.505652,-0.486487c-0.729705,-0.343495 -1.363257,-0.801384 -1.900818,-1.373823c-0.51852,-0.591558 -0.92169,-1.27839 -1.209669,-2.060814c-0.287979,-0.782266 -0.432047,-1.621886 -0.432047,-2.518703c0,-0.896817 0.144069,-1.736279 0.432047,-2.518703c0.287979,-0.801384 0.691149,-1.488217 1.209669,-2.060656c0.518362,-0.591558 1.151914,-1.059084 1.900818,-1.40258c0.748744,-0.343337 1.583962,-0.515085 2.505652,-0.515085c2.112161,0 3.753718,0.887179 4.92499,2.661852l2.707316,-1.774673c-0.883293,-1.373823 -1.977771,-2.385033 -3.283274,-3.033788c-1.286463,-0.667873 -2.745714,-1.00173 -4.377751,-1.00173c-1.401655,0 -2.688118,0.257543 -3.85939,0.772786c-1.171272,0.495967 -2.179276,1.182958 -3.024172,2.060656c-0.825539,0.858738 -1.478449,1.879586 -1.958413,3.062544c-0.460766,1.163997 -0.691149,2.41379 -0.691149,3.749377c0,1.373823 0.220704,2.642734 0.66243,3.806731c0.441567,1.163997 1.07512,2.175207 1.900818,3.033946c0.825539,0.85858 1.824023,1.535933 2.995295,2.032058zm26.184476,-3.634983l7.57471,0l1.612839,4.007077l3.629007,0l-8.265859,-18.804396l-1.555243,0l-8.179545,18.804396l3.571252,0l1.612839,-4.007077zm3.801794,-9.445016l2.592125,6.525622l-5.212968,0l2.620843,-6.525622zm18.632931,9.158875c0.825539,3.091142 3.014494,4.636713 6.566547,4.636713c0.998485,0 1.891298,-0.124031 2.678439,-0.372094c0.806499,-0.267181 1.488128,-0.639274 2.044886,-1.116281c0.576116,-0.496125 1.017683,-1.087683 1.32486,-1.774515c0.307177,-0.686991 0.460924,-1.459776 0.460924,-2.318357c0,-1.564689 -0.412849,-2.805001 -1.238546,-3.720778c-0.80634,-0.915935 -2.102482,-1.621886 -3.888108,-2.118011c-0.80634,-0.209984 -1.46877,-0.41033 -1.98729,-0.601038c-0.518362,-0.190866 -0.93121,-0.391212 -1.238387,-0.601038c-0.287979,-0.229102 -0.499163,-0.467527 -0.633712,-0.715589c-0.115191,-0.248062 -0.172787,-0.543841 -0.172787,-0.887337l0,-0.085795c0,-0.553321 0.220863,-0.99225 0.66243,-1.316627c0.441726,-0.343495 1.05608,-0.515085 1.843381,-0.515085c1.59364,0 2.572768,0.667715 2.937699,2.00346l3.052891,-1.25943c-0.864095,-2.537663 -2.812988,-3.806573 -5.84668,-3.806573c-0.940889,0 -1.785626,0.124031 -2.534529,0.372094c-0.748744,0.248062 -1.382456,0.601038 -1.900818,1.058926c-0.518362,0.457888 -0.92169,1.011368 -1.209669,1.660122c-0.26878,0.629636 -0.40317,1.326107 -0.40317,2.089254c0,1.526611 0.432047,2.738167 1.295983,3.634983c0.864095,0.877699 2.217673,1.545571 4.061054,2.00346c0.748744,0.190866 1.363257,0.381732 1.843222,0.57244c0.499163,0.190866 0.883134,0.40085 1.152073,0.629794c0.287979,0.228944 0.489643,0.486487 0.604834,0.772786c0.115191,0.286141 0.172787,0.601038 0.172787,0.944533c0,0.744029 -0.25926,1.335587 -0.777622,1.774515c-0.51852,0.419652 -1.228867,0.629636 -2.131359,0.629636c-0.979127,0 -1.756749,-0.200346 -2.332865,-0.601038c-0.556759,-0.41981 -0.998485,-1.125761 -1.32486,-2.118011l-3.081609,1.144879zm28.7244,-14.196281l-3.542534,0l0,18.489498l3.542534,0l0,-18.489498zm28.689652,18.632648l0,-18.632648l-3.368477,0l0,11.64898l-10.425937,-11.820727l-1.585072,0l0,18.661246l3.398624,0l0,-11.706176l10.425937,11.849326l1.554926,0zm17.692835,-0.543841c1.170954,0.496125 2.486295,0.744187 3.946021,0.744187c1.38198,0 2.659241,-0.248062 3.830195,-0.744187c1.170954,-0.496125 2.178483,-1.173477 3.024172,-2.032216c0.844103,-0.85858 1.497806,-1.869948 1.957937,-3.033788c0.480758,-1.183116 0.720343,-2.452026 0.720343,-3.806731c0,-1.335587 -0.220546,-2.585537 -0.661637,-3.749377c-0.442678,-1.183116 -1.075755,-2.203964 -1.900818,-3.062544c-0.826649,-0.877699 -1.834178,-1.564689 -3.024172,-2.060814c-1.172541,-0.495967 -2.487881,-0.744029 -3.946021,-0.744029c-1.383567,0 -2.659241,0.248062 -3.830195,0.744029c-1.153501,0.496125 -2.15151,1.183116 -2.995612,2.060814c-0.845689,0.85858 -1.507326,1.879428 -1.988084,3.062544c-0.460131,1.163839 -0.690197,2.41379 -0.690197,3.749377c0,1.354705 0.220546,2.623616 0.661637,3.806731c0.441091,1.163839 1.075755,2.175207 1.900818,3.033788c0.825063,0.858738 1.824658,1.536091 2.995612,2.032216zm6.394236,-2.919394c-0.729863,0.324377 -1.545406,0.486487 -2.448215,0.486487c-0.902809,0 -1.718352,-0.16211 -2.448215,-0.486487c-0.729863,-0.343495 -1.35342,-0.801384 -1.872258,-1.373823c-0.518838,-0.57244 -0.921849,-1.249792 -1.209034,-2.032216c-0.288772,-0.782266 -0.433158,-1.631366 -0.433158,-2.547301c0,-0.915935 0.144386,-1.765035 0.433158,-2.547301c0.287185,-0.782266 0.690197,-1.459618 1.209034,-2.032058c0.518838,-0.57244 1.142395,-1.020848 1.872258,-1.345225c0.729863,-0.343495 1.545406,-0.515243 2.448215,-0.515243c0.902809,0 1.718352,0.171748 2.448215,0.515243c0.748903,0.324377 1.38198,0.772786 1.900818,1.345225c0.517251,0.57244 0.921849,1.249792 1.209034,2.032058c0.288772,0.782266 0.431571,1.631366 0.431571,2.547301c0,0.915935 -0.142799,1.765035 -0.431571,2.547301c-0.287185,0.782424 -0.691783,1.459776 -1.209034,2.032216c-0.518838,0.57244 -1.151914,1.030328 -1.900818,1.373823z" clip-rule="evenodd" fill-rule="evenodd"></path>
      <path stroke="null" id="svg_5" fill="#FF2400" d="m43.081367,62.748837c0,9.61313 -7.935199,17.406082 -17.723775,17.406082c-0.371913,0 -0.741287,-0.011376 -1.107647,-0.033496l0,-12.33439c0.356205,0.080265 0.727007,0.122767 1.107647,0.122767c2.753012,0 4.984807,-2.217868 4.984807,-4.953822c0,-2.735828 -2.231795,-4.95368 -4.984807,-4.95368c-2.752965,0 -4.984727,2.217852 -4.984727,4.95368l0,16.501049l0,0.697893l0,11.422721l-12.738889,0l0,-28.828803c0,-9.61313 7.935152,-17.406082 17.723616,-17.406082c9.788576,0 17.723775,7.792952 17.723775,17.406082z" clip-rule="evenodd" fill-rule="evenodd"></path>
      <path stroke="null" id="svg_6" fill="#FF2400" d="m202.594709,62.748837c0,9.61313 -7.934882,17.406082 -17.724568,17.406082c-0.371278,0 -0.74097,-0.011376 -1.107488,-0.033496l0,-12.33439c0.356998,0.080265 0.72669,0.122767 1.107488,0.122767c2.752853,0 4.985283,-2.217868 4.985283,-4.953822c0,-2.735828 -2.232429,-4.95368 -4.985283,-4.95368c-2.752853,0 -4.983696,2.217852 -4.983696,4.95368l0,16.501049l0,0.697893l0,11.422721l-12.739286,0l0,-28.828803c0,-9.61313 7.934882,-17.406082 17.722982,-17.406082c9.789686,0 17.724568,7.792952 17.724568,17.406082z" clip-rule="evenodd" fill-rule="evenodd"></path>
      <path stroke="null" id="svg_7" fill="#FF2400" d="m59.697337,51.672534c0,1.662366 -0.680201,3.324716 -1.85528,4.475583c-1.174921,1.214811 -2.782683,1.85418 -4.514204,1.85418c-1.669641,0 -3.277403,-0.639369 -4.514204,-1.85418c-1.17508,-1.214795 -1.85528,-2.813217 -1.85528,-4.475583c0,-1.662366 0.680201,-3.324732 1.85528,-4.475583c1.174921,-1.214811 2.782683,-1.854195 4.514204,-1.854195c1.669641,0 3.277403,0.639385 4.514204,1.854195c1.17508,1.150852 1.85528,2.813217 1.85528,4.475583z"></path>
      <path stroke="null" id="svg_8" fill="#FF2400" d="m59.697337,61.304861l-12.738968,0l0,30.272937l12.738968,0l0,-30.272937z"></path>
      <path stroke="null" id="svg_9" fill="#FF2400" d="m123.945447,74.51458l0,-12.659558l-21.046874,0l0,12.659558l21.046874,0z"></path>
      <path stroke="null" id="svg_10" fill="#FF2400" d="m99.021571,91.57764l0,-28.793411c0,-9.633765 -7.962807,-17.441474 -17.659515,-17.441474c-9.825069,0 -17.787876,7.807709 -17.787876,17.441474l0,28.793411l12.73881,0l0,-11.981731l0,-16.371014l0,-0.062885c0,-0.033654 0.000476,-0.067309 0.001111,-0.100963c-0.000635,-0.034918 -0.001111,-0.069995 -0.001111,-0.105071c0,-2.735828 2.231795,-4.95368 4.984807,-4.95368c2.753012,0 4.984807,2.217852 4.984807,4.95368c0,0.035076 -0.000317,0.070153 -0.001111,0.105071c0.000793,0.033654 0.001111,0.067309 0.001111,0.100963l0,28.415629l12.738968,0z" clip-rule="evenodd" fill-rule="evenodd"></path>
      <path stroke="null" id="svg_11" fill="#FF2400" d="m163.269998,45.893043l0,28.243123c0,9.63367 -7.962807,17.441316 -17.659515,17.441316c-9.825069,0 -17.787876,-7.807646 -17.787876,-17.441316l0,-28.243123l12.738968,0l0,11.431317l0,16.370982l0,0.062885c0,0.033654 0.000317,0.067309 0.001111,0.100963c-0.000793,0.034918 -0.001111,0.069995 -0.001111,0.105071c0,2.735797 2.231636,4.953664 4.984648,4.953664c2.753012,0 4.984807,-2.217868 4.984807,-4.953664c0,-0.035076 -0.000317,-0.070153 -0.001111,-0.105071c0.000793,-0.033654 0.001111,-0.067309 0.001111,-0.100963l0,-27.865184l12.738968,0z" clip-rule="evenodd" fill-rule="evenodd"></path>
      <path stroke="null" id="svg_12" fill="#FF2400" d="m277.366017,72.601339l0,7.968018l-9.753193,0l0,-7.968018l-5.512054,0l0,-9.645362l5.512054,0l0,-4.036702c0,-0.025628 0,-0.051256 -0.001587,-0.076884c0.001587,-0.026607 0.001587,-0.053278 0.001587,-0.079996c0,-2.084483 -1.708832,-3.774278 -3.815915,-3.774278c-2.10867,0 -3.817502,1.689795 -3.817502,3.774278c0,0.026718 0,0.053389 0.001587,0.079996c-0.001587,0.025628 -0.001587,0.051256 -0.001587,0.076884l0,0.047985l0,12.473084l0,9.129013l-9.753193,0l0,-21.937914c0,-7.339962 6.097531,-13.288688 13.619881,-13.288688c7.423978,0 13.519922,5.948726 13.519922,13.288688l0,4.324534l0,9.645362z" clip-rule="evenodd" fill-rule="evenodd"></path>
      <path stroke="null" id="svg_13" fill="#FF2400" d="m246.350006,45.892964l0,21.595129c0,7.225253 -5.972185,13.080948 -13.24543,13.080948c-7.368445,0 -13.340629,-5.855695 -13.340629,-13.080948l0,-21.595145l9.554861,0l0,8.986274l0,12.278173l0,0.047242c0,0.02528 0,0.05056 0,0.075683c0,0.026228 0,0.052457 0,0.078843c0,2.051808 1.673925,3.715248 3.738169,3.715248c2.064243,0 3.738169,-1.66344 3.738169,-3.715248c0,-0.026386 0,-0.052615 0,-0.078843c0,-0.025122 0,-0.050402 0,-0.075683l0,-21.31169l9.554861,0l0,0.000016z" clip-rule="evenodd" fill-rule="evenodd"></path>
      <path stroke="null" id="svg_14" fill="#FF2400" d="m211.180121,80.569515c2.573561,0 4.707617,-2.08641 4.707617,-4.678584c0,-2.592173 -2.072177,-4.678584 -4.707617,-4.678584c-2.575148,0 -4.709204,2.08641 -4.709204,4.678584c0,2.592173 2.134056,4.678584 4.709204,4.678584z"></path>
    </g>
  </g>
</svg>
