<?xml version="1.0" encoding="UTF-8"?>
<svg xmlns="http://www.w3.org/2000/svg" width="249.99999999999997" height="140">
  <!-- Created with Method Draw - http://github.com/duopixel/Method-Draw/ -->
  <g>
    <title>background</title>
    <rect fill="#cccccc" id="canvas_background" height="142" width="252" y="-1" x="-1"></rect>
    <g display="none" overflow="visible" y="0" x="0" height="100%" width="100%" id="canvasGrid">
      <rect fill="url(#gridpattern)" stroke-width="0" y="0" x="0" height="100%" width="100%"></rect>
    </g>
  </g>
  <g>
    <title>Layer 1</title>
    <line stroke-linecap="undefined" stroke-linejoin="undefined" id="svg_4" y2="27.888888" x2="385.999999" y1="26.888888" x1="385.999999" stroke-width="1.5" stroke="#000" fill="none"></line>
    <style transform="matrix(0.002881654275075155,0,0,0.002881654275075155,8.65409253702579,2.6018840307397797) " type="text/css">.st0{fill:#0E1214;}</style>
    <g stroke="null" id="svg_14">
      <path fill="#00bf00" stroke="null" id="svg_13" d="m131.95132,36.36134l-2.172911,0l0,72.610671l2.172911,0l0,-13.987325l27.499792,0l0,-8.467817l-21.159166,0l0,-9.736275l18.095718,0l0,-8.536382l-18.095718,0l0,-9.427731l21.159166,0l0,-8.536382l-27.499792,0l0,-13.918759zm-85.598445,41.344886l-7.801107,-12.170344l-10.009639,-15.08437l-0.106864,-0.137131l-8.299808,0l0,44.670304l9.225966,0l0,-27.46041l6.874948,10.69619l11.042663,16.76422l8.371051,0l0,-44.670304l-9.261588,0l0,27.391844l-0.035621,0zm14.462326,17.27846l30.420754,0l0,-8.467817l-21.159166,0l0,-9.736275l18.095718,0l0,-8.536382l-18.095718,0l0,-9.427731l21.159166,0l0,-8.536382l-30.420754,0l0,44.704587zm34.161011,-36.065357l10.650826,0l0,36.09964l9.261588,0l0,-36.09964l10.579583,0l0,-8.604947l-30.491997,0l0,8.604947zm95.358734,18.855462l-7.801107,-12.170344l-10.009639,-15.08437l-0.106864,-0.171413l-8.299808,0l0,44.670304l9.190345,0l0,-27.46041l6.874948,10.69619l11.042663,16.76422l8.371051,0l0,-44.636022l-9.261588,0l0,27.391844zm13.037466,-27.391844l0,8.604947l10.650826,0l0,36.09964l9.261588,0l0,-36.09964l10.579583,0l0,-8.604947l-30.491997,0z" class="st0"></path>
    </g>
  </g>
</svg>
