<svg width="20" height="20" xmlns="http://www.w3.org/2000/svg">
 <!-- Created with Method Draw - http://github.com/duopixel/Method-Draw/ -->

 <g>
  <title>background</title>
  <rect fill="#fff" id="canvas_background" height="22" width="22" y="-1" x="-1"/>
  <g display="none" overflow="visible" y="0" x="0" height="100%" width="100%" id="canvasGrid">
   <rect fill="url(#gridpattern)" stroke-width="0" y="0" x="0" height="100%" width="100%"/>
  </g>
 </g>
 <g>
  <title>Layer 1</title>

  <g stroke="null" id="svg_6">
   <g transform="matrix(1.1858581243633664,0,0,1.1621911753252845,-11.565186707718503,-9.524456503388619) " id="svg_4" fill-rule="evenodd" fill="none">
    <path stroke="null" id="svg_5" class="si-glyph-fill" fill="#0350ff" d="m23.9773,8.841561l-11.585,0c-1.18,0 -2.135,0.966 -2.135,2.155l0,11.69c0,1.189 0.955,2.154 2.135,2.154l11.585,0c1.181,0 2.136,-0.965 2.136,-2.154l0,-11.69c-0.001,-1.189 -0.956,-2.155 -2.136,-2.155l0,0zm-9.761,6.153c-1.146,0 -2.075,-0.951 -2.075,-2.123c0,-1.172 0.929,-2.123 2.075,-2.123c1.146,0 2.076,0.951 2.076,2.123c0,1.172 -0.93,2.123 -2.076,2.123l0,0zm8,0c-1.146,0 -2.075,-0.951 -2.075,-2.123c0,-1.172 0.929,-2.123 2.075,-2.123c1.146,0 2.076,0.951 2.076,2.123c0,1.172 -0.93,2.123 -2.076,2.123l0,0zm0,8c-1.146,0 -2.075,-0.951 -2.075,-2.123c0,-1.172 0.929,-2.123 2.075,-2.123c1.146,0 2.076,0.951 2.076,2.123c0,1.172 -0.93,2.123 -2.076,2.123l0,0zm-4,-4c-1.146,0 -2.075,-0.951 -2.075,-2.123c0,-1.172 0.929,-2.123 2.075,-2.123c1.146,0 2.076,0.951 2.076,2.123c0,1.172 -0.93,2.123 -2.076,2.123l0,0zm-4,4c-1.146,0 -2.075,-0.951 -2.075,-2.123c0,-1.172 0.929,-2.123 2.075,-2.123c1.146,0 2.076,0.951 2.076,2.123c0,1.172 -0.93,2.123 -2.076,2.123l0,0z"/>
   </g>
  </g>
 </g>
</svg>