<svg width="20" height="20" xmlns="http://www.w3.org/2000/svg">
 <g>
  <title>Layer 1</title>
  <g stroke="null" id="svg_3">
   <defs stroke="null" transform="translate(-100 0) translate(0 -150) translate(-100 250) scale(0.267432 0.2403) translate(100 -250)">
    <linearGradient y2="0.51313" x2="0.9983" y1="0.51313" x1="-0.00161" id="svg_35">
     <stop stop-color="#be0c7f" offset="0"/>
     <stop stop-color="#4135d0" offset="1"/>
    </linearGradient>
   </defs>
   <rect stroke="null" x="-100" y="153.88014" fill="none" height="96.11986" width="106.97272" class="a" id="svg_4"/>
   <path stroke="null" fill="url(#svg_35)" d="m-75.41363,206.33501a8.72379,7.83872 0 0 1 -0.64636,0.65897a7.60183,6.83059 0 0 1 -5.63075,2.11089a8.02116,7.20738 0 0 1 -7.98,-7.17037l0,-0.08937l-10.32926,0.01117l0,0.08934q0,6.76835 5.40702,11.6156q5.31999,4.8473 12.92709,4.84728q7.63197,0 12.92712,-4.84728q0.11478,-0.10477 0.22373,-0.21221l-6.89859,-7.01403l0,0.00001z" class="b" id="svg_5"/>
   <path stroke="null" fill="#fff" d="m-68.52748,190.51992q-0.10326,-0.10189 -0.21127,-0.20103q-5.29515,-4.8473 -12.92712,-4.84728q-7.6071,0 -12.92709,4.84728q-5.37131,4.82635 -5.40704,11.53741l10.32926,-0.01117a8.02319,7.20921 0 0 1 7.98,-7.08103a7.60175,6.83052 0 0 1 5.63075,2.11091a8.31531,7.47169 0 0 1 0.63381,0.64778l6.89859,-7.00286m-2.0385,0.22348l-4.76066,4.88068a8.99459,8.08205 0 0 0 -6.3641,-2.22258a9.06059,8.14135 0 0 0 -6.69973,2.51298a9.14617,8.21825 0 0 0 -2.73457,4.94777l-7.22178,0.01117q0.3908,-5.50003 4.88494,-9.53819q4.84779,-4.42284 11.78374,-4.42284q6.47698,0 11.11227,3.83091l-0.00011,0.0001z" class="c" id="svg_6"/>
   <path stroke="null" fill="#fff" d="m-59.85046,199.32703q-0.11187,-0.11172 -0.23617,-0.22348a4.5618,4.09898 0 1 0 0,5.78545l0.04972,-0.04467l-1.14354,-1.11689a0.81428,0.73166 0 0 0 -0.08702,0.06702a2.87131,2.58 0 1 1 0,-3.64104a2.67392,2.40264 0 0 1 0.24871,0.25688l1.16841,-1.08337m5.97879,-1.41844a4.54099,4.08029 0 1 0 3.21934,1.19506a4.385,3.94012 0 0 0 -3.21934,-1.19506m-2.01376,2.24493a2.85096,2.56171 0 0 1 4.05215,0a2.88094,2.58865 0 0 1 0,3.64104a2.86532,2.57462 0 1 1 -4.05215,-3.64104m32.2059,-2.24493a4.54099,4.08029 0 1 0 3.21934,1.19506a4.385,3.94012 0 0 0 -3.21934,-1.19506m-2.01376,2.24493a2.85096,2.56171 0 0 1 4.05215,0a2.88094,2.58865 0 0 1 0,3.64104a2.86532,2.57462 0 1 1 -4.05215,-3.64104m18.39626,0a2.73741,2.45968 0 0 1 2.02609,-0.75947a2.76728,2.48652 0 0 1 1.25541,0.25688l1.37973,-0.98283a4.33507,3.89526 0 0 0 -2.64757,-0.75947a4.54099,4.08029 0 0 0 -4.54934,4.09896a4.6381,4.16754 0 0 0 0.31073,1.53013l1.44189,-1.01647a2.97684,2.67482 0 0 1 -0.06215,-0.54726a2.7638,2.4834 0 0 1 0.84508,-1.82053m5.233,-1.04987l-0.03728,-0.0335l-0.95711,1.26208a2.89246,2.59901 0 0 1 -0.18645,3.46233a2.73735,2.45964 0 0 1 -2.02606,0.75949a2.90535,2.61059 0 0 1 -0.87009,-0.11169l-0.99439,1.31792a4.53733,4.077 0 0 0 1.85205,0.33505a4.56215,4.0993 0 0 0 4.54934,-4.08779a4.42621,3.97715 0 0 0 -1.32972,-2.90376l-0.00027,-0.00014l-0.00002,0.00001z" class="c" id="svg_7"/>
   <path stroke="null" fill="#fff" d="m-30.55318,197.9756l-1.85205,0l-2.33682,3.01557l-2.29954,-3.01557l-1.98878,0l0,8.04156l1.80233,0l0,-5.40571l2.47356,3.00442l2.54812,-3.00442l0,5.40571l1.65318,0l0,-8.04156m15.76112,-0.03352l-1.81477,-0.01117l0,8.08625l5.8172,0l-0.99439,-1.55248l-3.00805,0l0,-6.5226m17.61319,1.44079l0,6.64546l1.77749,0l0,-6.64546l2.3741,0l0,-1.47429l-6.9359,0l-0.01244,1.47429l2.79675,0z" class="c" id="svg_8"/>
   <g stroke="null" isolation="isolate" class="d" id="svg_9">
    <text stroke="null" x="-95.61144" y="-150" font-weight="700" font-family="NewsGothicBT-Bold, NewsGoth BT" font-size="45.8499px" isolation="isolate" fill="#fff" transform="matrix(0.279707 0 0 0.2403 120.329 407.075)" class="e" id="svg_10">S</text>
   </g>
  </g>
  <rect id="svg_1" height="1" width="0" y="20" x="56" stroke="#000" fill="#390268"/>
  <g id="svg_2">
   <symbol id="svg_12" width="7" height="5" viewBox="0 0 7 5">
    <path id="svg_11" d="m4.34038,4.60887c-0.42454,0.52151 -1.25622,0.52151 -1.68076,0l-2.4375,-2.99424c-0.53685,-0.65946 -0.0397,-1.61463 0.84038,-1.61463l4.875,0c0.88008,0 1.37723,0.95517 0.84038,1.61463l-2.4375,2.99424z" fill-opacity="0.5"/>
   </symbol>
  </g>
  <g id="svg_14">
   <symbol viewBox="0 0 7 5" height="5" width="7" id="svg_13">
    <path fill-opacity="0.5" d="m4.34038,4.60887c-0.42454,0.52151 -1.25622,0.52151 -1.68076,0l-2.4375,-2.99424c-0.53685,-0.65946 -0.0397,-1.61463 0.84038,-1.61463l4.875,0c0.88008,0 1.37723,0.95517 0.84038,1.61463l-2.4375,2.99424z" id="svg_15"/>
   </symbol>
  </g>
  <g stroke="null" id="svg_16">
   <path stroke="null" fill-rule="evenodd" fill="#000" d="m-598.88319,243.66606l-11.84761,226.85818l249.77019,0l17.46719,-334.47479l-93.96245,0l11.90889,-226.57361c-63.3558,0 -126.71172,0.28336 -190.06764,0.28336l-17.57598,333.90687l34.3074,0l0.00001,-0.00001z" clip-rule="evenodd" id="svg_17"/>
   <g stroke="null" fill="#f8ff13" id="svg_18">
    <path stroke="null" d="m-569.62442,175.78444l2.76389,-52.87661l12.88077,0c6.77934,0 10.89917,-16.77259 12.77651,-52.30827l1.04293,-19.61494c2.39887,-45.2014 -1.51233,-73.34538 -10.06475,-73.34538l-56.00793,0l-10.42989,198.14519l47.03848,0l-0.00001,0.00001zm19.34722,-144.98442l-2.19024,43.21089l-11.78571,0l2.24249,-42.92606l11.73346,0l0,-0.28483z" id="svg_19"/>
    <path stroke="null" d="m-535.36258,175.7851l3.4418,-33.26101l15.95767,0l0,33.26101l10.4819,0l0,-198.4287l-20.59878,0l-21.43332,198.4287l12.15073,0zm15.07113,-144.41542l4.32834,0l0,63.11066l-10.9513,0l6.62296,-63.11066z" id="svg_20"/>
    <path stroke="null" d="m-462.71907,68.61105l0.93879,-17.90993c2.39887,-45.76974 -1.51257,-73.34471 -10.06427,-73.34471l-19.921,0l-10.43051,198.4287l10.89929,0l2.86888,-54.58228l6.7791,0l3.07641,54.58228l11.21182,0l-3.28517,-58.2778c3.96393,-6.53853 6.57034,-22.74278 7.92665,-48.89625l0.00001,-0.00001zm-20.96356,-37.8097l11.7331,0l-2.19011,42.92672l-11.78559,0l2.24261,-42.92672l-0.00001,0z" id="svg_21"/>
    <path stroke="null" d="m-452.49732,175.7851l10.42928,-198.4287l-10.95179,0l-10.37679,198.4287l10.89929,0l0.00001,0z" id="svg_22"/>
    <path stroke="null" d="m-519.30065,203.92975l-12.30724,79.31425l-5.05838,-79.31425l-47.19486,0l-10.37764,198.71286l47.03836,0l5.73641,-109.7329l3.80694,61.40499l7.0401,0l10.16901,-65.38467l-5.99717,113.71259l10.89917,0l10.37728,-198.71286l-14.13197,0l-0.00001,-0.00001z" id="svg_23"/>
    <path stroke="null" d="m-490.56671,203.92975l-21.48521,198.4287l12.15098,0l3.44143,-33.26101l15.95828,0l0,33.26101l10.48178,0l0,-198.14453l-20.54727,-0.28417l0.00001,0zm-0.83381,117.40811l6.57034,-63.11066l4.32895,0l0,63.11066l-10.89929,0z" id="svg_24"/>
    <path stroke="null" d="m-433.1501,260.78604l2.97265,-56.8563l-33.11539,0l-2.97265,56.8563l11.99435,0l-7.45664,141.85657l10.89929,0l7.45664,-141.85657l10.22175,0z" id="svg_25"/>
    <path stroke="null" d="m-418.60062,260.78538l16.53084,0l3.02514,-56.57279l-17.62711,0c-6.7791,0 -10.89929,16.77325 -12.77566,52.30827l-3.85895,72.49221c-2.45136,46.33741 1.51135,73.34471 10.06427,73.34471l13.71568,0l2.97142,-56.57213l-16.53084,0l4.48521,-85.00027z" id="svg_26"/>
    <path stroke="null" d="m-370.88448,203.92975l-3.75518,71.07004l-12.46314,0l3.70268,-71.07004l-10.89929,0l-10.37801,198.71286l10.89929,0l3.70268,-71.07004l12.46314,0l-3.70146,71.07004l10.95057,0l10.37801,-198.71286l-10.89929,0z" id="svg_27"/>
   </g>
  </g>
  <g id="svg_28">
   <clipPath transform="translate(-0.365278 0) translate(0 60.094)" id="svg_44">
    <path d="m-0.1768,60.5l150,0l0,29l-150,0l0,-29z" id="svg_29"/>
   </clipPath>
   <g clip-path="url(#svg_44)" id="svg_30">
    <g fill="#005bbb" id="svg_31">
     <path d="m57.41982,69.28216l-8.693,0l0,-2.52105l10.5051,0l0,-3.48108l-15.5406,0l0,12.96426l5.0355,0l0,-3.481l8.693,0l0,-3.48113z" id="svg_32"/>
     <path d="m85.00762,71.91179l-4.609,-8.63176l-5.7785,0l7.4816,12.96426l5.7375,0l7.4823,-12.96426l-5.7036,0l-4.6103,8.63176z" id="svg_33"/>
     <path d="m111.46372,69.68238c0.561,-0.22154 1.045,-0.60476 1.388,-1.10115c0.343,-0.4964 0.531,-1.08354 0.54,-1.68706c0,-2.12871 -1.795,-3.58961 -5.327,-3.58961l-11.3821,0l0,12.95603l11.6401,0c3.792,0 5.478,-1.5027 5.478,-3.6648c0,-1.2438 -0.734,-2.329 -2.337,-2.91341zm-9.879,-3.27239l5.628,0c0.136,-0.01261 0.273,0.00341 0.404,0.04697c0.13,0.04357 0.249,0.11374 0.351,0.20605c0.101,0.09231 0.181,0.20468 0.237,0.33002c0.055,0.12533 0.084,0.26087 0.084,0.39787c0,0.13699 -0.029,0.27244 -0.084,0.39778c-0.056,0.12533 -0.136,0.23773 -0.237,0.33003c-0.102,0.09238 -0.221,0.16254 -0.351,0.20611c-0.131,0.04357 -0.268,0.05949 -0.404,0.0469l-5.628,0l0,-1.96173zm6.029,6.7368l-6.029,0l0,-1.9618l6.037,0c0.142,-0.0228 0.288,-0.0144 0.426,0.0244s0.267,0.1072 0.376,0.2005c0.11,0.0933 0.197,0.2091 0.257,0.3397c0.061,0.1305 0.092,0.2725 0.092,0.4162c0,0.1439 -0.031,0.2859 -0.092,0.4164c-0.06,0.1305 -0.147,0.2465 -0.257,0.3397c-0.109,0.0932 -0.238,0.1616 -0.376,0.2005c-0.138,0.0388 -0.284,0.0471 -0.426,0.0244l-0.008,0z" id="svg_34"/>
     <path d="m121.23372,71.16879l8.667,0l0,-2.81321l-8.667,0l0,-1.59447l9.586,0l0,-3.48108l-14.63,0l0,12.96426l14.855,0l0,-3.481l-9.811,0l0,-1.5945z" id="svg_36"/>
     <path d="m133.12372,63.28003l0,3.48108l5.654,0l0,9.48318l5.093,0l0,-9.48318l5.654,0l0,-3.48108l-16.401,0z" id="svg_37"/>
     <path d="m65.07402,63.28796l-7.5155,12.95593l5.3528,0l1.0104,-1.9116l7.9996,0l1.0104,1.9116l5.5705,0l-7.5156,-12.95593l-5.9126,0zm0.6682,7.68013l2.2129,-4.17399l2.2129,4.17399l-4.4258,0z" id="svg_38"/>
    </g>
    <path fill="#ffd500" d="m11.41382,74.98439l-11.05254,0.0003l8.1478,14.5153l20.91214,0l8.1478,-14.5153l-11.0536,-0.0003l-7.5436,-14.48439l-7.558,14.48439z" id="svg_39"/>
    <path fill-rule="evenodd" fill="#005bbb" d="m149.63872,79.59749l-105.9474,0l0,9.7178l105.9474,0l0,-9.7178zm-62.2372,7.3477c-0.3538,0 -0.6842,-0.0364 -0.992,-0.1093s-0.5922,-0.1798 -0.8547,-0.3207c-0.2625,-0.1457 -0.4995,-0.3279 -0.7118,-0.5466l0.3637,-0.4737c0.3177,0.3206 0.658,0.5539 1.0217,0.6996c0.3629,0.1458 0.7542,0.2187 1.1731,0.2187c0.3325,0 0.6354,-0.0364 0.9078,-0.1094c0.2724,-0.0777 0.4917,-0.1919 0.6587,-0.3425c0.1663,-0.1506 0.2469,-0.3328 0.242,-0.5466c0,-0.1458 -0.0453,-0.2649 -0.1366,-0.3572c-0.0905,-0.0923 -0.2094,-0.1676 -0.3552,-0.2259c-0.1415,-0.0583 -0.2978,-0.102 -0.4698,-0.1312c-0.1712,-0.034 -0.3354,-0.0583 -0.4917,-0.0728c-0.1564,-0.0195 -0.2922,-0.0365 -0.4083,-0.0511c-0.3078,-0.0437 -0.5979,-0.0947 -0.8703,-0.1531c-0.2724,-0.0583 -0.5122,-0.1384 -0.7188,-0.2405c-0.2073,-0.102 -0.3687,-0.2332 -0.4847,-0.3935c-0.116,-0.1652 -0.1741,-0.3693 -0.1741,-0.6123c0,-0.2332 0.0552,-0.4397 0.1663,-0.6194c0.1161,-0.1798 0.2781,-0.3329 0.4847,-0.4592c0.2066,-0.1264 0.4464,-0.2211 0.7189,-0.2842c0.2773,-0.0632 0.5752,-0.0948 0.8929,-0.0948c0.3431,0 0.653,0.0364 0.9311,0.1093c0.2823,0.068 0.5342,0.1701 0.7564,0.3061c0.2271,0.1312 0.4188,0.294 0.5752,0.4883l-0.3856,0.4228c-0.1514,-0.1701 -0.3255,-0.3134 -0.5222,-0.4301c-0.1917,-0.1214 -0.404,-0.2137 -0.6361,-0.2769c-0.2271,-0.0631 -0.4691,-0.0948 -0.7266,-0.0948c-0.3021,0 -0.5752,0.0365 -0.8172,0.1094s-0.4366,0.1724 -0.5823,0.2988c-0.1415,0.1263 -0.2123,0.2794 -0.2123,0.4592c0,0.1652 0.0481,0.3012 0.1436,0.4081c0.0963,0.1069 0.2272,0.1919 0.3941,0.2551c0.1713,0.0632 0.368,0.1142 0.5901,0.1531c0.2222,0.034 0.4614,0.0679 0.7189,0.102c0.2675,0.0291 0.5321,0.068 0.7946,0.1166c0.2674,0.0486 0.5122,0.119 0.7337,0.2114c0.2222,0.0874 0.3991,0.2113 0.53,0.3717c0.1365,0.1603 0.2044,0.3765 0.2044,0.6486c0,0.311 -0.1011,0.5855 -0.3028,0.8236c-0.2016,0.2332 -0.4868,0.4154 -0.8554,0.5466c-0.363,0.1313 -0.7946,0.1968 -1.2934,0.1968zm-36.8503,-0.1895c0.3834,0.1264 0.7997,0.1895 1.2487,0.1895c0.3279,0 0.6382,-0.0413 0.9309,-0.1239c0.2925,-0.0826 0.5599,-0.1871 0.8021,-0.3134c0.2422,-0.1312 0.4339,-0.26 0.5752,-0.3863l-0.2801,-0.4883c-0.1412,0.1215 -0.3128,0.243 -0.5146,0.3644c-0.1968,0.1166 -0.4213,0.2114 -0.6735,0.2843c-0.2472,0.0729 -0.5196,0.1093 -0.8173,0.1093c-0.3532,0 -0.6836,-0.0486 -0.9914,-0.1458c-0.3077,-0.0971 -0.5802,-0.2356 -0.8173,-0.4154s-0.4237,-0.396 -0.56,-0.6486c-0.1312,-0.2576 -0.1968,-0.5467 -0.1968,-0.8674c0,-0.3012 0.0631,-0.5757 0.1892,-0.8236c0.1312,-0.2477 0.3103,-0.4616 0.5373,-0.6414c0.2271,-0.1797 0.4869,-0.3182 0.7795,-0.4154c0.2977,-0.0971 0.6105,-0.1457 0.9384,-0.1457c0.2876,0 0.56,0.0364 0.8173,0.1093c0.2624,0.0681 0.502,0.1628 0.719,0.2843c0.2169,0.1166 0.4036,0.2526 0.5599,0.4081l0.3481,-0.5029c-0.1563,-0.1507 -0.3632,-0.2891 -0.6205,-0.4154c-0.2522,-0.1312 -0.5297,-0.2357 -0.8324,-0.3134c-0.3028,-0.0826 -0.6155,-0.1239 -0.9384,-0.1239c-0.4339,0 -0.84,0.0631 -1.2184,0.1895c-0.3784,0.1263 -0.7088,0.3061 -0.9914,0.5393c-0.2825,0.2333 -0.5045,0.5078 -0.6659,0.8236c-0.1564,0.3109 -0.2346,0.6535 -0.2346,1.0276c0,0.3839 0.0782,0.7386 0.2346,1.0641c0.1614,0.3207 0.3834,0.5976 0.6659,0.8309c0.2876,0.2332 0.6231,0.4154 1.0065,0.5466zm18.5525,-4.9852l-2.5806,5.1019l0.6205,0l0.6721,-1.3338l3.2584,0l0.6708,1.3338l0.658,0l-2.5576,-5.1019l-0.7416,0zm1.6917,3.2142l-0.9349,-1.8586c-0.0656,-0.1457 -0.1212,-0.2623 -0.1665,-0.3498c-0.0404,-0.0874 -0.0782,-0.1628 -0.1136,-0.2259c-0.0353,-0.0632 -0.0706,-0.1336 -0.1059,-0.2114c-0.0087,-0.0224 -0.0178,-0.0465 -0.0274,-0.0725c-0.0171,0.04 -0.0332,0.0764 -0.0483,0.109c-0.0353,0.0826 -0.0706,0.1603 -0.1059,0.2332c-0.0353,0.068 -0.0757,0.1433 -0.1211,0.2259c-0.0404,0.0826 -0.0933,0.1919 -0.1589,0.328l-0.9181,1.8221l2.7006,0zm32.1873,1.3118l0,0.5759l3.36,0l0,-0.5759l-1.385,0l0,-3.9502l1.385,0l0,-0.5758l-3.36,0l0,0.5758l1.385,0l0,3.9502l-1.385,0zm16.946,0.5759l0,-5.1019l0.606,0l4.474,4.3742c-0.006,-0.072 -0.012,-0.1525 -0.017,-0.2417c-0.005,-0.1944 -0.012,-0.4033 -0.022,-0.6268l-0.016,-0.6632c0,-0.2187 -0.002,-0.413 -0.008,-0.5831l0,-2.2594l0.591,0l0,5.1019l-0.628,0l-4.485,-4.3338c0.002,0.0346 0.003,0.0725 0.005,0.1138c0.01,0.1263 0.02,0.2746 0.03,0.4446c0.01,0.1652 0.02,0.3377 0.031,0.5175c0.009,0.1798 0.017,0.3522 0.022,0.5174s0.007,0.3062 0.007,0.4227l0,2.3178l-0.59,0zm20.654,-0.124c0.394,0.1313 0.825,0.1968 1.294,0.1968s0.898,-0.0655 1.287,-0.1968c0.388,-0.1312 0.726,-0.3158 1.014,-0.5539c0.287,-0.238 0.51,-0.515 0.666,-0.8308c0.161,-0.3207 0.242,-0.6633 0.242,-1.0277c0,-0.3693 -0.081,-0.7118 -0.242,-1.0277c-0.156,-0.3207 -0.379,-0.6 -0.666,-0.8381c-0.288,-0.2381 -0.626,-0.4227 -1.014,-0.5539c-0.389,-0.1312 -0.818,-0.1968 -1.287,-0.1968s-0.9,0.0656 -1.294,0.1968c-0.388,0.1312 -0.726,0.3183 -1.014,0.5612c-0.282,0.238 -0.502,0.515 -0.658,0.8308c-0.157,0.3159 -0.235,0.6584 -0.235,1.0277c0,0.3644 0.078,0.707 0.235,1.0277c0.156,0.3158 0.376,0.5928 0.658,0.8308c0.288,0.2332 0.626,0.4179 1.014,0.5539zm2.339,-0.5174c-0.318,0.102 -0.666,0.153 -1.045,0.153c-0.383,0 -0.733,-0.051 -1.052,-0.153c-0.318,-0.1021 -0.592,-0.2454 -0.824,-0.4301c-0.227,-0.1895 -0.404,-0.4081 -0.53,-0.6559c-0.121,-0.2478 -0.182,-0.5174 -0.182,-0.809s0.061,-0.5637 0.182,-0.8163c0.126,-0.2527 0.303,-0.4713 0.53,-0.6559c0.232,-0.1847 0.506,-0.328 0.824,-0.4301c0.319,-0.1068 0.669,-0.1603 1.052,-0.1603c0.379,0 0.727,0.0535 1.045,0.1603c0.317,0.1021 0.593,0.2454 0.825,0.4301c0.232,0.1846 0.411,0.4032 0.537,0.6559c0.126,0.2526 0.189,0.5247 0.189,0.8163s-0.063,0.5612 -0.189,0.809s-0.305,0.4664 -0.537,0.6559c-0.232,0.1847 -0.508,0.328 -0.825,0.4301z" clip-rule="evenodd" id="svg_40"/>
   </g>
  </g>
  <g id="svg_41" stroke="null">
   <g id="svg_42" stroke="null">
    <path id="svg_43" d="m32.24307,15.66229l-2.67574,0l-0.97099,-1.98595l-4.71197,0l-0.95641,1.98595l-2.66791,0l4.75714,-10.08511l2.45842,0l4.76746,10.08511zm-7.50224,-3.88564l3.02181,0l-1.51197,-3.29485l-1.50984,3.29485z" fill="#ffffff" fill-rule="nonzero" stroke="null"/>
    <path id="svg_45" d="m35.54586,15.66229l-2.45878,0l0,-7.05021l2.42321,0l0,0.48918c0.53991,-0.43216 1.26371,-0.66996 2.01418,-0.66198c2.08638,0 3.45644,1.12162 3.45644,3.12115l0,4.10187l-2.45842,0l0,-3.94324c0,-0.74706 -0.41045,-1.38038 -1.40598,-1.38038c-1.16305,0 -1.56461,0.72047 -1.56461,1.80103l-0.00889,3.52614" fill="#ffffff" fill-rule="nonzero" stroke="null"/>
    <path id="svg_46" d="m50.76729,12.91422c-0.40013,1.71211 -1.96297,2.90581 -4.25991,2.90581c-2.57046,0 -4.47972,-1.56885 -4.47972,-3.68388c0,-2.11503 1.91246,-3.69688 4.47972,-3.69688c2.23932,0 3.80251,1.15263 4.11657,2.81955l-2.70632,0c-0.09319,-0.26527 -0.29023,-0.49715 -0.5609,-0.65873c-0.27031,-0.16129 -0.59789,-0.24311 -0.93116,-0.23248c-1.04319,0 -1.87583,0.73347 -1.87583,1.76854c0,1.03507 0.8337,1.7706 1.91246,1.7706c0.36314,0.01063 0.71953,-0.08212 1.01047,-0.26261c0.29059,-0.18078 0.49794,-0.43837 0.58757,-0.72992l2.71059,0" fill="#ffffff" fill-rule="nonzero" stroke="null"/>
    <path id="svg_47" d="m54.2369,15.66229l-2.45771,0l0,-10.08511l2.45771,0l0,3.43457c0.55663,-0.38047 1.25873,-0.58488 1.98039,-0.57632c2.08638,0 3.45395,1.12162 3.45395,3.12145l0,4.10187l-2.457,0l0,-3.93969c0,-0.74706 -0.41009,-1.38038 -1.4074,-1.38038c-1.16412,0 -1.56497,0.72047 -1.56497,1.80103l-0.00498,3.5226l0.00001,-0.00002z" fill="#ffffff" fill-rule="nonzero" stroke="null"/>
    <path id="svg_48" d="m65.23825,8.43927c2.56903,0 4.532,1.5848 4.532,3.69688c0,2.11208 -1.96297,3.68388 -4.532,3.68388c-2.56868,0 -4.53342,-1.56885 -4.53342,-3.68388c0,-2.11503 1.96474,-3.69688 4.53342,-3.69688zm0,5.48107c1.16163,0 2.01454,-0.74824 2.01454,-1.78419c0,-1.03595 -0.85291,-1.7836 -2.01454,-1.7836c-1.16128,0 -2.01489,0.74853 -2.01489,1.7836c0,1.03507 0.85184,1.78419 2.01489,1.78419z" fill="#ffffff" fill-rule="nonzero" stroke="null"/>
    <path id="svg_49" d="m76.46938,11.02901c-0.43855,-0.34089 -1.01332,-0.53526 -1.61441,-0.54619c-0.74763,0 -1.58133,0.33941 -1.58133,1.36886l0,3.81267l-2.45842,0l0,-7.05228l2.42392,0l0,0.58931c-0.01672,0 0.48763,-0.69093 1.7019,-0.69093c0.28418,-0.01063 0.5673,0.02924 0.83121,0.11727c0.26355,0.08773 0.5015,0.22155 0.69712,0.39199l0,2.00928" fill="#ffffff" fill-rule="nonzero" stroke="null"/>
    <path id="svg_50" d="m77.84833,14.93916l0,-1.72895l0.8867,0c0.16397,-0.0062 0.32793,0.00945 0.48585,0.04667c0.10101,0.03131 0.18637,0.0895 0.24257,0.16572c0.05975,0.08212 0.08999,0.17665 0.08714,0.27235c0.00249,0.08862 -0.02383,0.17606 -0.07647,0.25286c-0.01778,0.02422 -0.03841,0.04726 -0.06082,0.06853c-0.09319,0.08064 -0.21518,0.13441 -0.34785,0.15331c0.05762,0.04815 0.11275,0.09866 0.16432,0.15124c0.08892,0.08803 0.1693,0.18167 0.23972,0.28033c0.05406,0.07208 0.14085,0.18787 0.25502,0.33705l-0.50363,0l-0.3041,-0.37604c-0.06758,-0.08832 -0.14191,-0.1731 -0.22265,-0.25345c-0.0345,-0.0322 -0.07754,-0.05672 -0.12591,-0.07208c-0.069,-0.01536 -0.14085,-0.02215 -0.21234,-0.0195l-0.08678,0l0,0.72047l-0.42076,0.00148l-0.00001,0.00001zm0.42147,-0.99696l0.30873,0c0.12662,0.00502 0.2536,-0.00207 0.37808,-0.02097c0.04802,-0.0127 0.08963,-0.03811 0.11844,-0.07208c0.02988,-0.0387 0.04481,-0.08389 0.04268,-0.12968c0.00391,-0.05199 -0.01601,-0.10339 -0.05584,-0.14415c-0.04161,-0.03722 -0.09817,-0.06115 -0.15899,-0.06765c-0.03414,-0.00354 -0.13658,-0.00591 -0.30695,-0.00591l-0.32864,0.0003l0.00249,0.44014z" fill="#ffffff" fill-rule="nonzero" stroke="null"/>
    <path id="svg_51" d="m78.63152,15.61975c-0.2447,0.0003 -0.48727,-0.03929 -0.71348,-0.11698c-0.22621,-0.07769 -0.43143,-0.19171 -0.60429,-0.33527c-0.08429,-0.07001 -0.16076,-0.14652 -0.22799,-0.22834c-0.24221,-0.29717 -0.35212,-0.65489 -0.3105,-1.01203c0.04161,-0.35684 0.2319,-0.69064 0.53849,-0.94379c0.08394,-0.0703 0.17641,-0.13352 0.27565,-0.18876c0.30766,-0.1731 0.67116,-0.26556 1.04319,-0.26556c0.37168,0 0.73518,0.09246 1.04319,0.26556c0.09888,0.05524 0.19135,0.11845 0.27529,0.18876c0.17037,0.14061 0.30624,0.30721 0.40013,0.49065c0.12093,0.23661 0.16823,0.49479 0.138,0.7509c-0.03023,0.25581 -0.13765,0.50129 -0.31193,0.71427c-0.06722,0.08182 -0.14334,0.15833 -0.22763,0.22834c-0.17286,0.14386 -0.37808,0.25788 -0.60429,0.33557c-0.22621,0.07769 -0.46878,0.11727 -0.71384,0.11668l0.00001,0zm0,-2.95839c-0.33753,0 -0.66724,0.08271 -0.94787,0.23809c-0.28098,0.15538 -0.49937,0.37633 -0.62883,0.63481c-0.12911,0.25818 -0.1629,0.54264 -0.0971,0.81706c0.0658,0.27413 0.22834,0.5261 0.467,0.72402c0.23866,0.19762 0.54276,0.33232 0.87389,0.38697c0.33113,0.05435 0.67436,0.02659 0.98593,-0.08064c0.31193,-0.10693 0.57833,-0.28801 0.76612,-0.52078c0.18744,-0.23248 0.28738,-0.50572 0.28738,-0.78546c0,-0.37515 -0.17997,-0.73465 -0.50008,-0.99992c-0.32011,-0.26497 -0.75403,-0.41415 -1.20645,-0.41415l0.00001,0z" fill="#ffffff" fill-rule="nonzero" stroke="null"/>
    <path id="svg_52" d="m51.60526,22.6549l-0.52782,0l0,-3.40946l0.52782,0l0,1.46457c0.08181,-0.11757 0.20238,-0.21298 0.34785,-0.27531c0.17143,-0.0768 0.36457,-0.1152 0.55983,-0.11077c0.398,0 0.70708,0.11136 0.92653,0.33409c0.21625,0.25079 0.33149,0.5518 0.32971,0.8599c-0.00213,0.3081 -0.12128,0.60792 -0.34074,0.85665c-0.11346,0.11284 -0.25644,0.20235 -0.41827,0.26143c-0.16183,0.05937 -0.33789,0.08685 -0.51466,0.08005c-0.40582,0 -0.70139,-0.13027 -0.8867,-0.3911l-0.00356,0.32996l0.00001,-0.00001zm1.39104,-0.55534c0.15579,-0.16838 0.23439,-0.37722 0.22159,-0.58931c0.01387,-0.20944 -0.06402,-0.41562 -0.2191,-0.58134c-0.07149,-0.0709 -0.16183,-0.12702 -0.26355,-0.16454c-0.10172,-0.03752 -0.21269,-0.05494 -0.32402,-0.05169c-0.11097,-0.00236 -0.22123,0.01566 -0.3226,0.05317c-0.10137,0.03722 -0.19135,0.09305 -0.26355,0.16306c-0.15792,0.16276 -0.23866,0.36777 -0.22692,0.57632c-0.01174,0.2118 0.06865,0.42005 0.22692,0.58636c0.07078,0.07208 0.16005,0.12968 0.26178,0.16838c0.10137,0.03899 0.21234,0.0579 0.32437,0.05553c0.11133,0.00384 0.22194,-0.01359 0.32366,-0.0511c0.10208,-0.03752 0.19206,-0.09394 0.2632,-0.16483l-0.00178,0l0,-0.00001z" fill="#ffffff" fill-rule="nonzero" stroke="null"/>
    <path id="svg_53" d="m55.01938,23.60165l-0.58615,-0.0003l0.68254,-1.19635l-1.17621,-2.01696l0.61354,0l0.8522,1.56383l0.81876,-1.56383l0.5737,0l-1.77837,3.21361l-0.00001,0z" fill="#ffffff" fill-rule="nonzero" stroke="null"/>
    <path id="svg_54" d="m61.35251,20.07373l-0.50008,0.14415c-0.03094,-0.15065 -0.12093,-0.2889 -0.25537,-0.39317c-0.16148,-0.11136 -0.3635,-0.1734 -0.57335,-0.17635c-0.20985,-0.00325 -0.41472,0.05317 -0.58046,0.15981c-0.07042,0.04785 -0.12662,0.10841 -0.16503,0.17665c-0.03841,0.06853 -0.05762,0.14327 -0.05655,0.21859c-0.00391,0.11402 0.04339,0.2248 0.13302,0.31135c0.10172,0.09069 0.23617,0.15183 0.38342,0.17428l0.60251,0.10811c0.29414,0.04224 0.56481,0.1601 0.77359,0.33705c0.18104,0.16335 0.27849,0.3784 0.27209,0.60024c0.00071,0.13234 -0.03379,0.26349 -0.1003,0.38372c-0.06651,0.12052 -0.16397,0.22745 -0.28561,0.31342c-0.25786,0.19467 -0.59326,0.29185 -1.00585,0.29185c-0.45171,0 -0.80525,-0.09837 -1.06062,-0.29481c-0.24577,-0.18049 -0.40405,-0.42862 -0.44602,-0.69861l0.53458,-0.14415c0.01778,0.1926 0.1188,0.37338 0.28418,0.50926c0.09105,0.0709 0.19811,0.12584 0.31548,0.16129c0.11702,0.03574 0.2415,0.0511 0.36634,0.04549c0.26533,0 0.46985,-0.05022 0.61354,-0.15065c0.069,-0.04549 0.12413,-0.10368 0.16183,-0.16985c0.03735,-0.06617 0.05584,-0.13884 0.05371,-0.2118c0.00249,-0.12141 -0.05264,-0.23868 -0.15294,-0.327c-0.12164,-0.10103 -0.27849,-0.16778 -0.44851,-0.19083l-0.57477,-0.10398c-0.27174,-0.04106 -0.52177,-0.15095 -0.71526,-0.3146c-0.18104,-0.16247 -0.27707,-0.37781 -0.26782,-0.59877c0.00107,-0.13204 0.03663,-0.26231 0.10386,-0.38224c0.06687,-0.11964 0.16432,-0.22627 0.28561,-0.31223c0.25431,-0.19762 0.59184,-0.30485 0.94076,-0.29894c0.41294,0 0.72949,0.0833 0.94929,0.24931c0.20985,0.15272 0.35532,0.35713 0.41472,0.58341l0.00001,0z" fill="#ffffff" fill-rule="nonzero" stroke="null"/>
    <path id="svg_55" d="m62.45475,23.54966l-0.52853,0l0,-3.16015l0.51715,0l0,0.35359c0.08429,-0.12318 0.20843,-0.2245 0.35816,-0.29244c0.17072,-0.07739 0.36279,-0.11609 0.55734,-0.11255c0.39409,0 0.70175,0.11166 0.92333,0.33439c0.21696,0.24813 0.33291,0.54707 0.33113,0.85369c-0.00213,0.30662 -0.122,0.60468 -0.34251,0.85074c-0.1131,0.11166 -0.25609,0.20028 -0.41721,0.25906c-0.16112,0.05878 -0.33611,0.08626 -0.51217,0.08005c-0.18566,0.00325 -0.36919,-0.03249 -0.53387,-0.10368c-0.14369,-0.06026 -0.26533,-0.15124 -0.35283,-0.26349l0,1.20078l0.00001,0.00001zm1.61441,-2.02996c0.0096,-0.20441 -0.06793,-0.40528 -0.2191,-0.56686c-0.07007,-0.07296 -0.1597,-0.13116 -0.26178,-0.17015c-0.10208,-0.0387 -0.21376,-0.05731 -0.3258,-0.05406c-0.11239,-0.00266 -0.22407,0.01595 -0.32615,0.05494c-0.10208,0.0387 -0.19206,0.09659 -0.26249,0.16897c-0.15436,0.1607 -0.23403,0.36186 -0.22443,0.56716c-0.01031,0.20796 0.069,0.41237 0.22443,0.57632c0.07042,0.07237 0.16041,0.13027 0.26249,0.16897c0.10208,0.03899 0.21376,0.0579 0.32615,0.05494c0.11168,0.00295 0.22265,-0.01595 0.32437,-0.05465c0.10137,-0.03899 0.19064,-0.09689 0.26071,-0.16926c0.15365,-0.16454 0.23226,-0.36865 0.22159,-0.57632l0.00001,0z" fill="#ffffff" fill-rule="nonzero" stroke="null"/>
    <path id="svg_56" d="m65.46446,20.66039c0.26711,-0.21889 0.62741,-0.34148 1.00265,-0.34148c0.37559,0 0.73589,0.12259 1.003,0.34118c0.13124,0.11461 0.23368,0.24931 0.30161,0.39701c0.06793,0.1474 0.09994,0.30455 0.0939,0.46259c0.0064,0.15833 -0.0249,0.31607 -0.09212,0.46436c-0.06758,0.14829 -0.1693,0.28417 -0.30019,0.39997c-0.26818,0.21889 -0.62954,0.34148 -1.0062,0.34148c-0.3763,0 -0.73802,-0.12259 -1.0062,-0.34148c-0.13053,-0.1158 -0.23261,-0.25168 -0.29983,-0.39997c-0.06722,-0.14829 -0.09852,-0.30603 -0.09212,-0.46436c-0.00605,-0.15804 0.02596,-0.31519 0.09354,-0.46259c0.06793,-0.1477 0.17072,-0.2824 0.30197,-0.39701l0,0.0003l-0.00001,0zm0.39729,1.45512c0.07825,0.06794 0.17215,0.122 0.276,0.15892c0.10421,0.03692 0.21625,0.05583 0.32935,0.05583c0.11346,0 0.22514,-0.01891 0.32935,-0.05583c0.10421,-0.03692 0.19811,-0.09098 0.27636,-0.15892c0.16397,-0.14386 0.24613,-0.34266 0.24684,-0.59552c0,-0.25079 -0.08714,-0.44812 -0.24684,-0.59079c-0.07825,-0.06794 -0.17215,-0.1217 -0.27636,-0.15863c-0.10421,-0.03692 -0.21589,-0.05613 -0.32935,-0.05613c-0.1131,0 -0.22514,0.0192 -0.32935,0.05613c-0.10386,0.03692 -0.19775,0.09069 -0.276,0.15863c-0.16432,0.14415 -0.24684,0.34 -0.24684,0.59079c0,0.2505 0.08252,0.45314 0.24684,0.59552z" fill="#ffffff" fill-rule="nonzero" stroke="null"/>
    <path id="svg_57" d="m69.23497,19.67347l0,0.71515l0.59113,0l0,0.40056l-0.59113,0l0,1.17774c-0.00925,0.04283 -0.00534,0.08685 0.01067,0.1282c0.01601,0.04165 0.0441,0.07917 0.08145,0.10959c0.03735,0.03043 0.08323,0.05317 0.13338,0.06587c0.05051,0.01241 0.1035,0.01477 0.15507,0.00679c0.07078,0.00089 0.14156,-0.00561 0.21056,-0.01861l0,0.37663c-0.11737,0.03161 -0.24044,0.04608 -0.3635,0.04254c-0.10208,0.00443 -0.2038,-0.00827 -0.29983,-0.03752c-0.09568,-0.02924 -0.18317,-0.07444 -0.25751,-0.13234c-0.07113,-0.06381 -0.12555,-0.13884 -0.16076,-0.22066c-0.03521,-0.08153 -0.04979,-0.16838 -0.04339,-0.25493l0,-1.24273l-0.52177,0l0,-0.40026l0.14796,-0.0003c0.05797,0.00384 0.11595,-0.00295 0.17037,-0.0195c0.05442,-0.01654 0.10386,-0.04283 0.14512,-0.0768c0.07256,-0.06971 0.11026,-0.15951 0.10528,-0.25138l0,-0.36836l0.48692,0l0,0.0003l-0.00002,0.00002z" fill="#ffffff" fill-rule="nonzero" stroke="null"/>
    <path id="svg_58" d="m70.52749,19.75618c-0.03592,-0.02895 -0.06402,-0.06381 -0.08323,-0.10221c-0.01885,-0.0384 -0.0281,-0.07976 -0.02703,-0.12111c-0.00107,-0.04195 0.00818,-0.0836 0.02739,-0.12229c0.01885,-0.03899 0.04695,-0.07444 0.08287,-0.10398c0.03486,-0.03043 0.07683,-0.05435 0.12342,-0.0706c0.04624,-0.01625 0.09639,-0.02452 0.14689,-0.02363c0.05086,-0.00059 0.10101,0.00709 0.14796,0.02304c0.04695,0.01595 0.08927,0.03929 0.1252,0.06912c0.03699,0.02954 0.06616,0.06499 0.08536,0.10427c0.01956,0.03929 0.02881,0.08153 0.02774,0.12407c0.00071,0.04165 -0.00889,0.08301 -0.0281,0.12141c-0.01956,0.0387 -0.04837,0.07326 -0.08501,0.10191c-0.03592,0.02983 -0.07825,0.05317 -0.1252,0.06912c-0.04695,0.01566 -0.0971,0.02363 -0.14796,0.02304c-0.05015,0.00059 -0.09994,-0.00709 -0.14654,-0.02304c-0.04659,-0.01566 -0.08856,-0.03929 -0.12377,-0.06912l0.00001,0zm0.53742,2.89872l-0.52853,0l0,-2.26569l0.52853,0l0,2.26569z" fill="#ffffff" fill-rule="nonzero" stroke="null"/>
    <path id="svg_59" d="m73.3494,20.78977l-0.65906,0l0,1.86513l-0.55094,0l0,-1.86513l-0.50612,0l0,-0.40026l0.50612,-0.0003l0,-0.38106c-0.00711,-0.10427 0.01209,-0.20884 0.05584,-0.30692c0.0441,-0.09807 0.11204,-0.18758 0.19953,-0.2629c0.08501,-0.06853 0.18531,-0.12229 0.29592,-0.15774c0.11026,-0.03574 0.22834,-0.05258 0.34678,-0.04963c0.16254,0 0.26889,0.01595 0.31797,0.04756l0,0.39465c-0.07505,-0.02097 -0.15401,-0.03043 -0.23297,-0.02806c-0.11061,-0.00177 -0.21838,0.02865 -0.3041,0.08655c-0.08714,0.05849 -0.12804,0.15833 -0.12804,0.29953l0,0.36038l0.65906,0l0,0.39819l0.00001,0.00001z" fill="#ffffff" fill-rule="nonzero" stroke="null"/>
    <path id="svg_60" d="m74.69065,23.60165l-0.5858,-0.0003l0.68254,-1.19635l-1.17621,-2.01696l0.61354,0l0.8522,1.56383l0.81876,-1.56383l0.5737,0l-1.77873,3.21361z" fill="#ffffff" fill-rule="nonzero" stroke="null"/>
    <path id="svg_61" d="m17.28946,7.72471c0,0 -0.65195,-0.2567 -1.32844,-0.0901c-0.50577,0.12377 -1.06062,0.44221 -1.3761,1.1036c-0.60856,1.26843 -0.08181,3.48065 -0.28774,3.48065c-0.20594,0 -0.85469,-2.03853 -1.72217,-4.16154c-0.86749,-2.12271 -1.61796,-4.32784 -2.97237,-4.15002c-1.20147,0.15715 -0.82837,2.67126 -0.35816,5.02616c0.4261,2.13424 0.91906,4.13259 0.63737,4.13259c-0.50328,0.00089 -2.15503,-5.89906 -3.84768,-5.67515c-1.69265,0.22421 0.48763,6.72469 0.02952,6.73709c-0.37666,0.01004 -1.29963,-3.95712 -2.66969,-3.77486c-1.03821,0.13825 -0.1131,3.22454 -0.07042,4.08532c0.01031,0.21593 0.09105,0.62092 -0.29912,0.62092l-0.77466,0l0,0.59995l1.26833,0c0.26071,-0.01004 0.467,-0.09275 0.57121,-0.30544c0.35212,-0.72018 -0.57299,-3.78048 -0.35639,-3.80263c0.14867,-0.01507 0.46949,0.91632 0.91728,1.9694c0.44744,1.05309 0.8963,2.14516 1.74636,2.14516c1.8335,0 -0.03663,-5.97025 0.32686,-5.97025c0.19206,0 0.71633,1.2129 1.29288,2.54365c0.70495,1.62586 1.56461,3.42896 2.60282,3.42896c1.23881,0 0.83512,-2.3292 0.45206,-4.56062c-0.3322,-1.9313 -0.72166,-3.74621 -0.51395,-3.74621c0.46771,0.0003 2.23328,8.30387 4.35381,8.30387c1.0624,0 1.07449,-1.73604 1.07449,-3.60767c0,-1.31481 -0.13231,-2.51264 0.86215,-2.80065c0.47305,-0.13706 0.95107,0.10575 0.95107,0.10575l-0.50933,-1.63797l0.00001,0.00004z" fill="#ffffff" fill-rule="nonzero" stroke="null"/>
   </g>
  </g>
 </g>
</svg>