<svg width="20" height="20" xmlns="http://www.w3.org/2000/svg" fill="none">


 <g>
  <title>Layer 1</title>
  <g stroke="null" id="svg_15">
   <path stroke="null" id="svg_14" fill="#ffffff" d="m10.265087,1.986224c-4.521416,0 -8.186921,3.671899 -8.186921,8.201323c0,4.529619 3.665505,8.201225 8.186921,8.201225c4.521904,0 8.187019,-3.671605 8.187019,-8.201225c0,-4.529129 -3.665114,-8.200931 -8.187117,-8.200931l0.000098,-0.000392zm3.754469,11.828661a0.510027,0.51093 0 0 1 -0.701934,0.169429c-1.922205,-1.176206 -4.342022,-1.442591 -7.191797,-0.79034a0.510516,0.51142 0 0 1 -0.610918,-0.384887a0.509636,0.510538 0 0 1 0.383815,-0.612097c3.118622,-0.713755 5.793696,-0.406433 7.951705,0.914718c0.240496,0.147883 0.31675,0.462256 0.169129,0.703178zm1.002065,-2.233127c-0.184771,0.300858 -0.577776,0.395856 -0.877907,0.210757c-2.200633,-1.355037 -5.555156,-1.747465 -8.158081,-0.955949c-0.337574,0.102147 -0.694113,-0.088436 -0.796568,-0.42602a0.639171,0.640303 0 0 1 0.425658,-0.79749c2.973249,-0.90375 6.66955,-0.465978 9.196709,1.089729c0.300131,0.185098 0.39496,0.578799 0.210189,0.87907l0,-0.000098zm0.086031,-2.325383c-2.638609,-1.570006 -6.991971,-1.714363 -9.511211,-0.948408c-0.404541,0.122909 -0.83235,-0.105868 -0.954944,-0.511126a0.765969,0.767325 0 0 1 0.510418,-0.956929c2.891911,-0.879462 7.69938,-0.709543 10.73725,1.097075a0.764796,0.76615 0 0 1 0.267869,1.051143c-0.215077,0.364516 -0.686292,0.484683 -1.048991,0.268246l-0.000391,0zm9.244417,0.300858c-1.413645,-0.337682 -1.664895,-0.574686 -1.664895,-1.072689c0,-0.470483 0.441886,-0.787108 1.099828,-0.787108c0.637411,0 1.268957,0.240432 1.931786,0.735398c0.019552,0.014984 0.044971,0.020958 0.069411,0.017041a0.091212,0.091374 0 0 0 0.06159,-0.037803l0.690203,-0.974655a0.092874,0.093039 0 0 0 -0.017597,-0.126141c-0.788943,-0.633937 -1.676626,-0.94214 -2.714863,-0.94214c-1.526072,0 -2.59266,0.917559 -2.59266,2.230385c0,1.407824 0.919945,1.906316 2.509562,2.291105c1.352055,0.312121 1.580819,0.573609 1.580819,1.040957c0,0.518079 -0.461439,0.840287 -1.204433,0.840287c-0.825115,0 -1.498698,-0.279116 -2.251469,-0.931368a0.095807,0.095977 0 0 0 -0.067456,-0.022525c-0.025418,0.001959 -0.047904,0.013711 -0.063546,0.032319l-0.774279,0.922553c-0.032262,0.039174 -0.028351,0.095977 0.008799,0.129275c0.875952,0.783485 1.953294,1.196773 3.116667,1.196773c1.644364,0 2.707042,-0.900028 2.707042,-2.293652c0.002933,-1.175913 -0.699979,-1.827184 -2.421576,-2.24674l-0.002933,-0.001273zm6.145348,-1.396562c-0.712688,0 -1.297308,0.281271 -1.780254,0.857622l0,-0.648725a0.092386,0.092549 0 0 0 -0.091897,-0.092941l-1.266024,0c-0.050836,0 -0.091897,0.041721 -0.091897,0.092941l0,7.208158c0,0.050927 0.04106,0.093039 0.091897,0.093039l1.266024,0c0.050836,0 0.091897,-0.042112 0.091897,-0.093039l0,-2.275044c0.482947,0.541584 1.067566,0.806989 1.780254,0.806989c1.324681,0 2.665982,-1.021468 2.665982,-2.974206c0.001955,-1.95313 -1.339346,-2.974892 -2.665004,-2.974892l-0.000978,0.000098zm1.19368,2.974794c0,0.993948 -0.611015,1.688312 -1.486967,1.688312c-0.865198,0 -1.518251,-0.725703 -1.518251,-1.688312c0,-0.962707 0.653053,-1.688214 1.518251,-1.688214c0.861287,-0.000098 1.486967,0.709739 1.486967,1.688116l0,0.000098zm4.908653,-2.974794c-1.705955,0 -3.042368,1.315863 -3.042368,2.996046c0,1.662163 1.327614,2.963727 3.021837,2.963727c1.711821,0 3.052144,-1.311358 3.052144,-2.984979c0,-1.667941 -1.331525,-2.974598 -3.031614,-2.974598l0,-0.000196zm0,4.672899c-0.907236,0 -1.591573,-0.7306 -1.591573,-1.698595c0,-0.972403 0.660874,-1.678028 1.571043,-1.678028c0.913101,0 1.601349,0.730306 1.601349,1.69928c0,0.972207 -0.664785,1.677343 -1.580819,1.677343zm6.674243,-4.556943l-1.393115,0l0,-1.42653a0.092288,0.092451 0 0 0 -0.091897,-0.092843l-1.266024,0c-0.050836,0 -0.092874,0.041721 -0.092874,0.092843l0,1.42653l-0.608082,0c-0.050836,0 -0.091897,0.041721 -0.091897,0.092941l0,1.089729c0,0.051122 0.04106,0.092941 0.091897,0.092941l0.608082,0l0,2.820055c0,1.138991 0.566045,1.716811 1.683469,1.716811c0.453618,0 0.830003,-0.094018 1.184881,-0.295765c0.029329,-0.01567 0.046926,-0.047009 0.046926,-0.080307l0,-1.038117c0,-0.031339 -0.01662,-0.061699 -0.043993,-0.078348a0.089746,0.089905 0 0 0 -0.089941,-0.003917c-0.243429,0.122419 -0.479036,0.179222 -0.742995,0.179222c-0.405714,0 -0.587552,-0.185098 -0.587552,-0.598386l0,-2.620757l1.393115,0c0.050836,0 0.091897,-0.041721 0.091897,-0.092941l0,-1.089631a0.089746,0.089905 0 0 0 -0.090919,-0.092941l-0.000978,-0.000588zm4.852928,0.005582l0,-0.175207c0,-0.515435 0.19748,-0.74529 0.639366,-0.74529c0.263959,0 0.476103,0.052493 0.713666,0.131821c0.029329,0.009206 0.059635,0.004603 0.083098,-0.012927a0.091897,0.092059 0 0 0 0.038127,-0.07541l0,-1.068477a0.091603,0.091766 0 0 0 -0.065501,-0.089023c-0.250272,-0.074725 -0.570933,-0.151408 -1.051924,-0.151408c-1.168261,0 -1.787098,0.659498 -1.787098,1.906512l0,0.268344l-0.608082,0c-0.050836,0 -0.092874,0.041721 -0.092874,0.092843l0,1.095312c0,0.051122 0.042038,0.092941 0.092874,0.092941l0.608082,0l0,4.34883c0,0.051906 0.042038,0.093039 0.092874,0.093039l1.265046,0c0.051814,0 0.092874,-0.041133 0.092874,-0.093039l0,-4.348536l1.181948,0l1.810561,4.348536c-0.205301,0.45638 -0.407669,0.54746 -0.68336,0.54746c-0.222898,0 -0.458506,-0.066596 -0.698024,-0.198809a0.100695,0.100874 0 0 0 -0.073322,-0.006855c-0.024441,0.008814 -0.044971,0.026443 -0.054747,0.049947l-0.429177,0.94312c-0.02053,0.04505 -0.002933,0.096956 0.040083,0.120461c0.447752,0.24288 0.851511,0.346692 1.351077,0.346692c0.934609,0 1.451772,-0.436793 1.906368,-1.610061l2.195745,-5.683888a0.09043,0.09059 0 0 0 -0.009776,-0.086281a0.090333,0.090492 0 0 0 -0.075277,-0.040349l-1.317838,0c-0.040083,0 -0.075277,0.025169 -0.087986,0.062287l-1.350099,3.861992l-1.478168,-3.864539a0.092288,0.092451 0 0 0 -0.086031,-0.059741l-2.162505,0l0,-0.000294zm-2.813603,-0.005582l-1.266024,0c-0.050836,0 -0.092874,0.041721 -0.092874,0.092941l0,5.5315c0,0.051906 0.042038,0.093039 0.092874,0.093039l1.266024,0c0.050836,0 0.092874,-0.041133 0.092874,-0.093039l0,-5.531109a0.092581,0.092745 0 0 0 -0.092874,-0.092941l0,-0.000392zm-0.62568,-2.518806c-0.501521,0 -0.908213,0.406629 -0.908213,0.90894c0,0.502605 0.406692,0.909724 0.908213,0.909724s0.907236,-0.407118 0.907236,-0.909724c0,-0.502214 -0.406692,-0.90894 -0.907236,-0.90894zm11.088217,4.297414c-0.500544,0 -0.890616,-0.403005 -0.890616,-0.892389s0.39496,-0.896992 0.895504,-0.896992s0.890616,0.402907 0.890616,0.891899c0,0.489384 -0.39496,0.897482 -0.895504,0.897482zm0.004888,-1.700652c-0.456551,0 -0.801652,0.363341 -0.801652,0.808262c0,0.444726 0.343146,0.80317 0.796764,0.80317c0.456551,0 0.801652,-0.363047 0.801652,-0.808262c0,-0.444726 -0.343146,-0.80317 -0.796764,-0.80317zm0.19748,0.894935l0.252227,0.353352l-0.213122,0l-0.226809,-0.324167l-0.194547,0l0,0.324167l-0.177928,0l0,-0.936656l0.416468,0c0.21801,0 0.360743,0.111353 0.360743,0.298801c0.000978,0.153563 -0.087986,0.247385 -0.216055,0.284503l-0.000978,0zm-0.150554,-0.422592l-0.231697,0l0,0.296255l0.231697,0c0.11536,0 0.184771,-0.056705 0.184771,-0.148274c0,-0.096369 -0.069411,-0.147981 -0.184771,-0.147981z"/>
  </g>
 </g>
</svg>