<svg width="250" height="120" xmlns="http://www.w3.org/2000/svg">
 <!-- Created with Method Draw - http://github.com/duopixel/Method-Draw/ -->

 <g>
  <title>background</title>
  <rect fill="#fff" id="canvas_background" height="122" width="252" y="-1" x="-1"/>
  <g display="none" overflow="visible" y="0" x="0" height="100%" width="100%" id="canvasGrid">
   <rect fill="url(#gridpattern)" stroke-width="0" y="2.567511" x="7.138087" height="400" width="580"/>
  </g>
 </g>
 <g>
  <title>Layer 1</title>
  <g stroke="null" id="svg_31">
   <g stroke="null" transform="matrix(3.528260093316144,0,0,4.1290343728473715,-50.585349665484365,166.29012519951522) " id="svg_14">
    <path stroke="null" fill="#005fbf" id="svg_15" d="m69.363195,22.937535l-53.572,0c-0.804,0 -1.454,0.651 -1.454,1.454l0,33.695c0,0.803 0.65,1.454 1.454,1.454l53.572,0c0.804,0 1.454,-0.651 1.454,-1.454l0,-33.695c0,-0.803 -0.65,-1.454 -1.454,-1.454zm-2.842,16.315l-0.779,0.703l-0.703,-0.781l0.78,-0.703l0.702,0.781zm-4.012,-0.68l-1.055,-1.172l1.172,-1.055l1.055,1.172l-1.172,1.055zm1.196,0.128l1.056,1.171l-1.172,1.055l-1.055,-1.171l1.171,-1.055zm-2.149,-0.388l-1.562,1.406l-1.405,-1.562l1.562,-1.406l1.405,1.562zm-0.289,1.104l1.406,1.562l-1.562,1.405l-1.406,-1.562l1.562,-1.405zm1.111,2.7l1.406,1.562l-1.562,1.408l-1.406,-1.562l1.562,-1.408zm1.157,0.115l1.172,-1.056l1.056,1.172l-1.172,1.055l-1.056,-1.171zm1.99,-5.3l-0.781,0.703l-0.703,-0.781l0.781,-0.703l0.703,0.781zm-42.998,6.914l-0.81,0l-1.019,-3.739l-0.053,0l-0.989,3.739l-0.81,0l-1.214,-5.312l0.84,0l0.839,3.964l0.053,0l0.974,-3.964l0.667,0l1.042,3.964l0.053,0l0.765,-3.964l0.877,0l-1.215,5.312zm4.648,-1.73l-2.442,0c0,0.898 0.367,1.297 1.139,1.297c0.404,0 0.779,-0.143 1.191,-0.39l0,0.569c-0.337,0.194 -0.787,0.345 -1.326,0.345c-1.259,0 -1.776,-0.779 -1.776,-1.964c0,-1.139 0.577,-1.962 1.701,-1.962c0.937,0 1.514,0.607 1.514,1.83l-0.001,0.275l0,0zm2.143,1.821c-0.397,0 -1.012,-0.128 -1.462,-0.367l0,-5.231l0.779,-0.187l0,2.136c0.226,-0.12 0.607,-0.277 1.013,-0.277c0.929,0 1.431,0.645 1.431,1.844c0,1.401 -0.674,2.082 -1.761,2.082zm7.741,-0.091l-0.809,0l0,-3.852l-0.067,0l-1.529,3.852l-0.479,0l-1.529,-3.762l-0.067,0l0,3.762l-0.674,0l0,-5.312l0.906,0l1.679,4.189l0.038,0l1.604,-4.189l0.929,0l0,5.312l-0.002,0zm2.534,0.091c-1.026,0 -1.709,-0.683 -1.709,-1.964c0,-1.312 0.72,-1.962 1.709,-1.962c0.989,0 1.709,0.652 1.709,1.962c0,1.283 -0.682,1.964 -1.709,1.964zm5.568,-0.091l-0.779,0l0,-2.541c0,-0.591 -0.291,-0.696 -0.675,-0.696c-0.3,0 -0.682,0.135 -0.914,0.27l0,2.967l-0.779,0l0,-3.282c0.337,-0.202 1.049,-0.554 1.911,-0.554c0.899,0 1.236,0.352 1.236,1.124l0,2.712zm3.912,-1.73l-2.443,0c0,0.898 0.367,1.297 1.141,1.297c0.404,0 0.779,-0.143 1.19,-0.39l0,0.569c-0.338,0.194 -0.786,0.345 -1.327,0.345c-1.259,0 -1.774,-0.779 -1.774,-1.964c0,-1.139 0.577,-1.962 1.7,-1.962c0.938,0 1.515,0.607 1.515,1.83l-0.002,0.275l0,0zm2.36,1.769c-0.375,1.033 -0.832,1.573 -1.692,1.573l0,-0.614c0.51,0 0.823,-0.404 1.004,-0.959l-1.438,-3.748l0.824,0l0.959,2.758l0.045,0l0.854,-2.758l0.802,0l-1.358,3.748zm12.707,3.066c-0.955,0.545 -2.062,0.856 -3.237,0.856c-3.617,0 -6.568,-2.95 -6.568,-6.567s2.951,-6.568 6.568,-6.568c1.03,0 2.008,0.24 2.878,0.666c0.137,0.065 0.273,0.137 0.408,0.215l-0.604,0.541l-0.908,-0.939l-1.533,1.368l-0.909,-0.994l-2.857,2.574l1.831,2.019l-0.72,0.632l1.804,2.021l-0.716,0.632l2.578,2.869l1.528,-1.408l1.322,1.51c-0.262,0.202 -0.548,0.395 -0.865,0.573zm1.481,-1.183l-1.056,-1.17l1.172,-1.056l1.055,1.171l-1.171,1.055zm1.118,-3.492l-0.703,-0.781l0.781,-0.703l0.703,0.781l-0.781,0.703zm-36.446,-0.422c0,1.214 -0.42,1.559 -0.975,1.559c-0.188,0 -0.449,-0.015 -0.689,-0.12l0,-2.451c0.3,-0.165 0.518,-0.247 0.816,-0.247c0.502,0 0.848,0.307 0.848,1.259zm-3.83,-0.24l-1.716,0c0.082,-0.749 0.435,-1.101 0.892,-1.101c0.405,0 0.787,0.314 0.824,1.101zm21.898,0l-1.718,0c0.084,-0.749 0.436,-1.101 0.894,-1.101c0.404,0 0.787,0.314 0.824,1.101zm-7.846,0.359c0,1.027 -0.39,1.439 -0.922,1.439c-0.532,0 -0.922,-0.412 -0.922,-1.439c0,-1.012 0.428,-1.438 0.922,-1.438c0.509,0 0.922,0.426 0.922,1.438z"/>
   </g>
   <g stroke="null" transform="matrix(2.8048380731258438,0,0,2.805101097547622,-21.017421237800495,218.7005889440939) " id="svg_16"/>
   <g stroke="null" transform="matrix(2.8048380731258438,0,0,2.805101097547622,-21.017421237800495,218.7005889440939) " id="svg_17"/>
   <g stroke="null" transform="matrix(2.8048380731258438,0,0,2.805101097547622,-21.017421237800495,218.7005889440939) " id="svg_18"/>
   <g stroke="null" transform="matrix(2.8048380731258438,0,0,2.805101097547622,-21.017421237800495,218.7005889440939) " id="svg_19"/>
   <g stroke="null" transform="matrix(2.8048380731258438,0,0,2.805101097547622,-21.017421237800495,218.7005889440939) " id="svg_20"/>
   <g stroke="null" transform="matrix(2.8048380731258438,0,0,2.805101097547622,-21.017421237800495,218.7005889440939) " id="svg_21"/>
   <g stroke="null" transform="matrix(2.8048380731258438,0,0,2.805101097547622,-21.017421237800495,218.7005889440939) " id="svg_22"/>
   <g stroke="null" transform="matrix(2.8048380731258438,0,0,2.805101097547622,-21.017421237800495,218.7005889440939) " id="svg_23"/>
   <g stroke="null" transform="matrix(2.8048380731258438,0,0,2.805101097547622,-21.017421237800495,218.7005889440939) " id="svg_24"/>
   <g stroke="null" transform="matrix(2.8048380731258438,0,0,2.805101097547622,-21.017421237800495,218.7005889440939) " id="svg_25"/>
   <g stroke="null" transform="matrix(2.8048380731258438,0,0,2.805101097547622,-21.017421237800495,218.7005889440939) " id="svg_26"/>
   <g stroke="null" transform="matrix(2.8048380731258438,0,0,2.805101097547622,-21.017421237800495,218.7005889440939) " id="svg_27"/>
   <g stroke="null" transform="matrix(2.8048380731258438,0,0,2.805101097547622,-21.017421237800495,218.7005889440939) " id="svg_28"/>
   <g stroke="null" transform="matrix(2.8048380731258438,0,0,2.805101097547622,-21.017421237800495,218.7005889440939) " id="svg_29"/>
   <g stroke="null" transform="matrix(2.8048380731258438,0,0,2.805101097547622,-21.017421237800495,218.7005889440939) " id="svg_30"/>
  </g>
  <!-- Created with Method Draw - http://github.com/duopixel/Method-Draw/ -->
  <!-- Created with Method Draw - http://github.com/duopixel/Method-Draw/ -->
  <g stroke="null" id="svg_100">
   <g stroke="null" transform="matrix(0.4345451510205,0,0,0.37356683885256137,-11304.94756932002,-4649.545673142759) " id="svg_97">
    <title stroke="null" transform="translate(-8.598037719726562,0) translate(34.04471969604492,-1.8189894035458565e-12) translate(25984.75,0) translate(0,12411.5) ">background</title>
    <rect stroke="null" x="26009.196682" y="12410.5" width="582" height="402" id="svg_95" fill="#fff"/>
    <g stroke="null" id="svg_94" display="none">
     <rect stroke="null" id="svg_98" width="250" height="120" x="26010.196682" y="12411.5" stroke-width="0" fill="url(#gridpattern)"/>
    </g>
   </g>
   <g stroke="null" transform="matrix(0.4345451510205,0,0,0.37356683885256137,-11304.94756932002,-4649.545673142759) " id="svg_99">
    <title stroke="null" transform="translate(-8.598037719726562,0) translate(34.04471969604492,-1.8189894035458565e-12) translate(25984.75,0) translate(0,12411.5) ">Layer 1</title>
    <g stroke="null" id="svg_76">
     <g stroke="null" id="svg_92" transform="matrix(10.752056333361567,0,0,11.25959780575296,-154.15432261660055,-258.2674355680526) ">
      <path stroke="null" d="m2487.789871,1125.013583l-53.572,0c-0.804,0 -1.454,0.651 -1.454,1.454l0,33.695c0,0.803 0.65,1.454 1.454,1.454l53.572,0c0.804,0 1.454,-0.651 1.454,-1.454l0,-33.695c0,-0.803 -0.65,-1.454 -1.454,-1.454zm-2.842,16.315l-0.779,0.703l-0.703,-0.781l0.78,-0.703l0.702,0.781zm-4.012,-0.68l-1.055,-1.172l1.172,-1.055l1.055,1.172l-1.172,1.055zm1.196,0.128l1.056,1.171l-1.172,1.055l-1.055,-1.171l1.171,-1.055zm-2.149,-0.388l-1.562,1.406l-1.405,-1.562l1.562,-1.406l1.405,1.562zm-0.289,1.104l1.406,1.562l-1.562,1.405l-1.406,-1.562l1.562,-1.405zm1.111,2.7l1.406,1.562l-1.562,1.408l-1.406,-1.562l1.562,-1.408zm1.157,0.115l1.172,-1.056l1.056,1.172l-1.172,1.055l-1.056,-1.171zm1.99,-5.3l-0.781,0.703l-0.703,-0.781l0.781,-0.703l0.703,0.781zm-42.998,6.914l-0.81,0l-1.019,-3.739l-0.053,0l-0.989,3.739l-0.81,0l-1.214,-5.312l0.84,0l0.839,3.964l0.053,0l0.974,-3.964l0.667,0l1.042,3.964l0.053,0l0.765,-3.964l0.877,0l-1.215,5.312zm4.648,-1.73l-2.442,0c0,0.898 0.367,1.297 1.139,1.297c0.404,0 0.779,-0.143 1.191,-0.39l0,0.569c-0.337,0.194 -0.787,0.345 -1.326,0.345c-1.259,0 -1.776,-0.779 -1.776,-1.964c0,-1.139 0.577,-1.962 1.701,-1.962c0.937,0 1.514,0.607 1.514,1.83l-0.001,0.275l0,0zm2.143,1.821c-0.397,0 -1.012,-0.128 -1.462,-0.367l0,-5.231l0.779,-0.187l0,2.136c0.226,-0.12 0.607,-0.277 1.013,-0.277c0.929,0 1.431,0.645 1.431,1.844c0,1.401 -0.674,2.082 -1.761,2.082zm7.741,-0.091l-0.809,0l0,-3.852l-0.067,0l-1.529,3.852l-0.479,0l-1.529,-3.762l-0.067,0l0,3.762l-0.674,0l0,-5.312l0.906,0l1.679,4.189l0.038,0l1.604,-4.189l0.929,0l0,5.312l-0.002,0zm2.534,0.091c-1.026,0 -1.709,-0.683 -1.709,-1.964c0,-1.312 0.72,-1.962 1.709,-1.962c0.989,0 1.709,0.652 1.709,1.962c0,1.283 -0.682,1.964 -1.709,1.964zm5.568,-0.091l-0.779,0l0,-2.541c0,-0.591 -0.291,-0.696 -0.675,-0.696c-0.3,0 -0.682,0.135 -0.914,0.27l0,2.967l-0.779,0l0,-3.282c0.337,-0.202 1.049,-0.554 1.911,-0.554c0.899,0 1.236,0.352 1.236,1.124l0,2.712zm3.912,-1.73l-2.443,0c0,0.898 0.367,1.297 1.141,1.297c0.404,0 0.779,-0.143 1.19,-0.39l0,0.569c-0.338,0.194 -0.786,0.345 -1.327,0.345c-1.259,0 -1.774,-0.779 -1.774,-1.964c0,-1.139 0.577,-1.962 1.7,-1.962c0.938,0 1.515,0.607 1.515,1.83l-0.002,0.275l0,0zm2.36,1.769c-0.375,1.033 -0.832,1.573 -1.692,1.573l0,-0.614c0.51,0 0.823,-0.404 1.004,-0.959l-1.438,-3.748l0.824,0l0.959,2.758l0.045,0l0.854,-2.758l0.802,0l-1.358,3.748zm12.707,3.066c-0.955,0.545 -2.062,0.856 -3.237,0.856c-3.617,0 -6.568,-2.95 -6.568,-6.567s2.951,-6.568 6.568,-6.568c1.03,0 2.008,0.24 2.878,0.666c0.137,0.065 0.273,0.137 0.408,0.215l-0.604,0.541l-0.908,-0.939l-1.533,1.368l-0.909,-0.994l-2.857,2.574l1.831,2.019l-0.72,0.632l1.804,2.021l-0.716,0.632l2.578,2.869l1.528,-1.408l1.322,1.51c-0.262,0.202 -0.548,0.395 -0.865,0.573zm1.481,-1.183l-1.056,-1.17l1.172,-1.056l1.055,1.171l-1.171,1.055zm1.118,-3.492l-0.703,-0.781l0.781,-0.703l0.703,0.781l-0.781,0.703zm-36.446,-0.422c0,1.214 -0.42,1.559 -0.975,1.559c-0.188,0 -0.449,-0.015 -0.689,-0.12l0,-2.451c0.3,-0.165 0.518,-0.247 0.816,-0.247c0.502,0 0.848,0.307 0.848,1.259zm-3.83,-0.24l-1.716,0c0.082,-0.749 0.435,-1.101 0.892,-1.101c0.405,0 0.787,0.314 0.824,1.101zm21.898,0l-1.718,0c0.084,-0.749 0.436,-1.101 0.894,-1.101c0.404,0 0.787,0.314 0.824,1.101zm-7.846,0.359c0,1.027 -0.39,1.439 -0.922,1.439c-0.532,0 -0.922,-0.412 -0.922,-1.439c0,-1.012 0.428,-1.438 0.922,-1.438c0.509,0 0.922,0.426 0.922,1.438z" id="svg_93" fill="#005fbf"/>
     </g>
     <g stroke="null" id="svg_91" transform="matrix(8.547492580078377,0,0,7.649321199785015,-64.04871143518204,-115.34764142499563) "/>
     <g stroke="null" id="svg_90" transform="matrix(8.547492580078377,0,0,7.649321199785015,-64.04871143518204,-115.34764142499563) "/>
     <g stroke="null" id="svg_89" transform="matrix(8.547492580078377,0,0,7.649321199785015,-64.04871143518204,-115.34764142499563) "/>
     <g stroke="null" id="svg_88" transform="matrix(8.547492580078377,0,0,7.649321199785015,-64.04871143518204,-115.34764142499563) "/>
     <g stroke="null" id="svg_87" transform="matrix(8.547492580078377,0,0,7.649321199785015,-64.04871143518204,-115.34764142499563) "/>
     <g stroke="null" id="svg_86" transform="matrix(8.547492580078377,0,0,7.649321199785015,-64.04871143518204,-115.34764142499563) "/>
     <g stroke="null" id="svg_85" transform="matrix(8.547492580078377,0,0,7.649321199785015,-64.04871143518204,-115.34764142499563) "/>
     <g stroke="null" id="svg_84" transform="matrix(8.547492580078377,0,0,7.649321199785015,-64.04871143518204,-115.34764142499563) "/>
     <g stroke="null" id="svg_83" transform="matrix(8.547492580078377,0,0,7.649321199785015,-64.04871143518204,-115.34764142499563) "/>
     <g stroke="null" id="svg_82" transform="matrix(8.547492580078377,0,0,7.649321199785015,-64.04871143518204,-115.34764142499563) "/>
     <g stroke="null" id="svg_81" transform="matrix(8.547492580078377,0,0,7.649321199785015,-64.04871143518204,-115.34764142499563) "/>
     <g stroke="null" id="svg_80" transform="matrix(8.547492580078377,0,0,7.649321199785015,-64.04871143518204,-115.34764142499563) "/>
     <g stroke="null" id="svg_79" transform="matrix(8.547492580078377,0,0,7.649321199785015,-64.04871143518204,-115.34764142499563) "/>
     <g stroke="null" id="svg_78" transform="matrix(8.547492580078377,0,0,7.649321199785015,-64.04871143518204,-115.34764142499563) "/>
     <g stroke="null" id="svg_77" transform="matrix(8.547492580078377,0,0,7.649321199785015,-64.04871143518204,-115.34764142499563) "/>
    </g>
   </g>
  </g>
 </g>
</svg>