<svg width="46" height="40" viewBox="0 0 46 40" fill="none" xmlns="http://www.w3.org/2000/svg">
<path fill-rule="evenodd" clip-rule="evenodd" d="M17.6756 38.8093L45.2608 5.44524C45.8061 4.76601 46.0664 3.89605 45.9855 3.02339C45.9046 2.15073 45.4889 1.34548 44.8283 0.781712C44.1676 0.217938 43.3152 -0.0590749 42.4552 0.01055C41.5952 0.0801748 40.7967 0.490847 40.2323 1.15379L15.071 31.5797L5.77533 21.0867C5.49019 20.7494 5.14156 20.4734 4.74991 20.2749C4.35827 20.0764 3.93153 19.9594 3.49476 19.9309C3.05799 19.9023 2.62002 19.9628 2.20657 20.1087C1.79312 20.2545 1.41255 20.4829 1.08722 20.7804C0.761889 21.0778 0.498361 21.4383 0.312128 21.8407C0.125895 22.2431 0.020713 22.6793 0.00276316 23.1236C-0.0151867 23.5679 0.054457 24.0113 0.207603 24.4279C0.36075 24.8444 0.594308 25.2257 0.894551 25.5492L12.7168 38.8948C13.0246 39.2425 13.4009 39.5206 13.8214 39.711C14.2418 39.9014 14.6969 39.9998 15.1572 40H15.2126C15.6831 39.9924 16.1466 39.8822 16.5715 39.6767C16.9965 39.4713 17.373 39.1755 17.6756 38.8093Z" fill="#0450FF"/>
</svg>
