<svg width="14" height="11" viewBox="0 0 14 11" fill="none" xmlns="http://www.w3.org/2000/svg">
<path d="M12.2223 0.199983C11.929 0.197647 11.6497 0.324923 11.4588 0.547574L5.1719 7.67648L2.31358 4.78539C2.12881 4.59352 1.87498 4.48352 1.60854 4.48027C1.34221 4.47691 1.08563 4.58052 0.89617 4.76774C0.706832 4.95504 0.600275 5.2105 0.600587 5.47686C0.600891 5.74319 0.707953 5.99836 0.897809 6.18525L4.50556 9.83409C4.69947 10.0302 4.96611 10.1371 5.24178 10.1293C5.51747 10.1214 5.77758 9.99946 5.96002 9.79266L12.9519 1.8644C13.125 1.67364 13.2174 1.42325 13.2097 1.16576C13.2021 0.908263 13.0949 0.663862 12.9108 0.483761C12.7266 0.303563 12.4798 0.201881 12.2222 0.199957L12.2223 0.199983Z" fill="white"/>
</svg>
