<svg width="20" height="14" viewBox="0 0 20 14" fill="none" xmlns="http://www.w3.org/2000/svg">
<path fill-rule="evenodd" clip-rule="evenodd" d="M0.25 7C0.25 3.27208 3.27208 0.25 7 0.25H15C17.6234 0.25 19.75 2.37665 19.75 5C19.75 7.62335 17.6234 9.75 15 9.75H6.85714C5.33836 9.75 4.10714 8.51878 4.10714 7C4.10714 5.48122 5.33836 4.25 6.85714 4.25H14.7143C15.1285 4.25 15.4643 4.58579 15.4643 5C15.4643 5.41421 15.1285 5.75 14.7143 5.75H6.85714C6.16679 5.75 5.60714 6.30964 5.60714 7C5.60714 7.69036 6.16679 8.25 6.85714 8.25H15C16.7949 8.25 18.25 6.79493 18.25 5C18.25 3.20507 16.7949 1.75 15 1.75H7C4.1005 1.75 1.75 4.10051 1.75 7C1.75 9.8995 4.10051 12.25 7 12.25H14.7143C15.1285 12.25 15.4643 12.5858 15.4643 13C15.4643 13.4142 15.1285 13.75 14.7143 13.75H7C3.27208 13.75 0.25 10.7279 0.25 7Z" fill="#4D9696"/>
</svg>
