<svg width="32" height="32" viewBox="0 0 32 32" fill="none" xmlns="http://www.w3.org/2000/svg">
<path d="M20.7757 20.923C21.5616 21.185 22.4111 20.7603 22.673 19.9743C22.935 19.1884 22.5103 18.3389 21.7243 18.077L20.7757 20.923ZM16 17.75H14.5C14.5 18.3956 14.9131 18.9689 15.5257 19.173L16 17.75ZM17.5 10.4325C17.5 9.60404 16.8284 8.93246 16 8.93246C15.1716 8.93246 14.5 9.60404 14.5 10.4325H17.5ZM21.7243 18.077L16.4743 16.327L15.5257 19.173L20.7757 20.923L21.7243 18.077ZM17.5 17.75V10.4325H14.5V17.75H17.5ZM28.5 16C28.5 22.9036 22.9036 28.5 16 28.5V31.5C24.5604 31.5 31.5 24.5604 31.5 16H28.5ZM16 28.5C9.09644 28.5 3.5 22.9036 3.5 16H0.5C0.5 24.5604 7.43959 31.5 16 31.5V28.5ZM3.5 16C3.5 9.09644 9.09644 3.5 16 3.5V0.5C7.43959 0.5 0.5 7.43959 0.5 16H3.5ZM16 3.5C22.9036 3.5 28.5 9.09644 28.5 16H31.5C31.5 7.43959 24.5604 0.5 16 0.5V3.5Z" fill="#FF044F"/>
</svg>
