<svg width="16" height="16" xmlns="http://www.w3.org/2000/svg">
 <g>
  <title>Layer 1</title>
  <g id="svg_17" stroke="null">
   <g id="svg_18" stroke="null">
    <title stroke="null">Layer 1</title>
    <g id="svg_1" stroke="null">
     <g id="svg_4" clip-path="url(#svg_2)" stroke="null">
      <path id="svg_16" d="m106.23383,79.09476l0,-5.24663c0,-0.45277 0.32417,-0.81979 0.72408,-0.81979l2.89634,0c0.39991,0 0.72408,0.36702 0.72408,0.81979l0,5.24663c0,1.47561 0.72408,3.19716 2.6067,3.19716l0.65168,0c1.81021,0 2.5343,-1.63957 2.5343,-3.19716l0,-5.24663c0,-0.45277 0.32417,-0.81979 0.72408,-0.81979l2.82393,0c0.39991,0 0.72408,0.36702 0.72408,0.81979l0,5.24663c0,2.54133 -0.65168,7.29609 -6.73399,7.29609l-0.94131,0c-6.37194,-0.08198 -6.73399,-4.75476 -6.73399,-7.29609l0.00002,0z" fill="#FF1E00" stroke="null"/>
      <path id="svg_15" d="m126.87025,73.02835c0.39991,0 0.72408,0.36702 0.72408,0.81979l0,8.19785l5.79268,0c0.39991,0 0.72408,0.36702 0.72408,0.81979l0,2.45936c0,0.45277 -0.32417,0.81979 -0.72408,0.81979l-10.13718,0c-0.39991,0 -0.72408,-0.36702 -0.72408,-0.81979l0,-11.477c0,-0.45277 0.32417,-0.81979 0.72408,-0.81979l3.62042,0z" fill="#FF1E00" stroke="null"/>
      <path id="svg_14" d="m183.34885,79.09476l0,6.23037c0,0.45277 -0.32439,0.81979 -0.72408,0.81979l-3.62042,0c-0.39969,0 -0.72408,-0.36702 -0.72408,-0.81979l0,-11.477c0,-0.45277 0.32439,-0.81979 0.72408,-0.81979l3.73266,0c0.20492,0 0.40042,0.09829 0.53799,0.27053l5.14245,6.45171l0,-5.90246c0,-0.45277 0.32439,-0.81979 0.72408,-0.81979l3.62042,0c0.39969,0 0.72408,0.36702 0.72408,0.81979l0,11.477c0,0.45277 -0.32439,0.81979 -0.72408,0.81979l-3.44447,0c-0.20419,0 -0.39897,-0.09772 -0.53655,-0.26905l-5.43208,-6.7811z" fill="#FF1E00" stroke="null"/>
      <path id="svg_13" d="m145.84126,79.17674l3.98428,-4.765c0.43699,-0.52261 0.10977,-1.38339 -0.52583,-1.38339l-3.93815,0c-0.20195,0 -0.3947,0.09551 -0.53177,0.2634l-2.94608,3.60886c-0.44727,0.54778 -1.25585,0.18953 -1.25585,-0.55647l0,-2.496c0,-0.45277 -0.32417,-0.81979 -0.72408,-0.81979l-3.62042,0c-0.39991,0 -0.72408,0.36702 -0.72408,0.81979l0,11.477c0,0.45277 0.32417,0.81979 0.72408,0.81979l3.62042,0c0.39991,0 0.72408,-0.36702 0.72408,-0.81979l0,-4.67278l3.91042,5.204c0.13758,0.18306 0.33923,0.28856 0.55154,0.28856l4.21577,0c0.61156,0 0.94768,-0.80511 0.55957,-1.3401l-4.02388,-5.54609l0,-0.08198l-0.00002,-0.00001z" fill="#FF1E00" stroke="null"/>
      <path id="svg_12" d="m100.44108,73.02835c-0.30426,0 -0.57615,0.21544 -0.68028,0.53909l-2.94007,9.13438l-3.29204,-9.16258c-0.11099,-0.3089 -0.37618,-0.51089 -0.67072,-0.51089l-3.61911,0c-0.52218,0 -0.87267,0.60672 -0.66338,1.14836l4.43502,11.477c0.1153,0.2984 0.3757,0.49122 0.66338,0.49122l6.28547,0c0.29188,0 0.55516,-0.19839 0.6679,-0.5031l4.24495,-11.477c0.19977,-0.54016 -0.15061,-1.13647 -0.6679,-1.13647l-3.76321,0l-0.00001,-0.00001z" fill="#FF1E00" stroke="null"/>
      <path id="svg_11" d="m166.32055,62.25649c-0.25126,-0.56625 -0.95072,-0.61008 -1.25484,-0.07867l-20.45546,35.69002c-0.07241,0.16396 0,0.32791 0.14482,0.32791c0.07241,0 0.07241,0 0.14482,-0.08198l20.41926,-23.52784l7.02435,11.21343c0.1354,0.21675 0.35625,0.34554 0.59085,0.34554l2.79714,0c0.53799,0 0.88845,-0.64222 0.64661,-1.18738l-10.05754,-22.70105l-0.00001,0.00002z" fill="#FF1E00" stroke="null"/>
      <path id="svg_10" d="m158.15273,90.25237c0.89895,0 1.60978,0.14199 2.1333,0.42588c0.433,0.24979 0.73277,0.59336 0.89931,1.03055c0.08979,0.25553 0.1354,0.54516 0.1354,0.86881c0,0.08518 -0.00507,0.20159 -0.01448,0.34915l-1.95488,0c0,-0.22708 -0.06423,-0.42014 -0.19268,-0.57918c-0.22352,-0.26684 -0.6112,-0.4003 -1.16295,-0.4003c-0.58506,0 -1.02031,0.20445 -1.30567,0.61328c-0.11419,0.16469 -0.19746,0.34923 -0.24974,0.5536c-0.04757,0.20445 -0.07139,0.4117 -0.07139,0.62181c0,0.38604 0.09037,0.68985 0.27117,0.91127c0.2283,0.28397 0.57789,0.42588 1.04884,0.42588c0.51844,0 0.91322,-0.14477 1.18439,-0.43432c0.10941,-0.11362 0.18073,-0.22151 0.21404,-0.32373c0.01426,-0.04542 0.02853,-0.08509 0.04279,-0.1192c0.01426,-0.03976 0.02382,-0.07099 0.02853,-0.0937l1.9622,0c-0.04779,0.42022 -0.14482,0.79495 -0.29253,1.12425c-0.19985,0.44859 -0.5141,0.80913 -0.94203,1.08171c-0.50881,0.32365 -1.18902,0.48548 -2.0404,0.48548l-0.31396,0c-1.17968,0 -2.02635,-0.32078 -2.54002,-0.96243c-0.40433,-0.49966 -0.60649,-1.1782 -0.60649,-2.03561c0,-0.55647 0.09276,-1.07031 0.27827,-1.54161c0.22352,-0.58492 0.5708,-1.05047 1.04167,-1.39683c0.56609,-0.40317 1.27721,-0.60476 2.13337,-0.60476l0.31396,0l-0.00002,0z" fill="white" stroke="null"/>
      <path id="svg_9" d="m166.35893,96.69138l-0.22085,-1.03908l-2.67622,0l-0.54886,1.03908l-1.96951,0l3.39596,-6.33678l2.45465,0l1.46989,6.33678l-1.90507,0l0.00001,0zm-0.5351,-2.50403l-0.46341,-2.17186l-1.13464,2.17186l1.59805,0z" fill="white" stroke="null"/>
      <path id="svg_8" d="m170.64261,94.57912c0,0.09083 0.00724,0.17322 0.02172,0.247c0.01883,0.07386 0.0572,0.14764 0.11441,0.22151c0.14699,0.18732 0.43228,0.28102 0.85587,0.28102l0.04996,0c0.42793,0 0.74001,-0.06525 0.93479,-0.19593c0.13323,-0.09083 0.19985,-0.22421 0.19985,-0.4003c0,-0.15896 -0.05503,-0.28102 -0.16437,-0.3662c-0.13758,-0.10223 -0.37797,-0.15617 -0.72046,-0.16183l-0.60678,-0.01705c-0.83704,-0.0341 -1.43586,-0.22995 -1.7979,-0.5877c-0.30412,-0.29529 -0.45617,-0.73535 -0.45617,-1.32018c0,-0.57918 0.1803,-1.03055 0.54234,-1.3542c0.48007,-0.43727 1.2628,-0.65583 2.34676,-0.65583l0.29253,0c1.19402,0 2.0144,0.21011 2.46189,0.63025c0.27588,0.26118 0.41345,0.61894 0.41345,1.07318c0,0.10223 -0.00652,0.21011 -0.021,0.32365l-1.99051,0c0,-0.17601 -0.04779,-0.30947 -0.14264,-0.4003c-0.15278,-0.14199 -0.433,-0.2129 -0.84211,-0.2129l-0.0572,0c-0.42359,0 -0.71105,0.05394 -0.86311,0.16183c-0.07168,0.04542 -0.11875,0.09936 -0.14264,0.16183c-0.02389,0.05673 -0.0362,0.12485 -0.0362,0.20437c0,0.14199 0.05503,0.24413 0.16437,0.3066c0.14264,0.09091 0.37073,0.13912 0.68498,0.14486l0.6133,0.01697c0.47138,0.01705 0.85876,0.07386 1.1636,0.17035c0.30412,0.09091 0.54451,0.22151 0.72046,0.39186c0.15713,0.15896 0.26864,0.35202 0.33525,0.5791c0.06662,0.22716 0.09992,0.494 0.09992,0.80068c0,0.62459 -0.19043,1.11286 -0.57058,1.46496c-0.5141,0.47129 -1.3678,0.7069 -2.56181,0.7069l-0.17088,0c-0.85659,0 -1.52492,-0.12494 -2.00499,-0.37472c-0.39969,-0.20445 -0.66833,-0.494 -0.80663,-0.86881c-0.07603,-0.21577 -0.11368,-0.43719 -0.11368,-0.66435c0,-0.10215 0.00652,-0.20437 0.021,-0.3066l2.03323,0l-0.00002,-0.00002z" fill="white" stroke="null"/>
      <path id="svg_7" d="m178.32587,90.3546l-1.02748,6.33678l-1.88334,0l1.03472,-6.33678l1.8761,0z" fill="white" stroke="null"/>
      <path id="svg_6" d="m183.21127,96.69138l-2.29028,-3.79011l-0.6133,3.79011l-1.84062,0l1.03399,-6.33678l1.91955,0l2.1976,3.67944l0.59954,-3.67944l1.83338,0l-1.03472,6.33678l-1.80514,0z" fill="white" stroke="null"/>
      <path id="svg_5" d="m190.28992,90.24384c0.82763,0 1.49596,0.15617 2.00427,0.46843c0.433,0.26692 0.74943,0.64165 0.94927,1.12434c0.16147,0.39178 0.24257,0.83749 0.24257,1.33715c0,0.58492 -0.09051,1.12147 -0.27081,1.60981c-0.22881,0.60754 -0.58289,1.07884 -1.06368,1.41388c-0.56117,0.40309 -1.2867,0.60467 -2.17587,0.60467l-0.31425,0c-0.81315,0 -1.4793,-0.16183 -1.99775,-0.48548c-0.43735,-0.27258 -0.75594,-0.65583 -0.95579,-1.14983c-0.16147,-0.40317 -0.24257,-0.85454 -0.24257,-1.3542c0,-0.57918 0.09268,-1.10441 0.27805,-1.57571c0.21867,-0.58483 0.5713,-1.05047 1.05644,-1.39683c0.5561,-0.39751 1.28163,-0.59623 2.17587,-0.59623l0.31425,0zm1.24108,2.98959c0,-0.36341 -0.08761,-0.65304 -0.26429,-0.86881c-0.24257,-0.27824 -0.62054,-0.41735 -1.13392,-0.41735c-0.64226,0 -1.10857,0.21864 -1.39893,0.65583c-0.20419,0.31799 -0.30629,0.70411 -0.30629,1.15836c0,0.35775 0.09051,0.6473 0.27081,0.86881c0.23316,0.2952 0.60896,0.44285 1.1274,0.44285c0.69005,0 1.17229,-0.24134 1.44817,-0.72395c0.17161,-0.30094 0.25705,-0.67288 0.25705,-1.11573l0,-0.00001z" fill="white" stroke="null"/>
     </g>
     <defs transform="translate(19 -85) translate(1 192) translate(-1 0) translate(1.00001 0) translate(0 -1.99999) translate(-10 2) translate(67.486 0) translate(0 56.7958) translate(214.486 57.8042) scale(1.35179 1.38296) translate(-214.486 -57.8042) translate(13.6959 86.1891) scale(1.33678 1) translate(-13.6959 -86.1891) translate(10.2454 86.1891) scale(1 1.5864) translate(-10.2454 -86.1891) translate(118.694 26.3474) scale(1.37938 1.65328) translate(-118.694 -26.3474) translate(5.82278 36.1703) scale(1.28004 1.31339) translate(-5.82278 -36.1703) translate(84.7747 7.30587) scale(0.671839 0.657646) translate(-84.7747 -7.30587) translate(45.9572 31.343) scale(0.610402 0.574075) translate(-45.9572 -31.343) translate(148.638 34.3633) scale(1.543 1.98924) translate(-148.638 -34.3633) translate(96.3306 81.1111) scale(1.76211 2.64874) translate(-96.3306 -81.1111) translate(2.67427 20.4509) scale(2.43265 2.30717) translate(-2.67427 -20.4509) translate(3.29474 4.97641) scale(1 1.59804) translate(-3.29474 -4.97641)" stroke="null">
      <clipPath id="svg_2" stroke="null">
       <rect id="svg_3" width="147" height="45.4" fill="white" y="163.79576" x="77.48605" stroke="null"/>
      </clipPath>
     </defs>
    </g>
   </g>
  </g>
  <g stroke="null">
   <path fill="#ffffff" stroke="null" d="m14.52111,6.9c0.08463,0.40933 0.12968,0.83267 0.12968,1.26667c0,3.49533 -2.90557,6.33334 -6.48413,6.33334c-3.57856,0 -6.48413,-2.838 -6.48413,-6.33334c0,-3.49533 2.90557,-6.33334 6.48413,-6.33334c0.44433,0 0.87775,0.044 1.29683,0.12667c0.18497,0.03667 0.36516,-0.08 0.4027,-0.26c0.03754,-0.18 -0.0819,-0.35667 -0.26619,-0.39333c-0.46344,-0.092 -0.94259,-0.14 -1.43333,-0.14c-3.95532,0 -7.16667,3.13667 -7.16667,7c0,3.86333 3.21135,7 7.16667,7c3.95532,0 7.16667,-3.13667 7.16667,-7c0,-0.47933 -0.04914,-0.94733 -0.14333,-1.4c-0.03754,-0.18 -0.21841,-0.29667 -0.4027,-0.26c-0.18429,0.03667 -0.30373,0.21267 -0.26619,0.39333z"/>
   <path fill="#ffffff" stroke="null" d="m12.94513,1.5l-0.00137,3.33333c0,0.184 0.15289,0.33333 0.34127,0.33333c0.18838,0 0.34127,-0.14933 0.34127,-0.33333l0.00137,-3.33333c0,-0.184 -0.15289,-0.33333 -0.34127,-0.33333c-0.18838,0 -0.34127,0.14933 -0.34127,0.33333z"/>
   <path fill="#ffffff" stroke="null" d="m11.57937,3.49933l3.4127,0.00133c0.18838,0 0.34127,-0.14933 0.34127,-0.33333c0,-0.184 -0.15289,-0.33333 -0.34127,-0.33333l-3.4127,-0.00133c-0.18838,0 -0.34127,0.14933 -0.34127,0.33333c0,0.184 0.15289,0.33333 0.34127,0.33333zm-1.19444,1.334l0,6.66667c0,0.184 0.15357,0.33333 0.34127,0.33333c0.18838,0 0.34127,-0.14933 0.34127,-0.33333l0,-6.66667c0,-0.184 -0.15289,-0.33333 -0.34127,-0.33333c-0.1877,0 -0.34127,0.14933 -0.34127,0.33333zm-5.11905,1.66667c0,-0.736 0.61156,-1.33333 1.36508,-1.33333c0.75284,0 1.36508,0.59733 1.36508,1.33333c0,0.43 -0.29554,1.002 -0.68459,1.60133c-0.98627,1.522 -2.63119,3.166 -2.63119,3.166c-0.09624,0.096 -0.12354,0.23867 -0.0703,0.362c0.05324,0.12333 0.17678,0.204 0.31465,0.204l3.4127,0c0.1877,0 0.34127,-0.14933 0.34127,-0.33333c0,-0.184 -0.15357,-0.33333 -0.34127,-0.33333l-2.62846,0c0.58562,-0.63133 1.52343,-1.69667 2.17935,-2.70867c0.47164,-0.72733 0.79038,-1.436 0.79038,-1.958c0,-1.104 -0.91802,-2 -2.04762,-2c-1.13029,0 -2.04762,0.896 -2.04762,2c0,0.184 0.15289,0.33333 0.34127,0.33333c0.1877,0 0.34127,-0.14933 0.34127,-0.33333z"/>
  </g>
 </g>
</svg>