<svg fill="none" height="48" viewBox="0 0 211 48" width="211" xmlns="http://www.w3.org/2000/svg" xmlns:xlink="http://www.w3.org/1999/xlink"><clipPath id="a"><path d="m60 0h47.9985v48h-47.9985z"/></clipPath><g fill="#fff"><path d="m128.472 20.797h-.997v-1.8713h-6.478v1.8713h-.997v-2.8685h.8c.403-.4022.702-1.0547.899-1.9575s.296-1.8836.296-2.9424v-2.9178h5.541v7.8177h.936zm-1.982-2.8685v-6.8205h-3.473v2.0683c0 1.0013-.09 1.9124-.271 2.7331-.172.8126-.427 1.4856-.763 2.0191z"/><path d="m132.493 19.1227c-.599 0-1.137-.1437-1.613-.4309-.476-.2873-.85-.6812-1.121-1.1819-.263-.5089-.394-1.0793-.394-1.7113 0-.6073.123-1.1654.37-1.6743.254-.5089.611-.9152 1.071-1.2188.46-.3037.993-.4556 1.601-.4556.615 0 1.149.1396 1.601.4186.451.2709.796.6484 1.034 1.1327.246.4842.369 1.0382.369 1.662 0 .1231-.012.2298-.036.3201h-4.963c.024.476.139.8782.345 1.2065.205.3283.463.5745.775.7387.321.1641.653.2462.998.2462.804 0 1.424-.3775 1.859-1.1326l.887.4309c-.271.5088-.64.911-1.108 1.2065-.46.2954-1.018.4432-1.675.4432zm1.81-4.0012c-.016-.2626-.09-.5253-.221-.7879-.132-.2627-.341-.4843-.629-.6648-.279-.1806-.632-.2709-1.059-.2709-.492 0-.911.1601-1.256.4802-.336.3118-.558.7263-.665 1.2434z"/><path d="m136.587 12.6469h.998v.9357h.049c.189-.3201.472-.5869.85-.8002.385-.2216.816-.3325 1.293-.3325.558 0 1.067.1437 1.527.4309.459.2873.821.6854 1.083 1.1942.263.5089.394 1.0793.394 1.7113 0 .6402-.131 1.2147-.394 1.7236-.262.5007-.624.8946-1.083 1.1819-.46.2872-.969.4309-1.527.4309-.477 0-.908-.1067-1.293-.3201-.378-.2216-.661-.4884-.85-.8003h-.049l.049.8618v2.7208h-1.047zm3.066 5.5278c.362 0 .702-.0985 1.023-.2955.32-.1969.574-.476.763-.8371.197-.3694.296-.788.296-1.2558s-.099-.8823-.296-1.2434c-.189-.3694-.443-.6525-.763-.8495-.321-.197-.661-.2955-1.023-.2955-.361 0-.701.0985-1.022.2955-.32.197-.574.476-.763.8372-.189.3611-.283.7797-.283 1.2557s.094.8946.283 1.2558c.189.3611.443.6402.763.8371.321.197.661.2955 1.022.2955z"/><path d="m143.27 18.8764 2.832-3.2748-2.697-2.9054v-.0493h1.305l2.488 2.7824h.049v-2.7824h1.035v2.7824h.049l2.5-2.7824h1.305v.0493l-2.709 2.9054 2.844 3.2748v.0493h-1.305l-2.635-3.1025h-.049v3.1025h-1.035v-3.1025h-.049l-2.623 3.1025h-1.305z"/><path d="m154.975 19.1227c-.46 0-.871-.0903-1.232-.2709-.361-.1805-.64-.4268-.837-.7387-.197-.32-.296-.6812-.296-1.0833 0-.6649.251-1.1819.751-1.5513.501-.3775 1.133-.5663 1.897-.5663.377 0 .726.041 1.046.1231.329.0821.579.1765.752.2832v-.3817c0-.4678-.165-.8412-.493-1.1203-.328-.2873-.743-.4309-1.244-.4309-.353 0-.677.078-.972.2339-.296.1478-.53.357-.702.6279l-.789-.5909c.247-.3776.583-.6731 1.01-.8865.435-.2134.916-.3201 1.441-.3201.854 0 1.523.2258 2.007.6772.493.4432.739 1.0505.739 1.822v3.9766h-.997v-.8987h-.05c-.18.3036-.451.5622-.812.7756-.362.2134-.768.3201-1.219.3201zm.098-.9234c.353 0 .681-.0903.985-.2708.304-.1806.546-.4227.727-.7264.18-.3037.271-.6361.271-.9972-.197-.1313-.44-.238-.727-.3201s-.591-.1231-.911-.1231c-.575 0-1.01.119-1.305.357-.288.238-.431.5458-.431.9234 0 .3447.131.6237.394.8371.262.2134.595.3201.997.3201z"/><path d="m159.509 12.6469h3.017c.345 0 .661.0739.948.2216.288.1396.514.3365.678.591.164.2544.246.5335.246.8371 0 .3119-.074.591-.222.8372-.139.238-.328.4186-.566.5417v.0493c.304.1231.546.3036.726.5417.189.238.284.517.284.8371 0 .3529-.086.6689-.259.948-.172.2708-.406.4842-.702.6402-.295.1559-.616.2339-.96.2339h-3.19zm2.968 2.647c.255 0 .464-.078.628-.234.172-.1641.259-.3693.259-.6155s-.087-.4473-.259-.6033c-.172-.1641-.386-.2462-.64-.2462h-1.909v1.699zm.135 2.6838c.263 0 .485-.0862.665-.2585.189-.1806.284-.4022.284-.6648 0-.2545-.095-.4679-.284-.6402-.18-.1806-.402-.2709-.665-.2709h-2.056v1.8344z"/><path d="m165.775 12.6469h1.046v2.6346h3.424v-2.6346h1.034v6.2788h-1.034v-2.6716h-3.424v2.6716h-1.046z"/><path d="m173.449 11.4897c-.205 0-.381-.0739-.529-.2216-.148-.1478-.222-.3242-.222-.5294s.074-.3776.222-.5171c.148-.1477.324-.2216.529-.2216.206 0 .382.0739.53.2216.148.1395.222.3119.222.5171s-.074.3816-.222.5294c-.14.1477-.316.2216-.53.2216zm-.517 1.1572h1.035v6.2788h-1.035z"/><path d="m120.209 29.062h5.295v6.2788h-1.046v-5.3308h-3.202v5.3308h-1.047z"/><path d="m129.886 35.5377c-.616 0-1.17-.1477-1.663-.4432-.492-.2954-.878-.6976-1.157-1.2065-.271-.5088-.407-1.0711-.407-1.6866 0-.6156.136-1.1778.407-1.6867.279-.5088.665-.911 1.157-1.2065.493-.2955 1.047-.4432 1.663-.4432.615 0 1.17.1477 1.662.4432.493.2955.874.6977 1.145 1.2065.279.5089.419 1.0711.419 1.6867 0 .6155-.14 1.1778-.419 1.6866-.271.5089-.652.9111-1.145 1.2065-.492.2955-1.047.4432-1.662.4432zm0-.9479c.386 0 .743-.0944 1.071-.2832.337-.197.603-.476.8-.8372.206-.3611.308-.7838.308-1.268 0-.4843-.102-.907-.308-1.2681-.197-.3611-.463-.6361-.8-.8248-.328-.197-.685-.2955-1.071-.2955s-.747.0985-1.084.2955c-.337.1887-.607.4637-.813.8248-.197.3611-.295.7838-.295 1.2681 0 .4842.098.9069.295 1.268.206.3612.476.6402.813.8372.337.1888.698.2832 1.084.2832z"/><path d="m137.172 35.5377c-.607 0-1.153-.1436-1.638-.4309-.484-.2954-.862-.6935-1.133-1.1942-.271-.5088-.406-1.0792-.406-1.7112s.135-1.2024.406-1.7113.649-.9069 1.133-1.1942c.485-.2873 1.031-.4309 1.638-.4309.681 0 1.252.1601 1.712.4802.468.3118.8.7304.997 1.2557l-.948.394c-.156-.3858-.39-.6772-.702-.8741-.304-.2052-.673-.3078-1.108-.3078-.37 0-.714.1026-1.035.3078-.32.1969-.578.476-.775.8371-.189.3612-.284.7756-.284 1.2435 0 .4678.095.8823.284 1.2434.197.3612.455.6443.775.8495.321.197.665.2955 1.035.2955.443 0 .825-.1026 1.145-.3078s.558-.4966.714-.8741l.936.3939c-.213.5171-.558.9357-1.034 1.2558-.468.3201-1.039.4801-1.712.4801z"/><path d="m141.311 35.4392c-.213 0-.402-.0328-.566-.0984l.012-.9357c.132.041.271.0616.419.0616.189 0 .332-.0616.431-.1847.098-.1313.164-.3406.197-.6279.041-.2955.061-.7058.061-1.2311v-3.361h5.185v6.2788h-1.035v-5.3308h-3.127v2.7454c0 .9685-.144 1.6579-.431 2.0683-.288.4104-.67.6155-1.146.6155z"/><path d="m150.535 34.9468-2.598-5.8848h1.133l1.97 4.666h.025l1.896-4.666h1.133l-3.879 8.938h-1.084z"/><path d="m154.964 29.062h4.186v.948h-3.14v5.3308h-1.046z"/><path d="m160.267 29.062h1.047v3.5333l-.05 1.1819h.05l3.386-4.7152h1.034v6.2788h-1.034v-3.5334l.049-1.1819h-.049l-3.386 4.7153h-1.047z"/><path d="m173.046 35.5377c-.616 0-1.17-.1477-1.663-.4432-.492-.2954-.878-.6976-1.157-1.2065-.271-.5088-.406-1.0711-.406-1.6866 0-.6156.135-1.1778.406-1.6867.279-.5088.665-.911 1.157-1.2065.493-.2955 1.047-.4432 1.663-.4432s1.17.1477 1.662.4432c.493.2955.875.6977 1.146 1.2065.279.5089.418 1.0711.418 1.6867 0 .6155-.139 1.1778-.418 1.6866-.271.5089-.653.9111-1.146 1.2065-.492.2955-1.046.4432-1.662.4432zm0-.9479c.386 0 .743-.0944 1.071-.2832.337-.197.604-.476.801-.8372.205-.3611.308-.7838.308-1.268 0-.4843-.103-.907-.308-1.2681-.197-.3611-.464-.6361-.801-.8248-.328-.197-.685-.2955-1.071-.2955s-.747.0985-1.084.2955c-.336.1887-.607.4637-.813.8248-.197.3611-.295.7838-.295 1.2681 0 .4842.098.9069.295 1.268.206.3612.477.6402.813.8372.337.1888.698.2832 1.084.2832z"/><path d="m177.367 29.062h1.047v2.6346h3.424v-2.6346h1.034v6.2788h-1.034v-2.6716h-3.424v2.6716h-1.047z"/><path d="m184.688 35.4392c-.213 0-.402-.0328-.566-.0984l.012-.9357c.131.041.271.0616.419.0616.188 0 .332-.0616.431-.1847.098-.1313.164-.3406.197-.6279.041-.2955.061-.7058.061-1.2311v-3.361h5.184v6.2788h-1.034v-5.3308h-3.128v2.7454c0 .9685-.143 1.6579-.431 2.0683-.287.4104-.669.6155-1.145.6155z"/><path d="m193.938 35.5377c-.46 0-.87-.0902-1.232-.2708-.361-.1806-.64-.4268-.837-.7387-.197-.3201-.296-.6812-.296-1.0834 0-.6648.251-1.1819.752-1.5512.5-.3776 1.133-.5663 1.896-.5663.378 0 .727.041 1.047.1231.328.0821.578.1764.751.2831v-.3816c0-.4678-.164-.8413-.493-1.1203-.328-.2873-.743-.4309-1.243-.4309-.353 0-.678.0779-.973.2339-.296.1477-.53.357-.702.6279l-.788-.591c.246-.3775.583-.673 1.009-.8864.436-.2134.916-.3201 1.441-.3201.854 0 1.523.2257 2.007.6771.493.4432.739 1.0506.739 1.8221v3.9766h-.997v-.8988h-.049c-.181.3037-.452.5622-.813.7756s-.768.3201-1.219.3201zm.098-.9233c.353 0 .682-.0903.985-.2709.304-.1805.546-.4226.727-.7263s.271-.6361.271-.9972c-.197-.1314-.439-.2381-.727-.3201-.287-.0821-.591-.1231-.911-.1231-.575 0-1.01.119-1.305.357-.288.238-.431.5458-.431.9233 0 .3447.131.6238.394.8372s.595.3201.997.3201z"/><path d="m198.472 29.062h1.047v3.5333l-.049 1.1819h.049l3.387-4.7152h1.034v6.2788h-1.034v-3.5334l.049-1.1819h-.049l-3.387 4.7153h-1.047zm2.747-1.1942c-.271 0-.53-.0657-.776-.197-.238-.1395-.431-.3242-.579-.554-.148-.238-.222-.5006-.222-.7879h.85c0 .2052.066.3816.197.5294.131.1477.308.2216.53.2216.205 0 .373-.0739.504-.2216.132-.1478.198-.3242.198-.5294h.837c0 .2873-.074.5499-.222.7879-.139.2298-.328.4145-.566.554-.238.1313-.489.197-.751.197z"/><path d="m205.495 29.062h1.047v2.6346h3.424v-2.6346h1.034v6.2788h-1.034v-2.6716h-3.424v2.6716h-1.047z"/></g><g clip-path="url(#a)"><path d="m83.9992 48c-13.4395 0-17.0579-.6794-20.1889-3.8105-3.1457-3.1532-3.8103-6.7495-3.8103-20.1895s.6794-17.0363 3.8103-20.18954c3.131-3.131075 6.7494-3.81046 20.1889-3.81046 13.4396 0 17.0578.679385 20.1888 3.81046 3.146 3.15324 3.81 6.74954 3.81 20.18954s-.664 17.0363-3.81 20.1895c-3.131 3.1311-6.7492 3.8105-20.1888 3.8105z" fill="#fff"/><path d="m93.4149 23.9778c-.9157 0-1.5138-.6055-1.5138-1.4991 0-.8787.6055-1.4769 1.5138-1.4769h2.3926v2.976zm4.3939-4.704h-4.6302c-1.9643 0-3.3083 1.2849-3.3083 3.1311 0 1.4621.8345 2.5698 2.1563 2.9538l-2.5255 3.8474h2.2375l2.2745-3.5003h1.7871v3.5003h2.0086zm-25.0486 2.6068v-2.9982h3.8917v8.4997h-4.8813c.5243-.9157.9896-3.0351.9896-5.5015zm5.952-4.9182h-7.9385v4.9994c0 2.5477-.4505 4.5342-1.0486 5.4277h-.9526v4.5342h1.9643v-2.6807h7.4289v2.6807h1.9643v-4.5342h-1.4178zm5.9889 10.56-.1772-.1181 2.3187-8.1305h-4.6892l-.5022 1.8092 2.725-.0221-1.7723 6.2031c-.3102 1.1298.4504 2.1784 1.691 2.1784.3914 0 .7754-.096 1.2037-.3692l3.1902-2.1563-.9748-1.44zm1.3588-10.1169c.9895 0 1.403-.3692 1.403-1.248 0-.9157-.4283-1.2849-1.403-1.2849-.9748 0-1.4031.3692-1.4031 1.2849.0074.8788.4135 1.248 1.4031 1.248z" fill="#000"/></g><path d="m4.59583 4.59662.00079-.00079c1.76473-1.76875 4.01203-2.67496 7.13458-3.13358 3.1392-.46105 7.1012-.46225 12.2645-.46225s9.1255.00119 12.2658.46121c3.1236.45757 5.3733 1.36173 7.1423 3.1265 1.7691 1.76909 2.6753 4.01878 3.1339 7.14239.4611 3.1403.4623 7.1023.4623 12.2656s-.0012 9.1254-.4623 12.2656c-.4586 3.1237-1.3648 5.3734-3.1339 7.1425-1.7691 1.769-4.0208 2.6753-7.1456 3.1339-3.1413.4611-7.1034.4623-12.2625.4623-5.159 0-9.1211-.0012-12.2613-.4623-3.12375-.4586-5.37315-1.3648-7.13778-3.1335l-.00039-.0004c-1.76903-1.7691-2.67533-4.0208-3.13397-7.1456-.46107-3.1413-.46226-7.1034-.46226-12.2625 0-5.159.00119-9.1211.46226-12.2613.45863-3.12375 1.36489-5.37315 3.13357-7.13778z" stroke="#fff" stroke-width="2"/><path d="m22.9655 39.424c-1.7241-1.3147-2.9956-3.2759-3.4051-5.5604h-5.5604v-24.0301c2.9957 1.487 5.1293 4.7845 5.388 8.1896l.8405 6.7457-.4095-.0646c-.9052 0-1.681.8405-1.681 1.681 0 .7759.6034 1.444 1.3793 1.6164l1.0128.237c1.6811-3.1681 2.6294-6.2715 2.6294-9.3319 0-2.7586-.3664-5.4956-.4095-8.2974 0-1.24995.4741-2.3922 1.25-3.2758.7759.90515 1.25 2.02585 1.25 3.2758 0 2.8018-.4095 5.5604-.4095 8.2974 0 3.0388.9483 6.1638 2.6294 9.3319l1.0128-.237c.7759-.1724 1.3793-.8405 1.3793-1.6164 0-.8405-.7758-1.681-1.681-1.681l-.4095.0646.8405-6.7457c.4095-3.4051 2.3923-6.7026 5.388-8.1896v24.0301h-5.5604c-.4095 2.263-1.6164 4.3104-3.4051 5.5604-.4095.3017-.7759.6681-1.013 1.1422-.2801-.4957-.6465-.8405-1.056-1.1422zm-6.3362-13.8578c.2371-.9051.9052-1.681 1.7242-2.1551l-.6681-5.5604c-.2371-1.7241-.9483-3.2758-2.0259-4.5474v12.2414h.9698zm2.8233 6.6164c0-.8405.1293-1.6164.3017-2.3922l-.7758-.1724c-1.1423-.3664-2.0259-1.25-2.3276-2.3923h-.9483v4.9569zm3.6854 0c0-1.0129-.7759-1.9181-1.7889-2.0259-.1724.6466-.3017 1.3147-.3017 2.0259zm0 1.681h-1.8535c.3017 1.3147.9483 2.5 1.8535 3.5345zm2.6293-5.1939c-.7112-1.3147-1.3793-2.694-1.7888-4.1164-.4095 1.444-1.0777 2.8017-1.7889 4.1164.7112.1724 1.3147.6465 1.7889 1.1853.4741-.5388 1.0776-1.0129 1.7888-1.1853zm1.1422 3.5129c0-.7112-.1294-1.3793-.3018-2.0259-1.0129.1294-1.7887 1.013-1.7887 2.0259zm-.2371 1.681h-1.8534v3.5345c.9052-1.0345 1.5517-2.2198 1.8534-3.5345zm5.625-1.681v-4.9569h-.9483c-.3017 1.1423-1.1853 2.0259-2.3276 2.3923l-.7758.1724c.1724.7758.3017 1.5517.3017 2.3922zm0-6.6164v-12.2413c-1.0775 1.25-1.8535 2.8017-2.0259 4.5474l-.668 5.5603c.8405.4741 1.487 1.25 1.7241 2.1552h.9698z" fill="#fff"/></svg>