<svg fill="none" height="40" viewBox="0 0 140 40" width="140" xmlns="http://www.w3.org/2000/svg" xmlns:xlink="http://www.w3.org/1999/xlink"><clipPath id="a"><path d="m0 0h139.997v40h-139.997z"/></clipPath><g clip-path="url(#a)"><path d="m53.6493 15.2268c.0254.0602.0378.1252.0362.1906s-.017.1297-.0453.1886c-.0283.059-.0688.1113-.1189.1534-.05.0421-.1084.0731-.1713.0909l-2.6501.7857c-.3242.0935-.4926 0-.6235-.3243-.1523-.643-.5325-1.2091-1.0702-1.5932-.5378-.3841-1.1965-.5602-1.8542-.4956-2.4942 0-3.3484 1.4778-3.3484 3.4669v4.5767c0 1.9891.8418 3.4669 3.3484 3.4669 2.0639 0 3.1177-.9602 3.1177-3.0491v-.6235h-2.6937c-.0516.0043-.1035-.0031-.1519-.0217-.0483-.0186-.0918-.0478-.1272-.0856s-.0618-.0832-.0771-.1326c-.0154-.0495-.0194-.1017-.0117-.153v-2.4816c-.0065-.051-.0017-.1028.0141-.1518.0158-.0489.0423-.0937.0774-.1312.0351-.0376.0781-.0669.1259-.0859.0478-.0189.0992-.0271.1505-.024h5.9984c.0512-.0077.1035-.0037.153.0117.0494.0154.0948.0417.1326.0771.0377.0354.067.0789.0856.1273.0186.0483.026.1002.0217.1518v3.7849c0 3.6165-2.6563 6.3414-6.7841 6.3414-4.8948 0-7.1832-2.8995-7.1832-6.8589v-4.8387c0-3.9844 2.2884-6.8589 7.1832-6.8589 3.9594 0 5.749 2.2572 6.4661 4.5206zm13.4684 4.5269v8.8729c.0027.0491-.005.0981-.0225.144-.0175.0458-.0445.0875-.0792.1222-.0348.0347-.0764.0617-.1223.0792-.0458.0176-.0949.0252-.1439.0225h-2.7061c-.0508.0054-.1022-.0001-.1506-.0164-.0485-.0162-.0928-.0427-.1301-.0776s-.0666-.0774-.086-.1247c-.0193-.0473-.0283-.0981-.0262-.1492v-1.4528c-.3843.6468-.9327 1.1807-1.5897 1.5475s-1.3992.5536-2.1515.5413c-2.5565 0-4.2089-1.6461-4.2089-4.1777 0-2.5315 1.5526-3.9345 5.3375-4.2026.8177-.0624 1.639-.0624 2.4567 0v-1.0101c0-1.3282-.6859-1.8707-1.8706-1.8707-.4105-.0577-.8279.0374-1.1728.2674-.3449.2299-.5932.5786-.6978.9797-.1247.2931-.2182.343-.4926.2681l-2.7061-.6859c-.2682-.0748-.2931-.2244-.2432-.4177.3679-1.9455 2.2135-3.3734 5.4559-3.3734 3.417 0 5.3375 1.6275 5.3375 4.6766zm-3.629 4.6079v-1.2408c-.7221-.0261-1.4451-.0011-2.1637.0748-1.3718.1684-2.1138.5861-2.1138 1.6462 0 .954.6236 1.4715 1.696 1.4715.5816.012 1.1507-.1694 1.6179-.5159.4673-.3465.8062-.8384.9636-1.3984zm13.3936-9.2845c.7578-.0138 1.4988.2233 2.1078.6744s1.0517 1.0909 1.2593 1.8198c1.0101-1.4778 2.2385-2.4942 3.9595-2.4942 2.3819 0 3.7412 1.8707 3.7412 4.7202v8.8293c-.0038.0537-.0185.1059-.0431.1538-.0245.0478-.0585.0901-.0999.1245-.0413.0343-.0892.06-.1407.0754s-.1056.0202-.159.0142h-2.8246c-.0534.006-.1075.0012-.159-.0142s-.0994-.0411-.1408-.0754c-.0413-.0344-.0753-.0767-.0998-.1245-.0246-.0479-.0393-.1001-.0431-.1538v-8.187c0-1.2471-.5425-1.9704-1.5028-1.9704-.9602 0-1.7459.8418-2.1138 2.12v8.0374c.0035.0471-.0028.0944-.0185.1389-.0157.0446-.0405.0854-.0726.1199-.0322.0346-.0712.0621-.1145.0808-.0434.0188-.0901.0284-.1373.0283h-3.0553c-.2183 0-.318-.1496-.318-.3679v-8.187c0-1.2471-.5425-1.9704-1.5028-1.9704-.9602 0-1.7708.8854-2.1138 2.145v8.0124c.0049.0495-.0013.0995-.0181.1464-.0168.0468-.0437.0893-.0789.1245s-.0777.0621-.1245.0789c-.0469.0168-.0968.023-.1464.0181h-2.9992c-.0495.0049-.0995-.0013-.1463-.0181s-.0894-.0437-.1245-.0789c-.0352-.0352-.0622-.0777-.0789-.1245-.0168-.0469-.023-.0969-.0182-.1464v-12.9072c-.0001-.0472.0095-.094.0283-.1373s.0463-.0823.0808-.1145c.0346-.0322.0754-.0569.1199-.0726s.0918-.022.1389-.0186h2.8745c.0473-.0044.095.0013.14.0166.0449.0153.0861.04.1209.0724.0347.0324.0622.0718.0807.1155.0184.0438.0274.091.0263.1385v1.5464c.8169-1.1286 1.9953-2.1887 3.7413-2.1887zm26.5317.2993c.075.318 0 .5612-.318.6236l-2.607.7607c-.058.0282-.123.042-.188.0404-.065-.0017-.129-.0187-.186-.0497-.057-.0311-.106-.0752-.1429-.1289-.0368-.0536-.0604-.1153-.0687-.1798-.3742-1.2471-1.0102-2.2136-2.8309-2.2136-2.2385 0-2.9494 1.4778-2.9494 3.4669v4.5768c0 1.9891.8107 3.4669 2.9494 3.4669 1.9205 0 2.6563-1.085 2.9495-2.4381.006-.0661.029-.1295.066-.1847s.087-.1005.145-.1319c.059-.0314.124-.048.191-.0482.066-.0002.131.0158.19.0468l2.613.848c.063.0183.121.0493.172.0911.05.0418.092.0935.122.1519s.047.1223.051.1878c.004.0654-.005.131-.027.1928-.624 2.6562-2.532 4.8137-6.5162 4.8137-4.4707 0-6.7342-2.8995-6.7342-6.8589v-4.82c0-3.9844 2.3071-6.8589 6.7342-6.8589 3.8842 0 5.7052 2.0639 6.3912 4.6703zm13.088 4.3773v8.8729c.003.0491-.005.0981-.023.144-.017.0458-.044.0875-.079.1222s-.076.0617-.122.0792c-.046.0176-.095.0252-.144.0225h-2.706c-.051.0054-.102-.0001-.151-.0164-.048-.0162-.092-.0427-.13-.0776-.037-.0349-.066-.0774-.086-.1247-.019-.0473-.028-.0981-.026-.1492v-1.4528c-.384.6468-.933 1.1807-1.59 1.5475s-1.399.5536-2.151.5413c-2.557 0-4.203-1.6461-4.203-4.1777 0-2.5315 1.547-3.9345 5.331-4.2026.82-.0625 1.644-.0625 2.463 0v-1.0101c0-1.3282-.692-1.8707-1.87-1.8707-.41-.055-.826.0413-1.171.2708-.344.2296-.593.5766-.7.9763-.118.2931-.218.343-.492.2681l-2.7-.6859c-.275-.0748-.3-.2244-.25-.4177.368-1.9455 2.214-3.3734 5.462-3.3734 3.417 0 5.332 1.6275 5.332 4.6766zm-3.617 4.6079v-1.2408c-.722-.0264-1.445-.0014-2.163.0748-1.378.1684-2.114.5861-2.114 1.6462 0 .954.623 1.4715 1.696 1.4715.581.011 1.15-.1709 1.617-.5172.467-.3464.806-.8376.964-1.3971zm14.149-8.742v2.6314c0 .318-.125.4427-.443.4427h-.399c-1.964 0-3.118.8854-3.511 2.3632v7.5697c.004.0456-.002.0914-.017.1347-.014.0433-.037.0832-.067.1175-.031.0343-.067.0622-.109.082-.041.0199-.085.0314-.131.0337h-3.118c-.045-.0023-.09-.0138-.131-.0337-.041-.0198-.078-.0477-.108-.082s-.053-.0742-.068-.1175-.02-.0891-.017-.1347v-12.9072c-.002-.0478.006-.0954.024-.1397s.046-.0841.081-.1167.076-.0572.122-.0722c.045-.0149.093-.0198.141-.0144h2.806c.293 0 .368.1933.368.3929v1.8207c.36-.7436.928-1.3667 1.635-1.7939s1.523-.6401 2.349-.613c.493 0 .624.0749.624.4178zm4.826 7.6695v.5176c0 1.4279.742 2.4318 2.494 2.4318s2.164-.6236 2.606-1.4466c.218-.3679.318-.4178.711-.2494l1.939.9851c.399.1996.424.3929.25.7608-.836 1.8706-2.925 2.9742-5.531 2.9742-3.935 0-5.999-2.332-5.999-5.5307v-3.1177c0-3.1177 1.94-5.5371 5.974-5.5371 3.835 0 5.705 2.4381 5.705 5.4622v2.1637c0 .3679-.124.6236-.623.6236zm0-2.8745v.4677h4.745v-.4677c.03-.3172-.011-.637-.119-.9368s-.28-.5721-.505-.7977-.497-.3989-.797-.5075c-.299-.1087-.619-.15-.936-.1212-.319-.0292-.64.0116-.942.1197-.301.108-.575.2807-.802.5059-.228.2251-.404.4974-.515.7975-.111.3002-.155.6211-.129.9401z" fill="#fff"/><path d="m17.0039-.00002206h-16.498834c-.06603-.00082544-.131567.01146776-.19281.03616656-.061242.0246988-.116971.0613115-.163954.1077145s-.0842856.101673-.1097432.162604-.03856396.12631-.0385588.192346v23.993791c.00165329 4.1117 1.63619 8.0545 4.54422 10.9613 2.90802 2.9069 6.85148 4.5398 10.96318 4.5398h1.4965c4.1112 0 8.0539-1.6331 10.961-4.5401 2.907-2.9071 4.5402-6.8499 4.5402-10.961v-8.9915c0-4.1111-1.6332-8.0539-4.5402-10.96094-2.9071-2.90703-6.8498-4.54018206-10.961-4.54018206zm10.5191 24.75452206c0 5.8363-4.2837 10.2447-10.9556 10.2447-7.90021 0-11.59156-4.689-11.59156-11.0865v-7.813c0-6.43487 3.69135-11.11765 11.57906-11.11765 6.3913 0 9.2908 3.65394 10.4443 7.30785.0446.097.0677.2025.0678.3092.0001.1068-.0228.2123-.0672.3093-.0444.0971-.1092.1835-.19.2532s-.1757.1212-.2782.1509l-4.29 1.2471c-.5113.1559-.7919 0-.9478-.5175-.6796-2.1824-2.1075-3.3734-4.7264-3.3734-4.053 0-5.3998 2.3819-5.3998 5.6119v7.4014c0 3.2174 1.3468 5.6118 5.3998 5.6118 3.336 0 5.0819-1.5526 5.0819-4.9259v-.9665h-4.4708c-.0846.0113-.1706.0029-.2514-.0244-.0808-.0274-.1542-.073-.2145-.1333s-.1059-.1337-.1333-.2145c-.0273-.0808-.0356-.1668-.0244-.2514v-4.0966c-.0065-.0836.0051-.1675.0341-.2462.029-.0786.0747-.15.134-.2093.0593-.0592.1307-.105.2093-.134s.1626-.0406.2462-.034h9.7085c.0817-.0105.1646-.0026.2429.0231.0782.0256.1498.0683.2095.125s.106.126.1356.2028c.0296.0769.0417.1593.0355.2414z" fill="#4f00ee"/><path d="m43.6599 34.3009c.0072.0123.0115.0262.0125.0405s-.0013.0286-.0068.0419c-.0054.0132-.0138.025-.0245.0345s-.0235.0164-.0373.0202l-.4364.1372c-.0686 0-.1061 0-.1372-.0561-.0625-.2426-.2089-.4552-.4132-.6002s-.4533-.2129-.703-.1917c-.1691-.0226-.3411-.0059-.5027.0488s-.3084.1459-.429.2665c-.1207.1206-.2119.2675-.2665.4291-.0547.1616-.0714.3336-.0488.5027v1.6524c-.0226.1691-.0059.3411.0488.5027.0546.1616.1458.3084.2665.429.1206.1207.2674.2119.429.2665.1616.0547.3336.0714.5027.0488.7046 0 1.1661-.3242 1.1661-1.0537v-.6236h-1.0226c-.0562 0-.0873 0-.0873-.0935v-.343c0-.0623 0-.0935.0873-.0935h1.5837c.013-.0019.0263-.0009.0389.003.0125.004.024.0107.0336.0197s.017.02.0218.0323c.0047.0123.0066.0254.0055.0385v1.1473c.0022.2331-.0449.4639-.1383.6774-.0933.2136-.2308.4049-.4033.5616-.1726.1566-.3763.275-.5978.3473s-.4558.097-.6876.0724c-.2548.0299-.5131.0025-.756-.0803-.2428-.0827-.4641-.2188-.6476-.3981-.1836-.1793-.3246-.3974-.413-.6383-.0883-.2409-.1217-.4985-.0976-.754v-1.7521c-.0241-.2555.0093-.5131.0976-.754.0884-.2409.2294-.4589.413-.6383.1835-.1793.4048-.3153.6476-.3981.2429-.0828.5012-.1102.756-.0802.3859-.0308.7706.0728 1.0889.2933.3182.2204.5503.5442.657.9164zm3.3672 2.9618v-.6236c-.2949-.0186-.5906-.0186-.8855 0-.5487.0624-.8792.2557-.8792.7109-.0073.0953.0074.191.0429.2797.0355.0888.091.1682.1621.2321.0712.0638.156.1105.248.1364.0921.0258.1888.0302.2828.0127.2272-.0019.4482-.0744.6325-.2073s.3228-.3197.3964-.5347zm.6235-1.5901v2.7249c0 .0561 0 .0811-.0935.0811h-.4365c-.0624 0-.0935 0-.0935-.0811v-.5175c-.12.2027-.2905.3707-.4949.4877-.2044.1169-.4357.1788-.6712.1795-.1608.016-.3232-.0024-.4764-.0542-.1531-.0518-.2934-.1357-.4115-.2461-.118-.1104-.2112-.2448-.2731-.3941-.062-.1493-.0913-.3101-.086-.4717 0-.7295.4926-1.1286 1.4528-1.2034.3135-.0217.6281-.0217.9415 0v-.4614c0-.5238-.3055-.742-.7981-.742-.1753-.029-.355.0087-.5039.1056s-.2561.2461-.3004.4182c0 .0685-.0499.0748-.1248.0623l-.424-.1185c-.0685 0-.0873-.0499-.0685-.106.1309-.5487.6235-.9041 1.4403-.9041.8169 0 1.4217.3991 1.4217 1.2471zm2.8683-1.2533c.2163-.0045.4279.0637.6009.1937s.2973.3143.3531.5234c.1154-.2091.2828-.3849.4859-.5105.2032-.1256.4352-.1967.6739-.2066.6235 0 1.0537.4739 1.0537 1.2159v2.7498c0 .0624-.0374.0873-.0997.0873h-.4303c-.0686 0-.0997 0-.0997-.0873v-2.6251c0-.4863-.2183-.7482-.6236-.7482-.2029.0232-.3941.107-.5487.2404-.1546.1335-.2654.3105-.318.5078v2.6376c0 .0624 0 .0873-.0873.0873h-.4801c-.0686 0-.0873 0-.0873-.0873v-2.6376c0-.4863-.212-.7482-.6235-.7482-.201.0286-.3895.1144-.5431.247-.1537.1327-.266.3066-.3237.5012v2.6064c0 .0624 0 .0873-.0873.0873h-.4738c-.0686 0-.0873 0-.0873-.0873v-3.7911c0-.0499 0-.081.0873-.081h.4614c.0686 0 .0873.0311.0873.081v.5238c.1125-.1979.2733-.3639.4674-.4828s.4151-.1866.6425-.1969zm4.9509 1.615v.9228c-.0091.1331.0103.2666.0567.3917.0465.125.119.2388.2127.3337.0938.0949.2066.1689.3311.2169.1244.048.2577.069.3909.0616.5736 0 .9166-.3367.9166-1.0039v-.929c0-.661-.343-1.0164-.9166-1.0164-.1328-.003-.2648.0219-.3875.0729s-.2334.1271-.3249.2233c-.0916.0963-.1621.2107-.2069.3357-.0448.1251-.063.2582-.0534.3907zm.0187-2.9805v1.9891c.122-.199.2951-.3618.5012-.4714s.4378-.1622.671-.1522c.1935-.003.3854.0353.5628.1123.1775.0771.3365.1911.4664.3346.1298.1434.2276.3129.2867.4971.059.1843.0781.379.0559.5712v1.1037c.0216.1938.0012.3901-.0598.5754-.061.1852-.1611.3552-.2936.4984-.1325.1431-.2943.2561-.4743.3312s-.3741.1105-.569.104c-.2312.0077-.4603-.0459-.664-.1554-.2037-.1096-.3748-.2711-.4958-.4682v.4614c0 .0562-.0436.0749-.0873.0749h-.4614c-.0561 0-.0873 0-.0873-.0749v-5.3312c-.001-.0109.0005-.0219.0042-.0321.0038-.0103.0097-.0196.0174-.0274.0077-.0077.0171-.0136.0273-.0174.0103-.0037.0213-.0051.0322-.0042h.4925c.0562 0 .0749 0 .0749.0811zm4.2151 0v5.3312c0 .0624 0 .0873-.0873.0873h-.4739c-.0748 0-.0935 0-.0935-.0873v-5.3312c0-.0561 0-.0873.0935-.0873h.4739c.0119-.0023.0243-.0015.0359.0021s.0222.0099.0307.0185c.0086.0086.015.0192.0186.0308s.0043.0239.0021.0359zm1.7459 1.5276v3.8099c0 .0561 0 .081-.0811.081h-.4738c-.0749 0-.0936 0-.0936-.081v-3.8099c0-.0561 0-.081.0936-.081h.4738c.0624 0 .0811 0 .0811.081zm0-1.5027v.6984c0 .0686 0 .106-.106.106h-.4365c-.0144.0021-.0291.0008-.0429-.0038s-.0264-.0123-.0367-.0226c-.0102-.0103-.018-.0229-.0226-.0367s-.0059-.0285-.0038-.0429v-.6984c-.0021-.0144-.0008-.0291.0038-.0429s.0124-.0264.0226-.0367c.0103-.0103.0229-.018.0367-.0226s.0285-.0059.0429-.0038h.4365c.0811 0 .106.0374.106.106zm1.7771 2.7124v2.6002c0 .0561 0 .081-.0811.081h-.4489c-.0748 0-.0936 0-.0936-.081v-3.8161c0-.0499 0-.081.0873-.081h.4615c.0686 0 .0873.0311.0873.081v.5238c.1365-.2066.3215-.3765.5389-.495s.4606-.1819.7081-.1847c.1669-.0044.3328.0277.486.094s.2901.1653.4011.2899c.1111.1247.1936.2721.2417.432.0482.1599.0609.3283.0372.4936v2.6625c0 .0561 0 .081-.0935.081h-.4739c-.0623 0-.0935 0-.0935-.081v-2.5565c0-.5113-.2307-.8106-.7295-.8106-.2245.0139-.4398.0943-.6186.2308-.1787.1366-.3129.3232-.3853.5361zm3.9595.0624c-.0102.1182.0062.2373.0479.3484.0417.1112.1076.2116.193.2941.0855.0824.1882.1448.3008.1825.1125.0377.2321.0498.3499.0354.1147.015.2312.0037.3408-.0331s.2094-.0982.2917-.1793c.0824-.0812.1452-.18.1836-.2891.0384-.109.0515-.2254.0382-.3402 0-.2315-.092-.4536-.2557-.6173s-.3858-.2557-.6173-.2557-.4536.092-.6173.2557-.2556.3858-.2556.6173zm2.0888 3.0117c0-.2869-.1621-.555-.7482-.555h-.7296c-.5487 0-.717.2806-.717.5674 0 .3991.3117.661 1.0787.661.7669 0 1.1161-.2744 1.1161-.6734zm.6235-.0437c0 .6236-.4863 1.191-1.777 1.191-1.191 0-1.6586-.449-1.6586-1.0725.0025-.1902.0638-.375.1754-.529.1117-.154.2681-.2698.4481-.3315-.082-.0574-.1498-.1328-.1984-.2202-.0486-.0875-.0767-.1849-.0822-.2849.0046-.1231.0455-.2421.1176-.342.0721-.0998.1723-.1761.2877-.2192-.1979-.1139-.3607-.28-.4706-.4801-.11-.2001-.1629-.4266-.1529-.6547-.0101-.1923.0225-.3845.0953-.5628.0727-.1783.1839-.3384.3257-.4688.1417-.1304.3104-.228.4942-.2857.1837-.0577.3779-.0742.5688-.0482h1.7397c.0498 0 .0748.0311.0748.0873v.3554c0 .0686-.0374.0935-.0873.0935h-.6921c.1343.1106.2409.2511.3113.4103.0703.1591.1025.3325.094.5063 0 .7358-.4926 1.2471-1.4404 1.2471h-.3243c-.2743 0-.3928.1247-.3928.2743 0 .1497.1247.2744.3928.2744h.8543c.9353 0 1.3032.4676 1.3032 1.0475zm5.9548-4.6266c.0064.0121.0095.0256.0092.0392-.0003.0137-.004.027-.0109.0388-.0068.0119-.0165.0218-.0282.0288-.0117.0071-.025.0111-.0387.0116l-.4053.1559c-.0126.0049-.0261.0072-.0397.0067s-.0269-.0038-.0392-.0097c-.0122-.0058-.0232-.0141-.0321-.0243s-.0157-.0221-.0199-.035c-.069-.2145-.2078-.3998-.3942-.5263s-.4098-.1871-.6346-.1721c-.6236 0-.979.2931-.979.7732s.2619.6235 1.2471 1.0226 1.4092.8231 1.4092 1.5651c-.0055.2133-.0554.4232-.1466.6162s-.2216.3648-.383.5045-.3502.2441-.5543.3067c-.204.0625-.4189.0818-.6308.0566-.3875.0396-.7763-.0606-1.0964-.2824s-.5505-.5506-.6496-.9273c0-.0748 0-.106.0624-.1309l.424-.1372c.0811 0 .1122 0 .131.0748.0605.2458.2084.4611.4161.6057.2077.1445.461.2085.7125.18.6235 0 1.0288-.3118 1.0288-.8168 0-.5051-.237-.6859-1.1411-1.0351-1.0849-.4303-1.4965-.8543-1.4965-1.59.008-.2037.0581-.4034.1473-.5867.0891-.1832.2154-.3459.3707-.4778.1554-.1319.3364-.2301.5317-.2884.1952-.0582.4005-.0753.6027-.0501.3572-.0248.7124.0703 1.0095.2702.297.1999.5189.4932.6304.8335zm1.0039 3.0491v-2.6626c0-.0561.0312-.0872.0936-.0872h.4739c.0623 0 .0935.0311.0935.0872v2.5503c0 .5176.2307.8169.7233.8169.2257-.0128.4424-.0935.6215-.2314.1791-.138.3124-.3268.3824-.5418v-2.594c0-.0561 0-.0872.0935-.0872h.4677c.0748 0 .0935.0311.0935.0872v3.8036c0 .0562 0 .0873-.0873.0873h-.4614c-.012.0023-.0243.0016-.0359-.002s-.0222-.01-.0308-.0186-.0149-.0192-.0185-.0308-.0043-.0239-.0021-.0359v-.5175c-.135.2085-.3196.3802-.5372.4999s-.4615.1836-.7099.186c-.1666.0033-.3319-.0295-.4846-.0961-.1527-.0667-.2892-.1657-.4-.2901s-.1933-.2714-.2419-.4308c-.0486-.1593-.062-.3274-.0395-.4924zm6.7031-.2931v-.9478c.02-.1286.0107-.26-.0271-.3846-.0377-.1245-.1031-.239-.1911-.3348-.0881-.0958-.1966-.1706-.3175-.2188s-.2511-.0685-.3809-.0594c-.1312-.0038-.2617.0199-.3831.0695-.1215.0496-.2312.1241-.3222.2186s-.1613.207-.2063.3303c-.0449.1232-.0637.2545-.0549.3855v.9353c-.0097.1322.0085.265.0534.3898.0449.1247.1155.2387.2071.3345.0917.0958.2025.1712.3251.2216.1227.0503.2546.0743.3871.0704.5737 0 .9166-.3492.9166-1.0101zm-2.4505 2.9743c-.0109.0009-.0219-.0005-.0321-.0043-.0103-.0037-.0196-.0096-.0274-.0174-.0077-.0077-.0136-.017-.0174-.0273-.0037-.0102-.0051-.0212-.0042-.0321v-5.2689c0-.0561.0312-.081.0873-.081h.4614c.0114-.002.0231-.0014.0341.0019.0111.0033.0212.0091.0297.0169.0084.0079.0149.0176.019.0284s.0056.0223.0045.0338v.449c.1234-.195.2949-.3548.4981-.464s.4311-.1642.6617-.1596c.1944-.0064.3878.0289.5674.1036.1795.0747.3409.1871.4733.3296.1324.1424.2327.3116.2941.4961s.0826.3801.0619.5734v1.1162c.0212.192.0014.3863-.0581.5701-.0594.1838-.1572.3529-.2869.4961-.1296.1432-.2882.2573-.4652.3347s-.3684.1163-.5616.1143c-.2326.0115-.464-.0404-.6694-.1502-.2054-.1099-.377-.2735-.4966-.4734v1.9081c.001.0109-.0005.0218-.0042.0321s-.0097.0196-.0174.0273-.0171.0137-.0273.0174c-.0103.0037-.0212.0052-.0321.0042zm6.6781-2.9743v-.9478c.0199-.1286.0107-.26-.0271-.3846-.0377-.1245-.1031-.239-.1911-.3348-.0881-.0958-.1966-.1706-.3175-.2188s-.2511-.0685-.3809-.0594c-.1312-.0038-.2617.0199-.3831.0695-.1215.0496-.2313.1241-.3223.2186s-.1612.207-.2062.3303c-.0449.1232-.0637.2545-.0549.3855v.9353c-.0096.1317.0084.2639.0529.3882.0445.1244.1145.238.2055.3337s.201.1713.3229.222c.122.0507.2532.0754.3852.0724.5736 0 .9166-.3492.9166-1.0101zm-2.4568 2.9743c-.0109.0009-.0218-.0005-.0321-.0043-.0103-.0037-.0196-.0096-.0273-.0174-.0077-.0077-.0137-.017-.0174-.0273-.0037-.0102-.0052-.0212-.0042-.0321v-5.2689c0-.0561.0311-.081.0873-.081h.4614c.0113-.002.023-.0014.0341.0019.011.0033.0212.0091.0296.0169.0085.0079.015.0176.0191.0284s.0056.0223.0045.0338v.449c.1233-.195.2949-.3548.498-.464.2032-.1092.4311-.1642.6618-.1596.1948-.0073.389.0273.5693.1016s.3425.1866.4756.3291c.1331.1426.2339.3121.2957.4971.0618.1849.083.381.0623.5749v1.1162c.0213.1925.0013.3874-.0585.5716-.0599.1843-.1582.3537-.2886.497-.1303.1433-.2896.2572-.4674.3342-.1777.077-.3698.1153-.5635.1124-.2324.0102-.4633-.0423-.6684-.152-.2052-.1097-.3771-.2726-.4976-.4716v1.9081c.0009.0109-.0005.0218-.0042.0321-.0038.0103-.0097.0196-.0175.0273-.0077.0077-.017.0137-.0273.0174-.0102.0037-.0212.0052-.0321.0042zm4.7015-3.9283v1.0101c0 .253.1005.4957.2794.6746s.4216.2794.6746.2794.4957-.1005.6746-.2794.2794-.4216.2794-.6746v-1.0101c0-.253-.1005-.4957-.2794-.6746s-.4216-.2794-.6746-.2794-.4957.1005-.6746.2794-.2794.4216-.2794.6746zm2.5627-.0312v1.0413c0 .4267-.1694.8359-.4711 1.1376s-.7109.4711-1.1376.4711c-.4266 0-.8358-.1694-1.1375-.4711s-.4712-.7109-.4712-1.1376v-1.0226c0-.4267.1695-.8358.4712-1.1375s.7109-.4712 1.1375-.4712c.4267 0 .8359.1695 1.1376.4712s.4711.7108.4711 1.1375zm2.9868-1.4528v.4427c0 .0686 0 .0935-.0998.0935h-.081c-.2494-.0085-.4948.0641-.6994.2069s-.3574.348-.4355.585v2.5316c0 .0561-.0374.0748-.081.0748h-.4926c-.0101.001-.0202-.0003-.0298-.0037-.0095-.0035-.0181-.0089-.0253-.0161-.0071-.0071-.0126-.0158-.016-.0253s-.0047-.0197-.0038-.0297v-3.7974c0-.0623 0-.081.0873-.081h.449c.0623 0 .0935.0311.0935.0872v.6236c.1141-.2308.2926-.4237.5139-.5554.2213-.1316.4759-.1964.7332-.1866.0935 0 .1185 0 .1185.0935zm1.9018-.9541v.9541h.848c.0624 0 .0873.0311.0873.0997v.3554c0 .0686 0 .0936-.0873.0936h-.848v2.3008c0 .3554.1933.5176.5549.5176h.2869c.0623 0 .0935 0 .0935.0873v.4053c0 .0686 0 .0935-.0935.0935h-.3804c-.1417.0205-.2862.0093-.423-.0328s-.2626-.1141-.3682-.2107c-.1056-.0967-.1884-.2156-.2425-.3482-.054-.1326-.0779-.2755-.07-.4184v-2.3882h-.5424c-.0499 0-.0811 0-.0811-.0935v-.3554c0-.0686.0312-.0998.0811-.0998h.5487v-.9603c0-.0498 0-.081.0935-.081h.449c.0748 0 .0935 0 .0935.081zm7.1462.6797c0 .0748 0 .1309-.106.1621l-.699.2557c-.017.0091-.036.0142-.056.0149-.019.0007-.039-.003-.057-.0107-.018-.0078-.034-.0195-.046-.0342-.013-.0148-.023-.0322-.028-.0511-.058-.1583-.168-.2927-.311-.3819-.144-.0892-.313-.1281-.481-.1107-.43 0-.711.2058-.711.5176 0 .3117.219.4427 1.185.7794.967.3367 1.359.7981 1.359 1.5651 0 .9166-.785 1.6149-1.92 1.6149-.419.0508-.843-.0511-1.193-.287-.351-.2358-.604-.5899-.715-.9975-.006-.0159-.008-.0329-.007-.0498s.005-.0335.013-.0487c.007-.0152.018-.0286.031-.0396.013-.0109.028-.0191.044-.024l.754-.2494c.1-.0312.15 0 .175.0998.094.4053.38.6235.892.6235.511 0 .779-.2182.779-.5425 0-.3242-.193-.4365-.979-.7108-1.128-.4053-1.559-.8543-1.559-1.6898.017-.2217.077-.438.179-.6359.101-.1979.241-.3736.411-.5166.17-.1429.368-.2503.58-.3159.213-.0655.436-.0878.657-.0655.387-.0385.776.0543 1.104.2635s.576.5227.705.89zm2.244-.6235v.8979h.749c.016-.0021.032-.0004.047.0048.015.0053.029.0139.041.0254.011.0114.02.0253.025.0406s.007.0316.005.0476v.6547c.001.0156-.001.0312-.007.0457s-.015.0276-.026.0383-.025.0188-.04.0237c-.014.0049-.03.0064-.045.0046h-.749v1.7771c0 .2307.125.3616.424.3616h.325c.074 0 .118.0374.118.106v.742c0 .0749-.044.106-.118.106h-.499c-.898 0-1.322-.4739-1.322-1.1722v-1.9392h-.462c-.015.0018-.031.0003-.046-.0046-.014-.0049-.028-.013-.039-.0237-.012-.0107-.02-.0238-.026-.0383s-.008-.0301-.007-.0457v-.6547c-.002-.016 0-.0323.005-.0476s.014-.0292.025-.0406c.012-.0115.025-.0201.041-.0254.015-.0052.031-.0069.047-.0048h.481v-.8792c-.002-.0147-.001-.0296.004-.0436.004-.0141.012-.0269.022-.0377.01-.0107.022-.019.036-.0244s.029-.0076.044-.0066h.848c.068 0 .099.0437.099.1123zm3.754 3.5043v-.3742c-.208-.0123-.416-.0123-.624 0-.405.0499-.623.1746-.623.4864s.187.4365.499.4365c.171.0023.339-.052.476-.1546.138-.1026.238-.2477.284-.4129zm1.079-1.3905v2.6188c0 .0145-.003.0288-.009.0421s-.014.0252-.025.0352c-.01.0099-.022.0176-.036.0225-.014.005-.028.0071-.043.0062h-.798c-.014.0009-.029-.0012-.042-.0062-.014-.0049-.026-.0126-.037-.0225-.01-.01-.019-.0219-.024-.0352-.006-.0133-.009-.0276-.009-.0421v-.4302c-.111.1931-.272.3528-.467.4624-.194.1097-.414.1653-.637.1611-.167.0132-.335-.0101-.492-.0681-.157-.0581-.3-.1495-.419-.268-.118-.1185-.209-.2614-.267-.4186-.059-.1573-.082-.3252-.069-.4924 0-.7295.462-1.1597 1.578-1.247.241-.0219.483-.0219.723 0v-.2869c.011-.0742.004-.1499-.02-.221s-.064-.1357-.118-.1884c-.053-.0527-.118-.0922-.189-.1154-.072-.0231-.147-.0291-.221-.0176-.122-.0164-.245.0118-.347.0795s-.176.1702-.208.2883c-.038.0873-.063.106-.144.0811l-.798-.1995c-.081 0-.087-.0686-.069-.1247.106-.5737.624-.9915 1.603-.9915s1.577.4739 1.577 1.3718zm3.248-1.2159v.7794c0 .0935-.037.1247-.131.1247h-.118c-.228-.0288-.458.0262-.649.1546-.19.1285-.328.3217-.386.5438v2.2322c.002.0133.001.0268-.003.0397-.004.0128-.011.0246-.02.0347-.009.01-.02.0181-.032.0235-.012.0055-.025.0082-.039.0081h-.91c-.013.0001-.027-.0026-.039-.0081-.012-.0054-.023-.0135-.032-.0235-.009-.0101-.015-.0219-.019-.0347-.004-.0129-.005-.0264-.004-.0397v-3.8036c-.001-.0139.001-.0279.006-.0409.006-.013.013-.0247.024-.0343.01-.0095.022-.0167.035-.021.014-.0042.028-.0054.041-.0035h.83c.014-.0011.029.0012.043.0065.014.0054.026.0137.036.0245.01.0107.018.0236.023.0376.004.0141.006.029.004.0436v.5799c.105-.2179.271-.4005.478-.5256s.446-.1873.688-.179c.143 0 .174 0 .174.1247zm2.133-.8979v.8979h.748c.016-.0011.031.0013.046.007.014.0057.027.0145.038.0258s.019.0249.024.0397.006.0305.004.0459v.6547c.002.0153.001.0308-.004.0453-.005.0146-.013.0278-.024.0387-.011.0108-.024.019-.039.0239-.014.005-.03.0064-.045.0044h-.748v1.7771c0 .2307.125.3616.418.3616h.33c.015-.0019.03-.0005.044.0041s.027.0122.037.0223c.011.0102.019.0226.025.0363.005.0138.007.0286.006.0433v.742c0 .0749-.043.106-.112.106h-.505c-.898 0-1.316-.4739-1.316-1.1722v-1.9392h-.467c-.016.002-.031.0006-.046-.0044-.014-.0049-.027-.0131-.038-.0239-.011-.0109-.019-.0241-.024-.0387-.005-.0145-.007-.03-.005-.0453v-.6547c-.001-.0154 0-.0311.005-.0459s.013-.0284.024-.0397c.01-.0113.024-.0201.038-.0258.015-.0057.03-.0081.046-.007h.48v-.8792c-.002-.0153-.001-.0308.004-.0453.005-.0146.013-.0278.024-.0387.011-.0108.024-.019.039-.0239.014-.0049.03-.0064.045-.0044h.848c.014-.0001.028.0028.041.0086s.025.0143.034.0249c.01.0106.017.0232.021.0367.004.0136.006.028.004.0421zm4.739 1.7396c0 .0624 0 .1185-.088.1435l-.667.2369c-.075 0-.112 0-.143-.0811-.051-.1376-.145-.2545-.27-.3324-.124-.0779-.27-.1123-.416-.0978-.343 0-.543.1309-.543.3305 0 .1995.144.2743.911.4801.891.2369 1.247.6235 1.247 1.2471 0 .7732-.624 1.247-1.621 1.247-.998 0-1.522-.3554-1.727-.9664 0-.0873 0-.131.106-.1746l.586-.2869c.087-.0436.137 0 .18.0873.065.158.179.2912.325.3798.146.0887.316.1282.486.1128.405 0 .624-.1309.624-.3491 0-.2183-.225-.3243-.942-.5238-.879-.2307-1.247-.6236-1.247-1.2471 0-.7607.624-1.2471 1.559-1.2471.34-.0343.681.0426.974.2192.292.1765.519.4431.647.7598zm6.715-2.0888v5.0881c0 .0623 0 .106-.112.106h-.885c-.015.0008-.029-.0013-.043-.0062-.013-.005-.026-.0127-.036-.0226-.011-.0099-.019-.0219-.025-.0352s-.009-.0276-.009-.042v-2.0078h-1.827v2.0202c.001.0148-.001.0295-.006.0433-.006.0138-.014.0262-.025.0363-.01.0102-.023.0178-.037.0224-.014.0045-.029.0059-.044.004h-.91c-.015.0009-.029-.0012-.043-.0062-.013-.0049-.026-.0126-.036-.0225-.011-.01-.019-.0219-.025-.0352s-.008-.0276-.008-.0421v-5.1005c-.001-.0151.003-.0299.009-.0437.006-.0137.015-.026.026-.0361.011-.01.024-.0175.039-.022.014-.0046.029-.006.044-.0042h.904c.015-.0019.03-.0005.044.0041.014.0045.027.0122.037.0223.011.0101.019.0225.025.0363.005.0138.007.0285.006.0433v2.0202h1.827v-2.0202c0-.0145.003-.0288.009-.0421s.014-.0252.025-.0352c.01-.0099.023-.0176.036-.0225.014-.005.028-.0071.043-.0062h.904c.081 0 .112.0436.112.106zm1.927 2.6874v.1372h1.397v-.1372c.012-.094.002-.1895-.028-.2793-.031-.0898-.081-.1715-.148-.2388s-.148-.1185-.237-.1498c-.09-.0312-.185-.0416-.279-.0304-.096-.0133-.192-.0045-.284.0258-.091.0303-.174.0812-.242.1488s-.12.1501-.151.2409-.04.1876-.028.2828zm0 .848v.1497c-.017.099-.009.2007.022.2962.03.0956.084.1823.156.2527.071.0704.159.1224.255.1517s.198.035.297.0165c.156.024.317-.0045.455-.0812.139-.0768.248-.1973.311-.3428.069-.1123.1-.1248.212-.0749l.574.2931c.119.0561.125.1122.075.2245-.158.2887-.396.5252-.687.6802-.29.1551-.619.2221-.947.1927-.227.0303-.459.0103-.678-.0586s-.421-.185-.59-.3401c-.17-.1552-.303-.3456-.391-.5579s-.128-.4413-.118-.6708v-.9291c-.011-.228.028-.4557.115-.667.086-.2113.218-.4011.385-.5562.168-.155.367-.2716.585-.3414.217-.0698.447-.0913.674-.0628.22-.0219.442.004.651.0761.209.072.4.1884.56.3412.16.1529.285.3384.367.5441.081.2056.117.4264.105.6473v.6235c0 .1061-.037.1809-.193.1809zm5.549-2.2883v.7794c0 .0935-.031.1247-.13.1247h-.113c-.228-.0288-.458.0262-.649.1546-.19.1285-.327.3217-.386.5438v2.2322c.001.0131-.001.0263-.005.0387s-.011.0239-.02.0337c-.008.0099-.019.0179-.031.0237-.011.0058-.024.0091-.037.0099h-.917c-.013.0001-.027-.0026-.039-.0081-.012-.0054-.023-.0135-.032-.0235-.009-.0101-.015-.0219-.019-.0347-.004-.0129-.005-.0264-.003-.0397v-3.8036c-.002-.0139.001-.0279.006-.0409s.013-.0247.023-.0343c.01-.0095.022-.0167.035-.021.014-.0042.028-.0054.042-.0035h.829c.087 0 .106.0561.106.1122v.5799c.105-.2179.271-.4005.478-.5256s.446-.1873.688-.179c.15 0 .174 0 .174.1247zm1.584 1.4403v.1372h1.397v-.1372c.012-.094.002-.1895-.028-.2793s-.081-.1715-.148-.2388c-.066-.0673-.148-.1185-.237-.1498-.09-.0312-.185-.0416-.279-.0304-.095-.0133-.192-.0045-.283.0258s-.174.0812-.242.1488c-.069.0676-.12.1501-.151.2409s-.041.1876-.029.2828zm0 .848v.1497c-.017.099-.009.2007.022.2962.031.0956.084.1823.156.2527s.159.1224.255.1517.198.035.297.0165c.157.0244.319-.0039.458-.0806.14-.0767.251-.1974.315-.3434.062-.1123.094-.1248.206-.0749l.573.2931c.119.0561.125.1122.075.2245-.158.2887-.396.5252-.686.6802-.291.1551-.62.2221-.947.1927-.227.0284-.457.0069-.675-.0629s-.418-.1863-.586-.3412-.3-.3447-.387-.556c-.087-.2112-.127-.439-.117-.6673v-.9291c-.011-.228.028-.4557.115-.667.086-.2113.218-.4011.385-.5562.168-.155.367-.2716.584-.3414.218-.0698.448-.0913.674-.0628.22-.0219.443.004.652.0761.209.072.4.1884.56.3412.16.1529.285.3384.366.5441.082.2056.118.4264.106.6473v.6235c0 .1061-.038.1809-.193.1809z" fill="#fff"/></g></svg>