<svg fill="none" height="48" viewBox="0 0 156 48" width="156" xmlns="http://www.w3.org/2000/svg"><g fill="#fff"><path d="m60 0h4.2915v10.6942h.2543l8.1381-10.6942h5.2769v.254624l-8.8055 11.235276 9.3777 11.0442v.2547h-5.4359l-8.5513-10.1531h-.2543v10.1531h-4.2915z"/><path d="m82.9478 0h8.0108c1.4411 0 2.7551.307669 3.9419.923008 1.1867.594122 2.1192 1.442862 2.7974 2.546232.6782 1.08215 1.0173 2.32344 1.0173 3.72386 0 1.40043-.3391 2.65233-1.0173 3.7557-.6782 1.1034-1.6107 1.9627-2.7974 2.5781-1.1868.5941-2.5008.8911-3.9419.8911h-3.7193v8.3708h-4.2915zm8.138 10.3441c1.0596 0 1.8861-.3077 2.4795-.92304.6146-.61534.9219-1.35799.9219-2.22796 0-.86996-.3073-1.602-.9219-2.19612-.5934-.61534-1.4199-.92301-2.4795-.92301h-3.8465v6.27013z"/><path d="m108.094 0h4.927l8.552 22.7888h-4.737l-1.907-5.4426h-8.71l-1.908 5.4426h-4.7363zm5.436 13.3995-2.003-5.72898-.826-2.7372h-.254l-.827 2.7372-2.034 5.72898z"/><path d="m126.236 0h4.291v22.7888h-4.291z"/><path d="m136.976 23.0434c-.594 0-1.071-.0531-1.431-.1591v-4.0422c.212.1061.562.1592 1.049.1592.827 0 1.473-.2441 1.939-.7321.361-.4031.615-1.0397.763-1.9097.149-.8911.223-2.143.223-3.7557v-12.6038h16.149v22.7888h-4.292v-18.71483h-7.566v10.28043c0 1.7611-.18 3.2252-.54 4.3922-.339 1.1458-.869 2.0688-1.59 2.7691-1.102 1.0184-2.67 1.5277-4.704 1.5277z"/><path d="m60.3789 28.6691h.692v2.9444h.033l2.5949-2.9444h.9143v.033l-2.6855 2.9857 2.8009 2.8537v.033h-.9721l-2.6525-2.7795h-.033v2.7795h-.692z"/><path d="m67.074 34.7065c-.4119 0-.7826-.099-1.1121-.2969-.3295-.198-.5876-.4674-.7744-.8083-.1812-.3409-.2718-.7176-.2718-1.13s.0906-.789.2718-1.1299c.1868-.3409.4449-.6104.7744-.8083.3295-.198.7002-.2969 1.1121-.2969s.7826.0989 1.1121.2969c.3295.1979.5849.4674.7661.8083.1867.3409.2801.7175.2801 1.1299s-.0934.7891-.2801 1.13c-.1812.3409-.4366.6103-.7661.8083-.3295.1979-.7002.2969-1.1121.2969zm0-.6351c.2581 0 .497-.0632.7167-.1897.2251-.132.4036-.3189.5354-.5609.1373-.2419.206-.5251.206-.8495s-.0687-.6076-.206-.8495c-.1318-.2419-.3103-.4261-.5354-.5526-.2197-.132-.4586-.198-.7167-.198s-.4998.066-.7249.198c-.2252.1265-.4064.3107-.5437.5526-.1318.2419-.1977.5251-.1977.8495s.0659.6076.1977.8495c.1373.242.3185.4289.5437.5609.2251.1265.4668.1897.7249.1897z"/><path d="m69.9567 30.3681h.832l1.4828 2.829h.0247l1.4828-2.829h.8402v4.2064h-.7002v-2.3176l.033-.7918h-.033l-1.3839 2.5815h-.4943l-1.3922-2.5815h-.0329l.0329.7918v2.3176h-.6919z"/><path d="m76.0644 29.5928c-.1373 0-.2554-.0495-.3542-.1484-.0989-.099-.1483-.2172-.1483-.3547 0-.1374.0494-.2529.1483-.3464.0988-.099.2169-.1485.3542-.1485s.2554.0495.3542.1485c.0989.0935.1483.209.1483.3464 0 .1375-.0494.2557-.1483.3547-.0933.0989-.2114.1484-.3542.1484zm-.346.7753h.692v4.2064h-.692z"/><path d="m79.3735 34.7065c-.4064 0-.7716-.0963-1.0956-.2887-.324-.1979-.5766-.4646-.7579-.8-.1812-.3409-.2718-.7231-.2718-1.1465s.0906-.8055.2718-1.1464c.1813-.3409.4339-.6076.7579-.8001.324-.1924.6892-.2886 1.0956-.2886.4558 0 .8375.1072 1.1451.3216.313.209.5354.4894.6672.8413l-.6343.2639c-.1043-.2584-.2608-.4536-.4695-.5856-.2032-.1374-.4504-.2062-.7414-.2062-.2472 0-.4778.0688-.692.2062-.2142.132-.3872.319-.519.5609-.1263.2419-.1894.5196-.1894.833s.0631.5911.1894.833c.1318.242.3048.4317.519.5691.2142.132.4448.198.692.198.2965 0 .5519-.0687.7661-.2062s.3734-.3327.4778-.5856l.626.2639c-.1427.3464-.3734.6269-.6919.8413-.3131.2144-.6947.3217-1.1451.3217z"/><path d="m82.3795 29.5928c-.1373 0-.2554-.0495-.3543-.1484-.0988-.099-.1482-.2172-.1482-.3547 0-.1374.0494-.2529.1482-.3464.0989-.099.217-.1485.3543-.1485s.2553.0495.3542.1485c.0988.0935.1483.209.1483.3464 0 .1375-.0495.2557-.1483.3547-.0934.0989-.2114.1484-.3542.1484zm-.346.7753h.6919v4.2064h-.6919z"/><path d="m83.3316 34.5333 1.2192-1.5176-.0247-.0165c-.2911-.0715-.53-.2227-.7167-.4537-.1812-.2309-.2718-.5003-.2718-.8082 0-.253.0631-.4839.1894-.6929.1264-.2144.2966-.3794.5108-.4948.2197-.121.4586-.1815.7167-.1815h1.9523v4.2064h-.692v-1.5176h-.9226l-1.1615 1.5176h-.7991zm2.8832-2.0785v-1.4516h-1.2191c-.2087 0-.3872.0687-.5355.2062-.1428.1375-.2142.3107-.2142.5196 0 .2145.0714.3904.2142.5279.1483.1319.3268.1979.5355.1979z"/><path d="m91.3916 34.7065c-.3185 0-.6233-.066-.9144-.198-.291-.1319-.5409-.3161-.7496-.5526l.4778-.4619c.1812.1925.3652.3382.5519.4372.1922.0935.4037.1402.6343.1402.3131 0 .5602-.0632.7414-.1897.1813-.1265.2719-.2914.2719-.4949 0-.1814-.0769-.3381-.2307-.4701-.1483-.132-.3487-.1979-.6013-.1979h-.6673v-.5609h.6178c.2087 0 .3845-.0577.5272-.1732.1483-.1155.2225-.2749.2225-.4784 0-.1704-.0797-.3189-.2389-.4454-.1538-.1264-.3625-.1897-.6261-.1897-.2087 0-.3954.0358-.5602.1073-.1647.0714-.3295.1924-.4942.3629l-.4613-.4537c.2086-.2254.4338-.3904.6755-.4948.2471-.1045.5272-.1567.8402-.1567.2856 0 .5464.0549.7826.1649.2416.1045.4311.2502.5684.4372.1373.1869.2059.3958.2059.6268 0 .2254-.0521.4179-.1565.5773-.1043.154-.2444.2695-.4201.3464v.033c.2252.0935.4009.2282.5272.4042.1318.1704.1977.3684.1977.5938 0 .3904-.1565.7038-.4695.9403-.3131.2309-.7304.3464-1.2522.3464z"/><path d="m95.868 30.3681h.6673v.6269h.0329c.1263-.2145.3158-.3932.5684-.5361.2581-.1485.5465-.2227.865-.2227.3734 0 .7139.0962 1.0215.2886.3075.1925.5492.4592.7249.8001s.264.723.264 1.1464c0 .4289-.0883.8138-.264 1.1547-.1757.3354-.4174.5993-.7249.7918-.3076.1924-.6481.2887-1.0215.2887-.3185 0-.6069-.0715-.865-.2145-.2526-.1484-.4421-.3271-.5684-.5361h-.0329l.0329.5774v1.8227h-.7002zm2.0512 3.7033c.2417 0 .4696-.066.6837-.198.2142-.1319.3845-.3189.5108-.5608.1318-.2474.1977-.5279.1977-.8413s-.0659-.5911-.1977-.833c-.1263-.2474-.2966-.4371-.5108-.5691-.2141-.132-.442-.198-.6837-.198-.2416 0-.4695.066-.6837.198s-.3845.3189-.5108.5608c-.1263.242-.1894.5224-.1894.8413s.0631.5994.1894.8413.2966.4289.5108.5608c.2142.132.4421.198.6837.198z"/><path d="m102.694 34.7065c-.401 0-.76-.0963-1.079-.2887-.318-.1925-.568-.4564-.75-.7918-.175-.3409-.263-.723-.263-1.1464 0-.4069.082-.7808.247-1.1217.17-.3409.409-.6131.717-.8166.307-.2034.664-.3051 1.071-.3051.411 0 .768.0934 1.071.2804.302.1814.532.4344.691.7588.165.3244.248.6955.248 1.1134 0 .0825-.009.154-.025.2145h-3.32c.017.3189.093.5883.231.8083.137.2199.31.3849.519.4948.214.11.436.165.667.165.538 0 .953-.2529 1.244-.7588l.593.2887c-.181.3409-.428.6103-.741.8083-.308.1979-.681.2969-1.121.2969zm1.211-2.6806c-.011-.1759-.06-.3519-.148-.5278-.088-.176-.228-.3244-.42-.4454-.187-.121-.423-.1815-.709-.1815-.329 0-.609.1073-.84.3217-.225.209-.373.4866-.445.833z"/><path d="m105.466 30.3681h2.801v.6351h-2.101v3.5713h-.7z"/><path d="m110.299 34.3106-1.738-3.9425h.758l1.318 3.1259h.016l1.269-3.1259h.758l-2.595 5.9879h-.725z"/><path d="m113.187 34.6405c-.143 0-.269-.022-.379-.066l.008-.6268c.088.0275.181.0412.28.0412.127 0 .223-.0412.289-.1237.066-.088.109-.2282.131-.4206.028-.198.042-.4729.042-.8248v-2.2517h3.468v4.2064h-.692v-3.5713h-2.093v1.8393c0 .6488-.096 1.1107-.288 1.3856s-.448.4124-.766.4124z"/><path d="m121.713 34.7065c-.379 0-.722-.0825-1.03-.2475-.302-.1649-.551-.3904-.749-.6763-.192-.2914-.31-.6186-.354-.9815h-.791v1.7733h-.7v-4.2064h.7v1.7816h.791c.044-.363.162-.6901.354-.9815.192-.2915.442-.5196.749-.6846.308-.165.651-.2474 1.03-.2474.412 0 .783.0989 1.112.2969.33.1979.585.4674.766.8083.187.3409.28.7175.28 1.1299s-.093.7891-.28 1.13c-.181.3409-.436.6103-.766.8083-.329.1979-.7.2969-1.112.2969zm0-.6351c.258 0 .5-.0632.725-.1897.225-.132.404-.3189.536-.5609.137-.2419.206-.5251.206-.8495s-.069-.6076-.206-.8495c-.132-.2419-.311-.4261-.536-.5526-.225-.132-.467-.198-.725-.198s-.5.066-.725.198c-.219.1265-.398.3107-.535.5526-.132.2419-.198.5251-.198.8495s.066.6076.198.8495c.137.242.316.4289.535.5609.225.1265.467.1897.725.1897z"/><path d="m124.604 30.3681h2.019c.23 0 .442.0495.634.1485.192.0935.343.2254.453.3959.11.1704.165.3574.165.5608 0 .209-.05.3959-.149.5609-.093.1594-.219.2804-.378.3629v.033c.203.0825.365.2034.486.3629.126.1594.189.3464.189.5608 0 .2365-.058.4482-.173.6351-.115.1815-.272.3244-.469.4289-.198.1045-.412.1567-.643.1567h-2.134zm1.986 1.7733c.17 0 .31-.0522.42-.1567.115-.11.173-.2474.173-.4124s-.058-.2997-.173-.4041c-.116-.11-.258-.165-.429-.165h-1.276v1.1382zm.09 1.798c.176 0 .324-.0577.445-.1732.126-.1209.19-.2694.19-.4454 0-.1704-.064-.3134-.19-.4288-.121-.121-.269-.1815-.445-.1815h-1.375v1.2289z"/><path d="m130.138 34.7065c-.307 0-.582-.0605-.823-.1815-.242-.1209-.429-.2859-.561-.4948-.131-.2145-.197-.4564-.197-.7259 0-.4453.167-.7917.502-1.0392.335-.2529.758-.3794 1.269-.3794.253 0 .486.0275.7.0825.22.055.387.1182.503.1897v-.2557c0-.3134-.11-.5636-.33-.7505-.22-.1925-.497-.2887-.832-.2887-.236 0-.453.0522-.651.1567-.197.099-.354.2392-.469.4206l-.527-.3959c.164-.2529.389-.4508.675-.5938.291-.143.612-.2144.964-.2144.571 0 1.019.1512 1.343.4536.329.2969.494.7038.494 1.2207v2.664h-.667v-.6021h-.033c-.121.2035-.302.3767-.544.5196-.242.143-.514.2145-.816.2145zm.066-.6186c.236 0 .456-.0605.659-.1815.204-.1209.366-.2831.486-.4866.121-.2034.182-.4261.182-.6681-.132-.0879-.294-.1594-.486-.2144-.193-.055-.396-.0825-.61-.0825-.384 0-.676.0797-.873.2392-.192.1595-.289.3657-.289.6186 0 .2309.088.4179.264.5608.176.143.398.2145.667.2145z"/><path d="m133.172 30.3681h.7v1.7651h2.29v-1.7651h.692v4.2064h-.692v-1.7898h-2.29v1.7898h-.7z"/><path d="m137.894 30.3681h.7v1.7651h2.29v-1.7651h.692v4.2064h-.692v-1.7898h-2.29v1.7898h-.7z"/><path d="m142.122 34.5333 1.219-1.5176-.024-.0165c-.291-.0715-.53-.2227-.717-.4537-.181-.2309-.272-.5003-.272-.8082 0-.253.063-.4839.19-.6929.126-.2144.296-.3794.51-.4948.22-.121.459-.1815.717-.1815h1.952v4.2064h-.692v-1.5176h-.922l-1.162 1.5176h-.799zm2.883-2.0785v-1.4516h-1.219c-.209 0-.387.0687-.535.2062-.143.1375-.214.3107-.214.5196 0 .2145.071.3904.214.5279.148.1319.326.1979.535.1979z"/><path d="m61.5816 46.3504c-.3075 0-.5821-.0605-.8237-.1814-.2417-.121-.4284-.2859-.5602-.4949-.1318-.2144-.1977-.4564-.1977-.7258 0-.4454.1675-.7918.5025-1.0392.335-.253.7579-.3794 1.2686-.3794.2526 0 .486.0275.7002.0825.2197.0549.3872.1182.5025.1897v-.2557c0-.3134-.1098-.5636-.3295-.7506-.2197-.1924-.497-.2886-.832-.2886-.2361 0-.4531.0522-.6508.1567-.1977.0989-.3542.2391-.4695.4206l-.5272-.3959c.1647-.2529.3899-.4509.6755-.5938.291-.143.6123-.2145.9638-.2145.5711 0 1.0187.1512 1.3427.4536.3295.297.4943.7039.4943 1.2207v2.6641h-.6673v-.6021h-.0329c-.1208.2034-.3021.3766-.5437.5196-.2417.1429-.5135.2144-.8156.2144zm.066-.6186c.2361 0 .4558-.0604.659-.1814s.3652-.2832.486-.4866c.1208-.2035.1812-.4262.1812-.6681-.1318-.088-.2938-.1595-.486-.2144-.1922-.055-.3954-.0825-.6096-.0825-.3844 0-.6755.0797-.8732.2392-.1922.1594-.2883.3656-.2883.6185 0 .231.0879.4179.2636.5609s.3982.2144.6673.2144z"/><path d="m66.1474 46.3504c-.3185 0-.6233-.066-.9144-.1979-.291-.132-.5409-.3162-.7496-.5526l.4778-.4619c.1812.1925.3652.3382.5519.4371.1922.0935.4037.1402.6343.1402.3131 0 .5602-.0632.7414-.1897.1813-.1264.2719-.2914.2719-.4948 0-.1815-.0769-.3382-.2307-.4701-.1483-.132-.3487-.198-.6013-.198h-.6673v-.5608h.6178c.2087 0 .3845-.0578.5272-.1732.1483-.1155.2225-.275.2225-.4784 0-.1705-.0797-.3189-.2389-.4454-.1538-.1265-.3625-.1897-.6261-.1897-.2087 0-.3954.0357-.5602.1072-.1647.0715-.3295.1925-.4942.3629l-.4613-.4536c.2086-.2254.4338-.3904.6754-.4949.2472-.1044.5273-.1567.8403-.1567.2856 0 .5464.055.7826.165.2416.1044.4311.2502.5684.4371.1373.187.2059.3959.2059.6268 0 .2255-.0521.4179-.1565.5774-.1043.1539-.2444.2694-.4201.3464v.033c.2252.0935.4009.2282.5272.4041.1318.1705.1977.3684.1977.5939 0 .3904-.1565.7038-.4695.9402-.3131.231-.7305.3464-1.2522.3464z"/><path d="m70.0849 46.3504c-.3076 0-.5822-.0605-.8238-.1814-.2416-.121-.4284-.2859-.5602-.4949-.1318-.2144-.1977-.4564-.1977-.7258 0-.4454.1675-.7918.5025-1.0392.335-.253.7579-.3794 1.2686-.3794.2527 0 .4861.0275.7003.0825.2196.0549.3871.1182.5025.1897v-.2557c0-.3134-.1099-.5636-.3296-.7506-.2196-.1924-.497-.2886-.832-.2886-.2361 0-.453.0522-.6507.1567-.1978.0989-.3543.2391-.4696.4206l-.5272-.3959c.1647-.2529.3899-.4509.6755-.5938.291-.143.6123-.2145.9638-.2145.5711 0 1.0187.1512 1.3427.4536.3296.297.4943.7039.4943 1.2207v2.6641h-.6672v-.6021h-.033c-.1208.2034-.302.3766-.5437.5196-.2416.1429-.5135.2144-.8155.2144zm.0659-.6186c.2361 0 .4558-.0604.659-.1814s.3652-.2832.486-.4866c.1208-.2035.1813-.4262.1813-.6681-.1318-.088-.2939-.1595-.4861-.2144-.1922-.055-.3954-.0825-.6096-.0825-.3844 0-.6755.0797-.8732.2392-.1922.1594-.2883.3656-.2883.6185 0 .231.0879.4179.2636.5609.1758.143.3982.2144.6673.2144z"/><path d="m73.0855 42.0121h.6672v.6268h.033c.1263-.2144.3158-.3931.5684-.5361.2581-.1485.5464-.2227.865-.2227.3734 0 .7139.0962 1.0214.2887.3076.1924.5492.4591.725.8.1757.3409.2636.7231.2636 1.1465 0 .4289-.0879.8138-.2636 1.1547-.1758.3354-.4174.5993-.725.7918-.3075.1924-.648.2886-1.0214.2886-.3186 0-.6069-.0715-.865-.2144-.2526-.1485-.4421-.3272-.5684-.5361h-.033l.033.5773v1.8228h-.7002zm2.0512 3.7032c.2416 0 .4695-.0659.6837-.1979s.3844-.3189.5108-.5609c.1318-.2474.1977-.5278.1977-.8412s-.0659-.5911-.1977-.8331c-.1264-.2474-.2966-.4371-.5108-.5691-.2142-.1319-.4421-.1979-.6837-.1979-.2417 0-.4696.066-.6838.1979-.2141.132-.3844.319-.5107.5609s-.1895.5224-.1895.8413.0632.5993.1895.8412c.1263.242.2966.4289.5107.5609.2142.132.4421.1979.6838.1979z"/><path d="m79.0405 42.6472h-1.3675v-.6351h3.4351v.6351h-1.3757v3.5713h-.6919z"/><path d="m81.8469 42.0121h.7002v1.765h2.2901v-1.765h.692v4.2064h-.692v-1.7898h-2.2901v1.7898h-.7002z"/><path d="m86.5691 42.0121h.7002v2.3671l-.0329.7918h.0329l2.2654-3.1589h.692v4.2064h-.692v-2.3672l.033-.7917h-.033l-2.2654 3.1589h-.7002z"/><path d="m92.3381 44.0823-1.458-2.0702h.7908l1.0874 1.5588 1.0462-1.5588h.8155l-1.4663 2.0702 1.4992 2.1362h-.8155l-1.0956-1.6166-1.0709 1.6166h-.8156z"/><path d="m97.608 41.2368c-.1373 0-.2553-.0495-.3542-.1485-.0988-.0989-.1483-.2172-.1483-.3546 0-.1375.0495-.253.1483-.3464.0989-.099.2169-.1485.3542-.1485s.2554.0495.3543.1485c.0988.0934.1482.2089.1482.3464 0 .1374-.0494.2557-.1482.3546-.0934.099-.2115.1485-.3543.1485zm-.3459.7753h.6919v4.2064h-.6919z"/><path d="m99.0545 42.0121h2.8005v.6351h-2.1003v3.5713h-.7002z"/><path d="m104.458 46.3504c-.412 0-.783-.0989-1.112-.2969-.33-.1979-.588-.4674-.775-.8083-.181-.3409-.272-.7175-.272-1.1299s.091-.7891.272-1.13c.187-.3409.445-.6103.775-.8083.329-.1979.7-.2969 1.112-.2969.411 0 .782.099 1.112.2969.329.198.585.4674.766.8083.187.3409.28.7176.28 1.13s-.093.789-.28 1.1299c-.181.3409-.437.6104-.766.8083-.33.198-.701.2969-1.112.2969zm0-.6351c.258 0 .497-.0632.716-.1897.225-.1319.404-.3189.536-.5608.137-.2419.206-.5251.206-.8495s-.069-.6076-.206-.8495c-.132-.242-.311-.4262-.536-.5527-.219-.1319-.458-.1979-.716-.1979-.259 0-.5.066-.725.1979-.225.1265-.407.3107-.544.5527-.132.2419-.198.5251-.198.8495s.066.6076.198.8495c.137.2419.319.4289.544.5608.225.1265.466.1897.725.1897z"/><path d="m107.356 42.0121h.667v.6268h.033c.126-.2144.316-.3931.568-.5361.259-.1485.547-.2227.865-.2227.374 0 .714.0962 1.022.2887.307.1924.549.4591.725.8s.263.7231.263 1.1465c0 .4289-.087.8138-.263 1.1547-.176.3354-.418.5993-.725.7918-.308.1924-.648.2886-1.022.2886-.318 0-.606-.0715-.865-.2144-.252-.1485-.442-.3272-.568-.5361h-.033l.033.5773v1.8228h-.7zm2.051 3.7032c.242 0 .47-.0659.684-.1979s.384-.3189.51-.5609c.132-.2474.198-.5278.198-.8412s-.066-.5911-.198-.8331c-.126-.2474-.296-.4371-.51-.5691-.214-.1319-.442-.1979-.684-.1979s-.47.066-.684.1979c-.214.132-.384.319-.51.5609-.127.2419-.19.5224-.19.8413s.063.5993.19.8412c.126.242.296.4289.51.5609s.442.1979.684.1979z"/><path d="m115.306 42.6472h-1.368v-.6351h3.436v.6351h-1.376v3.5713h-.692z"/><path d="m119.455 46.3504c-.307 0-.582-.0605-.824-.1814-.241-.121-.428-.2859-.56-.4949-.132-.2144-.198-.4564-.198-.7258 0-.4454.168-.7918.503-1.0392.335-.253.758-.3794 1.269-.3794.252 0 .486.0275.7.0825.219.0549.387.1182.502.1897v-.2557c0-.3134-.11-.5636-.329-.7506-.22-.1924-.497-.2886-.832-.2886-.236 0-.453.0522-.651.1567-.198.0989-.354.2391-.47.4206l-.527-.3959c.165-.2529.39-.4509.676-.5938.291-.143.612-.2145.963-.2145.572 0 1.019.1512 1.343.4536.33.297.495.7039.495 1.2207v2.6641h-.668v-.6021h-.033c-.121.2034-.302.3766-.543.5196-.242.1429-.514.2144-.816.2144zm.066-.6186c.236 0 .456-.0604.659-.1814s.365-.2832.486-.4866c.121-.2035.181-.4262.181-.6681-.132-.088-.294-.1595-.486-.2144-.192-.055-.395-.0825-.609-.0825-.385 0-.676.0797-.874.2392-.192.1594-.288.3656-.288.6185 0 .231.088.4179.264.5609.175.143.398.2144.667.2144z"/><path d="m124.659 46.2844c-.143 0-.269-.0219-.379-.0659l.008-.6269c.088.0275.181.0413.28.0413.126 0 .222-.0413.288-.1237.066-.088.11-.2282.132-.4207.028-.1979.041-.4729.041-.8248v-2.2516h3.468v4.2064h-.692v-3.5713h-2.092v1.8392c0 .6489-.096 1.1107-.288 1.3857-.192.2749-.448.4123-.766.4123z"/><path d="m131.439 46.3504c-.411 0-.782-.0989-1.112-.2969-.329-.1979-.587-.4674-.774-.8083-.181-.3409-.272-.7175-.272-1.1299s.091-.7891.272-1.13c.187-.3409.445-.6103.774-.8083.33-.1979.701-.2969 1.112-.2969.412 0 .783.099 1.113.2969.329.198.584.4674.766.8083.186.3409.28.7176.28 1.13s-.094.789-.28 1.1299c-.182.3409-.437.6104-.766.8083-.33.198-.701.2969-1.113.2969zm0-.6351c.259 0 .497-.0632.717-.1897.225-.1319.404-.3189.536-.5608.137-.2419.206-.5251.206-.8495s-.069-.6076-.206-.8495c-.132-.242-.311-.4262-.536-.5527-.22-.1319-.458-.1979-.717-.1979-.258 0-.499.066-.724.1979-.226.1265-.407.3107-.544.5527-.132.2419-.198.5251-.198.8495s.066.6076.198.8495c.137.2419.318.4289.544.5608.225.1265.466.1897.724.1897z"/><path d="m135.41 42.6472h-1.368v-.6351h3.435v.6351h-1.375v3.5713h-.692z"/><path d="m140.006 46.3504c-.401 0-.761-.0962-1.08-.2886-.318-.1925-.568-.4564-.749-.7918-.176-.3409-.264-.7231-.264-1.1465 0-.4069.082-.7808.247-1.1217.17-.3409.409-.6131.717-.8165.307-.2035.664-.3052 1.071-.3052.412 0 .769.0935 1.071.2804.302.1815.532.4344.692.7588.164.3245.247.6956.247 1.1135 0 .0825-.008.154-.025.2144h-3.32c.017.319.094.5884.231.8083.137.22.31.3849.519.4949.214.11.437.1649.667.1649.538 0 .953-.2529 1.244-.7588l.593.2887c-.181.3409-.428.6104-.741.8083-.308.198-.681.2969-1.12.2969zm1.21-2.6805c-.011-.176-.06-.3519-.148-.5279-.088-.1759-.228-.3244-.42-.4453-.187-.121-.423-.1815-.708-.1815-.33 0-.61.1072-.841.3217-.225.2089-.373.4866-.444.833z"/><path d="m142.744 42.0121h.668v.6268h.033c.126-.2144.315-.3931.568-.5361.258-.1485.546-.2227.865-.2227.373 0 .714.0962 1.021.2887.308.1924.55.4591.725.8.176.3409.264.7231.264 1.1465 0 .4289-.088.8138-.264 1.1547-.175.3354-.417.5993-.725.7918-.307.1924-.648.2886-1.021.2886-.319 0-.607-.0715-.865-.2144-.253-.1485-.442-.3272-.568-.5361h-.033l.033.5773v1.8228h-.701zm2.052 3.7032c.241 0 .469-.0659.683-.1979s.385-.3189.511-.5609c.132-.2474.198-.5278.198-.8412s-.066-.5911-.198-.8331c-.126-.2474-.297-.4371-.511-.5691-.214-.1319-.442-.1979-.683-.1979-.242 0-.47.066-.684.1979-.214.132-.385.319-.511.5609s-.189.5224-.189.8413.063.5993.189.8412c.126.242.297.4289.511.5609s.442.1979.684.1979z"/><path d="m149.571 46.3504c-.401 0-.761-.0962-1.08-.2886-.318-.1925-.568-.4564-.749-.7918-.176-.3409-.264-.7231-.264-1.1465 0-.4069.083-.7808.247-1.1217.171-.3409.41-.6131.717-.8165.308-.2035.665-.3052 1.071-.3052.412 0 .769.0935 1.071.2804.302.1815.533.4344.692.7588.165.3245.247.6956.247 1.1135 0 .0825-.008.154-.025.2144h-3.32c.017.319.094.5884.231.8083.137.22.31.3849.519.4949.214.11.437.1649.667.1649.539 0 .953-.2529 1.244-.7588l.593.2887c-.181.3409-.428.6104-.741.8083-.308.198-.681.2969-1.12.2969zm1.211-2.6805c-.011-.176-.061-.3519-.149-.5279-.088-.1759-.228-.3244-.42-.4453-.187-.121-.423-.1815-.708-.1815-.33 0-.61.1072-.841.3217-.225.2089-.373.4866-.444.833z"/><path d="m152.342 42.0121h.701v2.3671l-.033.7918h.033l2.265-3.1589h.692v4.2064h-.692v-2.3672l.033-.7917h-.033l-2.265 3.1589h-.701zm1.837-.8001c-.181 0-.354-.0439-.519-.1319-.159-.0935-.288-.2172-.387-.3712-.099-.1594-.148-.3354-.148-.5278h.568c0 .1374.044.2557.132.3546.088.099.206.1485.354.1485.138 0 .25-.0495.338-.1485.088-.0989.132-.2172.132-.3546h.56c0 .1924-.049.3684-.148.5278-.093.154-.22.2777-.379.3712-.159.088-.327.1319-.503.1319z"/></g><path d="m4.59583 4.59662.00079-.00079c1.76473-1.76875 4.01203-2.67496 7.13458-3.13358 3.1392-.46105 7.1012-.46225 12.2645-.46225s9.1255.00119 12.2658.46121c3.1236.45757 5.3733 1.36173 7.1423 3.1265 1.7691 1.76909 2.6753 4.01878 3.1339 7.14239.4611 3.1403.4623 7.1023.4623 12.2656s-.0012 9.1254-.4623 12.2656c-.4586 3.1237-1.3648 5.3734-3.1339 7.1425-1.7691 1.769-4.0208 2.6753-7.1456 3.1339-3.1413.4611-7.1034.4623-12.2625.4623-5.159 0-9.1211-.0012-12.2613-.4623-3.12375-.4586-5.37315-1.3648-7.13778-3.1335l-.00039-.0004c-1.76903-1.7691-2.67533-4.0208-3.13397-7.1456-.46107-3.1413-.46226-7.1034-.46226-12.2625 0-5.159.00119-9.1211.46226-12.2613.45863-3.12375 1.36489-5.37315 3.13357-7.13778z" stroke="#fff" stroke-width="2"/><path d="m22.9655 39.424c-1.7241-1.3147-2.9956-3.2759-3.4051-5.5604h-5.5604v-24.0301c2.9957 1.487 5.1293 4.7845 5.388 8.1896l.8405 6.7457-.4095-.0646c-.9052 0-1.681.8405-1.681 1.681 0 .7759.6034 1.444 1.3793 1.6164l1.0128.237c1.6811-3.1681 2.6294-6.2715 2.6294-9.3319 0-2.7586-.3664-5.4956-.4095-8.2974 0-1.24995.4741-2.3922 1.25-3.2758.7759.90515 1.25 2.02585 1.25 3.2758 0 2.8018-.4095 5.5604-.4095 8.2974 0 3.0388.9483 6.1638 2.6294 9.3319l1.0128-.237c.7759-.1724 1.3793-.8405 1.3793-1.6164 0-.8405-.7758-1.681-1.681-1.681l-.4095.0646.8405-6.7457c.4095-3.4051 2.3923-6.7026 5.388-8.1896v24.0301h-5.5604c-.4095 2.263-1.6164 4.3104-3.4051 5.5604-.4095.3017-.7759.6681-1.013 1.1422-.2801-.4957-.6465-.8405-1.056-1.1422zm-6.3362-13.8578c.2371-.9051.9052-1.681 1.7242-2.1551l-.6681-5.5604c-.2371-1.7241-.9483-3.2758-2.0259-4.5474v12.2414h.9698zm2.8233 6.6164c0-.8405.1293-1.6164.3017-2.3922l-.7758-.1724c-1.1423-.3664-2.0259-1.25-2.3276-2.3923h-.9483v4.9569zm3.6854 0c0-1.0129-.7759-1.9181-1.7889-2.0259-.1724.6466-.3017 1.3147-.3017 2.0259zm0 1.681h-1.8535c.3017 1.3147.9483 2.5 1.8535 3.5345zm2.6293-5.1939c-.7112-1.3147-1.3793-2.694-1.7888-4.1164-.4095 1.444-1.0777 2.8017-1.7889 4.1164.7112.1724 1.3147.6465 1.7889 1.1853.4741-.5388 1.0776-1.0129 1.7888-1.1853zm1.1422 3.5129c0-.7112-.1294-1.3793-.3018-2.0259-1.0129.1294-1.7887 1.013-1.7887 2.0259zm-.2371 1.681h-1.8534v3.5345c.9052-1.0345 1.5517-2.2198 1.8534-3.5345zm5.625-1.681v-4.9569h-.9483c-.3017 1.1423-1.1853 2.0259-2.3276 2.3923l-.7758.1724c.1724.7758.3017 1.5517.3017 2.3922zm0-6.6164v-12.2413c-1.0775 1.25-1.8535 2.8017-2.0259 4.5474l-.668 5.5603c.8405.4741 1.487 1.25 1.7241 2.1552h.9698z" fill="#fff"/></svg>