<svg width="56" height="56" viewBox="0 0 56 56" fill="none" xmlns="http://www.w3.org/2000/svg">
<path d="M28.2754 6.28345C22.7342 6.28345 18.2422 10.7647 18.2422 16.2926C18.2422 21.8204 22.7342 26.3017 28.2754 26.3017C33.8167 26.3017 38.3087 21.8204 38.3087 16.2926C38.3087 10.7647 33.8167 6.28345 28.2754 6.28345Z" fill="#0450FF"/>
<path d="M17.5733 31.6399C12.0321 31.6399 7.54004 36.1211 7.54004 41.649V44.8206C7.54004 46.8311 9.00057 48.5453 10.9895 48.8692C22.4377 50.7338 34.1132 50.7338 45.5614 48.8692C47.5503 48.5453 49.0109 46.8311 49.0109 44.8206V41.649C49.0109 36.1211 44.5188 31.6399 38.9776 31.6399H38.0656C37.572 31.6399 37.0815 31.7177 36.6122 31.8706L34.2965 32.6249C30.3841 33.8994 26.1668 33.8994 22.2544 32.6249L19.9387 31.8706C19.4694 31.7177 18.9789 31.6399 18.4853 31.6399H17.5733Z" fill="#0450FF"/>
</svg>
