<svg width="14" height="8" viewBox="0 0 14 8" fill="none" xmlns="http://www.w3.org/2000/svg">
<path d="M7.12567 7.9938C7.401 7.96562 7.66136 7.8475 7.87089 7.65594L13.4981 2.53345C13.7813 2.29246 13.9601 1.93968 13.9942 1.556C14.028 1.17228 13.914 0.790577 13.6779 0.497761C13.442 0.20496 13.1043 0.0263037 12.7422 0.00267828C12.3799 -0.0209438 12.0242 0.112457 11.7562 0.3725L7 4.7036L2.24378 0.372499C1.97574 0.112649 1.62005 -0.0207492 1.25782 0.00287564C0.895767 0.0263002 0.558012 0.204959 0.32211 0.49776C0.0860354 0.79056 -0.0279831 1.17248 0.00584754 1.55621C0.039866 1.93993 0.218743 2.29246 0.501912 2.53345L6.12911 7.65594C6.40443 7.90745 6.76408 8.02934 7.12554 7.994L7.12567 7.9938Z" fill="#0450FF"/>
</svg>
