<svg width="18" height="12" viewBox="0 0 18 12" fill="none" xmlns="http://www.w3.org/2000/svg">
<path d="M8.99972 8.25C10.2424 8.25 11.2497 7.24264 11.2497 6C11.2497 4.75736 10.2424 3.75 8.99972 3.75C7.75708 3.75 6.74972 4.75736 6.74972 6C6.74972 7.24264 7.75708 8.25 8.99972 8.25Z" fill="#4D9696"/>
<path d="M17.2558 5.38828C16.3256 3.94969 15.1187 2.72766 13.7659 1.85402C12.2693 0.886524 10.6169 0.375 8.98777 0.375C7.49293 0.375 6.02304 0.802148 4.6189 1.64449C3.18699 2.50336 1.88972 3.75809 0.762967 5.37352C0.635766 5.55608 0.565712 5.77235 0.561705 5.99482C0.557699 6.2173 0.619922 6.43594 0.740467 6.62297C1.66894 8.07598 2.8639 9.29977 4.19562 10.1614C5.69504 11.1328 7.30871 11.625 8.98777 11.625C10.6299 11.625 12.2858 11.1177 13.7761 10.1583C15.1282 9.28746 16.3326 8.06086 17.2593 6.61031C17.3757 6.42763 17.4373 6.21539 17.4366 5.99878C17.436 5.78217 17.3733 5.57029 17.2558 5.38828ZM8.99972 9.375C8.33221 9.375 7.67969 9.17706 7.12467 8.80621C6.56966 8.43536 6.13708 7.90826 5.88163 7.29156C5.62618 6.67486 5.55935 5.99626 5.68957 5.34157C5.8198 4.68688 6.14124 4.08552 6.61324 3.61351C7.08524 3.14151 7.68661 2.82008 8.34129 2.68985C8.99598 2.55962 9.67458 2.62646 10.2913 2.88191C10.908 3.13735 11.4351 3.56993 11.8059 4.12495C12.1768 4.67997 12.3747 5.33249 12.3747 6C12.3737 6.89479 12.0178 7.75264 11.3851 8.38535C10.7524 9.01807 9.89452 9.37398 8.99972 9.375Z" fill="#4D9696"/>
</svg>
