<svg width="55" height="54" viewBox="0 0 55 54" fill="none" xmlns="http://www.w3.org/2000/svg">
<rect x="0.337891" width="54" height="54" rx="16" fill="white"/>
<path d="M23.7538 23.034H18.3379C18.6187 21.737 19.1302 20.5696 19.8724 19.532C21.5975 17.1773 24.0948 16 27.3644 16C29.7515 16 31.6771 16.6186 33.1414 17.8558C34.6057 19.093 35.3379 20.5696 35.3379 22.2857C35.3379 24.4209 34.365 26.0571 32.4193 27.1946C31.8978 27.5138 31.5167 27.7633 31.2759 27.9429C31.0352 28.1025 30.7444 28.332 30.4034 28.6313C30.0624 28.9306 29.8217 29.2499 29.6813 29.5891C29.5408 29.9084 29.4706 30.2676 29.4706 30.6667H24.0547C24.0547 28.5515 25.0376 26.8853 27.0034 25.668C27.0636 25.6281 27.204 25.5383 27.4246 25.3986C27.6453 25.259 27.7957 25.1692 27.8759 25.1293C27.9562 25.0694 28.0866 24.9796 28.2671 24.8599C28.4677 24.7401 28.5981 24.6503 28.6582 24.5905C28.7385 24.5107 28.8488 24.4109 28.9892 24.2912C29.1497 24.1714 29.26 24.0717 29.3202 23.9918C29.3804 23.912 29.4606 23.8122 29.5609 23.6925C29.6612 23.5728 29.7314 23.463 29.7715 23.3633C29.8116 23.2435 29.8417 23.1238 29.8618 23.0041C29.9019 22.8644 29.922 22.7247 29.922 22.585C29.922 21.9465 29.6813 21.4376 29.1998 21.0585C28.7184 20.6794 28.0063 20.4898 27.0636 20.4898C25.8199 20.4898 24.8872 20.9188 24.2653 21.7769C24.0246 22.0961 23.8541 22.5152 23.7538 23.034ZM24.837 37.2218C24.3155 36.7029 24.0547 36.0644 24.0547 35.3061C24.0547 34.5478 24.3155 33.9093 24.837 33.3905C25.3585 32.8717 26.0004 32.6122 26.7627 32.6122C27.5249 32.6122 28.1668 32.8717 28.6883 33.3905C29.2099 33.9093 29.4706 34.5478 29.4706 35.3061C29.4706 36.0644 29.2099 36.7029 28.6883 37.2218C28.1668 37.7406 27.5249 38 26.7627 38C26.0004 38 25.3585 37.7406 24.837 37.2218Z" fill="#0450FF"/>
</svg>
