<svg width="58" height="51" viewBox="0 0 58 51" fill="none" xmlns="http://www.w3.org/2000/svg">
<path d="M40.8125 1C38.5977 1.00258 36.407 1.45891 34.3754 2.34085C32.3438 3.22279 30.5144 4.51164 29 6.1279C26.7808 3.75918 23.9007 2.11237 20.7338 1.40124C17.5669 0.690107 14.2594 0.947508 11.2406 2.14002C8.22177 3.33254 5.63115 5.4051 3.80502 8.08863C1.9789 10.7722 1.0016 13.9427 1 17.1888C1 33.3075 26.9963 49.1288 28.125 49.7501C28.3972 49.9136 28.7087 50 29.0262 50C29.3438 50 29.6553 49.9136 29.9275 49.7501C31.0038 49.1288 57 33.3075 57 17.1888C56.9954 12.8967 55.2884 8.78168 52.2537 5.7467C49.2189 2.71172 45.1043 1.00463 40.8125 1Z" stroke="#ff006b" stroke-width="2"/>
</svg>
