<svg width="28" height="28" viewBox="0 0 28 28" fill="none" xmlns="http://www.w3.org/2000/svg">
<path d="M3.79199 10.5C3.79199 6.79505 6.79542 3.79163 10.5003 3.79163H18.682C19.1652 3.79163 19.557 4.18338 19.557 4.66663C19.557 5.14988 19.1652 5.54163 18.682 5.54163H10.5003C7.76191 5.54163 5.54199 7.76155 5.54199 10.5V18.7913C5.54199 19.2746 5.15024 19.6663 4.66699 19.6663C4.18374 19.6663 3.79199 19.2746 3.79199 18.7913V10.5Z" fill="#0450FF"/>
<path d="M21.47 7.92543C17.6889 7.50283 13.8118 7.50283 10.0307 7.92543C8.95356 8.04582 8.08797 8.89351 7.96101 9.97902C7.51256 13.8132 7.51256 17.6867 7.96101 21.5209C8.08797 22.6064 8.95356 23.4541 10.0307 23.5745C13.8118 23.9971 17.6889 23.9971 21.47 23.5745C22.5471 23.4541 23.4127 22.6064 23.5397 21.5209C23.9881 17.6867 23.9881 13.8132 23.5397 9.97901C23.4127 8.89351 22.5471 8.04582 21.47 7.92543Z" fill="#0450FF"/>
</svg>
