<svg width="28" height="28" viewBox="0 0 28 28" fill="none" xmlns="http://www.w3.org/2000/svg">
<path d="M14.0834 1.07797C13.6972 0.911475 13.3169 1.02795 13.0722 1.27299C12.8345 1.51102 12.7156 1.87431 12.799 2.24058C12.9305 2.81873 13 3.42023 13 4.03807C13 5.44867 12.6385 6.43664 12.0164 7.25565C11.384 8.08821 10.4686 8.76603 9.31288 9.53081C9.29471 9.54283 9.27779 9.55658 9.26237 9.57187L9.12239 9.71058C6.6426 11.286 5 14.0291 5 17.1497C5 22.0376 9.02944 26 14 26C18.9706 26 23 22.0376 23 17.1497C23 15.7145 22.6524 14.3583 22.0351 13.1588C21.9849 13.0612 21.8885 12.9947 21.7781 12.9814C21.6678 12.9682 21.5579 13.0099 21.4853 13.0927C21.3913 13.1999 21.2992 13.3057 21.2085 13.41C20.0374 14.7555 19.0924 15.8413 17.1549 16.3263C17.0725 16.3469 17.0213 16.3316 16.985 16.3093C16.9422 16.283 16.8955 16.2306 16.8634 16.1468C16.7966 15.9723 16.8253 15.7497 16.9621 15.6038C17.9984 14.499 18.7345 12.9993 18.9976 10.8659C19.4903 6.86961 17.6433 2.61281 14.0834 1.07797Z" fill="#0450FF"/>
</svg>
