<svg width="28" height="28" viewBox="0 0 28 28" fill="none" xmlns="http://www.w3.org/2000/svg">
<path fill-rule="evenodd" clip-rule="evenodd" d="M3.79199 14.0001C3.79199 8.36217 8.36242 3.79175 14.0003 3.79175C19.6382 3.79175 24.2087 8.36217 24.2087 14.0001C24.2087 19.638 19.6382 24.2084 14.0003 24.2084C8.36242 24.2084 3.79199 19.638 3.79199 14.0001ZM12.6585 10.8603C11.5693 11.7563 10.8416 13.0166 10.6102 14.4079L9.84406 19.014C9.66718 20.0774 10.9036 20.7913 11.7361 20.1064L15.342 17.1398C16.4312 16.2438 17.1589 14.9835 17.3903 13.5922L18.1564 8.9861C18.3333 7.92271 17.0969 7.20884 16.2644 7.89372L12.6585 10.8603Z" fill="#0450FF"/>
<path d="M12.2503 14.0001C12.2503 13.0336 13.0338 12.2501 14.0003 12.2501C14.9668 12.2501 15.7503 13.0336 15.7503 14.0001C15.7503 14.9666 14.9668 15.7501 14.0003 15.7501C13.0338 15.7501 12.2503 14.9666 12.2503 14.0001Z" fill="#0450FF"/>
</svg>
