<svg width="22" height="22" viewBox="0 0 22 22" fill="none" xmlns="http://www.w3.org/2000/svg">
<path d="M11 0.5C5.20312 0.5 0.5 5.20312 0.5 11C0.5 16.7969 5.20312 21.5 11 21.5C16.7969 21.5 21.5 16.7969 21.5 11C21.5 5.20312 16.7969 0.5 11 0.5ZM10.6719 17.125C10.4556 17.125 10.2441 17.0609 10.0642 16.9407C9.88435 16.8205 9.74417 16.6497 9.66138 16.4498C9.5786 16.25 9.55694 16.03 9.59914 15.8179C9.64134 15.6057 9.74551 15.4108 9.89848 15.2579C10.0514 15.1049 10.2463 15.0007 10.4585 14.9585C10.6707 14.9163 10.8906 14.938 11.0904 15.0208C11.2903 15.1035 11.4611 15.2437 11.5813 15.4236C11.7015 15.6035 11.7656 15.8149 11.7656 16.0312C11.7656 16.3213 11.6504 16.5995 11.4453 16.8046C11.2402 17.0098 10.962 17.125 10.6719 17.125ZM12.5006 11.5469C11.6141 12.1419 11.4922 12.6871 11.4922 13.1875C11.4922 13.3906 11.4115 13.5853 11.2679 13.7289C11.1244 13.8725 10.9296 13.9531 10.7266 13.9531C10.5235 13.9531 10.3288 13.8725 10.1852 13.7289C10.0416 13.5853 9.96094 13.3906 9.96094 13.1875C9.96094 11.9893 10.5122 11.0366 11.6464 10.2748C12.7008 9.56719 13.2969 9.11875 13.2969 8.13273C13.2969 7.46227 12.9141 6.95312 12.1216 6.57633C11.9352 6.48773 11.5201 6.40133 11.0093 6.40734C10.3684 6.41555 9.8707 6.56867 9.48734 6.87711C8.76437 7.45898 8.70312 8.09227 8.70312 8.10156C8.69828 8.20211 8.67367 8.30071 8.63072 8.39174C8.58776 8.48278 8.5273 8.56446 8.45278 8.63213C8.37825 8.6998 8.29113 8.75212 8.19639 8.78612C8.10164 8.82012 8.00113 8.83512 7.90059 8.83027C7.80004 8.82543 7.70144 8.80082 7.6104 8.75787C7.51937 8.71491 7.43769 8.65445 7.37002 8.57992C7.30235 8.5054 7.25003 8.41828 7.21603 8.32354C7.18203 8.22879 7.16703 8.12828 7.17188 8.02773C7.17789 7.89484 7.27031 6.69773 8.52648 5.68711C9.17781 5.1632 10.0063 4.89086 10.9874 4.87883C11.682 4.87063 12.3344 4.9882 12.7768 5.19711C14.1008 5.82328 14.8281 6.86727 14.8281 8.13273C14.8281 9.98281 13.5916 10.8135 12.5006 11.5469Z" fill="#0450FF"/>
</svg>
