<svg width="285" height="160" xmlns="http://www.w3.org/2000/svg">
 <g>
  <title>Layer 1</title>
  <g stroke="null" id="svg_3">
   <defs stroke="null" transform="translate(-100 0) translate(0 -150) translate(-100 250) scale(0.267432 0.2403) translate(100 -250)">
    <linearGradient y2="0.51313" x2="0.9983" y1="0.51313" x1="-0.00161" id="svg_35">
     <stop stop-color="#be0c7f" offset="0"/>
     <stop stop-color="#4135d0" offset="1"/>
    </linearGradient>
   </defs>
   <rect stroke="null" x="-100" y="153.88014" fill="none" height="96.11986" width="106.97272" class="a" id="svg_4"/>
   <path stroke="null" fill="url(#svg_35)" d="m-75.41363,206.33501a8.72379,7.83872 0 0 1 -0.64636,0.65897a7.60183,6.83059 0 0 1 -5.63075,2.11089a8.02116,7.20738 0 0 1 -7.98,-7.17037l0,-0.08937l-10.32926,0.01117l0,0.08934q0,6.76835 5.40702,11.6156q5.31999,4.8473 12.92709,4.84728q7.63197,0 12.92712,-4.84728q0.11478,-0.10477 0.22373,-0.21221l-6.89859,-7.01403l0,0.00001z" class="b" id="svg_5"/>
   <path stroke="null" fill="#fff" d="m-68.52748,190.51992q-0.10326,-0.10189 -0.21127,-0.20103q-5.29515,-4.8473 -12.92712,-4.84728q-7.6071,0 -12.92709,4.84728q-5.37131,4.82635 -5.40704,11.53741l10.32926,-0.01117a8.02319,7.20921 0 0 1 7.98,-7.08103a7.60175,6.83052 0 0 1 5.63075,2.11091a8.31531,7.47169 0 0 1 0.63381,0.64778l6.89859,-7.00286m-2.0385,0.22348l-4.76066,4.88068a8.99459,8.08205 0 0 0 -6.3641,-2.22258a9.06059,8.14135 0 0 0 -6.69973,2.51298a9.14617,8.21825 0 0 0 -2.73457,4.94777l-7.22178,0.01117q0.3908,-5.50003 4.88494,-9.53819q4.84779,-4.42284 11.78374,-4.42284q6.47698,0 11.11227,3.83091l-0.00011,0.0001z" class="c" id="svg_6"/>
   <path stroke="null" fill="#fff" d="m-59.85046,199.32703q-0.11187,-0.11172 -0.23617,-0.22348a4.5618,4.09898 0 1 0 0,5.78545l0.04972,-0.04467l-1.14354,-1.11689a0.81428,0.73166 0 0 0 -0.08702,0.06702a2.87131,2.58 0 1 1 0,-3.64104a2.67392,2.40264 0 0 1 0.24871,0.25688l1.16841,-1.08337m5.97879,-1.41844a4.54099,4.08029 0 1 0 3.21934,1.19506a4.385,3.94012 0 0 0 -3.21934,-1.19506m-2.01376,2.24493a2.85096,2.56171 0 0 1 4.05215,0a2.88094,2.58865 0 0 1 0,3.64104a2.86532,2.57462 0 1 1 -4.05215,-3.64104m32.2059,-2.24493a4.54099,4.08029 0 1 0 3.21934,1.19506a4.385,3.94012 0 0 0 -3.21934,-1.19506m-2.01376,2.24493a2.85096,2.56171 0 0 1 4.05215,0a2.88094,2.58865 0 0 1 0,3.64104a2.86532,2.57462 0 1 1 -4.05215,-3.64104m18.39626,0a2.73741,2.45968 0 0 1 2.02609,-0.75947a2.76728,2.48652 0 0 1 1.25541,0.25688l1.37973,-0.98283a4.33507,3.89526 0 0 0 -2.64757,-0.75947a4.54099,4.08029 0 0 0 -4.54934,4.09896a4.6381,4.16754 0 0 0 0.31073,1.53013l1.44189,-1.01647a2.97684,2.67482 0 0 1 -0.06215,-0.54726a2.7638,2.4834 0 0 1 0.84508,-1.82053m5.233,-1.04987l-0.03728,-0.0335l-0.95711,1.26208a2.89246,2.59901 0 0 1 -0.18645,3.46233a2.73735,2.45964 0 0 1 -2.02606,0.75949a2.90535,2.61059 0 0 1 -0.87009,-0.11169l-0.99439,1.31792a4.53733,4.077 0 0 0 1.85205,0.33505a4.56215,4.0993 0 0 0 4.54934,-4.08779a4.42621,3.97715 0 0 0 -1.32972,-2.90376l-0.00027,-0.00014l-0.00002,0.00001z" class="c" id="svg_7"/>
   <path stroke="null" fill="#fff" d="m-30.55318,197.9756l-1.85205,0l-2.33682,3.01557l-2.29954,-3.01557l-1.98878,0l0,8.04156l1.80233,0l0,-5.40571l2.47356,3.00442l2.54812,-3.00442l0,5.40571l1.65318,0l0,-8.04156m15.76112,-0.03352l-1.81477,-0.01117l0,8.08625l5.8172,0l-0.99439,-1.55248l-3.00805,0l0,-6.5226m17.61319,1.44079l0,6.64546l1.77749,0l0,-6.64546l2.3741,0l0,-1.47429l-6.9359,0l-0.01244,1.47429l2.79675,0z" class="c" id="svg_8"/>
   <g stroke="null" isolation="isolate" class="d" id="svg_9">
    <text stroke="null" x="-95.61144" y="-150" font-weight="700" font-family="NewsGothicBT-Bold, NewsGoth BT" font-size="45.8499px" isolation="isolate" fill="#fff" transform="matrix(0.279707 0 0 0.2403 120.329 407.075)" class="e" id="svg_10">S</text>
   </g>
  </g>
  <rect stroke="#000" id="svg_18" height="173.99999" width="292" y="-7.99999" x="-4" fill="#390268"/>
  <g stroke="null">
   <g stroke="null" clip-path="url(#svg_17)">
    <path stroke="null" fill="white" d="m167.30928,83.77871l-6.28946,-8.78107l-5.26753,0l0,23.41954l4.68331,0l0,-16.24655l6.14341,8.05029l1.46055,0l6.14341,-8.05029l0,16.24655l4.53726,0l0,-23.41954l-5.26708,0l-6.14386,8.78107zm93.32186,-8.78107l0,4.39541l7.01974,0l0,19.02413l4.68331,0l0,-19.03388l7.16579,0l0,-4.39541l-18.86885,0l0,0.00975zm-63.18812,-0.44833c-6.74719,0 -12.20901,5.47722 -12.20901,12.22138c0,6.754 5.47137,12.22138 12.20901,12.22138c6.74719,0 12.20947,-5.47699 12.20947,-12.22138c0.00955,-6.74416 -5.46227,-12.22138 -12.20947,-12.22138zm0,19.95946c-4.26426,0 -7.72089,-3.45939 -7.72089,-7.72847c0,-4.26858 3.45663,-7.72838 7.72089,-7.72838c4.26426,0 7.72089,3.4598 7.72089,7.72838c0,4.26908 -3.45663,7.72847 -7.72089,7.72847zm-80.5673,-19.95946c-6.74719,0 -12.20947,5.47722 -12.20947,12.22138c0,6.754 5.47183,12.22138 12.20947,12.22138c6.74719,0 12.20901,-5.47699 12.20901,-12.22138c0,-6.74416 -5.46182,-12.22138 -12.20901,-12.22138zm0,19.95946c-4.26471,0 -7.72089,-3.45939 -7.72089,-7.72847c0,-4.26858 3.45618,-7.72838 7.72089,-7.72838c4.26426,0 7.72089,3.4598 7.72089,7.72838c-0.01001,4.26908 -3.45663,7.72847 -7.72089,7.72847zm135.24601,-12.48433c1.03194,1.31569 1.67485,2.95302 1.67485,4.74625c0,4.26863 -3.45663,7.72847 -7.72089,7.72847c-0.70115,0 -1.37273,-0.12679 -2.01565,-0.30209l-2.57985,3.88872c1.42142,0.57489 2.96933,0.91588 4.5955,0.91588c6.74719,0 12.20901,-5.47699 12.20901,-12.22138c0,-3.38167 -1.37273,-6.44189 -3.58267,-8.65424l-2.5803,3.89838zm-6.04604,-2.97252c1.29493,0 2.50204,0.35088 3.58267,0.91611l3.7583,-2.91403c-2.04477,-1.54959 -4.56638,-2.50469 -7.33141,-2.50469c-6.74719,0 -12.20901,5.47722 -12.20901,12.22138c0,1.66653 0.34079,3.26486 0.94412,4.71718l3.77786,-2.93348c-0.1365,-0.57534 -0.22386,-1.16991 -0.22386,-1.78371c-0.01956,-4.25897 3.43661,-7.71877 7.70133,-7.71877zm-154.35874,0c2.55118,0 4.80025,1.25724 6.2021,3.16746l3.18363,-3.18696c-2.23905,-2.71909 -5.58831,-4.48311 -9.38574,-4.48311c-6.74719,0 -12.21857,5.47722 -12.21857,12.22138c0,6.74439 5.47137,12.23099 12.21857,12.23099c3.49531,0 6.6207,-1.49077 8.85066,-3.83975l-3.17408,-3.17698c-1.41186,1.53974 -3.4175,2.52383 -5.67658,2.52383c-4.26426,0 -7.72044,-3.45939 -7.72044,-7.72847c0,-4.26858 3.45618,-7.72838 7.72044,-7.72838zm129.27823,14.97946l0,-19.03374l-4.68331,0l0,23.41954l15.13967,0l-2.26817,-4.39541l-8.18818,0l0,0.00961zm-79.67186,-9.79463c-1.98607,-0.60423 -3.23232,-1.99791 -2.77504,-3.59625c0.37992,-1.33519 2.30776,-1.95892 4.29383,-1.39364c1.27536,0.36059 2.26863,1.12075 2.71635,1.97842l2.96978,-2.98227c-1.21712,-1.90042 -3.39794,-3.30386 -5.99781,-3.62545c-4.35207,-0.53603 -8.56765,2.3195 -8.72371,6.00349c-0.4186,9.85299 12.45289,6.90029 11.64481,12.25049c-0.23387,1.56904 -2.63854,2.24188 -4.92674,1.58872c-1.50878,-0.42888 -2.67722,-1.34476 -3.17408,-2.35859l-3.19319,3.13808c1.3923,1.9201 3.8361,3.34313 6.74719,3.70381c4.86804,0.59411 9.06451,-2.04689 9.4053,-5.91593c0.45727,-5.15567 -4.15733,-7.31923 -8.9867,-8.79087z"/>
    <path stroke="null" fill="#0078FF" d="m48.5132,65.13947c-10.96268,0 -20.03197,8.14499 -21.54166,18.73769l-17.23944,0c1.5853,-20.12191 18.34022,-35.9561 38.78109,-35.9561c10.18941,0 19.46322,3.93605 26.39832,10.37327l-11.2567,13.00663c-3.91573,-3.81224 -9.25424,-6.1615 -15.14163,-6.1615z"/>
    <path stroke="null" fill="#FFC003" d="m48.51298,108.85805c-12.0186,0 -21.76006,-9.78498 -21.76006,-21.8576l-17.14145,0c0,21.58205 17.41873,39.07902 38.90433,39.07902c10.18954,0 19.46335,-3.93358 26.39846,-10.37359l-11.2567,-13.00635l0,-0.00275c-3.91846,3.81229 -9.25697,6.16127 -15.14458,6.16127z"/>
    <path stroke="null" fill="white" d="m6.50001,87c0,-23.30676 18.81075,-42.202 42.01329,-42.202c12.10259,0 23.00939,5.1402 30.67523,13.36397c0.1456,0.15754 0.14833,0.40233 0.00864,0.5655l-14.94857,17.27187c-0.17654,0.20538 -0.49549,0.19132 -0.6552,-0.02815c-3.39202,-4.67315 -8.8816,-7.70888 -15.08011,-7.70888c-10.30165,0 -18.65391,8.38973 -18.65391,18.73769l-23.35938,0zm20.47168,-3.12297c1.50969,-10.5927 10.57898,-18.73769 21.54161,-18.73769c5.88729,0 11.2258,2.34925 15.14153,6.1615l11.2567,-13.00663c-6.93465,-6.43722 -16.20846,-10.37327 -26.39823,-10.37327c-20.44087,0 -37.19575,15.83419 -38.78106,35.9561l17.23945,0zm37.27692,14.12363l14.94857,17.27178c0.13968,0.1634 0.13695,0.40508 -0.00864,0.56299c-7.66584,8.22646 -18.57264,13.36657 -30.67523,13.36657c-23.20254,0 -42.01329,-18.89528 -42.01329,-42.202l3.11179,0c0,21.58205 17.41872,39.07902 38.90432,39.07902c10.18968,0 19.46349,-3.93312 26.39814,-10.37314l-11.2567,-13.00681l0,-0.00275c-3.91846,3.81229 -9.25697,6.16172 -15.14426,6.16172c-12.0186,0 -21.76006,-9.78543 -21.76006,-21.85805l3.10615,0c0,10.34796 8.35225,18.73783 18.65391,18.73783c6.19851,0 11.68808,-3.03601 15.08011,-7.70879c0.15652,-0.21696 0.47866,-0.23389 0.6552,-0.02838z" clip-rule="evenodd" fill-rule="evenodd"/>
   </g>
   <defs stroke="null" transform="translate(0 6) translate(-11 -26) translate(-5 42) translate(-157.5 0) translate(0 -22.202) translate(-162.5 214.202) scale(0.693333 0.669205) translate(162.5 -214.202) translate(365.625 135.68) scale(0.516827 1) translate(-365.625 -135.68) translate(107.442 135.68) scale(1 0.473275) translate(-107.442 -135.68) translate(707.442 471.088) scale(1.09767 1.25683) translate(-707.442 -471.088) translate(16.5254 309.506) scale(1.13559 1.14986) translate(-16.5254 -309.506) translate(14.5523 97.8737) scale(1.01866 1) translate(-14.5523 -97.8737)">
    <clipPath stroke="null" id="svg_17">
     <rect stroke="null" x="-173.5" y="-0.202" fill="white" height="204" width="600"/>
    </clipPath>
   </defs>
  </g>
 </g>
</svg>