<svg fill="none" height="24" viewBox="0 0 235 24" width="235" xmlns="http://www.w3.org/2000/svg" xmlns:xlink="http://www.w3.org/1999/xlink"><clipPath id="a"><path d="m.390137 0h234v24h-234z"/></clipPath><g clip-path="url(#a)"><path d="m14.1936 16.5114c-.0983 1.7095-1.6124 2.8886-3.3231 2.7707h-4.48314v-5.7576l4.07024-.0982c2.2416 0 3.7556 1.179 3.7556 2.9868v.0983zm-.6292-8.76404c-.118 1.51307-1.5141 2.57414-3.0085 2.45624h-4.16854v-5.10902h3.85394c1.927 0 3.3231 1.06112 3.3231 2.45628zm1.3764 3.85144c2.1433-1.0611 2.7922-2.14186 2.7922-4.26409 0-2.24013-1.1799-4.16586-3.2052-5.12871-1.0814-.43231-2.3595-.53056-5.99718-.53056h-8.140483v3.41914h1.612363v14.20712h-1.612363v3.4191h11.247263c4.0703 0 6.8624-2.3383 6.8624-5.8754.1966-2.358-1.2978-4.4999-3.559-5.2466zm9.8512 1.0218c.3145-1.6899 1.7893-3.06541 3.5589-3.06541h.0984c1.6713 0 3.1461 1.37551 3.1461 3.16371zm-.2163 2.8493h11.3259c.0982-2.1222-.531-4.1265-1.5731-5.91471-1.3567-2.12223-3.6769-3.28159-6.0955-3.28159-4.4046 0-7.649 3.49775-7.649 8.3514 0 4.8535 3.2444 8.3512 7.649 8.3512 3.7753 0 6.6067-2.1222 7.3342-5.6002l-3.9915.0983c-.4129 1.3755-1.7893 2.4366-3.2445 2.3186-.7078.0197-3.3229-.1964-3.7555-4.323zm29.6322 7.2312h2.3398v-10.5914l-7.3342-.0196v.0196l-.0984 1.9454h4.9944c0 .5306 0 1.1005-.0983 1.631-.531 2.751-2.8708 4.8535-5.7417 4.9715-3.618 0-6.3708-3.6943-6.3708-8.764 0-6.44532 3.8147-8.66578 6.3708-8.66578 1.6911.09825 3.4017.9432 4.4636 2.31871.5308.74672.9634 1.57203 1.1601 2.51525h2.3398v-6.38634h-2.2218v3.04579c-1.2781-2.22048-3.618-3.69424-6.2725-3.59599-4.7781 0-8.6124 4.85361-8.6124 10.98446 0 6.1309 3.8146 10.8665 8.7106 10.8665 1.6911 0 3.4017-.6287 4.7783-1.7881.6291-.6288 1.1601-1.2183 1.5927-1.965zm15.4158-5.6395c-.3147 2.3187-2.3597 3.989-4.7192 4.1068-1.7107 0-3.2247-1.2575-3.3231-3.0457 0-2.0043 1.6124-2.8296 6.5478-3.4781l1.4945-.2161zm0 5.6395h4.6011l-.2163-1.9453h-2.2416v-8.7247c0-3.98899-2.7921-5.46275-6.1152-5.46275-1.4945 0-3.1068.41266-4.2866 1.37551-.9634.84497-1.6123 1.96503-1.8286 3.22264h2.4579c.4326-2.10257 1.6123-2.80997 3.8539-2.80997 2.2613 0 3.6377 1.15936 3.6377 2.94757v1.572l-1.4945.0982c-6.4297.6288-9.1039 2.1027-9.1039 5.1484v.3144c.2163 2.6331 2.5759 4.7357 5.25 4.5195 2.2416 0 4.3849-1.179 5.4664-3.1833v2.9278zm26.3877 0h4.4436v-1.9453h-2.2217v-10.1395c0-2.75104-1.3764-4.3427-3.795-4.3427-1.2583 0-2.4186.53056-3.382 1.37551-.6293.62882-1.0617 1.27727-1.4747 2.00433-.4129-2.22048-1.573-3.39949-3.6967-3.39949-2.9495 0-4.3259 2.33838-5.073 3.39949l-.0983-3.10474h-4.6405v1.94538h2.3202v12.26172h-2.3202v1.9453h6.8623v-1.9453h-2.3202v-7.919c0-1.4738 1.7894-4.55887 4.2276-4.55887 1.5927 0 2.3202.84495 2.3202 2.86897v11.5542h4.6406v-1.9453h-2.34v-8.1155c0-1.1594 1.4748-4.46062 4.2276-4.46062 1.573 0 2.3202 1.0611 2.3202 3.28162zm20.5676-8.1351c0 3.93-1.691 6.3666-4.424 6.3666-2.537-.2161-4.523-2.3383-4.523-4.9714l-.098-2.7511c0-2.3383 2.32-4.87322 4.64-4.87322 2.616-.01965 4.405 2.31872 4.405 6.22912zm2.536.3341c0-4.6572-2.733-8.3514-6.331-8.3514-2.733 0-4.542 2.29908-5.171 3.4584v-8.88186h-4.425v1.94536h2.104v17.6852h-2.222v1.9453h4.543v-2.9278c.943 1.2773 2.32 3.2029 5.171 3.2029 3.382 0 6.331-3.7334 6.331-8.0761zm1.239 7.801h6.823v-1.9453h-2.123v-19.63056h-4.582v1.80781h2.242v17.82275h-2.34v1.9453zm11.287-9.3141c0-.5306.216-1.0611.314-1.572.531-1.90611 2.222-3.26197 4.228-3.37987.944-.09825 1.907.3144 2.654.94321 1.062 1.15936 1.593 2.53486 1.593 4.00866zm-.099 1.7882h11.543c0-5.5807-3.166-8.64615-7.099-8.64615-3.913 0-6.98 3.57635-6.98 8.21385 0 4.8536 3.067 8.2137 7.413 8.2137 2.005 0 3.814-.8449 5.073-2.3187.629-.7467 1.062-1.4737 1.278-2.417l-2.635.0983c-.845 1.9061-2.005 2.7314-3.814 2.7314-1.062 0-2.124-.4127-2.97-1.1594-1.061-1.0218-1.592-2.3973-1.809-4.716zm26.35-.2358h-5.507l2.753-9.35357zm2.437 7.7617h4.758v-3.3405h-1.593l-5.8-17.68516h-5.073l-5.722 17.68516h-1.592v3.3405h4.876l1.377-4.5588h7.412zm26.682-13.08696h1.377v-3.06544h-6.351v3.06544h1.593l-2.124 9.43206-2.635-12.4975h-4.128l-2.655 12.7137-2.202-9.64826h1.573v-3.06544h-6.352v3.06544h1.377l3.48 13.08696h4.228l2.537-11.2005 2.653 11.2005h4.229zm12.704 7.15276c-.099 1.906-1.692 3.3798-3.599 3.3798-1.593 0-2.655-.845-2.655-2.1026 0-2.2204 2.439-2.5349 6.135-2.8493h.099v1.4738.0983zm.117 5.9342h4.975v-3.085h-1.377l.099-7.4867c0-3.57637-2.34-5.5807-6.784-5.5807-3.815 0-6.351 2.00433-6.567 5.168l3.814.0983v-.0983c.099-1.4738.846-2.41697 2.852-2.41697 2.005 0 2.851.74667 2.851 3.16367-5.094.4127-10.383.9432-10.383 5.5807 0 2.8493 2.439 4.9518 5.624 4.9518 1.908 0 3.717-.7467 4.876-2.2008v1.906zm16.458-12.6743c.63 0 1.258.0982 1.888.2161v-3.75315c-.63-.09825-1.161-.21615-1.789-.21615-1.79 0-2.949.86461-3.992 2.90823v-2.63313h-5.368v3.16369h1.573v9.90371h-1.573v3.085h7.354v-3.085h-1.888v-6.2488c.118-1.9453 1.789-3.43876 3.795-3.3405zm6.882 2.5938c.315-1.6899 1.789-3.06541 3.559-3.06541h.099c1.671 0 3.146 1.37551 3.146 3.16371zm-.117 2.8493h11.325c.099-2.1222-.531-4.1265-1.572-5.91471-1.358-2.12223-3.678-3.28159-6.096-3.28159-4.404 0-7.668 3.49775-7.668 8.3514 0 4.8535 3.243 8.3512 7.668 8.3512 3.775 0 6.606-2.1222 7.333-5.6002l-3.991.0983c-.413 1.3755-1.79 2.4366-3.245 2.3186-.706.0197-3.322-.1964-3.754-4.323z" fill="#fff"/></g></svg>