<svg width="40" height="40" viewBox="0 0 40 40" fill="none" xmlns="http://www.w3.org/2000/svg">
<rect width="40" height="40" rx="20" fill="#0450FF"/>
<path d="M28 20C28 19.2636 27.403 18.6667 26.6667 18.6667H21.3333V13.3333C21.3333 12.597 20.7364 12 20 12C19.2636 12 18.6667 12.597 18.6667 13.3333V18.6667H13.3333C12.597 18.6667 12 19.2636 12 20C12 20.7364 12.597 21.3333 13.3333 21.3333H18.6667V26.6667C18.6667 27.403 19.2636 28 20 28C20.7364 28 21.3333 27.403 21.3333 26.6667V21.3333H26.6667C27.403 21.3333 28 20.7364 28 20Z" fill="white"/>
</svg>
