<?xml version="1.0" encoding="utf-8"?><svg viewBox="0 0 50 50" xmlns="http://www.w3.org/2000/svg" xmlns:xlink="http://www.w3.org/1999/xlink"><style>:root>svg{display:none}:root>svg:target{display:block}</style><svg viewBox="0 0 20 20" id="anchor_icon" xmlns="http://www.w3.org/2000/svg"><path class="aa" d="M-100 153.88H6.973V250H-100z"/><path d="M-75.414 206.335a8.724 7.839 0 01-.646.659 7.602 6.83 0 01-5.63 2.11 8.021 7.207 0 01-7.98-7.17v-.089l-10.33.011v.09q0 6.768 5.407 11.615 5.32 4.848 12.927 4.848 7.632 0 12.927-4.848.115-.105.224-.212l-6.899-7.014z" class="ab"/><path d="M-68.527 190.52q-.104-.102-.212-.201-5.295-4.847-12.927-4.847-7.607 0-12.927 4.847-5.371 4.826-5.407 11.537l10.33-.01a8.023 7.21 0 017.98-7.082 7.602 6.83 0 015.63 2.111 8.315 7.472 0 01.634.648l6.898-7.003m-2.038.223l-4.76 4.881a8.995 8.082 0 00-6.365-2.222 9.06 8.141 0 00-6.7 2.512 9.146 8.218 0 00-2.734 4.948l-7.222.011q.39-5.5 4.885-9.538 4.848-4.423 11.784-4.423 6.477 0 11.112 3.831zm10.716 8.584q-.112-.112-.237-.223a4.562 4.099 0 100 5.785l.05-.045-1.143-1.117a.814.732 0 00-.087.067 2.871 2.58 0 110-3.64 2.674 2.403 0 01.248.256l1.169-1.083m5.978-1.419a4.541 4.08 0 103.22 1.196 4.385 3.94 0 00-3.22-1.196m-2.013 2.245a2.851 2.562 0 014.052 0 2.88 2.589 0 010 3.641 2.865 2.575 0 11-4.052-3.64m32.206-2.246a4.541 4.08 0 103.219 1.196 4.385 3.94 0 00-3.22-1.196m-2.013 2.245a2.851 2.562 0 014.052 0 2.88 2.589 0 010 3.641 2.865 2.575 0 11-4.052-3.64m18.396 0a2.737 2.46 0 012.026-.76 2.767 2.487 0 011.256.257l1.38-.983a4.335 3.895 0 00-2.648-.76 4.541 4.08 0 00-4.55 4.1 4.638 4.168 0 00.311 1.53l1.442-1.017a2.977 2.675 0 01-.062-.547 2.764 2.483 0 01.845-1.82m5.233-1.05l-.037-.034-.957 1.262a2.892 2.599 0 01-.187 3.462 2.737 2.46 0 01-2.026.76 2.905 2.61 0 01-.87-.112l-.994 1.318a4.537 4.077 0 001.852.335 4.562 4.1 0 004.549-4.088 4.426 3.977 0 00-1.33-2.903zm-28.489-1.128h-1.852l-2.337 3.015-2.3-3.015h-1.988v8.041h1.802v-5.406l2.474 3.005 2.548-3.005v5.406h1.653v-8.041m15.76-.034l-1.814-.011v8.086h5.817l-.994-1.552h-3.008v-6.523m17.613 1.44v6.646H4.6v-6.645h2.374v-1.474H.037l-.013 1.474h2.797z" class="ac"/><g class="ad"><text x="-95.611" y="-150" font-weight="700" font-family="NewsGothicBT-Bold, NewsGoth BT" font-size="45.85" transform="matrix(.2797 0 0 .2403 120.329 407.075)" class="ae">S</text></g><path fill-rule="evenodd" d="M-598.883 243.666l-11.848 226.858h249.77l17.468-334.475h-93.963l11.909-226.573c-63.356 0-126.712.283-190.068.283l-17.576 333.907h34.308z" clip-rule="evenodd"/><path d="M-569.624 175.784l2.763-52.876h12.881c6.78 0 10.9-16.773 12.777-52.308l1.043-19.615c2.399-45.202-1.513-73.346-10.065-73.346h-56.008l-10.43 198.145h47.039zM-550.277 30.8l-2.19 43.21h-11.786l2.242-42.925h11.734V30.8zm14.914 144.985l3.442-33.26h15.958v33.26h10.482V-22.644h-20.599l-21.433 198.43h12.15zM-520.29 31.37h4.328v63.11h-10.951l6.623-63.11zm57.57 37.241l.94-17.91c2.399-45.77-1.513-73.345-10.065-73.345h-19.92l-10.431 198.43h10.9l2.868-54.583h6.78l3.076 54.582h11.211l-3.285-58.278c3.964-6.538 6.57-22.742 7.927-48.896zm-20.963-37.81h11.733l-2.19 42.927h-11.785l2.242-42.927zm31.186 144.984l10.429-198.429h-10.952l-10.377 198.43h10.9zM-519.3 203.93l-12.308 79.314-5.058-79.314h-47.195l-10.378 198.713h47.039l5.736-109.733 3.807 61.405h7.04l10.17-65.385-5.998 113.713h10.9l10.376-198.713H-519.3zm28.733 0l-21.485 198.428h12.151l3.441-33.26h15.959v33.26h10.482V204.214l-20.548-.284zm-.834 117.408l6.57-63.11h4.33v63.11h-10.9zm58.251-60.552l2.973-56.856h-33.116l-2.972 56.856h11.994l-7.457 141.857h10.9l7.456-141.857h10.222zm14.55-.001h16.53l3.025-56.572h-17.627c-6.779 0-10.899 16.773-12.775 52.308l-3.86 72.492c-2.45 46.337 1.512 73.345 10.065 73.345h13.716l2.971-56.572h-16.53l4.484-85zm47.716-56.855L-374.64 275h-12.463l3.703-71.07h-10.9l-10.377 198.713h10.899l3.703-71.07h12.463l-3.702 71.07h10.95l10.379-198.713h-10.9z"/><clipPath transform="translate(-.365 60.094)" id="aa"><path d="M-.177 60.5h150v29h-150v-29z"/></clipPath><g clip-path="url(#aa)"><path d="M57.42 69.282h-8.693v-2.52h10.505V63.28h-15.54v12.964h5.035v-3.48h8.693v-3.482zm27.588 2.63l-4.61-8.632H74.62l7.482 12.964h5.737l7.483-12.964h-5.704l-4.61 8.632zm26.456-2.23a3.048 3.048 0 001.928-2.788c0-2.129-1.795-3.59-5.327-3.59H96.683v12.957h11.64c3.792 0 5.478-1.503 5.478-3.665 0-1.244-.734-2.33-2.337-2.914zm-9.88-3.272h5.629a.989.989 0 01.992.583.99.99 0 010 .796.996.996 0 01-.588.536.989.989 0 01-.404.047h-5.628V66.41zm6.03 6.737h-6.03v-1.962h6.038a.995.995 0 01.802 1.737.995.995 0 01-.802.225h-.008zm13.62-1.978h8.667v-2.813h-8.667V66.76h9.586v-3.48h-14.63v12.964h14.855v-3.48h-9.811v-1.595zm11.89-7.889v3.481h5.654v9.483h5.093v-9.483h5.654V63.28h-16.401zm-68.05.008l-7.515 12.956h5.352l1.01-1.912h8l1.01 1.912h5.571l-7.515-12.956h-5.913zm.668 7.68l2.213-4.174 2.213 4.174h-4.426zM11.414 74.984H.36L8.51 89.5h20.912l8.148-14.515H26.515L18.972 60.5l-7.558 14.484z"/><path fill-rule="evenodd" d="M149.639 79.597H43.69v9.718h105.95v-9.718zm-62.237 7.348c-.354 0-.685-.036-.992-.11s-.593-.179-.855-.32a3.051 3.051 0 01-.712-.546l.364-.474c.317.32.658.554 1.021.7.363.145.755.218 1.174.218.332 0 .635-.036.907-.11a1.62 1.62 0 00.659-.342.688.688 0 00.242-.546.486.486 0 00-.137-.358 1.02 1.02 0 00-.355-.225 2.193 2.193 0 00-.47-.132 4.814 4.814 0 00-.491-.072l-.409-.052a12.623 12.623 0 01-.87-.153 3.073 3.073 0 01-.719-.24 1.281 1.281 0 01-.484-.394 1.04 1.04 0 01-.174-.612c0-.233.055-.44.166-.62.116-.18.278-.332.485-.459a2.41 2.41 0 01.718-.284c.278-.063.576-.095.893-.095.343 0 .653.037.931.11a2.6 2.6 0 01.757.306c.227.131.419.294.575.488l-.386.423a2.192 2.192 0 00-.522-.43 2.321 2.321 0 00-.636-.277 2.702 2.702 0 00-.726-.095c-.303 0-.576.037-.818.11s-.436.172-.582.298a.594.594 0 00-.212.46.59.59 0 00.143.408.99.99 0 00.394.255c.172.063.368.114.59.153.223.034.462.068.72.102.267.029.532.068.794.116.267.05.512.12.734.212.222.087.399.211.53.372.136.16.204.376.204.648 0 .311-.101.586-.303.824-.201.233-.486.415-.855.546-.363.132-.795.197-1.293.197zm-36.85-.19c.383.127.799.19 1.248.19.328 0 .638-.041.93-.124.293-.082.56-.187.803-.313a3.05 3.05 0 00.575-.386l-.28-.489a3.77 3.77 0 01-.515.365 2.89 2.89 0 01-.673.284c-.247.073-.52.11-.817.11-.354 0-.684-.05-.992-.147-.307-.097-.58-.235-.817-.415s-.424-.396-.56-.649a1.884 1.884 0 01-.197-.867c0-.301.063-.576.19-.824.13-.247.31-.461.537-.64.227-.18.487-.32.78-.416.297-.097.61-.146.938-.146.287 0 .56.036.817.11.262.067.502.162.719.284.217.116.403.252.56.408l.348-.503a2.433 2.433 0 00-.62-.416 3.896 3.896 0 00-.833-.313 3.55 3.55 0 00-.938-.124c-.434 0-.84.063-1.219.19a3.064 3.064 0 00-.991.539 2.588 2.588 0 00-.666.823 2.249 2.249 0 00-.235 1.028c0 .384.078.739.235 1.064.161.32.383.598.666.831.287.233.623.415 1.006.547zm18.552-4.985l-2.58 5.102h.62l.672-1.333h3.258l.67 1.333h.659l-2.558-5.102h-.741zm1.691 3.215l-.934-1.859a7.38 7.38 0 00-.167-.35 3.289 3.289 0 00-.114-.226 2.846 2.846 0 01-.105-.211 4.642 4.642 0 01-.028-.073l-.048.11c-.035.082-.07.16-.106.233-.035.068-.076.143-.121.226l-.16.328-.917 1.822h2.7zm32.188 1.311v.576h3.36v-.576h-1.385v-3.95h1.385v-.576h-3.36v.576h1.385v3.95h-1.385zm16.946.576V81.77h.606l4.474 4.375a8.853 8.853 0 01-.017-.242 32.937 32.937 0 00-.022-.627l-.016-.663c0-.219-.002-.413-.008-.583v-2.26h.59v5.102h-.627l-4.485-4.333.005.113c.01.127.02.275.03.445l.03.517a20.69 20.69 0 01.03.941v2.317h-.59zm20.654-.124c.394.132.825.197 1.294.197s.898-.065 1.287-.197a3.164 3.164 0 001.014-.554c.287-.238.51-.515.666-.83a2.26 2.26 0 00.242-1.028c0-.37-.081-.712-.242-1.028a2.51 2.51 0 00-.666-.838 3.164 3.164 0 00-1.014-.554c-.39-.13-.818-.197-1.287-.197s-.9.066-1.294.197a3.09 3.09 0 00-1.014.561 2.573 2.573 0 00-.658.831 2.276 2.276 0 00-.235 1.028c0 .364.078.707.235 1.028.156.315.376.592.658.83.288.234.626.418 1.014.554zm2.339-.517a3.405 3.405 0 01-1.045.153c-.383 0-.733-.051-1.052-.153a2.567 2.567 0 01-.824-.43 2.079 2.079 0 01-.53-.656c-.121-.248-.182-.517-.182-.809s.06-.564.182-.816c.126-.253.303-.472.53-.656.232-.185.506-.328.824-.43.319-.107.669-.16 1.052-.16.379 0 .727.053 1.045.16.317.102.593.245.825.43.232.184.41.403.537.656.126.252.189.524.189.816s-.063.561-.19.809-.304.466-.536.656a2.583 2.583 0 01-.825.43z" clip-rule="evenodd"/></g><g><path d="M32.243 15.662h-2.676l-.97-1.986h-4.713l-.956 1.986H20.26l4.757-10.085h2.459l4.767 10.085zm-7.502-3.885h3.022L26.25 8.482l-1.51 3.295zm10.805 3.885h-2.459v-7.05h2.423v.49c.54-.433 1.264-.67 2.014-.663 2.087 0 3.457 1.122 3.457 3.121v4.102h-2.459V11.72c0-.747-.41-1.38-1.405-1.38-1.164 0-1.565.72-1.565 1.8l-.009 3.527m15.224-2.753c-.4 1.712-1.963 2.906-4.26 2.906-2.57 0-4.48-1.569-4.48-3.684s1.913-3.697 4.48-3.697c2.24 0 3.803 1.153 4.117 2.82h-2.706a1.27 1.27 0 00-.561-.659 1.72 1.72 0 00-.931-.232c-1.044 0-1.876.733-1.876 1.768 0 1.035.833 1.77 1.912 1.77.363.011.72-.081 1.01-.262.291-.18.499-.438.588-.73h2.71m3.467 2.748h-2.458V5.577h2.458v3.435a3.457 3.457 0 011.98-.577c2.087 0 3.454 1.122 3.454 3.122v4.102h-2.457v-3.94c0-.747-.41-1.38-1.407-1.38-1.164 0-1.565.72-1.565 1.8l-.005 3.523zM65.238 8.44c2.57 0 4.532 1.584 4.532 3.696s-1.963 3.684-4.532 3.684c-2.568 0-4.533-1.569-4.533-3.684S62.67 8.44 65.238 8.44zm0 5.48c1.162 0 2.015-.748 2.015-1.784s-.853-1.783-2.015-1.783c-1.161 0-2.015.748-2.015 1.783s.852 1.784 2.015 1.784zm11.232-2.891a2.722 2.722 0 00-1.615-.546c-.748 0-1.581.34-1.581 1.369v3.812h-2.459V8.612h2.424v.59c-.017 0 .488-.692 1.702-.692.284-.01.567.03.831.118.264.087.502.221.697.392v2.009m1.379 3.911v-1.73h.887c.164-.006.328.01.486.047.1.031.186.09.242.166a.44.44 0 01.088.272.424.424 0 01-.138.321.678.678 0 01-.348.154 2.167 2.167 0 01.404.432c.055.071.141.187.256.336h-.504l-.304-.376a2.507 2.507 0 00-.223-.253.33.33 0 00-.126-.072.838.838 0 00-.212-.02h-.087v.72l-.42.002zm.422-.998h.309c.126.005.253-.002.378-.02a.233.233 0 00.118-.073.197.197 0 00.043-.13.186.186 0 00-.056-.144.285.285 0 00-.16-.067 4.536 4.536 0 00-.306-.006h-.329l.003.44z"/><path d="M78.632 15.62c-.245 0-.488-.04-.714-.117a1.922 1.922 0 01-.604-.336 1.704 1.704 0 01-.228-.228 1.347 1.347 0 01-.31-1.012 1.45 1.45 0 01.538-.944 1.77 1.77 0 01.275-.188 2.137 2.137 0 011.044-.266c.371 0 .735.092 1.043.266.099.055.191.118.275.188.17.141.306.308.4.491.121.237.168.495.138.75-.03.257-.137.502-.312.715a1.7 1.7 0 01-.227.229 1.917 1.917 0 01-.605.335 2.187 2.187 0 01-.713.117zm0-2.959c-.338 0-.668.083-.948.238a1.51 1.51 0 00-.63.635 1.196 1.196 0 00-.096.817c.066.274.228.526.467.724.238.198.542.333.874.387.33.055.674.027.986-.08.311-.107.578-.288.766-.521.187-.233.287-.506.287-.786 0-.375-.18-.734-.5-1a1.902 1.902 0 00-1.206-.414zm-27.027 9.994h-.528v-3.41h.528v1.465a.807.807 0 01.348-.275 1.31 1.31 0 01.56-.111c.398 0 .707.111.926.334.217.25.332.552.33.86a1.307 1.307 0 01-.34.857 1.152 1.152 0 01-.419.261c-.162.06-.338.087-.514.08-.406 0-.702-.13-.887-.391l-.004.33zm1.391-.555a.795.795 0 00.222-.59.774.774 0 00-.22-.581.734.734 0 00-.263-.165.867.867 0 00-.324-.051.879.879 0 00-.322.053.748.748 0 00-.264.163.765.765 0 00-.227.576.786.786 0 00.227.587c.07.072.16.13.262.168a.856.856 0 00.324.055.853.853 0 00.324-.05.727.727 0 00.263-.165h-.002zm2.024 1.502h-.587l.683-1.197-1.176-2.017h.613l.852 1.564.82-1.564h.573l-1.779 3.214zm6.333-3.528l-.5.144a.674.674 0 00-.256-.393 1.04 1.04 0 00-.573-.177 1.049 1.049 0 00-.58.16.529.529 0 00-.166.177.433.433 0 00-.056.218.413.413 0 00.133.312c.101.09.236.152.383.174l.603.108c.294.042.564.16.773.337a.779.779 0 01.272.6.783.783 0 01-.1.384.948.948 0 01-.286.314c-.257.194-.593.291-1.005.291-.452 0-.806-.098-1.061-.294a1.082 1.082 0 01-.446-.699l.534-.144a.753.753 0 00.285.51 1.074 1.074 0 00.681.206c.266 0 .47-.05.614-.15a.504.504 0 00.162-.17.406.406 0 00.054-.212.425.425 0 00-.153-.327.89.89 0 00-.449-.191l-.575-.104a1.442 1.442 0 01-.715-.315.762.762 0 01-.268-.599.793.793 0 01.104-.382.96.96 0 01.286-.312 1.5 1.5 0 01.94-.299c.413 0 .73.083.95.25.21.152.355.356.415.583zm1.102 3.476h-.529v-3.16h.517v.353a.862.862 0 01.359-.292c.17-.078.362-.116.557-.113.394 0 .702.112.923.335.217.248.333.547.331.853a1.287 1.287 0 01-.342.85 1.143 1.143 0 01-.417.26 1.36 1.36 0 01-.513.08 1.293 1.293 0 01-.533-.104.872.872 0 01-.353-.263v1.2zm1.614-2.03a.775.775 0 00-.219-.567.716.716 0 00-.262-.17.853.853 0 00-.326-.054.86.86 0 00-.326.055.766.766 0 00-.487.736.78.78 0 00.225.576c.07.072.16.13.262.169a.854.854 0 00.326.055.852.852 0 00.325-.055.723.723 0 00.26-.169.784.784 0 00.222-.576zm1.395-.86a1.59 1.59 0 011.003-.341c.376 0 .736.122 1.003.341.131.115.234.25.302.397.068.148.1.305.094.463.006.158-.025.316-.092.464-.068.148-.17.284-.3.4-.269.219-.63.341-1.007.341a1.6 1.6 0 01-1.006-.341 1.2 1.2 0 01-.3-.4 1.021 1.021 0 01-.092-.464 1.013 1.013 0 01.094-.463 1.19 1.19 0 01.301-.397zm.398 1.456a.86.86 0 00.276.158.989.989 0 00.658 0 .858.858 0 00.277-.158c.164-.144.246-.343.247-.596a.757.757 0 00-.247-.59.857.857 0 00-.277-.16.988.988 0 00-.658 0 .859.859 0 00-.276.16c-.165.143-.247.34-.247.59 0 .25.082.453.247.596zm3.373-2.443v.716h.591v.4h-.591v1.178a.223.223 0 00.01.128c.017.042.045.08.082.11.037.03.083.053.133.066a.41.41 0 00.156.006c.07.001.141-.005.21-.018v.376c-.117.032-.24.046-.363.043a.897.897 0 01-.3-.038.8.8 0 01-.258-.132.634.634 0 01-.16-.22.54.54 0 01-.044-.256V20.79h-.522v-.4h.148a.478.478 0 00.17-.02.42.42 0 00.146-.077c.072-.07.11-.16.105-.251v-.369h.487zm1.292.083a.31.31 0 01-.083-.102.26.26 0 01-.027-.121.26.26 0 01.028-.122.375.375 0 01.206-.175.423.423 0 01.147-.024c.05 0 .1.007.148.023.047.016.089.04.125.07a.31.31 0 01.085.104c.02.04.03.081.028.124a.26.26 0 01-.028.121.304.304 0 01-.085.102.393.393 0 01-.125.07.452.452 0 01-.148.022c-.05 0-.1-.007-.147-.023a.377.377 0 01-.124-.069zm.538 2.899h-.529v-2.266h.529v2.266zm2.285-1.865h-.66v1.865h-.55V20.79h-.507v-.4h.506v-.382a.644.644 0 01.056-.307.76.76 0 01.2-.263.917.917 0 01.296-.157c.11-.036.228-.053.346-.05.163 0 .27.016.318.048v.394a.78.78 0 00-.233-.028.53.53 0 00-.304.087c-.087.058-.128.158-.128.3v.36h.66v.398zm1.34 2.812h-.585l.682-1.197-1.176-2.017h.614l.852 1.564.819-1.564h.573l-1.778 3.214zM17.29 7.725s-.652-.257-1.329-.09a2.015 2.015 0 00-1.376 1.103c-.609 1.269-.082 3.48-.288 3.48-.206 0-.855-2.038-1.722-4.16-.867-2.123-1.618-4.329-2.972-4.15-1.202.156-.829 2.67-.359 5.025.427 2.135.92 4.133.638 4.133-.503 0-2.155-5.899-3.848-5.675-1.692.224.488 6.725.03 6.737-.377.01-1.3-3.957-2.67-3.775-1.038.138-.113 3.225-.07 4.085.01.216.09.621-.3.621H2.25v.6h1.268c.26-.01.467-.092.571-.305.352-.72-.573-3.78-.356-3.803.149-.015.47.917.917 1.97.448 1.053.897 2.145 1.747 2.145 1.833 0-.037-5.97.326-5.97.193 0 .717 1.212 1.293 2.543.705 1.626 1.565 3.43 2.603 3.43 1.239 0 .835-2.33.452-4.561-.332-1.932-.721-3.747-.514-3.747.468 0 2.234 8.304 4.354 8.304 1.062 0 1.075-1.736 1.075-3.607 0-1.315-.133-2.513.862-2.801.473-.137.95.106.95.106l-.509-1.638z"/></g></svg><svg stroke-miterlimit="10" viewBox="0 0 20 20" id="cashbox" xmlns="http://www.w3.org/2000/svg"><clipPath id="ba"><path d="M0 0h20v20H0z"/></clipPath><g clip-path="url(#ba)"><path d="M1.158 9.965v-4.11c-.004-.627.274-1.073.838-1.394L9.18.401c.6-.343 1.158-.346 1.762-.003l7.214 4.074c.552.31.826.767.826 1.373a136730.764 136730.764 0 00.001 8.224c0 .605-.264 1.066-.818 1.377l-7.238 4.092c-.579.327-1.127.338-1.706.006L2 15.47c-.576-.323-.851-.781-.846-1.421l.004-4.084zm10.746-.055l-.002-1.886c-.003-.355-.22-.583-.553-.607-.388-.03-.67.205-.68.584l-.005 1.237c-.005.267-.188.406-.44.353 0 0-.264-.186-.263-.37l.002-1.64c.001-.23-.065-.427-.281-.554-.44-.259-.95.006-.965.51l-.004 1.33c-.003.243-.12.36-.337.367-.225.007-.369-.121-.384-.368l-.003-.46c-.011-.257-.147-.43-.394-.51-.419-.14-.822.125-.83.554L6.76 9.626c-.006.213-.138.33-.34.336-.21.006-.341-.103-.37-.311-.01-.06 0-.124-.008-.185a.615.615 0 00-.612-.534c-.308.003-.601.236-.609.536v1.855c.01.307.301.537.608.536a.611.611 0 00.611-.534c.01-.071-.019-.16.016-.213.071-.103.16-.232.269-.266.095-.03.259.03.338.102.07.066.092.203.094.31l.006 1.824c.007.445.487.719.899.52.234-.113.332-.3.33-.555l-.003-2.412c0-.375.118-.543.374-.54.244.003.354.16.354.521l.001 1.083c.008.375.253.614.613.62.37.004.625-.245.632-.635l.003-.835c.005-.253.137-.392.354-.388.217.004.345.142.348.394l.005.96c.012.346.277.582.626.577.36-.005.602-.247.606-.625l.001-1.857h-.002zm1.958.656l-.001-1.05c-.005-.358-.237-.592-.588-.605-.367-.014-.643.19-.648.544l.004 2.224c.01.344.307.571.646.553.354-.02.58-.256.586-.615v-1.051zm.72.292l.001.277c.017.318.244.538.571.555.346.018.62-.183.654-.506a3.232 3.232 0 00-.001-.646c-.032-.32-.322-.536-.65-.517a.588.588 0 00-.574.559c-.006.092 0 .185 0 .277z"/><path d="M11.809 9.956l-.002 1.753c-.004.356-.234.585-.576.59-.331.006-.582-.218-.596-.546l-.004-.905c-.003-.239-.124-.37-.331-.373-.208-.003-.333.128-.338.367l-.002.788c-.007.366-.25.604-.602.6-.342-.003-.575-.231-.582-.586l.001-1.022c0-.342-.1-.49-.337-.492-.243-.003-.355.155-.355.51l.002 2.278c.003.242-.09.418-.314.525-.391.187-.848-.072-.854-.492l-.006-1.723c-.002-.1-.022-.23-.09-.292-.076-.07-.231-.124-.321-.097-.104.03-.188.153-.256.252-.03.049-.007.133-.015.2a.58.58 0 01-.582.505c-.292 0-.57-.22-.578-.506V9.537c.008-.283.285-.503.58-.506a.584.584 0 01.581.504c.007.058-.001.118.007.175.03.197.153.3.352.294.193-.006.32-.116.324-.318l.005-1.11c.008-.406.392-.656.79-.524.235.078.367.24.375.481l.003.435c.014.23.148.353.365.348.207-.007.317-.117.32-.347l.005-1.257c.013-.475.499-.725.917-.48.207.12.27.305.268.523l-.002 1.549c0 .173.052.308.25.349.24.05.415-.081.42-.333l.004-1.169c.01-.358.277-.58.646-.55.316.022.523.237.527.572l.002 1.783h-.001zm1.863.62v.992c-.006.34-.224.563-.558.58-.323.018-.606-.196-.615-.522l-.004-2.1c.009-.335.269-.527.617-.514.336.012.555.234.559.57l.001.993zm.687.275v-.262a.559.559 0 01.547-.527c.315-.018.588.186.618.487.02.202.022.406 0 .61-.03.306-.291.496-.621.479-.31-.017-.528-.224-.543-.524-.005-.087 0-.175 0-.262h-.001z"/></g></svg><svg viewBox="0 0 20 20" id="email" xmlns="http://www.w3.org/2000/svg"><path d="M10.516 11.117a.942.942 0 01-.516.151.934.934 0 01-.516-.152L2.16 6.279.416 5.128v11.11c0 .434.39.785.871.785h17.426c.48 0 .87-.353.87-.785V5.127l-1.742 1.15-7.325 4.84z"/><path d="M10 9.51l8.426-5.564H1.573z"/></svg><svg viewBox="0 0 12 20" id="facebook" xmlns="http://www.w3.org/2000/svg"><path d="M8.2.875A4.625 4.625 0 003.575 5.5v2.575H1.1c-.124 0-.225.1-.225.225v3.4c0 .124.1.225.225.225h2.475V18.9c0 .124.1.225.225.225h3.4c.124 0 .225-.1.225-.225v-6.975h2.497c.103 0 .193-.07.218-.17l.85-3.4a.225.225 0 00-.218-.28H7.425V5.5a.775.775 0 01.775-.775h2.6c.124 0 .225-.1.225-.225V1.1c0-.124-.1-.225-.225-.225H8.2z"/></svg><svg viewBox="0 0 20 20" id="insta" xmlns="http://www.w3.org/2000/svg"><path d="M10 6.75a3.25 3.25 0 100 6.5 3.25 3.25 0 000-6.5z"/><path fill-rule="evenodd" clip-rule="evenodd" d="M4.77 1.082a47.472 47.472 0 0110.461 0c1.899.212 3.43 1.707 3.653 3.613a45.68 45.68 0 010 10.61c-.223 1.906-1.754 3.401-3.653 3.614a47.469 47.469 0 01-10.46 0c-1.9-.213-3.43-1.708-3.653-3.613a45.672 45.672 0 010-10.611C1.34 2.789 2.872 1.294 4.77 1.082zM15 4a1 1 0 100 2 1 1 0 000-2zm-9.75 6a4.75 4.75 0 119.5 0 4.75 4.75 0 01-9.5 0z"/></svg><svg viewBox="0 0 20 20" id="spotify" xmlns="http://www.w3.org/2000/svg"><path d="M10.265 1.986c-4.521 0-8.187 3.672-8.187 8.202 0 4.53 3.666 8.2 8.187 8.2 4.522 0 8.187-3.67 8.187-8.2 0-4.53-3.665-8.201-8.187-8.201zm3.755 11.829a.51.51 0 01-.702.17c-1.923-1.177-4.342-1.443-7.192-.791a.51.511 0 01-.611-.385.51.51 0 01.384-.612c3.118-.714 5.793-.406 7.951.915.24.148.317.462.17.703zm1.002-2.233a.638.638 0 01-.878.21c-2.2-1.355-5.555-1.747-8.158-.955a.639.639 0 01-.797-.426.64.64 0 01.426-.798c2.973-.904 6.67-.466 9.196 1.09a.64.64 0 01.21.879zm.086-2.326c-2.639-1.57-6.992-1.714-9.512-.948a.765.765 0 01-.955-.511.766.767 0 01.51-.957c2.893-.88 7.7-.71 10.738 1.097a.765.766 0 01.268 1.051.764.764 0 01-1.049.268zm9.244.301c-1.414-.337-1.665-.574-1.665-1.072 0-.47.442-.788 1.1-.788.637 0 1.269.24 1.932.736a.09.09 0 00.07.017.091.091 0 00.06-.038l.691-.975a.093.093 0 00-.018-.126c-.789-.634-1.676-.942-2.714-.942-1.527 0-2.593.918-2.593 2.23 0 1.408.92 1.907 2.51 2.292 1.351.312 1.58.573 1.58 1.04 0 .519-.461.84-1.204.84-.825 0-1.499-.278-2.252-.93a.096.096 0 00-.067-.023.092.092 0 00-.064.032l-.774.923a.093.093 0 00.009.13 4.609 4.609 0 003.117 1.196c1.644 0 2.707-.9 2.707-2.294.003-1.176-.7-1.827-2.422-2.246l-.003-.002zm6.145-1.396c-.712 0-1.297.28-1.78.857V8.37a.092.093 0 00-.092-.093H27.36a.092.092 0 00-.092.093v7.208c0 .05.041.093.092.093h1.266a.093.093 0 00.092-.093v-2.275c.483.541 1.068.807 1.78.807 1.325 0 2.666-1.022 2.666-2.975.002-1.953-1.339-2.974-2.665-2.974zm1.194 2.974c0 .994-.61 1.689-1.487 1.689-.865 0-1.518-.726-1.518-1.689 0-.962.653-1.688 1.518-1.688.861 0 1.487.71 1.487 1.688zM36.6 8.161c-1.706 0-3.043 1.316-3.043 2.996 0 1.662 1.328 2.963 3.022 2.963 1.712 0 3.052-1.31 3.052-2.985 0-1.667-1.331-2.974-3.031-2.974zm0 4.673c-.907 0-1.592-.731-1.592-1.699 0-.972.661-1.678 1.571-1.678.913 0 1.602.73 1.602 1.7 0 .971-.665 1.677-1.581 1.677zm6.674-4.557h-1.393V6.85a.092.092 0 00-.092-.093h-1.266a.093.093 0 00-.093.093v1.427h-.608a.092.092 0 00-.092.093v1.09c0 .05.041.092.092.092h.608v2.82c0 1.14.566 1.717 1.684 1.717.453 0 .83-.094 1.184-.296a.09.09 0 00.047-.08v-1.038a.092.092 0 00-.044-.078.09.09 0 00-.09-.004 1.6 1.6 0 01-.743.179c-.405 0-.587-.185-.587-.599v-2.62h1.393c.05 0 .092-.042.092-.093V8.37a.09.09 0 00-.091-.093h-.001zm4.853.005v-.175c0-.515.197-.745.64-.745.263 0 .475.052.713.132.03.009.06.004.083-.013a.092.092 0 00.038-.076V6.337a.092.092 0 00-.065-.09 3.462 3.462 0 00-1.052-.15c-1.169 0-1.787.659-1.787 1.906v.268h-.608a.093.093 0 00-.093.093v1.095c0 .051.042.093.093.093h.608v4.35c0 .051.042.092.093.092h1.265a.092.092 0 00.092-.093V9.553h1.182L51.14 13.9c-.205.456-.408.548-.683.548-.223 0-.459-.067-.698-.2a.1.1 0 00-.074-.006.092.092 0 00-.054.05l-.43.943a.093.093 0 00.04.12 2.66 2.66 0 001.351.347c.935 0 1.452-.437 1.907-1.61l2.196-5.684a.09.09 0 00-.01-.086.09.09 0 00-.075-.04h-1.318a.093.093 0 00-.088.062l-1.35 3.862-1.479-3.865a.092.092 0 00-.086-.06h-2.162zm-2.814-.005h-1.266a.093.093 0 00-.093.093v5.53c0 .052.042.093.093.093h1.266a.093.093 0 00.093-.093V8.37a.093.093 0 00-.093-.093zm-.625-2.52a.908.908 0 100 1.818.908.908 0 000-1.817zm11.088 4.298c-.5 0-.89-.403-.89-.892s.394-.897.895-.897.89.403.89.892c0 .49-.395.897-.895.897zm.005-1.7a.797.797 0 00-.802.808.79.79 0 00.797.803.797.797 0 00.802-.808.79.79 0 00-.797-.803zm.197.895l.252.353h-.213l-.226-.324h-.195v.324h-.178v-.937h.417c.218 0 .36.112.36.299.001.154-.088.247-.216.285zm-.15-.423h-.232v.296h.232c.115 0 .184-.057.184-.148 0-.096-.069-.148-.184-.148z"/></svg><svg viewBox="0 0 21 18" id="telegram" xmlns="http://www.w3.org/2000/svg"><path fill-rule="evenodd" clip-rule="evenodd" d="M17.482 16.79l.001-.002.017-.043 3-15.12v-.048c0-.377-.14-.706-.443-.903-.265-.173-.57-.185-.783-.169-.226.017-.44.074-.587.12a3.233 3.233 0 00-.24.088l-.013.005-16.72 6.56H1.71a1.753 1.753 0 00-.15.062 2.24 2.24 0 00-.341.191c-.215.147-.624.495-.555 1.048.057.457.373.748.585.898a2.068 2.068 0 00.435.234l.01.004.008.002 2.925.985c-.01.184.008.37.057.555l1.465 5.559a1.5 1.5 0 002.835.196l2.287-2.446 3.93 3.012.055.024c.357.156.69.206.995.164.305-.042.547-.17.729-.315a1.74 1.74 0 00.491-.634l.008-.018.002-.006.001-.003zM6.134 10.875a.3.3 0 01.13-.33l9.922-6.3s.583-.355.562 0c0 0 .104.062-.208.354-.297.277-7.072 6.818-7.758 7.48a.278.278 0 00-.077.135L7.6 16.434l-1.465-5.559z"/></svg><svg viewBox="0 0 20 17" id="twitter" xmlns="http://www.w3.org/2000/svg"><path d="M19.809 2.227c.058-.08-.028-.185-.12-.149a8.49 8.49 0 01-2.05.513A4.13 4.13 0 0019.36.57c.034-.086-.06-.163-.14-.118a8.21 8.21 0 01-2.325.857.1.1 0 01-.093-.03A4.1 4.1 0 009.81 4.93a.102.102 0 01-.105.123A11.64 11.64 0 011.482.883a.098.098 0 00-.163.015 4.16 4.16 0 00-.48 1.943 4.09 4.09 0 001.82 3.41A4.05 4.05 0 01.95 5.82c-.068-.035-.15.014-.147.09a4.23 4.23 0 00.933 2.468A4.1 4.1 0 004.1 9.79a3.93 3.93 0 01-1.1.17 4.9 4.9 0 01-.606-.045c-.075-.01-.136.06-.11.13A4.11 4.11 0 006.06 12.73a8.22 8.22 0 01-5.625 1.741c-.106-.007-.155.134-.064.189a11.57 11.57 0 005.919 1.62A11.59 11.59 0 0018 4.6v-.48a.1.1 0 01.04-.08 8.429 8.429 0 001.77-1.814z"/></svg><svg viewBox="0 0 50 50" id="whats" xmlns="http://www.w3.org/2000/svg"><path d="M25 2C12.318 2 2 12.318 2 25c0 3.96 1.023 7.854 2.963 11.29L2.037 46.73a.999.999 0 001.203 1.241l10.896-2.699A23.014 23.014 0 0025 48c12.682 0 23-10.318 23-23S37.682 2 25 2zm11.57 31.116c-.492 1.362-2.852 2.605-3.986 2.772-1.018.149-2.306.213-3.72-.231a34.606 34.606 0 01-3.366-1.229c-5.923-2.526-9.791-8.415-10.087-8.804-.295-.389-2.411-3.161-2.411-6.03s1.525-4.28 2.067-4.864c.542-.584 1.181-.73 1.575-.73s.787.005 1.132.021c.363.018.85-.137 1.329 1.001.492 1.168 1.673 4.037 1.819 4.33.148.292.246.633.05 1.022s-.294.632-.59.973-.62.76-.886 1.022c-.296.291-.603.606-.259 1.19s1.529 2.493 3.285 4.039c2.255 1.986 4.158 2.602 4.748 2.894.59.292.935.243 1.279-.146.344-.39 1.476-1.703 1.869-2.286s.787-.487 1.329-.292c.542.194 3.445 1.604 4.035 1.896.59.292.984.438 1.132.681.148.242.148 1.41-.344 2.771z"/></svg></svg>