<svg width="18" height="18" viewBox="0 0 18 18" fill="none" xmlns="http://www.w3.org/2000/svg">
<path d="M2.42308 4.84615C1.94384 4.84615 1.47536 4.70404 1.07689 4.43779C0.678416 4.17154 0.367844 3.79311 0.184447 3.35035C0.00104988 2.90759 -0.0469351 2.42039 0.0465598 1.95036C0.140055 1.48033 0.370831 1.04858 0.709704 0.709704C1.04858 0.370831 1.48033 0.140055 1.95036 0.0465598C2.42039 -0.0469351 2.90759 0.00104988 3.35035 0.184447C3.79311 0.367844 4.17154 0.678416 4.43779 1.07689C4.70404 1.47536 4.84615 1.94384 4.84615 2.42308C4.84547 3.06551 4.58996 3.68143 4.13569 4.13569C3.68143 4.58996 3.06551 4.84547 2.42308 4.84615Z" fill="white"/>
<path d="M9 4.84615C8.52076 4.84615 8.05228 4.70404 7.65381 4.43779C7.25534 4.17154 6.94477 3.79311 6.76137 3.35035C6.57797 2.90759 6.52999 2.42039 6.62348 1.95036C6.71698 1.48033 6.94775 1.04858 7.28663 0.709704C7.6255 0.370831 8.05725 0.140055 8.52728 0.0465598C8.99731 -0.0469351 9.48451 0.00104988 9.92727 0.184447C10.37 0.367844 10.7485 0.678416 11.0147 1.07689C11.281 1.47536 11.4231 1.94384 11.4231 2.42308C11.4224 3.06551 11.1669 3.68143 10.7126 4.13569C10.2583 4.58996 9.64243 4.84547 9 4.84615Z" fill="white"/>
<path d="M15.5769 4.84615C15.0977 4.84615 14.6292 4.70404 14.2307 4.43779C13.8323 4.17154 13.5217 3.79311 13.3383 3.35035C13.1549 2.90759 13.1069 2.42039 13.2004 1.95036C13.2939 1.48033 13.5247 1.04858 13.8635 0.709704C14.2024 0.370831 14.6342 0.140055 15.1042 0.0465598C15.5742 -0.0469351 16.0614 0.00104988 16.5042 0.184447C16.947 0.367844 17.3254 0.678416 17.5916 1.07689C17.8579 1.47536 18 1.94384 18 2.42308C17.9993 3.06551 17.7438 3.68143 17.2895 4.13569C16.8353 4.58996 16.2194 4.84547 15.5769 4.84615Z" fill="white"/>
<path d="M2.42308 11.4231C1.94384 11.4231 1.47536 11.281 1.07689 11.0147C0.678416 10.7485 0.367844 10.37 0.184447 9.92727C0.00104988 9.48451 -0.0469351 8.99731 0.0465598 8.52728C0.140055 8.05725 0.370831 7.6255 0.709704 7.28663C1.04858 6.94775 1.48033 6.71698 1.95036 6.62348C2.42039 6.52999 2.90759 6.57797 3.35035 6.76137C3.79311 6.94477 4.17154 7.25534 4.43779 7.65381C4.70404 8.05228 4.84615 8.52076 4.84615 9C4.84547 9.64243 4.58996 10.2583 4.13569 10.7126C3.68143 11.1669 3.06551 11.4224 2.42308 11.4231Z" fill="white"/>
<path d="M9 11.4231C8.52076 11.4231 8.05228 11.281 7.65381 11.0147C7.25534 10.7485 6.94477 10.37 6.76137 9.92727C6.57797 9.48451 6.52999 8.99731 6.62348 8.52728C6.71698 8.05725 6.94775 7.6255 7.28663 7.28663C7.6255 6.94775 8.05725 6.71698 8.52728 6.62348C8.99731 6.52999 9.48451 6.57797 9.92727 6.76137C10.37 6.94477 10.7485 7.25534 11.0147 7.65381C11.281 8.05228 11.4231 8.52076 11.4231 9C11.4224 9.64243 11.1669 10.2583 10.7126 10.7126C10.2583 11.1669 9.64243 11.4224 9 11.4231Z" fill="white"/>
<path d="M15.5769 11.4231C15.0977 11.4231 14.6292 11.281 14.2307 11.0147C13.8323 10.7485 13.5217 10.37 13.3383 9.92727C13.1549 9.48451 13.1069 8.99731 13.2004 8.52728C13.2939 8.05725 13.5247 7.6255 13.8635 7.28663C14.2024 6.94775 14.6342 6.71698 15.1042 6.62348C15.5742 6.52999 16.0614 6.57797 16.5042 6.76137C16.947 6.94477 17.3254 7.25534 17.5916 7.65381C17.8579 8.05228 18 8.52076 18 9C17.9993 9.64243 17.7438 10.2583 17.2895 10.7126C16.8353 11.1669 16.2194 11.4224 15.5769 11.4231Z" fill="white"/>
<path d="M2.42308 18C1.94384 18 1.47536 17.8579 1.07689 17.5916C0.678416 17.3254 0.367844 16.947 0.184447 16.5042C0.00104988 16.0614 -0.0469351 15.5742 0.0465598 15.1042C0.140055 14.6342 0.370831 14.2024 0.709704 13.8635C1.04858 13.5247 1.48033 13.2939 1.95036 13.2004C2.42039 13.1069 2.90759 13.1549 3.35035 13.3383C3.79311 13.5217 4.17154 13.8323 4.43779 14.2307C4.70404 14.6292 4.84615 15.0977 4.84615 15.5769C4.84547 16.2194 4.58996 16.8353 4.13569 17.2895C3.68143 17.7438 3.06551 17.9993 2.42308 18Z" fill="white"/>
<path d="M9 18C8.52076 18 8.05228 17.8579 7.65381 17.5916C7.25534 17.3254 6.94477 16.947 6.76137 16.5042C6.57797 16.0614 6.52999 15.5742 6.62348 15.1042C6.71698 14.6342 6.94775 14.2024 7.28663 13.8635C7.6255 13.5247 8.05725 13.2939 8.52728 13.2004C8.99731 13.1069 9.48451 13.1549 9.92727 13.3383C10.37 13.5217 10.7485 13.8323 11.0147 14.2307C11.281 14.6292 11.4231 15.0977 11.4231 15.5769C11.4224 16.2194 11.1669 16.8353 10.7126 17.2895C10.2583 17.7438 9.64243 17.9993 9 18Z" fill="white"/>
<path d="M15.5769 18C15.0977 18 14.6292 17.8579 14.2307 17.5916C13.8323 17.3254 13.5217 16.947 13.3383 16.5042C13.1549 16.0614 13.1069 15.5742 13.2004 15.1042C13.2939 14.6342 13.5247 14.2024 13.8635 13.8635C14.2024 13.5247 14.6342 13.2939 15.1042 13.2004C15.5742 13.1069 16.0614 13.1549 16.5042 13.3383C16.947 13.5217 17.3254 13.8323 17.5916 14.2307C17.8579 14.6292 18 15.0977 18 15.5769C17.9993 16.2194 17.7438 16.8353 17.2895 17.2895C16.8353 17.7438 16.2194 17.9993 15.5769 18Z" fill="white"/>
</svg>
