<svg width="18" height="18" viewBox="0 0 18 18" fill="none" xmlns="http://www.w3.org/2000/svg">
<path d="M7.19992 0.000137133C11.1761 0.000137133 14.4 3.22392 14.4 7.20014C14.4 8.53392 14.031 9.77839 13.3991 10.8492L17.4816 14.9316C17.7234 15.1734 18 15.6283 18 16.2C18 17.1936 17.1941 18 16.2 18C15.8153 18 15.3282 17.8783 14.9315 17.4816L10.8491 13.3992C9.77822 14.0311 8.53374 14.4 7.20005 14.4C3.22391 14.4 0 11.1762 0 7.2C0 3.22378 3.22381 0 7.20005 0L7.19992 0.000137133ZM7.19992 12.0001C9.85077 12.0001 12 9.85097 12 7.20014C12 4.5493 9.85077 2.40014 7.19992 2.40014C4.54906 2.40014 2.39988 4.5493 2.39988 7.20014C2.39988 9.85097 4.54906 12.0001 7.19992 12.0001Z" fill="#215CE4"/>
</svg>
