<?xml version="1.0" encoding="UTF-8"?>
<svg xmlns="http://www.w3.org/2000/svg" xmlns:xlink="http://www.w3.org/1999/xlink" width="284px" height="160px" viewBox="0 0 284 160" version="1.1">
<g id="surface1">
<rect x="0" y="0" width="284" height="160" style="fill:rgb(1.568627%,0%,33.333333%);fill-opacity:1;stroke:none;"/>
<path style=" stroke:none;fill-rule:nonzero;fill:rgb(100%,0%,49.803922%);fill-opacity:1;" d="M 88.050781 86.328125 L 69.800781 86.328125 L 69.800781 80.546875 L 91.855469 80.546875 L 91.855469 72.5625 L 59.226562 72.5625 L 59.226562 102.296875 L 69.800781 102.296875 L 69.800781 94.3125 L 88.050781 94.3125 Z M 88.050781 86.328125 "/>
<path style=" stroke:none;fill-rule:nonzero;fill:rgb(100%,0%,49.803922%);fill-opacity:1;" d="M 146.015625 92.359375 L 136.335938 72.5625 L 124.203125 72.5625 L 139.914062 102.296875 L 151.957031 102.296875 L 167.667969 72.5625 L 155.695312 72.5625 Z M 146.015625 92.359375 "/>
<path style=" stroke:none;fill-rule:nonzero;fill:rgb(100%,0%,49.803922%);fill-opacity:1;" d="M 201.558594 87.246094 C 202.734375 86.738281 203.75 85.859375 204.472656 84.722656 C 205.195312 83.582031 205.589844 82.234375 205.609375 80.851562 C 205.609375 75.96875 201.839844 72.617188 194.421875 72.617188 L 170.523438 72.617188 L 170.523438 102.335938 L 194.964844 102.335938 C 202.925781 102.335938 206.464844 98.886719 206.464844 93.929688 C 206.464844 91.074219 204.921875 88.585938 201.558594 87.246094 Z M 180.816406 79.742188 L 192.632812 79.742188 C 192.917969 79.710938 193.207031 79.75 193.480469 79.847656 C 193.753906 79.949219 194.003906 80.109375 194.21875 80.320312 C 194.429688 80.53125 194.601562 80.789062 194.714844 81.078125 C 194.832031 81.367188 194.890625 81.675781 194.890625 81.992188 C 194.890625 82.304688 194.832031 82.617188 194.714844 82.902344 C 194.601562 83.191406 194.429688 83.449219 194.21875 83.660156 C 194.003906 83.871094 193.753906 84.03125 193.480469 84.132812 C 193.207031 84.234375 192.917969 84.269531 192.632812 84.242188 L 180.816406 84.242188 Z M 193.476562 95.191406 L 180.816406 95.191406 L 180.816406 90.691406 L 193.492188 90.691406 C 193.789062 90.640625 194.09375 90.660156 194.386719 90.75 C 194.675781 90.839844 194.945312 90.996094 195.175781 91.207031 C 195.40625 91.421875 195.589844 91.6875 195.71875 91.988281 C 195.84375 92.289062 195.910156 92.613281 195.910156 92.941406 C 195.910156 93.273438 195.84375 93.597656 195.71875 93.898438 C 195.589844 94.195312 195.40625 94.464844 195.175781 94.675781 C 194.945312 94.890625 194.675781 95.046875 194.386719 95.136719 C 194.09375 95.226562 193.789062 95.246094 193.492188 95.191406 Z M 193.476562 95.191406 "/>
<path style=" stroke:none;fill-rule:nonzero;fill:rgb(100%,0%,49.803922%);fill-opacity:1;" d="M 222.070312 90.65625 L 240.269531 90.65625 L 240.269531 84.203125 L 222.070312 84.203125 L 222.070312 80.546875 L 242.199219 80.546875 L 242.199219 72.5625 L 211.480469 72.5625 L 211.480469 102.296875 L 242.671875 102.296875 L 242.671875 94.3125 L 222.070312 94.3125 Z M 222.070312 90.65625 "/>
<path style=" stroke:none;fill-rule:nonzero;fill:rgb(100%,0%,49.803922%);fill-opacity:1;" d="M 247.039062 72.5625 L 247.039062 80.546875 L 258.90625 80.546875 L 258.90625 102.296875 L 269.601562 102.296875 L 269.601562 80.546875 L 281.472656 80.546875 L 281.472656 72.5625 Z M 247.039062 72.5625 "/>
<path style=" stroke:none;fill-rule:nonzero;fill:rgb(100%,0%,49.803922%);fill-opacity:1;" d="M 104.164062 72.582031 L 88.382812 102.296875 L 99.621094 102.296875 L 101.742188 97.910156 L 118.539062 97.910156 L 120.660156 102.296875 L 132.355469 102.296875 L 116.574219 72.582031 Z M 105.566406 90.195312 L 110.210938 80.621094 L 114.859375 90.195312 Z M 105.566406 90.195312 "/>
<path style=" stroke:none;fill-rule:nonzero;fill:rgb(100%,0%,49.803922%);fill-opacity:1;" d="M 2.71875 84.222656 L 12.101562 102.296875 L 24.144531 102.296875 L 14.746094 84.222656 Z M 2.71875 84.222656 "/>
<path style=" stroke:none;fill-rule:nonzero;fill:rgb(100%,0%,49.803922%);fill-opacity:1;" d="M 33.527344 84.222656 L 24.144531 102.296875 L 36.171875 102.296875 L 45.554688 84.222656 Z M 33.527344 84.222656 "/>
<path style=" stroke:none;fill-rule:nonzero;fill:rgb(100%,0%,49.803922%);fill-opacity:1;" d="M 24.144531 66.1875 L 14.746094 84.222656 L 33.523438 84.222656 Z M 24.144531 66.1875 "/>
</g>
</svg>
