<?xml version="1.0" encoding="UTF-8"?>
<svg xmlns="http://www.w3.org/2000/svg" xmlns:xlink="http://www.w3.org/1999/xlink" width="285px" height="160px" viewBox="0 0 284 160" version="1.1">
<g id="surface1">
<rect x="0" y="0" width="284" height="160" style="fill:rgb(82.352941%,0%,19.607843%);fill-opacity:1;stroke:none;"/>
<path style=" stroke:none;fill-rule:nonzero;fill:rgb(100%,90.196078%,0%);fill-opacity:1;" d="M 101.660156 100.511719 C 99.925781 100.511719 98.496094 100.28125 97.367188 99.816406 C 96.238281 99.355469 95.332031 98.792969 94.648438 98.125 C 93.992188 97.429688 93.492188 96.75 93.152344 96.085938 C 92.835938 95.390625 92.625 94.8125 92.523438 94.351562 C 92.441406 93.890625 92.402344 93.660156 92.402344 93.660156 L 97.957031 93.660156 C 97.957031 93.660156 97.996094 93.785156 98.074219 94.042969 C 98.15625 94.300781 98.324219 94.59375 98.585938 94.929688 C 98.875 95.261719 99.285156 95.558594 99.808594 95.816406 C 100.335938 96.070312 101.042969 96.199219 101.9375 96.199219 C 103.039062 96.199219 103.789062 95.980469 104.179688 95.546875 C 104.601562 95.109375 104.8125 94.671875 104.8125 94.234375 C 104.8125 93.3125 104.035156 92.695312 102.488281 92.386719 L 99.652344 91.847656 C 98.445312 91.617188 97.300781 91.285156 96.222656 90.847656 C 95.175781 90.386719 94.320312 89.757812 93.664062 88.960938 C 93.035156 88.140625 92.71875 87.089844 92.71875 85.804688 C 92.71875 84.574219 93.046875 83.46875 93.703125 82.496094 C 94.359375 81.519531 95.292969 80.75 96.5 80.183594 C 97.734375 79.621094 99.203125 79.335938 100.910156 79.335938 C 102.511719 79.335938 103.839844 79.554688 104.890625 79.992188 C 105.96875 80.402344 106.820312 80.929688 107.449219 81.570312 C 108.082031 82.1875 108.554688 82.816406 108.867188 83.457031 C 109.183594 84.074219 109.378906 84.597656 109.460938 85.035156 C 109.566406 85.445312 109.617188 85.652344 109.617188 85.652344 L 104.261719 85.652344 C 104.261719 85.652344 104.179688 85.484375 104.023438 85.152344 C 103.867188 84.792969 103.539062 84.445312 103.039062 84.113281 C 102.566406 83.753906 101.832031 83.574219 100.832031 83.574219 C 99.808594 83.574219 99.101562 83.777344 98.707031 84.1875 C 98.3125 84.574219 98.113281 84.984375 98.113281 85.421875 C 98.113281 85.933594 98.339844 86.320312 98.785156 86.574219 C 99.257812 86.832031 99.863281 87.039062 100.597656 87.191406 L 103.316406 87.730469 C 105.308594 88.113281 106.953125 88.796875 108.238281 89.769531 C 109.523438 90.71875 110.167969 92.105469 110.167969 93.929688 C 110.167969 95.160156 109.839844 96.277344 109.183594 97.277344 C 108.527344 98.277344 107.570312 99.074219 106.308594 99.664062 C 105.046875 100.230469 103.5 100.511719 101.660156 100.511719 Z M 101.660156 100.511719 "/>
<path style=" stroke:none;fill-rule:nonzero;fill:rgb(100%,90.196078%,0%);fill-opacity:1;" d="M 114.195312 100.125 L 114.195312 70.867188 L 120.183594 70.867188 L 120.183594 100.125 Z M 114.195312 100.125 "/>
<path style=" stroke:none;fill-rule:nonzero;fill:rgb(100%,90.196078%,0%);fill-opacity:1;" d="M 135.59375 100.511719 C 133.257812 100.511719 131.273438 100.023438 129.644531 99.046875 C 128.019531 98.046875 126.769531 96.75 125.902344 95.160156 C 125.0625 93.542969 124.644531 91.796875 124.644531 89.925781 C 124.644531 88.050781 125.0625 86.320312 125.902344 84.726562 C 126.769531 83.109375 128.019531 81.8125 129.644531 80.839844 C 131.273438 79.839844 133.257812 79.335938 135.59375 79.335938 C 137.929688 79.335938 139.914062 79.839844 141.542969 80.839844 C 143.167969 81.8125 144.402344 83.109375 145.246094 84.726562 C 146.109375 86.320312 146.542969 88.050781 146.542969 89.925781 C 146.542969 91.796875 146.109375 93.542969 145.246094 95.160156 C 144.402344 96.75 143.167969 98.046875 141.542969 99.046875 C 139.914062 100.023438 137.929688 100.511719 135.59375 100.511719 Z M 135.59375 95.738281 C 136.644531 95.738281 137.523438 95.46875 138.234375 94.929688 C 138.96875 94.390625 139.53125 93.683594 139.925781 92.8125 C 140.320312 91.914062 140.515625 90.949219 140.515625 89.925781 C 140.515625 88.871094 140.320312 87.910156 139.925781 87.039062 C 139.53125 86.164062 138.96875 85.457031 138.234375 84.917969 C 137.523438 84.382812 136.644531 84.113281 135.59375 84.113281 C 134.542969 84.113281 133.652344 84.382812 132.914062 84.917969 C 132.179688 85.457031 131.617188 86.164062 131.222656 87.039062 C 130.855469 87.910156 130.671875 88.871094 130.671875 89.925781 C 130.671875 90.949219 130.855469 91.914062 131.222656 92.8125 C 131.617188 93.683594 132.179688 94.390625 132.914062 94.929688 C 133.652344 95.46875 134.542969 95.738281 135.59375 95.738281 Z M 135.59375 95.738281 "/>
<path style=" stroke:none;fill-rule:nonzero;fill:rgb(100%,90.196078%,0%);fill-opacity:1;" d="M 160.191406 100.511719 C 158.5625 100.511719 157.261719 100.28125 156.289062 99.816406 C 155.320312 99.332031 154.582031 98.726562 154.085938 98.007812 C 153.585938 97.265625 153.257812 96.480469 153.101562 95.660156 C 152.941406 94.839844 152.863281 94.082031 152.863281 93.390625 L 152.863281 84.382812 L 149.320312 84.382812 L 149.320312 79.722656 L 152.863281 79.722656 L 152.863281 74.679688 L 158.851562 74.679688 L 158.851562 79.722656 L 163.300781 79.722656 L 163.300781 84.382812 L 158.851562 84.382812 L 158.851562 93.234375 C 158.851562 94.082031 159.074219 94.738281 159.519531 95.199219 C 159.992188 95.660156 160.769531 95.890625 161.84375 95.890625 C 162.316406 95.890625 162.75 95.851562 163.144531 95.777344 C 163.539062 95.699219 163.734375 95.660156 163.734375 95.660156 L 163.734375 100.164062 C 163.734375 100.164062 163.378906 100.214844 162.671875 100.320312 C 161.964844 100.445312 161.136719 100.511719 160.191406 100.511719 Z M 160.191406 100.511719 "/>
<path style=" stroke:none;fill-rule:nonzero;fill:rgb(100%,90.196078%,0%);fill-opacity:1;" d="M 178.097656 100.511719 C 175.761719 100.511719 173.78125 100.023438 172.152344 99.046875 C 170.523438 98.046875 169.277344 96.75 168.410156 95.160156 C 167.570312 93.542969 167.148438 91.796875 167.148438 89.925781 C 167.148438 88.050781 167.570312 86.320312 168.410156 84.726562 C 169.277344 83.109375 170.523438 81.8125 172.152344 80.839844 C 173.78125 79.839844 175.761719 79.335938 178.097656 79.335938 C 180.4375 79.335938 182.417969 79.839844 184.046875 80.839844 C 185.675781 81.8125 186.910156 83.109375 187.75 84.726562 C 188.617188 86.320312 189.050781 88.050781 189.050781 89.925781 C 189.050781 91.796875 188.617188 93.542969 187.75 95.160156 C 186.910156 96.75 185.675781 98.046875 184.046875 99.046875 C 182.417969 100.023438 180.4375 100.511719 178.097656 100.511719 Z M 178.097656 95.738281 C 179.148438 95.738281 180.03125 95.46875 180.738281 94.929688 C 181.472656 94.390625 182.039062 93.683594 182.433594 92.8125 C 182.828125 91.914062 183.023438 90.949219 183.023438 89.925781 C 183.023438 88.871094 182.828125 87.910156 182.433594 87.039062 C 182.039062 86.164062 181.472656 85.457031 180.738281 84.917969 C 180.03125 84.382812 179.148438 84.113281 178.097656 84.113281 C 177.050781 84.113281 176.15625 84.382812 175.421875 84.917969 C 174.6875 85.457031 174.121094 86.164062 173.726562 87.039062 C 173.359375 87.910156 173.175781 88.871094 173.175781 89.925781 C 173.175781 90.949219 173.359375 91.914062 173.726562 92.8125 C 174.121094 93.683594 174.6875 94.390625 175.421875 94.929688 C 176.15625 95.46875 177.050781 95.738281 178.097656 95.738281 Z M 178.097656 95.738281 "/>
<path style=" stroke:none;fill-rule:nonzero;fill:rgb(100%,90.196078%,0%);fill-opacity:1;" d="M 193.515625 100.125 L 193.515625 70.867188 L 199.503906 70.867188 L 199.503906 87.730469 L 206.394531 79.722656 L 213.210938 79.722656 L 205.015625 89.039062 L 213.5625 100.125 L 206.515625 100.125 L 199.503906 90.964844 L 199.503906 100.125 Z M 193.515625 100.125 "/>
<path style=" stroke:none;fill-rule:nonzero;fill:rgb(100%,90.196078%,0%);fill-opacity:1;" d="M 220.246094 76.949219 C 219.195312 76.949219 218.339844 76.628906 217.683594 75.988281 C 217.027344 75.320312 216.699219 74.539062 216.699219 73.640625 C 216.699219 72.691406 217.027344 71.894531 217.683594 71.253906 C 218.339844 70.585938 219.195312 70.253906 220.246094 70.253906 C 221.242188 70.253906 222.085938 70.585938 222.765625 71.253906 C 223.449219 71.894531 223.789062 72.691406 223.789062 73.640625 C 223.789062 74.539062 223.449219 75.320312 222.765625 75.988281 C 222.085938 76.628906 221.242188 76.949219 220.246094 76.949219 Z M 217.25 100.125 L 217.25 79.722656 L 223.238281 79.722656 L 223.238281 100.125 Z M 217.25 100.125 "/>
<path style=" stroke:none;fill-rule:nonzero;fill:rgb(100%,90.196078%,0%);fill-opacity:1;" d="M 228.355469 100.125 L 228.355469 79.722656 L 234.34375 79.722656 L 234.34375 82.648438 L 234.539062 82.648438 C 234.777344 82.238281 235.117188 81.777344 235.5625 81.261719 C 236.039062 80.75 236.652344 80.300781 237.414062 79.914062 C 238.203125 79.53125 239.203125 79.335938 240.410156 79.335938 C 242.039062 79.335938 243.363281 79.710938 244.386719 80.453125 C 245.410156 81.171875 246.160156 82.109375 246.632812 83.265625 C 247.105469 84.394531 247.34375 85.585938 247.34375 86.84375 L 247.34375 100.125 L 241.355469 100.125 L 241.355469 87.84375 C 241.355469 86.871094 241.078125 86.011719 240.527344 85.265625 C 240.003906 84.523438 239.148438 84.148438 237.96875 84.148438 C 237.074219 84.148438 236.363281 84.355469 235.839844 84.765625 C 235.316406 85.175781 234.933594 85.703125 234.695312 86.34375 C 234.460938 86.984375 234.34375 87.664062 234.34375 88.382812 L 234.34375 100.125 Z M 228.355469 100.125 "/>
<path style=" stroke:none;fill-rule:nonzero;fill:rgb(100%,90.196078%,0%);fill-opacity:1;" d="M 262.378906 108.289062 C 260.4375 108.289062 258.835938 108.058594 257.574219 107.59375 C 256.339844 107.132812 255.355469 106.542969 254.621094 105.824219 C 253.886719 105.132812 253.347656 104.4375 253.007812 103.746094 C 252.664062 103.050781 252.441406 102.460938 252.335938 101.972656 C 252.257812 101.511719 252.21875 101.28125 252.21875 101.28125 L 258.046875 101.28125 C 258.046875 101.28125 258.085938 101.398438 258.167969 101.628906 C 258.273438 101.882812 258.46875 102.167969 258.757812 102.476562 C 259.046875 102.808594 259.464844 103.089844 260.019531 103.320312 C 260.597656 103.578125 261.355469 103.707031 262.300781 103.707031 C 263.929688 103.707031 265.125 103.257812 265.886719 102.359375 C 266.675781 101.460938 267.070312 100.28125 267.070312 98.816406 L 267.070312 96.660156 L 266.792969 96.660156 C 266.53125 97.070312 266.136719 97.519531 265.609375 98.007812 C 265.085938 98.496094 264.414062 98.90625 263.601562 99.242188 C 262.789062 99.574219 261.804688 99.742188 260.648438 99.742188 C 259.097656 99.742188 257.746094 99.457031 256.589844 98.894531 C 255.433594 98.304688 254.464844 97.519531 253.675781 96.546875 C 252.914062 95.570312 252.335938 94.480469 251.941406 93.273438 C 251.574219 92.066406 251.390625 90.824219 251.390625 89.539062 C 251.390625 88.28125 251.574219 87.050781 251.941406 85.84375 C 252.335938 84.613281 252.914062 83.507812 253.675781 82.53125 C 254.464844 81.558594 255.433594 80.789062 256.589844 80.222656 C 257.746094 79.632812 259.097656 79.335938 260.648438 79.335938 C 261.804688 79.335938 262.789062 79.515625 263.601562 79.875 C 264.414062 80.210938 265.085938 80.621094 265.609375 81.109375 C 266.164062 81.570312 266.554688 82.019531 266.792969 82.457031 L 267.070312 82.457031 L 267.070312 79.722656 L 273.054688 79.722656 L 273.054688 98.816406 C 273.054688 100.511719 272.675781 102.078125 271.914062 103.515625 C 271.152344 104.953125 269.984375 106.105469 268.40625 106.980469 C 266.832031 107.851562 264.824219 108.289062 262.378906 108.289062 Z M 262.300781 95.121094 C 263.40625 95.121094 264.3125 94.851562 265.019531 94.3125 C 265.753906 93.773438 266.304688 93.082031 266.675781 92.234375 C 267.042969 91.363281 267.226562 90.464844 267.226562 89.539062 C 267.226562 88.589844 267.042969 87.691406 266.675781 86.84375 C 266.304688 85.996094 265.753906 85.304688 265.019531 84.765625 C 264.3125 84.226562 263.40625 83.957031 262.300781 83.957031 C 261.226562 83.957031 260.320312 84.226562 259.585938 84.765625 C 258.875 85.304688 258.335938 85.996094 257.96875 86.84375 C 257.601562 87.691406 257.417969 88.589844 257.417969 89.539062 C 257.417969 90.464844 257.601562 91.363281 257.96875 92.234375 C 258.335938 93.082031 258.875 93.773438 259.585938 94.3125 C 260.320312 94.851562 261.226562 95.121094 262.300781 95.121094 Z M 262.300781 95.121094 "/>
<path style=" stroke:none;fill-rule:nonzero;fill:rgb(100%,90.196078%,0%);fill-opacity:1;" d="M 69.410156 99.625 L 68.253906 104.53125 C 68.015625 105.53125 67.105469 106.238281 66.054688 106.238281 L 20.917969 106.238281 C 19.867188 106.238281 18.957031 105.53125 18.71875 104.53125 L 17.5625 99.625 Z M 69.410156 99.625 "/>
<path style=" stroke:none;fill-rule:nonzero;fill:rgb(100%,90.196078%,0%);fill-opacity:1;" d="M 75.023438 75.859375 L 70.453125 95.210938 L 16.519531 95.210938 L 11.949219 75.859375 C 11.75 75.003906 12.082031 74.113281 12.800781 73.589844 C 13.523438 73.066406 14.492188 73.011719 15.269531 73.449219 L 29.234375 81.25 L 41.605469 63.113281 C 42.011719 62.519531 42.679688 62.15625 43.402344 62.128906 C 44.132812 62.097656 44.824219 62.417969 45.265625 62.980469 L 59.777344 81.210938 L 71.570312 73.527344 C 72.339844 73.027344 73.34375 73.03125 74.105469 73.546875 C 74.867188 74.0625 75.230469 74.976562 75.023438 75.859375 Z M 75.023438 75.859375 "/>
</g>
</svg>
