<?xml version="1.0" encoding="UTF-8"?>
<svg xmlns="http://www.w3.org/2000/svg" xmlns:xlink="http://www.w3.org/1999/xlink" width="285px" height="160px" viewBox="0 0 284 160" version="1.1">
<g id="surface1">
<rect x="0" y="0" width="284" height="160" style="fill:rgb(0%,0%,0%);fill-opacity:1;stroke:none;"/>
<path style=" stroke:none;fill-rule:nonzero;fill:rgb(88.627451%,67.843137%,22.745098%);fill-opacity:1;" d="M 119.050781 115.441406 L 117.738281 112.878906 L 116.410156 115.441406 L 113.445312 115.851562 L 115.585938 117.835938 L 115.078125 120.640625 L 117.738281 119.328125 L 120.382812 120.640625 L 119.875 117.835938 L 122.027344 115.851562 Z M 119.050781 115.441406 "/>
<path style=" stroke:none;fill-rule:nonzero;fill:rgb(88.627451%,67.843137%,22.745098%);fill-opacity:1;" d="M 98.617188 115.441406 L 97.289062 112.878906 L 95.972656 115.441406 L 93.011719 115.851562 L 95.148438 117.835938 L 94.644531 120.640625 L 97.289062 119.328125 L 99.945312 120.640625 L 99.441406 117.835938 L 101.578125 115.851562 Z M 98.617188 115.441406 "/>
<path style=" stroke:none;fill-rule:nonzero;fill:rgb(88.627451%,67.843137%,22.745098%);fill-opacity:1;" d="M 108.835938 115.441406 L 107.519531 112.878906 L 106.191406 115.441406 L 103.226562 115.851562 L 105.367188 117.835938 L 104.863281 120.640625 L 107.519531 119.328125 L 110.164062 120.640625 L 109.660156 117.835938 L 111.796875 115.851562 Z M 108.835938 115.441406 "/>
<path style=" stroke:none;fill-rule:nonzero;fill:rgb(88.627451%,67.843137%,22.745098%);fill-opacity:1;" d="M 78.183594 115.441406 L 76.851562 112.878906 L 75.523438 115.441406 L 72.5625 115.851562 L 74.714844 117.835938 L 74.195312 120.640625 L 76.851562 119.328125 L 79.511719 120.640625 L 79.003906 117.835938 L 81.144531 115.851562 Z M 78.183594 115.441406 "/>
<path style=" stroke:none;fill-rule:nonzero;fill:rgb(88.627451%,67.843137%,22.745098%);fill-opacity:1;" d="M 88.398438 115.441406 L 87.070312 112.878906 L 85.742188 115.441406 L 82.78125 115.851562 L 84.933594 117.835938 L 84.425781 120.640625 L 87.070312 119.328125 L 89.726562 120.640625 L 89.222656 117.835938 L 91.363281 115.851562 Z M 88.398438 115.441406 "/>
<path style=" stroke:none;fill-rule:nonzero;fill:rgb(88.627451%,67.843137%,22.745098%);fill-opacity:1;" d="M 105.59375 61.324219 C 110.828125 53.945312 114.789062 50.265625 117.484375 50.265625 C 117.722656 50.265625 118.5625 50.214844 118.507812 51.4375 C 118.027344 54.359375 114.988281 58.863281 109.394531 64.953125 C 104.316406 70.488281 100.117188 74.335938 96.769531 76.472656 C 98.21875 72.613281 101.15625 67.566406 105.578125 61.324219 Z M 90.964844 92.976562 C 92.570312 92.976562 95.148438 90.957031 98.695312 86.886719 C 100.464844 84.867188 101.355469 83.605469 101.355469 83.140625 C 101.355469 82.949219 101.246094 82.847656 101.046875 82.847656 C 100.570312 82.847656 99.519531 83.761719 97.914062 85.601562 C 96.304688 87.429688 95.070312 88.355469 94.234375 88.355469 C 94.191406 88.355469 94.085938 88.34375 93.925781 88.292969 C 93.5 88.136719 93.289062 87.648438 93.261719 86.886719 C 93.300781 85.910156 93.621094 84.46875 94.234375 82.5625 C 94.921875 80.492188 95.535156 79.230469 96.105469 78.765625 C 98.683594 76.691406 100.609375 75.136719 101.898438 74.078125 C 109.378906 67.757812 115.066406 61.308594 118.917969 54.71875 C 119.847656 53.160156 120.222656 52.132812 120.316406 50.625 C 120.40625 49.117188 119.238281 48.347656 117.113281 48.347656 C 112.726562 48.347656 107.375 52.390625 101.046875 60.460938 C 95.972656 66.933594 92.148438 73.527344 89.582031 80.234375 C 88.171875 83.902344 87.46875 86.941406 87.46875 89.359375 C 87.46875 90.339844 87.800781 91.1875 88.464844 91.910156 C 89.128906 92.628906 89.96875 92.992188 90.976562 92.992188 Z M 90.964844 92.976562 Z M 90.964844 92.976562 "/>
<path style=" stroke:none;fill-rule:nonzero;fill:rgb(88.627451%,67.843137%,22.745098%);fill-opacity:1;" d="M 121.019531 74.53125 C 121.019531 75.109375 120.832031 75.90625 120.59375 76.925781 C 120.328125 78.109375 119.957031 78.765625 119.503906 78.855469 C 119.382812 78.894531 119.277344 78.921875 119.199219 78.921875 C 118.386719 78.921875 117.578125 78.585938 116.753906 77.929688 C 115.929688 77.273438 115.519531 76.5625 115.519531 75.816406 C 115.519531 75.070312 115.984375 74.351562 116.914062 73.65625 C 117.84375 72.945312 118.679688 72.597656 119.449219 72.597656 C 120.5 72.597656 121.019531 73.242188 121.019531 74.53125 Z M 110.695312 88.214844 C 109.882812 88.214844 109.433594 87.828125 109.484375 87.042969 C 109.660156 84.351562 110.722656 82.332031 110.722656 82.332031 C 112.0625 79.5625 113.511719 77.878906 114.203125 77.105469 C 115.132812 78.972656 116.699219 80.027344 118.917969 80.257812 C 116.0625 85.5625 113.324219 88.214844 110.707031 88.214844 Z M 107.917969 77.15625 C 104.410156 81.441406 102.667969 85.304688 102.667969 88.742188 C 102.667969 91.546875 104.265625 92.953125 107.441406 92.953125 C 109.738281 92.953125 112.328125 91.367188 115.226562 88.214844 C 117.3125 85.910156 119.132812 83.359375 120.660156 80.554688 C 121.164062 80.566406 121.523438 80.683594 122.109375 80.644531 C 122.785156 80.621094 123.476562 80.554688 124.40625 80.308594 C 125.574219 80.039062 126.160156 79.667969 126.160156 79.203125 C 126.160156 78.933594 125.894531 78.792969 125.375 78.792969 C 125.058594 78.792969 124.566406 78.855469 123.929688 78.972656 C 123.277344 79.085938 122.800781 79.152344 122.480469 79.152344 C 122.160156 79.152344 121.816406 79.152344 121.363281 79.0625 C 122.253906 76.679688 122.71875 74.992188 122.71875 74.183594 C 122.71875 71.722656 121.351562 70.5 118.613281 70.5 C 115.144531 70.5 111.585938 72.726562 107.929688 77.167969 Z M 107.917969 77.15625 "/>
<path style=" stroke:none;fill-rule:nonzero;fill:rgb(88.627451%,67.843137%,22.745098%);fill-opacity:1;" d="M 124.765625 91.894531 C 125.429688 92.617188 126.265625 92.976562 127.277344 92.976562 C 128.882812 92.976562 131.460938 90.957031 135.007812 86.886719 C 136.777344 84.867188 137.667969 83.605469 137.667969 83.140625 C 137.667969 82.949219 137.5625 82.847656 137.363281 82.847656 C 136.882812 82.847656 135.832031 83.761719 134.226562 85.601562 C 132.617188 87.429688 131.394531 88.355469 130.546875 88.355469 C 130.503906 88.355469 130.398438 88.332031 130.238281 88.292969 C 129.816406 88.164062 129.628906 87.636719 129.574219 86.886719 C 129.574219 85.253906 129.933594 83.773438 130.664062 82.449219 L 140.75 64.027344 L 145.945312 64.027344 L 146.371094 62.441406 L 141.90625 62.441406 L 146.675781 53.613281 L 140.21875 53.90625 L 132.976562 66.78125 C 129.46875 72.984375 127.476562 76.617188 126.996094 77.660156 C 124.859375 82.214844 123.796875 86.117188 123.796875 89.359375 C 123.796875 90.339844 124.128906 91.1875 124.792969 91.910156 Z M 124.765625 91.894531 "/>
<path style=" stroke:none;fill-rule:nonzero;fill:rgb(88.627451%,67.843137%,22.745098%);fill-opacity:1;" d="M 144.390625 92.898438 L 144.867188 92.898438 C 147.527344 92.785156 150.035156 91.574219 152.414062 89.269531 C 154.914062 86.886719 156.164062 84.3125 156.164062 81.546875 C 156.164062 80.105469 155.445312 78.277344 154.023438 76.074219 C 152.589844 73.875 151.882812 72.613281 151.882812 72.304688 C 151.882812 71.878906 152.214844 71.261719 152.878906 70.460938 C 153.542969 69.664062 153.757812 69.417969 153.835938 69.1875 C 154.007812 68.671875 153.585938 68.273438 152.972656 68.273438 C 152.535156 68.273438 152.003906 68.777344 151.40625 69.792969 C 150.59375 71.082031 149.453125 72.417969 147.964844 73.824219 C 146.59375 75.03125 145.253906 76.214844 143.910156 77.386719 C 141.90625 79.175781 140.894531 80.234375 140.894531 80.542969 C 140.894531 80.929688 141.09375 81.121094 141.492188 81.121094 C 141.613281 81.121094 142.875 80.054688 145.265625 77.929688 C 147.660156 75.804688 149.054688 74.609375 149.464844 74.335938 L 149.464844 76.203125 C 149.464844 79.394531 149.039062 82.371094 148.203125 85.097656 C 147.433594 87.519531 146.449219 89.179688 145.242188 90.066406 C 144.46875 90.648438 143.632812 90.945312 142.703125 90.945312 C 141.734375 90.945312 140.894531 90.558594 140.164062 89.773438 C 140.445312 89.847656 140.789062 89.886719 141.1875 89.886719 C 141.824219 89.886719 142.382812 89.628906 142.847656 89.101562 C 143.3125 88.574219 143.539062 88.007812 143.539062 87.378906 C 143.539062 85.550781 142.636719 84.621094 140.828125 84.621094 C 139.859375 84.621094 139.074219 84.933594 138.449219 85.5625 C 137.828125 86.179688 137.519531 86.964844 137.519531 87.90625 C 137.519531 89.464844 138.292969 90.710938 139.820312 91.652344 C 141.148438 92.476562 142.675781 92.875 144.402344 92.875 Z M 144.390625 92.898438 "/>
<path style=" stroke:none;fill-rule:nonzero;fill:rgb(88.627451%,67.843137%,22.745098%);fill-opacity:1;" d="M 227.660156 68.519531 C 229.066406 68.519531 230.011719 68.300781 230.5 67.847656 C 230.980469 67.398438 231.234375 66.496094 231.234375 65.132812 C 231.234375 63.421875 230.542969 62.558594 229.171875 62.558594 C 228.574219 62.558594 227.898438 62.75 226.886719 63.242188 C 225.878906 63.730469 225.585938 64.21875 225.253906 64.851562 C 224.921875 65.558594 225.027344 66.679688 225.253906 67.359375 C 225.519531 67.925781 226.0625 68.53125 227.671875 68.53125 Z M 227.660156 68.519531 "/>
<path style=" stroke:none;fill-rule:nonzero;fill:rgb(88.627451%,67.843137%,22.745098%);fill-opacity:1;" d="M 230.460938 91.921875 C 231.125 92.644531 231.964844 93.003906 232.972656 93.003906 C 234.582031 93.003906 237.332031 91.367188 240.878906 87.3125 C 242.644531 85.292969 243.363281 83.644531 243.363281 83.179688 C 243.363281 82.988281 243.257812 82.886719 243.058594 82.886719 C 242.578125 82.886719 241.53125 83.800781 239.921875 85.640625 C 238.3125 87.46875 237.078125 88.394531 236.242188 88.394531 C 236.203125 88.394531 236.09375 88.382812 235.9375 88.332031 C 235.511719 88.148438 235.097656 87.417969 235.058594 86.695312 C 235.058594 85.058594 236.09375 83.140625 236.824219 81.816406 L 246.445312 64.050781 L 251.640625 64.050781 L 252.066406 62.46875 L 247.601562 62.46875 L 252.371094 53.636719 L 245.914062 53.933594 L 238.671875 66.804688 C 235.164062 73.011719 233.171875 76.640625 232.695312 77.683594 C 230.554688 82.242188 229.480469 85.292969 229.265625 88.523438 C 229.171875 89.976562 229.835938 91.199219 230.5 91.921875 Z M 230.460938 91.921875 "/>
<path style=" stroke:none;fill-rule:nonzero;fill:rgb(88.627451%,67.843137%,22.745098%);fill-opacity:1;" d="M 128.710938 120.640625 L 130.664062 120.640625 L 130.664062 113.960938 L 128.710938 113.960938 Z M 128.710938 120.640625 "/>
<path style=" stroke:none;fill-rule:nonzero;fill:rgb(88.627451%,67.843137%,22.745098%);fill-opacity:1;" d="M 132.390625 120.640625 L 134.332031 120.640625 L 134.332031 115.210938 L 138.570312 115.210938 L 138.570312 113.960938 L 132.390625 113.960938 Z M 132.390625 120.640625 "/>
<path style=" stroke:none;fill-rule:nonzero;fill:rgb(88.627451%,67.843137%,22.745098%);fill-opacity:1;" d="M 143.207031 117.089844 L 141.480469 117.089844 L 141.480469 115.171875 L 143.222656 115.171875 C 144.085938 115.171875 144.722656 115.429688 144.722656 116.136719 C 144.722656 116.871094 144.070312 117.089844 143.207031 117.089844 Z M 143.367188 113.960938 L 139.539062 113.960938 L 139.539062 120.628906 L 141.46875 120.628906 L 141.46875 118.234375 L 143.460938 118.234375 C 145.242188 118.234375 146.609375 117.566406 146.609375 116.109375 C 146.609375 114.644531 145.28125 113.960938 143.355469 113.960938 Z M 143.367188 113.960938 Z M 143.367188 113.960938 "/>
<path style=" stroke:none;fill-rule:nonzero;fill:rgb(88.627451%,67.843137%,22.745098%);fill-opacity:1;" d="M 151.855469 119.585938 C 150.34375 119.574219 149.425781 118.710938 149.425781 117.28125 C 149.425781 115.890625 150.355469 115.003906 151.832031 115.003906 C 153.320312 115.003906 154.234375 115.878906 154.234375 117.28125 C 154.234375 118.710938 153.332031 119.585938 151.855469 119.585938 Z M 151.855469 113.804688 C 149.199219 113.804688 147.460938 115.195312 147.460938 117.308594 C 147.460938 119.394531 149.214844 120.796875 151.84375 120.796875 C 154.449219 120.796875 156.203125 119.394531 156.203125 117.308594 C 156.203125 115.222656 154.449219 113.804688 151.855469 113.804688 Z M 151.855469 113.804688 "/>
<path style=" stroke:none;fill-rule:nonzero;fill:rgb(88.627451%,67.843137%,22.745098%);fill-opacity:1;" d="M 161.371094 119.484375 L 159.417969 119.484375 L 159.417969 117.667969 L 161.277344 117.667969 C 162.15625 117.667969 163.019531 117.769531 163.019531 118.582031 C 163.019531 119.367188 162.207031 119.496094 161.371094 119.496094 Z M 159.417969 115.117188 L 161.183594 115.117188 C 161.929688 115.117188 162.660156 115.234375 162.660156 115.902344 C 162.660156 116.574219 161.902344 116.675781 161.183594 116.675781 L 159.417969 116.675781 L 159.417969 115.105469 Z M 163.335938 117.035156 C 164.054688 116.792969 164.546875 116.304688 164.546875 115.660156 C 164.546875 114.476562 163.269531 113.984375 161.714844 113.984375 L 157.515625 113.984375 L 157.515625 120.65625 L 161.957031 120.65625 C 163.628906 120.65625 164.957031 119.972656 164.957031 118.671875 C 164.957031 117.746094 164.265625 117.242188 163.335938 117.035156 Z M 163.335938 117.035156 Z M 163.335938 117.035156 "/>
<path style=" stroke:none;fill-rule:nonzero;fill:rgb(88.627451%,67.843137%,22.745098%);fill-opacity:1;" d="M 166.300781 120.640625 L 168.253906 120.640625 L 168.253906 113.960938 L 166.300781 113.960938 Z M 166.300781 120.640625 "/>
<path style=" stroke:none;fill-rule:nonzero;fill:rgb(88.627451%,67.843137%,22.745098%);fill-opacity:1;" d="M 181.3125 113.960938 L 178.871094 113.960938 L 175.375 116.742188 L 175.375 113.960938 L 173.460938 113.960938 L 173.460938 120.640625 L 175.375 120.640625 L 175.375 118.480469 L 176.519531 117.640625 L 179.203125 120.640625 L 181.644531 120.640625 L 177.847656 116.597656 Z M 181.3125 113.960938 "/>
<path style=" stroke:none;fill-rule:nonzero;fill:rgb(88.627451%,67.843137%,22.745098%);fill-opacity:1;" d="M 183.414062 118.027344 C 183.359375 119.394531 182.933594 119.597656 182.417969 119.597656 C 182.164062 119.597656 181.886719 119.546875 181.726562 119.484375 L 181.726562 120.667969 C 181.992188 120.730469 182.46875 120.78125 182.816406 120.78125 C 184.332031 120.78125 185.195312 119.945312 185.285156 118.054688 L 185.40625 115.222656 L 187.785156 115.222656 L 187.785156 120.65625 L 189.722656 120.65625 L 189.722656 113.984375 L 183.546875 113.984375 L 183.398438 118.042969 Z M 183.414062 118.027344 "/>
<path style=" stroke:none;fill-rule:nonzero;fill:rgb(88.627451%,67.843137%,22.745098%);fill-opacity:1;" d="M 194.800781 117.488281 L 192.792969 113.972656 L 190.640625 113.972656 L 193.246094 118.09375 C 193.417969 118.363281 193.65625 118.660156 193.65625 118.957031 C 193.65625 119.25 193.351562 119.523438 192.765625 119.523438 C 192.410156 119.523438 192.0625 119.445312 191.835938 119.367188 L 191.835938 120.601562 C 192.023438 120.65625 192.449219 120.757812 192.914062 120.757812 C 194.347656 120.757812 195.039062 120.230469 195.863281 118.878906 L 198.851562 113.960938 L 196.765625 113.960938 L 194.800781 117.476562 Z M 194.800781 117.488281 "/>
<path style=" stroke:none;fill-rule:nonzero;fill:rgb(88.627451%,67.843137%,22.745098%);fill-opacity:1;" d="M 203.742188 119.445312 L 201.667969 119.445312 L 201.667969 117.527344 L 203.730469 117.527344 C 204.605469 117.527344 205.242188 117.785156 205.242188 118.480469 C 205.242188 119.1875 204.671875 119.445312 203.742188 119.445312 Z M 203.996094 116.367188 L 201.683594 116.367188 L 201.683594 115.183594 L 206.332031 115.183594 L 206.332031 113.972656 L 199.757812 113.972656 L 199.757812 120.640625 L 203.902344 120.640625 C 205.816406 120.640625 207.15625 119.972656 207.15625 118.492188 C 207.15625 117.035156 205.789062 116.367188 204.007812 116.367188 Z M 203.996094 116.367188 Z M 203.996094 116.367188 "/>
<path style=" stroke:none;fill-rule:nonzero;fill:rgb(88.627451%,67.843137%,22.745098%);fill-opacity:1;" d="M 210.476562 118.582031 L 210.4375 118.582031 L 210.4375 113.960938 L 208.484375 113.960938 L 208.484375 120.640625 L 210.679688 120.640625 L 214.027344 116.007812 L 214.054688 116.007812 L 214.054688 120.640625 L 216.007812 120.640625 L 216.007812 113.960938 L 213.8125 113.960938 Z M 210.476562 118.582031 "/>
<path style=" stroke:none;fill-rule:nonzero;fill:rgb(88.627451%,67.843137%,22.745098%);fill-opacity:1;" d="M 111.121094 103.648438 C 111.597656 104.484375 111.503906 105.65625 109.417969 105.308594 C 107.332031 104.949219 104.582031 102.96875 103.746094 101.101562 C 103.519531 100.597656 103.375 99.914062 103.347656 99.207031 C 105.128906 99.402344 106.5625 99.824219 107.71875 100.519531 C 110.574219 102.21875 110.640625 102.824219 111.121094 103.660156 Z M 137.917969 103.289062 C 137.917969 103.289062 132.832031 103.300781 127.847656 101.742188 C 122.226562 99.992188 117.695312 97.894531 112.621094 95.347656 C 109.632812 93.839844 105.859375 93.414062 102.933594 95.886719 C 102.882812 95.925781 102.84375 95.976562 102.789062 96.027344 C 101.367188 95.679688 99.828125 95.4375 98.152344 95.308594 C 93.566406 94.945312 87.507812 96.441406 78.140625 99.582031 C 67.378906 103.199219 61.8125 104.988281 50.839844 107.972656 C 46.972656 109.03125 22.894531 114.914062 13.011719 107.871094 C 4.933594 102.128906 4.082031 95.332031 4.148438 92.628906 C 4.214844 89.925781 4.507812 80.824219 11.839844 75.84375 C 19.1875 70.863281 28.355469 75.777344 31.53125 77.96875 C 34.707031 80.15625 47.730469 89.347656 52.964844 90.996094 C 59.699219 93.117188 65.375 93.777344 74.25 89.179688 C 83.125 84.585938 85.914062 78.558594 86.152344 75.816406 C 86.472656 72.214844 85.835938 68.132812 80.707031 66.332031 C 75.578125 64.527344 69.796875 65.042969 63.6875 65.597656 C 56.765625 66.214844 48.910156 65.402344 46.785156 64.246094 C 44.671875 63.085938 43 61.582031 42.8125 59.390625 C 42.546875 56.339844 44.699219 53.058594 50.929688 50.445312 C 57.148438 47.84375 63.023438 49.453125 66.835938 51.28125 C 70.648438 53.109375 73.703125 54.242188 75.683594 58.644531 C 76.136719 59.636719 76.707031 59.867188 77.160156 58.992188 C 77.609375 58.128906 80.625 53.457031 80.746094 53.238281 C 80.878906 53.019531 80.984375 52.96875 80.546875 52.722656 C 76.867188 50.652344 71.832031 47.832031 67.179688 46.800781 C 63.832031 46.054688 58.4375 45.773438 51.238281 48.410156 C 45.46875 50.523438 37.046875 56.378906 38.175781 63.332031 C 39.039062 68.671875 43.914062 71.246094 49.589844 71.722656 C 55.765625 72.25 69.824219 70.953125 72.257812 71.375 C 74.6875 71.789062 83.800781 72.972656 80.625 81.082031 C 78.792969 85.742188 71.140625 89.707031 65.359375 89.707031 C 58.144531 89.707031 51.621094 83.707031 40.738281 76.074219 C 31.132812 69.34375 24.449219 69.109375 19.546875 70.011719 C 14.644531 70.914062 6.367188 74.066406 3.535156 84.210938 C 1.039062 93.15625 1.675781 102.722656 12.28125 110.332031 C 25.273438 119.664062 51.714844 112.582031 54.851562 111.964844 C 57.984375 111.359375 66.675781 109.070312 72.523438 106.75 C 78.355469 104.433594 87.839844 100.429688 93.101562 99.710938 C 96.398438 99.257812 99.121094 99.027344 101.378906 99.078125 C 101.222656 100.996094 102.085938 103.171875 104.382812 104.691406 C 107.375 106.660156 111.054688 106.839844 112.144531 105.65625 C 113.234375 104.472656 111.570312 101.011719 109.007812 98.925781 C 107.707031 97.855469 106.097656 97.03125 104.25 96.441406 C 104.902344 95.707031 105.953125 95.230469 107.574219 95.308594 C 112.128906 95.527344 117.285156 99.324219 121.710938 100.804688 C 125.175781 101.960938 129.960938 103.210938 132.550781 103.441406 C 135.433594 103.699219 137.933594 103.277344 137.933594 103.277344 Z M 137.917969 103.289062 "/>
<path style=" stroke:none;fill-rule:nonzero;fill:rgb(88.627451%,67.843137%,22.745098%);fill-opacity:1;" d="M 180.609375 101.5625 C 179.773438 103.367188 177.023438 105.296875 174.9375 105.632812 C 172.851562 105.980469 172.757812 104.832031 173.234375 104.035156 C 173.714844 103.222656 173.78125 102.65625 176.636719 101.011719 C 177.792969 100.339844 179.226562 99.929688 181.007812 99.75 C 180.996094 100.429688 180.835938 101.085938 180.609375 101.578125 Z M 241.53125 107.136719 C 239.523438 107.136719 238.605469 106.261719 238.605469 104.421875 C 238.605469 102 240.480469 99.542969 244.226562 97.046875 C 246.925781 95.257812 249.964844 93.800781 253.339844 92.71875 C 248.347656 102.347656 244.347656 107.136719 241.53125 107.136719 Z M 279.023438 88.574219 C 274.71875 85.058594 263.664062 89.050781 260.199219 90.222656 C 260.449219 89.8125 260.730469 89.347656 261.019531 88.871094 C 262.988281 85.753906 265.046875 81.945312 267.785156 77.054688 C 269.789062 73.460938 270.722656 71.699219 271.597656 69.960938 C 270.945312 69.84375 269.9375 69.742188 268.742188 69.742188 C 268.144531 69.742188 267.703125 69.78125 267.28125 69.871094 C 267.160156 69.882812 266.070312 71.53125 265.859375 71.839844 C 265.484375 72.394531 262.003906 77.941406 261.140625 79.269531 C 259.824219 81.277344 258.882812 82.589844 258.03125 83.773438 C 257.5 84.609375 256.609375 85.664062 255.984375 86.320312 C 255.839844 86.476562 254.816406 87.6875 253.953125 87.699219 C 253.261719 87.710938 252.609375 87.351562 252.609375 86.527344 C 252.609375 85.394531 253.671875 83.195312 255.160156 80.027344 C 256.492188 77.222656 257.566406 75.082031 258.46875 73.527344 C 259.519531 71.054688 258.03125 69.226562 255.359375 69.871094 C 254.539062 70.0625 253.0625 70.734375 250.765625 72.597656 C 248.464844 74.464844 247.242188 75.816406 247.082031 76.640625 C 247.070312 76.757812 247.125 76.808594 247.203125 76.820312 C 247.203125 76.820312 247.667969 77.066406 249.675781 75.210938 C 250.921875 74.066406 251.8125 73.539062 252.210938 73.539062 C 252.453125 73.539062 252.570312 73.679688 252.570312 73.949219 C 252.570312 74.222656 251.414062 76.292969 249.101562 80.15625 C 246.792969 84.019531 245.636719 86.632812 245.636719 87.996094 C 245.636719 89.050781 245.859375 89.824219 246.660156 90.726562 C 247.46875 91.625 248.890625 91.882812 249.980469 91.882812 C 252.160156 91.871094 254.074219 90.570312 255.574219 88.960938 L 256.078125 88.496094 L 254.417969 91.328125 C 242.859375 94.960938 236.46875 99.347656 236.46875 104.035156 C 236.46875 105.398438 236.960938 106.492188 238.15625 107.316406 C 239.203125 108.011719 240.453125 108.246094 241.941406 108.246094 C 247.441406 108.246094 253.382812 102.734375 259.480469 91.523438 C 264.4375 89.824219 274.984375 86.4375 278.585938 89.179688 C 279.714844 90.042969 280.328125 91.148438 280.632812 92.296875 C 280.660156 92.371094 280.6875 92.460938 280.699219 92.550781 C 280.710938 92.628906 280.726562 92.707031 280.738281 92.785156 C 280.832031 93.300781 280.859375 93.710938 280.871094 93.941406 C 280.9375 96.554688 280.074219 102.179688 271.996094 107.730469 C 262.097656 114.527344 237.410156 109.273438 233.542969 108.257812 C 222.582031 105.375 217.003906 103.648438 206.238281 100.148438 C 196.886719 97.109375 190.8125 95.679688 186.230469 96.015625 C 184.554688 96.144531 183.015625 96.375 181.59375 96.710938 C 181.539062 96.671875 181.5 96.621094 181.445312 96.570312 C 178.523438 94.175781 174.75 94.585938 171.761719 96.042969 C 166.683594 98.511719 162.15625 100.535156 156.535156 102.21875 C 151.550781 103.714844 146.460938 103.714844 146.460938 103.714844 C 146.460938 103.714844 148.960938 104.113281 151.84375 103.867188 C 154.433594 103.648438 159.21875 102.4375 162.6875 101.320312 C 167.109375 99.890625 172.265625 96.222656 176.824219 96.003906 C 178.445312 95.925781 179.492188 96.390625 180.144531 97.097656 C 178.285156 97.675781 176.691406 98.472656 175.386719 99.503906 C 172.824219 101.523438 171.148438 104.859375 172.253906 106.019531 C 173.34375 107.164062 177.023438 106.996094 180.011719 105.089844 C 182.324219 103.625 183.1875 101.511719 183.015625 99.671875 C 185.285156 99.621094 187.996094 99.839844 191.292969 100.277344 C 196.566406 100.972656 206.039062 104.847656 211.875 107.074219 C 217.707031 109.3125 226.394531 111.515625 229.546875 112.105469 C 232.695312 112.699219 258.496094 119.355469 271.492188 110.34375 C 277.390625 106.261719 280.621094 101.757812 281.390625 97.082031 C 281.789062 95.332031 282.28125 91.226562 279.066406 88.601562 Z M 279.023438 88.574219 "/>
<path style=" stroke:none;fill-rule:nonzero;fill:rgb(88.627451%,67.843137%,22.745098%);fill-opacity:1;" d="M 211.632812 50.277344 C 211.886719 49.609375 212.832031 49.082031 213.28125 48.898438 C 213.734375 48.71875 215.289062 48.140625 215.847656 49.027344 C 216.40625 49.917969 216.484375 51.074219 215.898438 52.234375 C 215.316406 53.394531 214.808594 53.871094 213.878906 53.84375 C 212.9375 53.804688 212.285156 53.714844 211.832031 52.542969 C 211.382812 51.371094 211.632812 50.289062 211.632812 50.289062 Z M 200.820312 93.027344 C 204.765625 92.667969 211.742188 89.179688 214.09375 87.957031 C 214.039062 88.277344 214.011719 88.585938 214.011719 88.949219 C 214.011719 91.5625 214.984375 92.863281 216.910156 92.863281 C 218.757812 92.863281 221.121094 91.496094 223.976562 88.769531 C 226.835938 86.039062 228.308594 82.859375 228.269531 82.035156 C 228.257812 81.804688 228.203125 81.625 228.082031 81.507812 L 227.84375 81.507812 C 227.152344 81.855469 226.503906 83.105469 225.121094 84.726562 C 224.03125 86.011719 223.0625 87.03125 221.480469 87.996094 C 220.882812 88.316406 220.402344 87.96875 220.65625 87.480469 C 222.222656 83.039062 224.640625 78.042969 227.898438 72.507812 L 221.492188 72.507812 C 219.859375 75.933594 218.359375 78.90625 218.039062 79.617188 L 215.648438 84.09375 C 215.117188 85.214844 214.742188 85.988281 214.492188 86.632812 C 212.5 87.378906 208.007812 89.011719 206.425781 89.359375 C 204.351562 89.8125 199.902344 90.324219 194.90625 86.785156 C 189.417969 82.898438 191.054688 72.34375 192.5 68.6875 C 193.949219 65.03125 197.285156 60.382812 199.210938 58.195312 C 201.125 56.007812 204.671875 53.921875 204.671875 53.921875 C 204.671875 53.921875 204.550781 54.820312 204.964844 55.464844 C 205.523438 56.316406 206.199219 56.867188 206.929688 57.28125 C 208.992188 58.453125 211.449219 58.234375 212.855469 57.910156 C 214.265625 57.578125 218.558594 55.734375 219.273438 55.53125 C 219.992188 55.324219 219.804688 54.835938 219.527344 54.527344 C 219.246094 54.21875 218.582031 54.21875 218.023438 54.242188 C 217.46875 54.269531 217.082031 54.242188 217.121094 54.089844 C 217.148438 53.933594 217.839844 53.507812 218.410156 52.992188 C 218.980469 52.480469 220.667969 51.050781 221.175781 50.136719 C 221.679688 49.222656 221.625 47.882812 221.28125 46.75 C 220.933594 45.617188 220.402344 45.796875 219.660156 45.925781 C 218.902344 46.042969 213.652344 47.640625 211.992188 48 C 210.332031 48.359375 209.988281 48.179688 209.269531 48.078125 C 208.550781 47.984375 207.449219 48.347656 207.105469 49.042969 C 206.757812 49.738281 204.804688 51.320312 203.875 52.054688 C 203.875 52.054688 197.949219 56.6875 196.660156 57.976562 C 195.371094 59.25 193.140625 61.464844 189.898438 66.367188 C 186.65625 71.261719 183.414062 78.804688 185.75 85.949219 C 188.105469 93.09375 196.007812 93.480469 200.792969 93.042969 Z M 200.820312 93.027344 Z M 200.820312 93.027344 "/>
</g>
</svg>
