<svg height="20.0pt" stroke-miterlimit="10" style="fill-rule:nonzero;clip-rule:evenodd;stroke-linecap:round;stroke-linejoin:round;" version="1.1" viewBox="0 0 20 20" width="20.0pt" xml:space="preserve" xmlns="http://www.w3.org/2000/svg" xmlns:xlink="http://www.w3.org/1999/xlink">
<defs/>
<clipPath id="ArtboardFrame">
<rect height="20" width="20" x="0" y="0"/>
</clipPath>
<g clip-path="url(#ArtboardFrame)" id="Слой-1">
<g opacity="1">
<path d="M0.894963-6.70645L20.895-6.70645L20.895-6.70645L20.895 13.2936L20.895 13.2936L0.894963 13.2936L0.894963 13.2936L0.894963-6.70645L0.894963-6.70645Z" fill="#ff0000" fill-rule="nonzero" opacity="0" stroke="none"/>
</g>
<g opacity="1">
<path d="M1.15818 9.9647L1.15818 5.85589C1.154 5.22787 1.43159 4.78157 1.99611 4.46111L9.17914 0.400188C9.77937 0.0582477 10.3371 0.0554851 10.9409 0.397732L18.1548 4.47186C18.7074 4.78279 18.9808 5.23923 18.9815 5.84545C18.9815 5.84545 18.9816 7.16188 18.9817 9.21789C18.9819 11.2739 18.9821 14.0695 18.9821 14.0695C18.9821 14.6742 18.7184 15.1346 18.1638 15.4465L10.9264 19.5381C10.3474 19.8653 9.79931 19.8757 9.22032 19.5442L2.00093 15.4701C1.42387 15.1466 1.14853 14.6886 1.15368 14.0489C1.15368 14.0489 1.15818 9.9647 1.15818 9.9647ZM11.9039 9.91006L11.902 8.02386C11.8988 7.66934 11.6814 7.44127 11.3488 7.41733C10.9608 7.38664 10.6797 7.62176 10.6694 8.00053L10.6643 9.23754C10.6591 9.50458 10.4764 9.64363 10.2236 9.59053C10.2236 9.59053 9.95982 9.40482 9.9611 9.22065L9.96303 7.58155C9.964 7.35011 9.89774 7.15366 9.68158 7.02659C9.24155 6.76814 8.73139 7.03273 8.71724 7.53612L8.71273 8.86613C8.70952 9.10985 8.59372 9.22649 8.37627 9.23385C8.15111 9.24122 8.00733 9.11261 7.99221 8.86551L7.98899 8.40509C7.97774 8.1491 7.84167 7.97536 7.59464 7.89556C7.17648 7.75559 6.77279 8.02079 6.76475 8.44991L6.7596 9.62552C6.75445 9.83915 6.62225 9.9561 6.41928 9.96193C6.21085 9.96807 6.07896 9.85941 6.04937 9.651C6.04069 9.59022 6.04937 9.52668 6.04165 9.4659C6.00305 9.16049 5.73543 8.92813 5.43049 8.93181C5.1217 8.93488 4.82899 9.16816 4.82127 9.46775L4.82191 11.3232C4.83059 11.6302 5.12234 11.8595 5.42921 11.8592C5.74122 11.8583 6.00048 11.6339 6.04036 11.3251C6.05001 11.2539 6.02106 11.1646 6.05645 11.1124C6.12721 11.0086 6.21535 10.88 6.32504 10.8462C6.42025 10.8168 6.58397 10.8751 6.66278 10.9485C6.73355 11.0138 6.75542 11.151 6.75703 11.2579L6.76346 13.0824C6.76989 13.5268 7.24981 13.8006 7.66154 13.6023C7.89571 13.4894 7.99414 13.3028 7.99157 13.0474L7.98899 10.6348C7.98964 10.2597 8.10672 10.0915 8.36276 10.0951C8.60723 10.0982 8.71659 10.2548 8.71659 10.6163L8.7182 11.6986C8.72592 12.0743 8.97103 12.3125 9.33065 12.3193C9.7012 12.3233 9.95596 12.0737 9.96303 11.6839L9.96561 10.849C9.97075 10.5961 10.1026 10.457 10.3201 10.461C10.5375 10.465 10.6649 10.6028 10.6684 10.8555L10.6726 11.8141C10.6848 12.1609 10.9505 12.3973 11.2989 12.392C11.6582 12.3865 11.901 12.1446 11.9046 11.7668L11.9062 9.90975C11.9062 9.90975 11.9039 9.91006 11.9039 9.91006ZM13.8616 10.5657L13.8606 9.51532C13.8561 9.15834 13.6239 8.92353 13.2729 8.91064C12.9062 8.89682 12.6296 9.10033 12.6251 9.45485L12.6293 11.6787C12.6389 12.0234 12.9362 12.2502 13.2752 12.2318C13.629 12.2122 13.8558 11.9764 13.8613 11.617L13.8619 10.5666C13.8619 10.5666 13.8616 10.5657 13.8616 10.5657ZM14.5827 10.8579L14.5834 11.1354C14.5995 11.4528 14.8272 11.6726 15.154 11.6897C15.5004 11.7082 15.7748 11.5071 15.8076 11.1839C15.829 10.9689 15.8288 10.7524 15.807 10.5375C15.7748 10.2182 15.4853 10.0021 15.1572 10.0212C14.8372 10.0396 14.602 10.2673 14.5827 10.5798C14.577 10.6719 14.5821 10.7649 14.5821 10.8573C14.5821 10.8573 14.5827 10.8579 14.5827 10.8579Z" fill="#f9f9f9" fill-rule="nonzero" opacity="1" stroke="#ff0000" stroke-linecap="butt" stroke-linejoin="miter" stroke-opacity="0" stroke-width="0.959971"/>
<path d="M11.8089 9.95596L11.8073 11.7086C11.8033 12.0653 11.5729 12.2943 11.231 12.2993C10.8996 12.3045 10.6495 12.0812 10.6351 11.7533L10.6312 10.8478C10.6281 10.6095 10.5069 10.4784 10.2997 10.4752C10.0925 10.4721 9.96734 10.6028 9.96244 10.8417L9.95999 11.6304C9.95326 11.9957 9.71086 12.2343 9.35829 12.2305C9.01613 12.2268 8.78291 11.9986 8.77557 11.6443L8.7771 10.622C8.77649 10.2804 8.6761 10.1325 8.44044 10.1296C8.19713 10.1267 8.08542 10.285 8.08481 10.6394L8.08726 12.9183C8.08971 13.1595 7.99606 13.3358 7.77325 13.4425C7.3815 13.6298 6.92549 13.3712 6.91875 12.9513L6.91263 11.2279C6.9111 11.1276 6.8906 10.9974 6.82296 10.9357C6.74706 10.8667 6.59189 10.8119 6.5016 10.8391C6.39755 10.8681 6.31369 10.9922 6.24605 11.0905C6.21545 11.1398 6.23932 11.2239 6.23075 11.2914C6.19249 11.5828 5.94612 11.7953 5.64925 11.7959C5.35728 11.7968 5.07938 11.5764 5.07142 11.2897L5.07081 9.537C5.07877 9.25402 5.35636 9.03425 5.65047 9.03077C5.94122 9.02787 6.19525 9.24706 6.23197 9.53526C6.23932 9.59267 6.23105 9.65269 6.23932 9.7101C6.26992 9.90667 6.39234 10.0093 6.59128 10.0038C6.78409 9.998 6.91018 9.88783 6.91508 9.68603L6.91998 8.57556C6.92794 8.17023 7.31172 7.9203 7.70959 8.05193C7.94464 8.13022 8.07685 8.29142 8.08481 8.53323L8.08787 8.96814C8.10195 9.19864 8.23631 9.32071 8.4533 9.31607C8.65988 9.30911 8.77006 9.19864 8.77343 8.96872L8.77771 7.71241C8.79149 7.23691 9.27658 6.98699 9.69526 7.23112C9.90153 7.35115 9.96458 7.53671 9.96305 7.75532L9.96122 9.3036C9.9603 9.47698 10.0132 9.61151 10.211 9.65298C10.4518 9.70343 10.6257 9.57179 10.6302 9.31955L10.6351 8.15109C10.6449 7.79331 10.9124 7.57121 11.2815 7.60021C11.5974 7.62282 11.804 7.83796 11.8079 8.17313L11.8098 9.95625C11.8098 9.95625 11.8089 9.95596 11.8089 9.95596ZM13.6724 10.5759L13.6715 11.568C13.666 11.9073 13.4481 12.1305 13.1139 12.1488C12.7913 12.1662 12.5079 11.9522 12.4993 11.6263L12.4953 9.52569C12.5036 9.19081 12.7637 8.99858 13.1117 9.01163C13.4484 9.0241 13.6666 9.2459 13.6709 9.58281L13.6724 10.575C13.6724 10.575 13.6724 10.5759 13.6724 10.5759ZM14.3586 10.8513L14.3595 10.5892C14.3772 10.2935 14.6043 10.0789 14.9061 10.0615C15.2213 10.0435 15.4943 10.2476 15.5243 10.5492C15.5445 10.751 15.5457 10.9551 15.5249 11.1598C15.4937 11.4651 15.2327 11.6547 14.903 11.6376C14.5921 11.6214 14.3751 11.4135 14.3601 11.114C14.3552 11.027 14.3592 10.9391 14.3592 10.8519C14.3592 10.8519 14.3586 10.8513 14.3586 10.8513Z" fill="transparent" fill-opacity="0" fill-rule="nonzero" opacity="1" stroke="#ff0000" stroke-linecap="butt" stroke-linejoin="miter" stroke-opacity="0" stroke-width="0.959971"/>
</g>
</g>
</svg>
