<svg width="50" height="50" viewBox="0 0 50 50" fill="none" xmlns="http://www.w3.org/2000/svg">
<circle cx="25" cy="25" r="24" fill="url(#paint0_linear_2204_394)" stroke="url(#paint1_linear_2204_394)" stroke-width="2"/>
<path d="M26.3 24.4999C29.2694 24.4999 31.8929 21.7259 32.15 18.3158C32.2777 16.6026 31.736 15.005 30.6245 13.8181C29.5248 12.6456 27.9875 12 26.3 12C24.599 12 23.0605 12.6417 21.9687 13.8069C20.8645 14.9849 20.3262 16.5859 20.45 18.3147C20.7025 21.7254 23.3255 24.4999 26.3 24.4999Z" fill="url(#paint2_linear_2204_394)"/>
<path d="M37.9651 34.7543C37.4903 32.1416 36.0081 29.9469 33.6794 28.4067C31.6111 27.039 28.9904 26.2856 26.3 26.2856C23.6095 26.2856 20.9889 27.039 18.9205 28.4061C16.5918 29.9463 15.1096 32.141 14.6349 34.7537C14.5263 35.3525 14.6737 35.9446 15.0393 36.3782C15.2051 36.5758 15.4134 36.7341 15.6488 36.8417C15.8842 36.9492 16.1408 37.0033 16.4 36.9998H36.2C36.4593 37.0035 36.7161 36.9496 36.9517 36.8422C37.1873 36.7347 37.3958 36.5764 37.5618 36.3787C37.9263 35.9451 38.0736 35.3531 37.9651 34.7543Z" fill="url(#paint3_linear_2204_394)"/>
<path d="M15.95 26.2856V24.0535H18.2C18.4387 24.0535 18.6676 23.9594 18.8364 23.792C19.0052 23.6245 19.1 23.3974 19.1 23.1606C19.1 22.9238 19.0052 22.6967 18.8364 22.5293C18.6676 22.3619 18.4387 22.2678 18.2 22.2678H15.95V20.0357C15.95 19.7989 15.8552 19.5718 15.6864 19.4043C15.5176 19.2369 15.2887 19.1428 15.05 19.1428C14.8113 19.1428 14.5824 19.2369 14.4136 19.4043C14.2448 19.5718 14.15 19.7989 14.15 20.0357V22.2678H11.9C11.6613 22.2678 11.4324 22.3619 11.2636 22.5293C11.0948 22.6967 11 22.9238 11 23.1606C11 23.3974 11.0948 23.6245 11.2636 23.792C11.4324 23.9594 11.6613 24.0535 11.9 24.0535H14.15V26.2856C14.15 26.5224 14.2448 26.7495 14.4136 26.917C14.5824 27.0844 14.8113 27.1785 15.05 27.1785C15.2887 27.1785 15.5176 27.0844 15.6864 26.917C15.8552 26.7495 15.95 26.5224 15.95 26.2856Z" fill="url(#paint4_linear_2204_394)"/>
<defs>
<linearGradient id="paint0_linear_2204_394" x1="25" y1="0" x2="25" y2="50" gradientUnits="userSpaceOnUse">
<stop stop-color="#2869FF"/>
<stop offset="1" stop-color="#073FC1"/>
</linearGradient>
<linearGradient id="paint1_linear_2204_394" x1="25" y1="0" x2="25" y2="50" gradientUnits="userSpaceOnUse">
<stop stop-color="#ACC4FF"/>
<stop offset="1" stop-color="#285FDD"/>
</linearGradient>
<linearGradient id="paint2_linear_2204_394" x1="24.5" y1="12" x2="24.5" y2="37" gradientUnits="userSpaceOnUse">
<stop stop-color="white"/>
<stop offset="1" stop-color="#ACC5FF"/>
</linearGradient>
<linearGradient id="paint3_linear_2204_394" x1="24.5" y1="12" x2="24.5" y2="37" gradientUnits="userSpaceOnUse">
<stop stop-color="white"/>
<stop offset="1" stop-color="#ACC5FF"/>
</linearGradient>
<linearGradient id="paint4_linear_2204_394" x1="24.5" y1="12" x2="24.5" y2="37" gradientUnits="userSpaceOnUse">
<stop stop-color="white"/>
<stop offset="1" stop-color="#ACC5FF"/>
</linearGradient>
</defs>
</svg>
