<svg width="50" height="50" viewBox="0 0 50 50" fill="none" xmlns="http://www.w3.org/2000/svg">
<circle cx="25" cy="25" r="24" fill="url(#paint0_linear_2204_392)" stroke="url(#paint1_linear_2204_392)" stroke-width="2"/>
<path d="M34.865 15.135C33.5719 13.829 32.0334 12.7914 30.338 12.0818C28.6426 11.3722 26.8237 11.0046 24.9858 11C23.1479 10.9955 21.3272 11.3542 19.6283 12.0554C17.9295 12.7567 16.3859 13.7867 15.0863 15.0863C13.7867 16.3859 12.7567 17.9295 12.0554 19.6283C11.3542 21.3272 10.9955 23.1479 11 24.9858C11.0046 26.8237 11.3722 28.6426 12.0818 30.338C12.7914 32.0334 13.829 33.5719 15.135 34.865C16.4281 36.171 17.9666 37.2086 19.662 37.9182C21.3574 38.6278 23.1763 38.9954 25.0142 39C26.8521 39.0045 28.6728 38.6458 30.3717 37.9446C32.0706 37.2433 33.6141 36.2133 34.9137 34.9137C36.2133 33.6141 37.2433 32.0706 37.9446 30.3717C38.6458 28.6728 39.0045 26.8521 39 25.0142C38.9954 23.1763 38.6278 21.3574 37.9182 19.662C37.2086 17.9666 36.171 16.4281 34.865 15.135ZM20.5156 22.0104C20.8113 22.0104 21.1003 22.0981 21.3461 22.2623C21.5919 22.4266 21.7835 22.66 21.8966 22.9332C22.0098 23.2063 22.0394 23.5069 21.9817 23.7968C21.924 24.0868 21.7816 24.3531 21.5726 24.5622C21.3635 24.7712 21.0972 24.9136 20.8072 24.9713C20.5173 25.029 20.2167 24.9994 19.9436 24.8862C19.6704 24.7731 19.437 24.5815 19.2727 24.3357C19.1085 24.0898 19.0208 23.8008 19.0208 23.5052C19.0203 23.3088 19.0586 23.1142 19.1336 22.9326C19.2085 22.751 19.3186 22.586 19.4575 22.4471C19.5964 22.3082 19.7614 22.1981 19.943 22.1232C20.1246 22.0482 20.3192 22.0099 20.5156 22.0104ZM30.9586 28.623C30.2112 31.133 27.832 32.9723 25.0031 32.9723C22.1742 32.9723 19.795 31.133 19.0414 28.623C19.0203 28.5483 19.017 28.4696 19.0317 28.3934C19.0464 28.3171 19.0787 28.2454 19.1261 28.1838C19.1735 28.1223 19.2346 28.0727 19.3046 28.039C19.3745 28.0052 19.4514 27.9883 19.529 27.9896H30.4716C30.5492 27.9884 30.626 28.0054 30.6959 28.0392C30.7657 28.0729 30.8268 28.1226 30.8741 28.1841C30.9214 28.2456 30.9536 28.3173 30.9683 28.3935C30.983 28.4697 30.9797 28.5483 30.9586 28.623ZM29.4844 25C29.1887 25 28.8997 24.9123 28.6539 24.7481C28.4081 24.5838 28.2165 24.3504 28.1034 24.0772C27.9902 23.8041 27.9606 23.5035 28.0183 23.2136C28.076 22.9236 28.2184 22.6573 28.4274 22.4482C28.6365 22.2392 28.9028 22.0968 29.1928 22.0391C29.4827 21.9815 29.7833 22.0111 30.0564 22.1242C30.3296 22.2373 30.563 22.4289 30.7273 22.6747C30.8915 22.9206 30.9792 23.2096 30.9792 23.5052C30.9797 23.7016 30.9414 23.8962 30.8664 24.0778C30.7915 24.2594 30.6814 24.4244 30.5425 24.5633C30.4036 24.7022 30.2386 24.8123 30.057 24.8872C29.8754 24.9622 29.6808 25.0005 29.4844 25Z" fill="url(#paint2_linear_2204_392)"/>
<defs>
<linearGradient id="paint0_linear_2204_392" x1="25" y1="0" x2="25" y2="50" gradientUnits="userSpaceOnUse">
<stop stop-color="#2869FF"/>
<stop offset="1" stop-color="#073FC1"/>
</linearGradient>
<linearGradient id="paint1_linear_2204_392" x1="25" y1="0" x2="25" y2="50" gradientUnits="userSpaceOnUse">
<stop stop-color="#ACC4FF"/>
<stop offset="1" stop-color="#285FDD"/>
</linearGradient>
<linearGradient id="paint2_linear_2204_392" x1="25" y1="11" x2="25" y2="39" gradientUnits="userSpaceOnUse">
<stop stop-color="white"/>
<stop offset="1" stop-color="#ACC5FF"/>
</linearGradient>
</defs>
</svg>
