<svg width="16" height="15" viewBox="0 0 16 15" fill="none" xmlns="http://www.w3.org/2000/svg">
<path d="M6.0313 13.2999C6.14256 13.3992 6.31122 13.291 6.26945 13.1478L4.37985 6.66916C4.34466 6.54851 4.238 6.46267 4.11267 6.45347C3.80686 6.431 3.5012 6.40589 3.19572 6.37812L0.667903 6.14831C0.549889 6.13759 0.46682 6.26135 0.522692 6.36585C1.88999 8.92322 3.8589 11.36 6.0313 13.2999Z" fill="white"/>
<path d="M7.88513 14.6694C7.90038 14.7217 7.94533 14.761 7.99978 14.761C8.05423 14.761 8.09918 14.7217 8.11443 14.6694L10.4273 6.73943C10.4562 6.6406 10.3792 6.54276 10.2763 6.54718C8.75932 6.61232 7.24024 6.61232 5.72326 6.54718C5.62041 6.54276 5.54339 6.6406 5.57222 6.73943L7.88513 14.6694Z" fill="white"/>
<path d="M9.73011 13.1478C9.68835 13.291 9.85701 13.3992 9.96827 13.2999C12.1407 11.36 14.1096 8.92322 15.4769 6.36585C15.5327 6.26135 15.4497 6.13759 15.3317 6.14831L12.8038 6.37812C12.4984 6.40589 12.1927 6.431 11.8869 6.45346C11.7616 6.46267 11.6549 6.54851 11.6197 6.66916L9.73011 13.1478Z" fill="white"/>
<path d="M15.3505 5.01696C15.4648 5.00657 15.5256 4.8769 15.4604 4.78242L13.0321 1.26132C12.8221 0.956837 12.4758 0.775024 12.106 0.775024H10.2387C10.1321 0.775024 10.0596 0.883084 10.0999 0.981758L11.7924 5.12429C11.8416 5.2447 11.9628 5.31978 12.0925 5.30953C12.2957 5.29346 12.4989 5.2762 12.702 5.25774L15.3505 5.01696Z" fill="white"/>
<path d="M8.87358 0.95964C8.82699 0.847846 8.71776 0.775024 8.59665 0.775024H7.40291C7.2818 0.775024 7.17257 0.847846 7.12599 0.95964L5.35782 5.20323C5.31795 5.29894 5.38488 5.40527 5.48844 5.41028C7.16169 5.49128 8.83787 5.49128 10.5111 5.41028C10.6147 5.40527 10.6816 5.29894 10.6417 5.20323L8.87358 0.95964Z" fill="white"/>
<path d="M5.89969 0.981759C5.94001 0.883084 5.86743 0.775024 5.76084 0.775024H3.8936C3.52372 0.775024 3.17748 0.956838 2.96749 1.26133L0.539146 4.78242C0.473987 4.8769 0.534749 5.00657 0.649048 5.01696L3.29757 5.25774C3.50066 5.2762 3.70383 5.29346 3.90707 5.30953C4.03674 5.31978 4.15794 5.2447 4.20714 5.12429L5.89969 0.981759Z" fill="white"/>
</svg>
