<svg width="16" height="14" viewBox="0 0 16 14" fill="none" xmlns="http://www.w3.org/2000/svg">
<path d="M6.12538 7.83333C6.12538 6.7978 6.96484 5.95833 8.00038 5.95833C9.03591 5.95833 9.87538 6.7978 9.87538 7.83333C9.87538 8.86887 9.03591 9.70833 8.00038 9.70833C6.96484 9.70833 6.12538 8.86887 6.12538 7.83333Z" fill="#0450FF"/>
<path fill-rule="evenodd" clip-rule="evenodd" d="M4.22843 3.36871C4.22843 1.92243 5.40086 0.75 6.84713 0.75H9.15358C10.5998 0.75 11.7723 1.92243 11.7723 3.36871C11.7723 3.38107 11.7818 3.39137 11.7941 3.39237L13.6521 3.54326C14.4844 3.61086 15.1688 4.22631 15.3242 5.04674C15.7206 7.14033 15.7502 9.28688 15.4115 11.3906L15.3305 11.8941C15.1777 12.8432 14.3966 13.5652 13.4384 13.6431L11.8198 13.7745C9.2777 13.981 6.72301 13.981 4.18087 13.7745L2.56226 13.6431C1.60411 13.5652 0.822971 12.8432 0.670207 11.8941L0.589165 11.3906C0.250556 9.28688 0.280114 7.14033 0.67652 5.04674C0.831863 4.22631 1.51634 3.61086 2.34861 3.54326L4.20661 3.39237C4.21893 3.39137 4.22843 3.38107 4.22843 3.36871ZM8.00038 4.70833C6.27449 4.70833 4.87538 6.10744 4.87538 7.83333C4.87538 9.55922 6.27449 10.9583 8.00038 10.9583C9.72627 10.9583 11.1254 9.55922 11.1254 7.83333C11.1254 6.10744 9.72627 4.70833 8.00038 4.70833Z" fill="#0450FF"/>
</svg>
