<svg width="21" height="21" viewBox="0 0 21 21" fill="none" xmlns="http://www.w3.org/2000/svg">
<path d="M14.0409 0.083374C14.1956 0.083374 14.344 0.144832 14.4533 0.254228L17.7532 3.55406C17.981 3.78187 17.981 4.15121 17.7532 4.37902L7.02873 15.1035C6.95544 15.1768 6.86395 15.2292 6.76367 15.2554L2.29717 16.4221C2.0968 16.4744 1.88371 16.4166 1.73727 16.2701C1.59083 16.1237 1.53301 15.9106 1.58535 15.7102L2.75202 11.2437C2.77821 11.1435 2.83065 11.052 2.90394 10.9787L13.6284 0.254228C13.7378 0.144832 13.8862 0.083374 14.0409 0.083374Z" fill="#0450FF"/>
<path d="M1.6665 18.4584C1.18325 18.4584 0.791504 18.8501 0.791504 19.3334C0.791504 19.8166 1.18325 20.2084 1.6665 20.2084H19.1665C19.6498 20.2084 20.0415 19.8166 20.0415 19.3334C20.0415 18.8501 19.6498 18.4584 19.1665 18.4584H1.6665Z" fill="#0450FF"/>
</svg>
