<svg width="26" height="24" viewBox="0 0 26 24" fill="none" xmlns="http://www.w3.org/2000/svg">
<path d="M14.0093 1.49556C13.5597 0.720719 12.4407 0.720716 11.9911 1.49556L8.82471 6.95242C8.6026 7.33519 8.21871 7.59639 7.78114 7.66248L1.84711 8.55875C0.850445 8.70928 0.500842 9.96766 1.27703 10.6107L5.69764 14.2732C6.10684 14.6122 6.29924 15.1469 6.19984 15.6689L5.04348 21.7416C4.86068 22.7016 5.86843 23.4474 6.73311 22.9921L12.3207 20.05C12.746 19.8261 13.2543 19.8261 13.6796 20.05L19.2673 22.9921C20.132 23.4474 21.1397 22.7016 20.9569 21.7416L19.8005 15.6689C19.7011 15.1469 19.8935 14.6122 20.3027 14.2732L24.7233 10.6107C25.4995 9.96766 25.1499 8.70928 24.1533 8.55875L18.2192 7.66248C17.7817 7.59639 17.3978 7.33519 17.1757 6.95242L14.0093 1.49556Z" fill="#0450FF"/>
</svg>
