<svg width="146" height="35" viewBox="0 0 146 35" fill="none" xmlns="http://www.w3.org/2000/svg">
<path d="M47.4672 4.7999C47.4672 5.8499 47.1555 6.6874 46.532 7.2999C45.8337 8.0374 44.911 8.4124 43.7888 8.4124C42.704 8.4124 41.7937 8.0374 41.0331 7.2874C40.2725 6.5374 39.8984 5.5999 39.8984 4.4999C39.8984 3.3874 40.2725 2.4624 41.0331 1.7124C41.7937 0.962402 42.704 0.587402 43.7888 0.587402C44.325 0.587402 44.8362 0.687402 45.3225 0.899902C45.8088 1.1124 46.1954 1.3874 46.4946 1.7374L45.8337 2.3999C45.335 1.8124 44.6617 1.5124 43.7888 1.5124C43.0033 1.5124 42.3175 1.7874 41.7439 2.3499C41.1703 2.8999 40.8835 3.6249 40.8835 4.5124C40.8835 5.3999 41.1703 6.1249 41.7439 6.6749C42.3175 7.2249 43.0033 7.5124 43.7888 7.5124C44.6242 7.5124 45.3225 7.2374 45.8836 6.6749C46.2452 6.3124 46.4572 5.7999 46.5071 5.1499H43.7888V4.2374H47.4173C47.4423 4.4374 47.4672 4.6249 47.4672 4.7999Z" fill="white"/>
<path d="M53.2166 1.67598H49.8126V4.05098H52.8799V4.95098H49.8126V7.32598H53.2166V8.25098H48.8525V0.750977H53.2166V1.67598Z" fill="white"/>
<path d="M57.2678 8.25098H56.3077V1.67598H54.2129V0.750977H59.3502V1.67598H57.2554V8.25098H57.2678Z" fill="white"/>
<path d="M63.0781 8.25098V0.750977H64.0382V8.25098H63.0781Z" fill="white"/>
<path d="M68.304 8.25098H67.3438V1.67598H65.249V0.750977H70.3863V1.67598H68.2915V8.25098H68.304Z" fill="white"/>
<path d="M80.1247 7.2749C79.389 8.0374 78.4788 8.4124 77.3815 8.4124C76.2842 8.4124 75.374 8.0374 74.6383 7.2749C73.9026 6.5124 73.541 5.5874 73.541 4.4999C73.541 3.4124 73.9026 2.4749 74.6383 1.7249C75.374 0.962403 76.2842 0.587402 77.3815 0.587402C78.4663 0.587402 79.3766 0.962403 80.1247 1.7249C80.8604 2.4874 81.2345 3.4124 81.2345 4.4999C81.222 5.5999 80.8604 6.5249 80.1247 7.2749ZM75.349 6.6499C75.8977 7.2124 76.5835 7.4874 77.3815 7.4874C78.1795 7.4874 78.8653 7.2124 79.414 6.6499C79.9626 6.0874 80.2494 5.3749 80.2494 4.4999C80.2494 3.6249 79.9751 2.9124 79.414 2.3499C78.8653 1.7874 78.1795 1.4999 77.3815 1.4999C76.5835 1.4999 75.8977 1.7749 75.349 2.3374C74.8004 2.9124 74.5136 3.6249 74.5136 4.4999C74.5136 5.3749 74.8004 6.0874 75.349 6.6499Z" fill="white"/>
<path d="M82.5801 8.25098V0.750977H83.7522L87.3932 6.58848H87.4306L87.3932 5.13848V0.750977H88.3533V8.25098H87.3558L83.5527 2.13848H83.5153L83.5527 3.58848V8.25098H82.5801Z" fill="white"/>
<path d="M73.3021 19.187C70.3719 19.187 67.9778 21.4245 67.9778 24.4995C67.9778 27.562 70.3719 29.812 73.3021 29.812C76.2323 29.812 78.6264 27.562 78.6264 24.4995C78.6264 21.4245 76.2323 19.187 73.3021 19.187ZM73.3021 27.7245C71.6936 27.7245 70.3095 26.3995 70.3095 24.4995C70.3095 22.587 71.6936 21.2745 73.3021 21.2745C74.9106 21.2745 76.2947 22.587 76.2947 24.4995C76.2947 26.3995 74.8981 27.7245 73.3021 27.7245ZM61.6809 19.187C58.7506 19.187 56.3565 21.4245 56.3565 24.4995C56.3565 27.562 58.7506 29.812 61.6809 29.812C64.6111 29.812 67.0052 27.562 67.0052 24.4995C67.0052 21.4245 64.6111 19.187 61.6809 19.187ZM61.6809 27.7245C60.0723 27.7245 58.6883 26.3995 58.6883 24.4995C58.6883 22.587 60.0723 21.2745 61.6809 21.2745C63.2894 21.2745 64.6735 22.587 64.6735 24.4995C64.6735 26.3995 63.2894 27.7245 61.6809 27.7245ZM47.8651 20.8245V23.0745H53.2517C53.0896 24.337 52.6657 25.2745 52.0298 25.912C51.2442 26.6995 50.0222 27.562 47.8775 27.562C44.5607 27.562 41.9672 24.887 41.9672 21.562C41.9672 18.237 44.5607 15.562 47.8775 15.562C49.6606 15.562 50.9699 16.262 51.93 17.1745L53.5136 15.587C52.1669 14.2995 50.3838 13.312 47.8651 13.312C43.3263 13.312 39.5107 17.012 39.5107 21.5745C39.5107 26.1245 43.3263 29.837 47.8651 29.837C50.3215 29.837 52.1669 29.037 53.6133 27.5245C55.0972 26.037 55.5585 23.937 55.5585 22.2495C55.5585 21.7245 55.5211 21.237 55.4338 20.837H47.8651V20.8245ZM104.363 22.5745C103.926 21.387 102.58 19.187 99.824 19.187C97.0932 19.187 94.8238 21.337 94.8238 24.4995C94.8238 27.4745 97.0683 29.812 100.086 29.812C102.517 29.812 103.926 28.3245 104.5 27.462L102.692 26.2495C102.093 27.137 101.27 27.7245 100.086 27.7245C98.9012 27.7245 98.0533 27.1745 97.5172 26.112L104.612 23.1745L104.363 22.5745ZM97.1306 24.3495C97.0683 22.2995 98.7142 21.2495 99.8988 21.2495C100.821 21.2495 101.607 21.712 101.869 22.3745L97.1306 24.3495ZM91.3699 29.4995H93.7016V13.8745H91.3699V29.4995ZM87.5543 20.3745H87.467C86.9433 19.7495 85.9458 19.187 84.674 19.187C82.018 19.187 79.5865 21.5245 79.5865 24.5245C79.5865 27.4995 82.018 29.8245 84.674 29.8245C85.9333 29.8245 86.9433 29.262 87.467 28.612H87.5418V29.3745C87.5418 31.412 86.457 32.4995 84.7114 32.4995C83.2899 32.4995 82.4046 31.4745 82.043 30.612L80.0105 31.462C80.5965 32.8745 82.1427 34.5995 84.7114 34.5995C87.4421 34.5995 89.7489 32.987 89.7489 29.062V19.512H87.5418V20.3745H87.5543ZM84.8735 27.7245C83.2649 27.7245 81.9183 26.3745 81.9183 24.5245C81.9183 22.6495 83.2649 21.287 84.8735 21.287C86.457 21.287 87.704 22.662 87.704 24.5245C87.7164 26.3745 86.4695 27.7245 84.8735 27.7245ZM115.286 13.8745H109.712V29.4995H112.044V23.5745H115.298C117.879 23.5745 120.41 21.6995 120.41 18.7245C120.41 15.7495 117.854 13.8745 115.286 13.8745ZM115.336 21.3995H112.031V16.037H115.336C117.081 16.037 118.066 17.487 118.066 18.712C118.066 19.937 117.081 21.3995 115.336 21.3995ZM129.725 19.162C128.042 19.162 126.296 19.912 125.573 21.5495L127.643 22.412C128.079 21.5495 128.902 21.262 129.762 21.262C130.972 21.262 132.194 21.987 132.206 23.2745V23.437C131.782 23.1995 130.885 22.837 129.775 22.837C127.543 22.837 125.286 24.062 125.286 26.3495C125.286 28.437 127.106 29.787 129.151 29.787C130.71 29.787 131.583 29.087 132.119 28.262H132.194V29.4745H134.438V23.487C134.451 20.712 132.381 19.162 129.725 19.162ZM129.438 27.7245C128.678 27.7245 127.618 27.337 127.618 26.3995C127.618 25.1995 128.939 24.737 130.087 24.737C131.109 24.737 131.595 24.962 132.206 25.262C132.032 26.6995 130.785 27.7245 129.438 27.7245ZM142.63 19.4995L139.962 26.2745H139.887L137.119 19.4995H134.613L138.765 28.9745L136.396 34.237H138.827L145.224 19.4995H142.63ZM121.682 29.4995H124.014V13.8745H121.682V29.4995Z" fill="white"/>
<path d="M16.3478 16.8134C16.3471 16.7196 16.3277 16.6269 16.2909 16.5406C16.2541 16.4544 16.2005 16.3764 16.1333 16.3111L2.11847 2.71424C2.03274 2.63107 1.92738 2.57104 1.81224 2.53976C1.69709 2.50848 1.57591 2.50698 1.46003 2.53538C1.34414 2.56379 1.23733 2.62118 1.14958 2.7022C1.06182 2.78322 0.995982 2.88521 0.958213 2.99866C0.861632 3.2782 0.811097 3.57165 0.808594 3.86747V29.5514C0.808594 30.0834 0.958213 30.5829 1.25181 31.0357C1.30932 31.1238 1.38563 31.1979 1.47524 31.2528C1.56484 31.3077 1.66549 31.3419 1.76991 31.353C1.87433 31.3641 1.97991 31.3518 2.079 31.317C2.1781 31.2822 2.26824 31.2257 2.3429 31.1517L16.1403 17.32C16.2065 17.2534 16.2588 17.1743 16.2944 17.0874C16.33 17.0005 16.3482 16.9074 16.3478 16.8134Z" fill="white"/>
<path d="M17.1475 15.3262C17.2801 15.4565 17.4587 15.5288 17.6444 15.5275C17.83 15.5262 18.0076 15.4513 18.1383 15.3192L21.7024 11.7462C21.7794 11.6683 21.8373 11.5736 21.8716 11.4695C21.9059 11.3654 21.9158 11.2547 21.9003 11.1462C21.8849 11.0376 21.8446 10.9342 21.7826 10.8438C21.7206 10.7535 21.6385 10.6788 21.5429 10.6256L4.8277 1.44919C4.67677 1.37402 4.50406 1.35524 4.34057 1.39621C4.17707 1.43718 4.0335 1.53523 3.93562 1.67276C3.8386 1.81106 3.79397 1.97951 3.80975 2.14785C3.82553 2.31618 3.90069 2.47335 4.02172 2.5911L17.1475 15.3262Z" fill="white"/>
<path d="M28.2492 14.3061L24.1219 12.0392C23.9878 11.9663 23.8339 11.9386 23.6828 11.9603C23.5318 11.982 23.3918 12.0518 23.2835 12.1595L19.1689 16.2843C19.1029 16.3507 19.0506 16.4295 19.0153 16.5163C18.9799 16.6031 18.9621 16.6961 18.9629 16.7898C18.9637 16.8835 18.9831 16.9762 19.0199 17.0623C19.0567 17.1485 19.1102 17.2265 19.1774 17.2918L23.2792 21.2722C23.3879 21.3766 23.5268 21.4437 23.676 21.4638C23.8252 21.4839 23.9769 21.456 24.1092 21.384L28.2492 19.1115C29.1385 18.6233 29.6692 17.7248 29.6692 16.7088C29.6692 15.6928 29.1385 14.7943 28.2492 14.3061Z" fill="white"/>
<path d="M18.1623 18.2778C18.0292 18.1489 17.8509 18.0775 17.6658 18.0791C17.4808 18.0807 17.3037 18.1551 17.1728 18.2863L5.42908 30.0592C5.30437 30.1783 5.2276 30.3391 5.21335 30.5112C5.1991 30.6832 5.24836 30.8545 5.35178 30.9926C5.4552 31.1307 5.60559 31.2259 5.77439 31.2601C5.9432 31.2944 6.11867 31.2653 6.26752 31.1785L21.5175 22.8073C21.6147 22.7542 21.698 22.6789 21.7608 22.5874C21.8235 22.496 21.8639 22.3911 21.8786 22.2811C21.8933 22.1711 21.8819 22.0592 21.8454 21.9544C21.8089 21.8496 21.7483 21.755 21.6685 21.6781L18.1623 18.2778Z" fill="white"/>
</svg>
