<svg width="20" height="23" xmlns="http://www.w3.org/2000/svg">
 <!-- Created with Method Draw - http://github.com/duopixel/Method-Draw/ -->

 <g>
  <title>background</title>
  <rect fill="none" id="canvas_background" height="25" width="22" y="-1" x="-1"/>
  <g display="none" overflow="visible" y="0" x="0" height="100%" width="100%" id="canvasGrid">
   <rect fill="url(#gridpattern)" stroke-width="0" y="0" x="0" height="100%" width="100%"/>
  </g>
 </g>
 <g>
  <title>Layer 1</title>
  <desc transform="matrix(5.19249919745198,0,0,5.19249919745198,7.471204794375808,0) ">Created with Sketch.</desc>
  <g stroke="null" id="svg_14">
   <g stroke="null" transform="matrix(0.5794224656225414,0,0,0.6229662721338448,9.444659571116297,8.45195980422277) " fill-rule="evenodd" fill="none" id="svg_9">
    <g stroke="null" fill-rule="nonzero" fill="#1C1C1F" id="svg_10">
     <g stroke="null" id="svg_11">
      <path stroke="null" fill="#0450ff" id="svg_12" d="m-1.351677,-13.130641c2.08641,0 3.77778,1.6531 3.77778,3.69231l0,0l-0.00067,0.92269l5.19511,0.00039c2.08641,0 3.77778,1.6531 3.77778,3.6923l-0.00089,9.23031l2.834,0l-0.00012,-5.69569c-1.10028,-0.38025 -1.88855,-1.40593 -1.88855,-2.61154c0,-1.5294 1.26853,-2.76923 2.83334,-2.76923c1.5648,0 2.83333,1.23983 2.83333,2.76923c0,1.20551 -0.78813,2.23111 -1.88827,2.61144l-0.00062,6.59796l-0.00005,0.01127c0.00003,0.00336 0.00005,0.00673 0.00005,0.0101c0,0.5098 -0.41328,0.92307 -0.92308,0.92307l-3.80003,-0.00061l0.00089,12.92369c0,2.03921 -1.69137,3.69231 -3.77778,3.69231l-19.83333,0c-2.08641,0 -3.77778,-1.6531 -3.77778,-3.69231l0,-24c0,-2.0392 1.69137,-3.6923 3.77778,-3.6923l5.19422,-0.00039l0.00022,-0.92269c0,-1.97343 1.58401,-3.58526 3.57715,-3.68719l0.20063,-0.00512l1.88889,0zm7.1047,24.92308l-5.7094,0c-0.5098,0 -0.92308,0.41327 -0.92308,0.92307c0,0.5098 0.41328,0.92308 0.92308,0.92308l0,0l5.7094,0c0.5098,0 0.92308,-0.41328 0.92308,-0.92308c0,-0.5098 -0.41328,-0.92307 -0.92308,-0.92307l0,0zm-1.43803,-15.69231l-13.22223,0c-1.5648,0 -2.83333,1.23983 -2.83333,2.76923l0,0l0,6.46154c0,1.5294 1.26853,2.76923 2.83333,2.76923l0,0l13.22223,0c1.5648,0 2.83333,-1.23983 2.83333,-2.76923l0,0l0,-6.46154c0,-1.5294 -1.26853,-2.76923 -2.83333,-2.76923l0,0zm-10.38856,1.84523l-0.00033,0.02229l0,8.26496c0,0.00711 0.00007,0.0142 0.00023,0.02128l-2.83357,0.00008c-0.5216,0 -0.94444,-0.41327 -0.94444,-0.92307l0,0l0,-6.46154c0,-0.5098 0.42284,-0.92308 0.94444,-0.92308l0,0l2.83367,-0.00092zm5.667,0l-0.00067,0.02229l0,8.26496c0,0.00711 0.00008,0.0142 0.00024,0.02128l-3.77957,-0.00053l0.00156,-0.02075l0,-8.26496c0,-0.00745 -0.00009,-0.01488 -0.00026,-0.02229l3.7787,0zm4.72156,0.00092c0.5216,0 0.94444,0.41328 0.94444,0.92308l0,0l0,6.46154c0,0.5098 -0.42284,0.92307 -0.94444,0.92307l0,0l-2.83456,-0.00061l0.00122,-0.02075l0,-8.26496c0,-0.00745 -0.00008,-0.01488 -0.00026,-0.02229l2.8336,0.00092z"/>
     </g>
    </g>
   </g>
  </g>
 </g>
</svg>