<svg width="30" height="30" viewBox="0 0 30 30" fill="none" xmlns="http://www.w3.org/2000/svg">
<path d="M11.9999 0.000228555C18.6268 0.000228555 24 5.3732 24 12.0002C24 14.2232 23.385 16.2973 22.3319 18.0819L29.1359 24.8859C29.5391 25.2891 30 26.0471 30 27C30 28.656 28.6569 30 27 30C26.3589 30 25.5471 29.7971 24.8859 29.1359L18.0819 22.3319C16.297 23.3851 14.2229 24 12.0001 24C5.37318 24 0 18.627 0 12C0 5.37297 5.37301 0 12.0001 0L11.9999 0.000228555ZM11.9999 20.0002C16.418 20.0002 19.9999 16.4183 19.9999 12.0002C19.9999 7.58217 16.418 4.00023 11.9999 4.00023C7.58177 4.00023 3.9998 7.58217 3.9998 12.0002C3.9998 16.4183 7.58177 20.0002 11.9999 20.0002Z" fill="#215CE4"/>
</svg>
