<svg width="39" height="34" viewBox="0 0 39 34" fill="none" xmlns="http://www.w3.org/2000/svg">
<path d="M38.4517 17.9106C38.7897 17.7269 38.9994 17.3783 38.9994 17C38.9994 16.6217 38.7897 16.2732 38.4517 16.0895L33.5911 13.4479C24.0152 8.24356 13.9206 4.01021 3.4648 0.81379L2.04844 0.380799C1.72512 0.281959 1.37302 0.339503 1.1001 0.535788C0.827186 0.732072 0.666016 1.04368 0.666016 1.37505V13.3542C0.666016 13.9082 1.10932 14.3653 1.67486 14.3944L3.82503 14.5051C9.06735 14.7751 14.2777 15.4706 19.4022 16.5847L19.9098 16.695C20.0226 16.7195 20.0716 16.7647 20.0988 16.8005C20.1331 16.8458 20.1599 16.9154 20.1599 17C20.1599 17.0847 20.1331 17.1543 20.0988 17.1995C20.0716 17.2354 20.0226 17.2806 19.9098 17.3051L19.4023 17.4154C14.2777 18.5295 9.06733 19.225 3.82497 19.4949L1.67486 19.6056C1.10932 19.6348 0.666016 20.0918 0.666016 20.6459V32.625C0.666016 32.9564 0.827184 33.268 1.1001 33.4643C1.37302 33.6606 1.72512 33.7181 2.04844 33.6193L3.46483 33.1863C13.9206 29.9899 24.0152 25.7565 33.5911 20.5522L38.4517 17.9106Z" fill="#0450FF"/>
</svg>
