<svg width="85" height="85" viewBox="0 0 85 85" fill="none" xmlns="http://www.w3.org/2000/svg">
<path d="M67.291 21.2501H17.7077C15.7518 21.2501 14.166 22.8359 14.166 24.7918V67.2918C14.166 73.1508 18.932 77.9168 24.791 77.9168H60.2077C66.0667 77.9168 70.8327 73.1508 70.8327 67.2918V24.7918C70.8327 22.8359 69.2469 21.2501 67.291 21.2501Z" fill="url(#paint0_linear_2045_6063)"/>
<path d="M53.1237 35.4168C51.1678 35.4168 49.582 33.831 49.582 31.8752V21.2502C49.582 17.3436 46.4053 14.1668 42.4987 14.1668C38.5921 14.1668 35.4154 17.3436 35.4154 21.2502V31.8752C35.4154 33.831 33.8296 35.4168 31.8737 35.4168C29.9178 35.4168 28.332 33.831 28.332 31.8752V21.2502C28.332 13.4388 34.6873 7.0835 42.4987 7.0835C50.3101 7.0835 56.6654 13.4388 56.6654 21.2502V31.8752C56.6654 33.831 55.0796 35.4168 53.1237 35.4168Z" fill="#DA2057"/>
<defs>
<linearGradient id="paint0_linear_2045_6063" x1="14.166" y1="49.5835" x2="70.8327" y2="49.5835" gradientUnits="userSpaceOnUse">
<stop stop-color="#FF769F"/>
<stop offset="1" stop-color="#FF2566"/>
</linearGradient>
</defs>
</svg>
