<svg width="85" height="85" viewBox="0 0 85 85" fill="none" xmlns="http://www.w3.org/2000/svg">
<path d="M49.5833 53.125H35.4167C33.4591 53.125 31.875 54.7091 31.875 56.6667V70.8333C31.875 72.7909 33.4591 74.375 35.4167 74.375H49.5833C51.5409 74.375 53.125 72.7909 53.125 70.8333V56.6667C53.125 54.7091 51.5409 53.125 49.5833 53.125Z" fill="url(#paint0_linear_2045_6038)"/>
<path d="M74.375 49.5832C74.375 53.4776 71.1861 56.6665 67.2917 56.6665H17.7083C13.8139 56.6665 10.625 53.4776 10.625 49.5832V21.2498C10.625 17.3554 13.8139 14.1665 17.7083 14.1665H67.2917C71.1861 14.1665 74.375 17.3554 74.375 21.2498V49.5832Z" fill="#DA2057"/>
<path d="M67.2923 60.2083H17.709C11.85 60.2083 7.08398 55.4423 7.08398 49.5833V21.25C7.08398 15.391 11.85 10.625 17.709 10.625H67.2923C73.1513 10.625 77.9173 15.391 77.9173 21.25V49.5833C77.9173 55.4423 73.1513 60.2083 67.2923 60.2083ZM17.709 17.7083C15.7548 17.7083 14.1673 19.2959 14.1673 21.25V49.5833C14.1673 51.5375 15.7548 53.125 17.709 53.125H67.2923C69.2465 53.125 70.834 51.5375 70.834 49.5833V21.25C70.834 19.2959 69.2465 17.7083 67.2923 17.7083H17.709Z" fill="url(#paint1_linear_2045_6038)"/>
<path d="M56.668 74.3748H28.3346C26.377 74.3748 24.793 72.7908 24.793 70.8332C24.793 68.8756 26.377 67.2915 28.3346 67.2915H56.668C58.6256 67.2915 60.2096 68.8756 60.2096 70.8332C60.2096 72.7908 58.6256 74.3748 56.668 74.3748Z" fill="url(#paint2_linear_2045_6038)"/>
<path d="M42.5007 49.5833C40.5431 49.5833 38.959 47.9993 38.959 46.0417V35.4167C38.959 33.4591 40.5431 31.875 42.5007 31.875C44.4583 31.875 46.0423 33.4591 46.0423 35.4167V46.0417C46.0423 47.9993 44.4583 49.5833 42.5007 49.5833Z" fill="url(#paint3_linear_2045_6038)"/>
<path d="M42.5007 28.3333C44.4567 28.3333 46.0423 26.7477 46.0423 24.7917C46.0423 22.8357 44.4567 21.25 42.5007 21.25C40.5446 21.25 38.959 22.8357 38.959 24.7917C38.959 26.7477 40.5446 28.3333 42.5007 28.3333Z" fill="url(#paint4_linear_2045_6038)"/>
<defs>
<linearGradient id="paint0_linear_2045_6038" x1="31.875" y1="63.75" x2="53.125" y2="63.75" gradientUnits="userSpaceOnUse">
<stop stop-color="#FF2566"/>
<stop offset="1" stop-color="#FF769F"/>
</linearGradient>
<linearGradient id="paint1_linear_2045_6038" x1="7.08398" y1="35.4167" x2="77.9173" y2="35.4167" gradientUnits="userSpaceOnUse">
<stop stop-color="#FF2566"/>
<stop offset="1" stop-color="#FF769F"/>
</linearGradient>
<linearGradient id="paint2_linear_2045_6038" x1="24.793" y1="70.8332" x2="60.2096" y2="70.8332" gradientUnits="userSpaceOnUse">
<stop stop-color="#FF2566"/>
<stop offset="1" stop-color="#FF769F"/>
</linearGradient>
<linearGradient id="paint3_linear_2045_6038" x1="38.959" y1="40.7292" x2="46.0423" y2="40.7292" gradientUnits="userSpaceOnUse">
<stop stop-color="#FF2566"/>
<stop offset="1" stop-color="#FF769F"/>
</linearGradient>
<linearGradient id="paint4_linear_2045_6038" x1="38.959" y1="24.7917" x2="46.0423" y2="24.7917" gradientUnits="userSpaceOnUse">
<stop stop-color="#FF2566"/>
<stop offset="1" stop-color="#FF769F"/>
</linearGradient>
</defs>
</svg>
