<svg width="20" height="20" viewBox="0 0 20 20" fill="none" xmlns="http://www.w3.org/2000/svg">
<path d="M10 13.9999V14.0351M8.00087 7.53771C8.00087 6.41228 8.8963 5.49994 10.0009 5.49994C11.1054 5.49994 12.0009 6.41228 12.0009 7.53771C12.0009 8.66314 11.1054 9.57549 10.0009 9.57549C10.0009 9.57549 10 10.1837 10 10.934M18 4.99994L18 15C18 16.6569 16.6569 18 15 18H5C3.34315 18 2 16.6569 2 15V4.99994C2 3.34308 3.34315 1.99994 5 1.99994H15C16.6569 1.99994 18 3.34308 18 4.99994Z" stroke="#4D9696" stroke-width="2" stroke-linecap="round" stroke-linejoin="round"/>
</svg>
