<svg width="26" height="22" viewBox="0 0 26 22" fill="none" xmlns="http://www.w3.org/2000/svg">
<path fill-rule="evenodd" clip-rule="evenodd" d="M6.6898 1.21136C10.8885 0.846375 15.111 0.846375 19.3097 1.21136L21.3234 1.3864C23.2501 1.55389 24.811 3.02009 25.0986 4.93261C25.7035 8.9549 25.7035 13.045 25.0986 17.0673C25.0457 17.4192 24.9497 17.7559 24.8162 18.0723C24.7278 18.282 24.4547 18.3138 24.3016 18.1454L18.4064 11.6606C18.14 11.3676 17.7258 11.2594 17.3502 11.3846L13.9757 12.5094L9.08049 7.00226C8.89752 6.79642 8.63775 6.67515 8.36246 6.66706C8.08716 6.65897 7.82072 6.76477 7.62598 6.95952L1.07381 13.5117C0.872159 13.7133 0.528238 13.585 0.51216 13.3003C0.354512 10.5084 0.484095 7.70441 0.900907 4.93261C1.1885 3.02009 2.7494 1.55389 4.67616 1.38641L6.6898 1.21136ZM15.6664 6.99996C15.6664 5.89539 16.5619 4.99996 17.6664 4.99996C18.771 4.99996 19.6664 5.89539 19.6664 6.99996C19.6664 8.10453 18.771 8.99996 17.6664 8.99996C16.5619 8.99996 15.6664 8.10453 15.6664 6.99996Z" fill="#4D9696"/>
<path d="M0.948201 16.4657C0.874396 16.5395 0.839337 16.6437 0.854039 16.747C0.869236 16.8538 0.884858 16.9606 0.900907 17.0673C1.1885 18.9798 2.7494 20.446 4.67616 20.6135L6.6898 20.7885C10.8885 21.1535 15.111 21.1535 19.3097 20.7885L21.3234 20.6135C21.8896 20.5643 22.4241 20.4029 22.9041 20.1511C23.086 20.0556 23.1166 19.8151 22.9785 19.6631L17.5107 13.6486C17.4219 13.551 17.2839 13.5149 17.1587 13.5566L13.9826 14.6153C13.6031 14.7418 13.1848 14.63 12.919 14.331L8.52513 9.38788C8.39771 9.24453 8.17591 9.23802 8.04029 9.37363L0.948201 16.4657Z" fill="#4D9696"/>
</svg>
