<svg width="250" height="140" xmlns="http://www.w3.org/2000/svg">
 <!-- Created with Method Draw - http://github.com/duopixel/Method-Draw/ -->
 <defs>
  <filter height="200%" width="200%" y="-50%" x="-50%" id="svg_319_blur">
   <feGaussianBlur stdDeviation="0" in="SourceGraphic"/>
  </filter>
 </defs>
 <g>
  <title>background</title>
  <rect fill="#c5f9ed" id="canvas_background" height="142" width="252" y="-1" x="-1"/>
  <g display="none" overflow="visible" y="0" x="0" height="100%" width="100%" id="canvasGrid">
   <rect fill="url(#gridpattern)" stroke-width="0" y="0" x="0" height="100%" width="100%"/>
  </g>
 </g>
 <g>
  <title>Layer 1</title>



  <defs>
   <linearGradient id="svg_300" x1="-0.077907" y1="0.639413" x2="3.957573" y2="-0.334557">
    <stop offset="0" stop-color="#21E418"/>
    <stop offset="0.3" stop-color="#31B6E9"/>
    <stop offset="0.9757" stop-color="#21E418"/>
   </linearGradient>
   <linearGradient id="svg_299" x1="-3.392486" y1="1.376935" x2="8.340855" y2="-1.266456">
    <stop offset="0" stop-color="#21E418"/>
    <stop offset="0.3" stop-color="#31B6E9"/>
    <stop offset="0.9757" stop-color="#21E418"/>
   </linearGradient>
   <linearGradient id="svg_298" x1="-32.725831" y1="1.540572" x2="51.889541" y2="-1.109427">
    <stop offset="0" stop-color="#21E418"/>
    <stop offset="0.3" stop-color="#31B6E9"/>
    <stop offset="0.9757" stop-color="#21E418"/>
   </linearGradient>
   <linearGradient id="svg_297" x1="-6.972192" y1="1.943688" x2="10.215307" y2="-1.368813">
    <stop offset="0" stop-color="#21E418"/>
    <stop offset="0.3" stop-color="#31B6E9"/>
    <stop offset="0.9757" stop-color="#21E418"/>
   </linearGradient>
   <linearGradient id="svg_296" x1="-12.032631" y1="2.123026" x2="13.40092" y2="-1.252772">
    <stop offset="0" stop-color="#21E418"/>
    <stop offset="0.3" stop-color="#31B6E9"/>
    <stop offset="0.9757" stop-color="#21E418"/>
   </linearGradient>
   <linearGradient id="svg_295" x1="-8.349159" y1="2.298741" x2="7.947163" y2="-1.013761">
    <stop offset="0" stop-color="#21E418"/>
    <stop offset="0.3" stop-color="#31B6E9"/>
    <stop offset="0.9757" stop-color="#21E418"/>
   </linearGradient>
   <linearGradient id="svg_294" x1="-9.850326" y1="2.012937" x2="7.20394" y2="-0.481181">
    <stop offset="0" stop-color="#21E418"/>
    <stop offset="0.3" stop-color="#31B6E9"/>
    <stop offset="0.9757" stop-color="#21E418"/>
   </linearGradient>
   <linearGradient id="svg_293" x1="-11.046951" y1="2.767392" x2="6.007334" y2="-0.544638">
    <stop offset="0" stop-color="#21E418"/>
    <stop offset="0.3" stop-color="#31B6E9"/>
    <stop offset="0.9757" stop-color="#21E418"/>
   </linearGradient>
   <linearGradient id="svg_292" x1="-7.361625" y1="3.078445" x2="2.918755" y2="-0.284609">
    <stop offset="0" stop-color="#21E418"/>
    <stop offset="0.3" stop-color="#31B6E9"/>
    <stop offset="0.9757" stop-color="#21E418"/>
   </linearGradient>
   <linearGradient id="svg_291" x1="-69.913691" y1="2.70523" x2="14.701681" y2="0.05523">
    <stop offset="0" stop-color="#21E418"/>
    <stop offset="0.3" stop-color="#31B6E9"/>
    <stop offset="0.9757" stop-color="#21E418"/>
   </linearGradient>
   <linearGradient id="svg_290" x1="-14.394465" y1="3.455726" x2="2.593952" y2="0.09192">
    <stop offset="0" stop-color="#21E418"/>
    <stop offset="0.3" stop-color="#31B6E9"/>
    <stop offset="0.9757" stop-color="#21E418"/>
   </linearGradient>
   <linearGradient id="svg_289" x1="-15.543199" y1="2.845495" x2="1.511086" y2="0.351377">
    <stop offset="0" stop-color="#21E418"/>
    <stop offset="0.3" stop-color="#31B6E9"/>
    <stop offset="0.9757" stop-color="#21E418"/>
   </linearGradient>
  </defs>
  <g filter="url(#svg_319_blur)" transform="rotate(-180 -461.4475402832031,69.32302856445312) " stroke="null" id="svg_319">
   <g stroke="null" transform="matrix(0.9206082725617621,0,0,-1.5040687302549856,-3322.0889308349224,3047.0664501495194) " id="svg_303">
    <title stroke="null" transform="translate(-3.258582353591919,0) translate(-0.00006629872950725257,0) translate(-0.00006629872950725257,0) translate(0.00013259745901450515,0) translate(3.2587149143218994,0) translate(3.2587811946868896,0) translate(-0.0001988961739698425,0) translate(0.00006629872950725257,0) translate(0.00006629872950725257,0) translate(0.00006629872950725257,0) translate(3.258582353591919,0) translate(3.258648633956909,0) translate(0.0001988961739698425,0) translate(-0.00006629872950725257,0) translate(-0.00006629872950725257,0) translate(-3.258582353591919,0) translate(-0.00013259745901450515,0) translate(-3.258648633956909,0) translate(0.00006629872950725257,0) translate(-0.0001988961739698425,0) translate(0.00006629872950725257,0) translate(6.517363548278809,0) translate(15.20746898651123,0) translate(11.94862174987793,0) translate(6.517363548278809,0) translate(0.00013259745901450515,0) translate(-9.776211738586426,0) translate(-6.517429828643799,0) translate(6.517363548278809,0) translate(9.776079177856445,0) translate(-3.258648633956909,0) translate(-3.2587149143218994,0) translate(-3.2587811946868896,0) translate(0.0001988961739698425,0) translate(-142.29742431640625,0) translate(-260.69720458984375,0) translate(-217.24755859375,0) translate(-46.70838165283203,0) translate(11.948598861694336,0) translate(3.258765459060669,0) translate(0.00005050098479841836,0) translate(0.00005050098479841836,0) translate(0.00005050098479841836,0) translate(3.2585954666137695,0) translate(0.00012431011418811977,0) translate(3.258668899536133,0) translate(-0.000046098331949906424,0) translate(3.2587430477142334,0) translate(0.00002796977605612483,0) translate(3.258573055267334,0) translate(0.00010151992319151759,0) translate(0.00010151992319151759,0) translate(-0.00014192071103025228,0) translate(0.00010151992319151759,0) translate(3.2586467266082764,0) translate(-0.0000683705584378913,0) translate(0.00017610599752515554,0) translate(3.258476734161377,0) translate(0.000006215505891304929,0) translate(3.258793830871582,0) translate(0.00007872973947087303,0) translate(3.2586238384246826,0) translate(3.2586984634399414,0) translate(-0.00001657468055782374,0) translate(3.2587730884552,0) translate(3.258847713470459,0) translate(3.258673667907715,0) translate(-0.00004143670230405405,0) translate(-0.00004143670230405405,0) translate(3.2587480545043945,0) translate(0.00003314936475362629,0) translate(3.258578300476074,0) translate(3.258897304534912,0) translate(-0.00006215505709405988,0) translate(3.258727550506592,0) translate(0.000012431011782609858,0) translate(0.000012431011782609858,0) translate(0.000012431011782609858,0) translate(3.2585575580596924,0) translate(0.00008701707702130079,0) translate(0.00008701707702130079,0) translate(3.258632183074951,0) translate(-0.0000828734046081081,0) translate(0.00015745947894174606,0) translate(-0.0000828734046081081,0) translate(-0.0000828734046081081,0) translate(0.00015745947894174606,0) translate(-0.0000828734046081081,0) translate(-0.0000828734046081081,0) translate(0.00015745947894174606,0) translate(-0.0000828734046081081,0) translate(3.258702516555786,0) translate(-0.000012431010873115156,0) translate(-0.000012431010873115156,0) translate(-0.000012431010873115156,0) translate(-0.000012431010873115156,0) translate(-0.000012431010873115156,0) translate(-0.000012431010873115156,0) translate(-0.000012431010873115156,0) translate(-0.000012431010873115156,0) translate(0.00023204553872346878,0) translate(-0.000012431010873115156,0) translate(-0.000012431010873115156,0) translate(-0.000012431010873115156,0) translate(-0.000012431010873115156,0) translate(-0.000012431010873115156,0) translate(-0.000012431010873115156,0) translate(-0.000012431010873115156,0) translate(3.258777141571045,0) translate(-0.00018232149886898696,0) translate(0.00006215505709405988,0) translate(0.00006215505709405988,0) translate(0.00006215505709405988,0) translate(3.2586073875427246,0) translate(3.2586817741394043,0) translate(3.258756399154663,0) translate(3.258831024169922,0) translate(-0.00013259745901450515,0) translate(0.00011602276936173439,0) translate(-6.517463207244873,0) translate(-3.2588226795196533,0) translate(-6.517442226409912,0) translate(-11.948497772216797,0) translate(-6.51745080947876,0) translate(-6.517355442047119,0) translate(-6.517504692077637,0) translate(-6.517407417297363,0) translate(-18.466041564941406,0) translate(-9.776111602783203,0) translate(-6.517543792724609,0) translate(-3.2586591243743896,0) translate(-3.258732557296753,0) translate(-0.000017610598661121912,0) translate(-1.8442565202713013,0) translate(-95.35020446777344,1.0185908079147339) translate(88.80323028564453,-0.568539559841156) translate(0.00008826012344798073,0) translate(-0.00008826012344798073,0) translate(8.67636775970459,0) translate(8.67623519897461,0) translate(17.352602005004883,0) translate(0.000044130061723990366,0) translate(-0.000044130061723990366,0) translate(0.000044130061723990366,0) translate(-0.000044130061723990366,0) translate(0.000044130061723990366,0) translate(-8.676322937011719,0) translate(-8.67623519897461,0) translate(-17.352645874023438,0) translate(-17.352779388427734,0) translate(-8.676146507263184,0) translate(8.67636775970459,0) translate(17.35247039794922,0) translate(17.35273551940918,0) translate(8.676411628723145,0) translate(8.676191329956055,0) translate(8.676411628723145,0) translate(8.676102638244629,0) translate(0.00022065031225793064,0) translate(-0.00022065031225793064,0) translate(0.00022065031225793064,0) translate(-0.00022065031225793064,0) translate(4.740715980529785,0) translate(0,17.624004364013672) translate(0,-17.624000549316406) translate(0,-29.586692810058594) translate(-242.5133819580078,0) translate(349.5215759277344,0) translate(3460.872314453125,0) translate(0,1933.4285888671875) ">Layer 1</title>
    <g stroke="null" id="svg_304">
     <g stroke="null" id="svg_305">
      <title stroke="null" transform="translate(-3.258582353591919,0) translate(-0.00006629872950725257,0) translate(-0.00006629872950725257,0) translate(0.00013259745901450515,0) translate(3.2587149143218994,0) translate(3.2587811946868896,0) translate(-0.0001988961739698425,0) translate(0.00006629872950725257,0) translate(0.00006629872950725257,0) translate(0.00006629872950725257,0) translate(3.258582353591919,0) translate(3.258648633956909,0) translate(0.0001988961739698425,0) translate(-0.00006629872950725257,0) translate(-0.00006629872950725257,0) translate(-3.258582353591919,0) translate(-0.00013259745901450515,0) translate(-3.258648633956909,0) translate(0.00006629872950725257,0) translate(-0.0001988961739698425,0) translate(0.00006629872950725257,0) translate(6.517363548278809,0) translate(15.20746898651123,0) translate(11.94862174987793,0) translate(6.517363548278809,0) translate(0.00013259745901450515,0) translate(-9.776211738586426,0) translate(-6.517429828643799,0) translate(6.517363548278809,0) translate(9.776079177856445,0) translate(-3.258648633956909,0) translate(-3.2587149143218994,0) translate(-3.2587811946868896,0) translate(0.0001988961739698425,0) translate(-142.29742431640625,0) translate(-260.69720458984375,0) translate(-217.24755859375,0) translate(-46.70838165283203,0) translate(11.948598861694336,0) translate(3.258765459060669,0) translate(0.00005050098479841836,0) translate(0.00005050098479841836,0) translate(0.00005050098479841836,0) translate(3.2585954666137695,0) translate(0.00012431011418811977,0) translate(3.258668899536133,0) translate(-0.000046098331949906424,0) translate(3.2587430477142334,0) translate(0.00002796977605612483,0) translate(3.258573055267334,0) translate(0.00010151992319151759,0) translate(0.00010151992319151759,0) translate(-0.00014192071103025228,0) translate(0.00010151992319151759,0) translate(3.2586467266082764,0) translate(-0.0000683705584378913,0) translate(0.00017610599752515554,0) translate(3.258476734161377,0) translate(0.000006215505891304929,0) translate(3.258793830871582,0) translate(0.00007872973947087303,0) translate(3.2586238384246826,0) translate(3.2586984634399414,0) translate(-0.00001657468055782374,0) translate(3.2587730884552,0) translate(3.258847713470459,0) translate(3.258673667907715,0) translate(-0.00004143670230405405,0) translate(-0.00004143670230405405,0) translate(3.2587480545043945,0) translate(0.00003314936475362629,0) translate(3.258578300476074,0) translate(3.258897304534912,0) translate(-0.00006215505709405988,0) translate(3.258727550506592,0) translate(0.000012431011782609858,0) translate(0.000012431011782609858,0) translate(0.000012431011782609858,0) translate(3.2585575580596924,0) translate(0.00008701707702130079,0) translate(0.00008701707702130079,0) translate(3.258632183074951,0) translate(-0.0000828734046081081,0) translate(0.00015745947894174606,0) translate(-0.0000828734046081081,0) translate(-0.0000828734046081081,0) translate(0.00015745947894174606,0) translate(-0.0000828734046081081,0) translate(-0.0000828734046081081,0) translate(0.00015745947894174606,0) translate(-0.0000828734046081081,0) translate(3.258702516555786,0) translate(-0.000012431010873115156,0) translate(-0.000012431010873115156,0) translate(-0.000012431010873115156,0) translate(-0.000012431010873115156,0) translate(-0.000012431010873115156,0) translate(-0.000012431010873115156,0) translate(-0.000012431010873115156,0) translate(-0.000012431010873115156,0) translate(0.00023204553872346878,0) translate(-0.000012431010873115156,0) translate(-0.000012431010873115156,0) translate(-0.000012431010873115156,0) translate(-0.000012431010873115156,0) translate(-0.000012431010873115156,0) translate(-0.000012431010873115156,0) translate(-0.000012431010873115156,0) translate(3.258777141571045,0) translate(-0.00018232149886898696,0) translate(0.00006215505709405988,0) translate(0.00006215505709405988,0) translate(0.00006215505709405988,0) translate(3.2586073875427246,0) translate(3.2586817741394043,0) translate(3.258756399154663,0) translate(3.258831024169922,0) translate(-0.00013259745901450515,0) translate(0.00011602276936173439,0) translate(-6.517463207244873,0) translate(-3.2588226795196533,0) translate(-6.517442226409912,0) translate(-11.948497772216797,0) translate(-6.51745080947876,0) translate(-6.517355442047119,0) translate(-6.517504692077637,0) translate(-6.517407417297363,0) translate(-18.466041564941406,0) translate(-9.776111602783203,0) translate(-6.517543792724609,0) translate(-3.2586591243743896,0) translate(-3.258732557296753,0) translate(-0.000017610598661121912,0) translate(-1.8442565202713013,0) translate(-95.35020446777344,1.0185908079147339) translate(88.80323028564453,-0.568539559841156) translate(0.00008826012344798073,0) translate(-0.00008826012344798073,0) translate(8.67636775970459,0) translate(8.67623519897461,0) translate(17.352602005004883,0) translate(0.000044130061723990366,0) translate(-0.000044130061723990366,0) translate(0.000044130061723990366,0) translate(-0.000044130061723990366,0) translate(0.000044130061723990366,0) translate(-8.676322937011719,0) translate(-8.67623519897461,0) translate(-17.352645874023438,0) translate(-17.352779388427734,0) translate(-8.676146507263184,0) translate(8.67636775970459,0) translate(17.35247039794922,0) translate(17.35273551940918,0) translate(8.676411628723145,0) translate(8.676191329956055,0) translate(8.676411628723145,0) translate(8.676102638244629,0) translate(0.00022065031225793064,0) translate(-0.00022065031225793064,0) translate(0.00022065031225793064,0) translate(-0.00022065031225793064,0) translate(4.740715980529785,0) translate(0,17.624004364013672) translate(0,-17.624000549316406) translate(0,-29.586692810058594) translate(-242.5133819580078,0) translate(349.5215759277344,0) translate(3460.872314453125,0) translate(0,1933.4285888671875) ">Asset 1</title>
      <g stroke="null" id="svg_306">
       <g stroke="null" id="svg_301">
        <path stroke="null" id="svg_307" class="st0" d="m3017.751151,1950.875471c-16.24444,0 -29.4127,12.96596 -29.4127,29.014c0,2.86952 0.43175,5.68589 1.29524,8.39599c0.53968,-0.74395 1.07937,-1.4879 1.56508,-2.28499c2.05079,-2.97579 4.04762,-5.95159 6.04444,-8.98052l1.45714,-2.28499c0.48571,-0.74395 0.97143,-1.54104 1.40317,-2.28499c0.97143,-1.54104 1.88889,-3.08207 2.75238,-4.62311c0.43175,-0.79709 0.86349,-1.54104 1.34921,-2.33812s0.86349,-1.54104 1.29524,-2.33812c0.43175,-0.79709 0.86349,-1.59418 1.24127,-2.33812l1.1873,-2.39126l0.10794,-0.15942c0.64762,-1.27534 2.2127,-1.80673 3.5619,-1.2222c0.97143,0.53139 1.56508,1.54104 1.51111,2.65696l0,0c0,1.38162 -0.26984,2.81638 -0.37778,4.198s-0.1619,2.81638 -0.26984,4.25114c-0.10794,2.81638 -0.1619,5.68589 -0.1619,8.50227s0.1619,5.63275 0.43175,8.34285c0.1619,1.32848 0.37778,2.65696 0.64762,3.98544c0.21587,1.16906 0.59365,2.33812 1.13333,3.40091c0.1619,0.31884 0.37778,0.63767 0.64762,0.90337c0.1619,0.10628 0.05397,0.05314 0.1619,0.05314s0.05397,0 0.10794,0l0.10794,-0.05314l0.05397,0l0,0l0.1619,-0.05314l0,0c0.05397,-0.05314 0.1619,-0.10628 0.21587,-0.15942c0.43175,-0.31884 0.80952,-0.69081 1.1873,-1.11592c0.86349,-1.00964 1.67302,-2.01929 2.3746,-3.13521c0.75556,-1.11592 1.45714,-2.33812 2.15873,-3.56033c1.40317,-2.4444 2.69841,-4.94195 3.93968,-7.49263c0.59365,-1.27534 1.24127,-2.55068 1.83492,-3.87916c0.59365,-1.27534 1.1873,-2.60382 1.72698,-3.87916c0.53968,-1.32848 2.10476,-1.96615 3.45397,-1.43476c0.86349,0.31884 1.45714,1.06278 1.61905,1.96615l0,0c0,0.31884 0.05397,0.74395 0.10794,1.16906l0.1619,1.2222c0.10794,0.79709 0.21587,1.59418 0.37778,2.39126c0.26984,1.59418 0.59365,3.18835 1.0254,4.72939s0.97143,3.08207 1.61905,4.56997c0.64762,1.4879 1.45714,2.86952 2.48254,4.14486l0,0c0.21587,0.31884 0.1619,0.74395 -0.10794,0.95651s-0.64762,0.21256 -0.86349,0c-1.34921,-1.16906 -2.53651,-2.49754 -3.5619,-3.9323c-1.0254,-1.43476 -1.88889,-2.97579 -2.69841,-4.51683c-0.53968,-1.06278 -0.97143,-2.12557 -1.45714,-3.18835c-0.32381,0.63767 -0.59365,1.27534 -0.91746,1.85987c-1.29524,2.60382 -2.59048,5.20764 -4.10159,7.81146c-0.75556,1.38162 -1.51111,2.65696 -2.3746,3.9323c-0.86349,1.32848 -1.83492,2.60382 -2.86032,3.77288c-0.59365,0.69081 -1.29524,1.27534 -1.99683,1.85987c-0.21587,0.15942 -0.43175,0.31884 -0.70159,0.42511l-0.48571,0.2657l-0.26984,0.10628l-0.05397,0l-0.1619,0.05314l-0.10794,0l-0.21587,0.05314c-0.1619,0.05314 -0.26984,0.10628 -0.43175,0.10628c-0.32381,0.05314 -0.64762,0.10628 -0.97143,0.15942c-0.70159,0.05314 -1.45714,-0.05314 -2.10476,-0.2657s-1.24127,-0.58453 -1.78095,-1.00964c-0.80952,-0.69081 -1.51111,-1.54104 -1.99683,-2.49754c-0.75556,-1.4879 -1.29524,-3.08207 -1.61905,-4.72939c-0.32381,-1.4879 -0.53968,-3.02893 -0.70159,-4.51683c-0.32381,-2.97579 -0.43175,-5.89845 -0.48571,-8.87425c0,-1.38162 0,-2.81638 0,-4.198c-0.53968,1.00964 -1.07937,2.01929 -1.61905,2.97579c-0.43175,0.79709 -0.86349,1.59418 -1.34921,2.39126l-1.34921,2.39126c-1.83492,3.18835 -3.72381,6.32356 -5.72063,9.45878c-1.24127,2.01929 -2.53651,4.03858 -3.83175,6.00473c8.90476,13.39108 27.14603,17.11082 40.74603,8.34285s17.37778,-26.72901 8.47302,-40.12009c-5.45079,-8.02402 -14.67936,-12.96596 -24.60952,-12.96596l0.00001,0z" fill="url(#svg_300)"/>
        <path stroke="null" id="svg_308" class="st1" d="m3072.636861,1990.304751l0,-19.23639l-0.48571,0l-6.26032,19.28953l-1.56508,0l-6.26032,-19.28953l-0.48571,0l0,19.23639l-2.59048,0l0,-21.25568l4.5873,0l5.55873,16.89826l5.45079,-16.89826l4.64127,0l0,21.30882l-2.59048,0l0,-0.05314l0.00001,0z" fill="url(#svg_299)"/>
        <path stroke="null" id="svg_309" class="st2" d="m3079.005121,1971.812311l0,-2.76324l2.80635,0l0,2.76324l-2.80635,0zm0.05397,18.49244l0,-16.42001l2.75238,0l0,16.42001l-2.75238,0z" fill="url(#svg_298)"/>
        <path stroke="null" id="svg_310" class="st3" d="m3098.487661,1984.937691c0,3.18835 -1.24127,5.63275 -6.6381,5.63275c-6.8,0 -7.17778,-3.82602 -7.17778,-8.50227s0.37778,-8.50227 7.17778,-8.50227c5.39683,0 6.6381,2.4444 6.6381,5.63275l-2.59048,0c0,-2.60382 -0.91746,-3.87916 -4.04762,-3.87916c-4.20952,0 -4.4254,2.23185 -4.4254,6.69554s0.21587,6.69554 4.4254,6.69554c3.13016,0 4.04762,-1.27534 4.04762,-3.87916l2.59048,0.10628z" fill="url(#svg_297)"/>
        <path stroke="null" id="svg_311" class="st4" d="m3103.830511,1975.638331c1.29524,-0.79709 2.96825,-1.85987 4.53333,-1.91301c0.32381,-0.05314 0.64762,-0.05314 0.97143,-0.05314c0.43175,0 0.80952,0 1.29524,0.05314l-0.21587,1.96615c-0.43175,-0.05314 -0.80952,-0.05314 -1.1873,-0.05314c-0.32381,0 -0.64762,0 -1.0254,0.05314c-1.45714,0.05314 -3.02222,1.11592 -4.15556,1.75359l0,12.91282l-2.75238,0l0,-16.47315l2.15873,0l0.37778,1.75359l0,0.00001z" fill="url(#svg_296)"/>
        <path stroke="null" id="svg_312" class="st5" d="m3126.065431,1982.121321c0,4.67625 -0.37778,8.50227 -7.28571,8.50227s-7.28571,-3.82602 -7.28571,-8.50227s0.37778,-8.50227 7.28571,-8.50227s7.28571,3.82602 7.28571,8.50227zm-11.81905,0c0,4.46369 0.21587,6.69554 4.53333,6.69554s4.53333,-2.17871 4.53333,-6.69554s-0.21587,-6.69554 -4.53333,-6.69554s-4.53333,2.17871 -4.53333,6.69554l0,0z" fill="url(#svg_295)"/>
        <path stroke="null" id="svg_313" class="st6" d="m3131.084481,1994.130771c1.0254,0.10628 2.3746,0.15942 3.88571,0.15942c4.20952,0 4.74921,-1.11592 4.80317,-5.47334c-1.24127,0.69081 -2.96825,1.4879 -4.74921,1.54104c-6.09841,0.10628 -6.47619,-3.13521 -6.47619,-8.23658s0.32381,-8.50227 6.20635,-8.50227c1.99683,0 3.83175,0.90337 5.28889,1.80673l0.26984,-1.4879l2.15873,0l0,14.56014c0,5.89845 -1.34921,7.70518 -6.85397,7.70518c-1.61905,0 -3.2381,-0.15942 -4.80317,-0.37197l0.26984,-1.70045l0.00001,0zm8.68889,-17.2171c-1.1873,-0.74395 -2.69841,-1.4879 -4.15556,-1.4879c-4.04762,0 -4.31746,2.23185 -4.31746,6.69554c0,4.35741 0.26984,6.42984 4.31746,6.42984c1.45714,0 3.02222,-0.79709 4.15556,-1.38162l0,-10.25586z" fill="url(#svg_294)"/>
        <path stroke="null" id="svg_314" class="st7" d="m3157.420991,1990.304751l-0.26984,-1.4879c-1.34921,0.85023 -3.13016,1.80673 -5.07302,1.80673c-6.09841,0.10628 -6.47619,-3.29463 -6.47619,-8.50227s0.32381,-8.50227 6.36825,-8.50227c1.99683,0 3.77778,0.90337 5.12698,1.70045l0.26984,-1.43476l2.15873,0l0,16.42001l-2.10476,0l0.00001,0.00001zm-0.53968,-13.49736c-1.13333,-0.63767 -2.69841,-1.38162 -4.15556,-1.38162c-4.04762,0 -4.31746,2.23185 -4.31746,6.69554s0.26984,6.69554 4.31746,6.69554c1.45714,0 2.96825,-0.79709 4.15556,-1.4879l0,-10.52156z" fill="url(#svg_293)"/>
        <path stroke="null" id="svg_315" class="st8" d="m3165.354321,1975.319501c1.24127,-0.74395 2.91429,-1.64732 4.69524,-1.70045c2.80635,-0.10628 4.26349,0.63767 4.96508,1.80673c1.29524,-0.79709 3.02222,-1.75359 4.91111,-1.80673c5.72063,-0.15942 6.09841,2.7101 6.09841,6.69554l0,9.99017l-2.75238,0l0,-9.83075c0,-3.40091 -0.21587,-5.04822 -3.93968,-5.04822c-1.34921,0 -2.75238,0.79709 -3.88571,1.4879c0.26984,1.16906 0.37778,2.39126 0.32381,3.61347l0,9.83075l-2.3746,0l0,-9.88389c0,-3.40091 -0.21587,-5.04822 -3.93968,-5.04822c-1.29524,0 -2.69841,0.79709 -3.77778,1.38162l0,13.49736l-2.75238,0l0,-16.42001l2.15873,0l0.26984,1.43476l-0.00001,-0.00003z" fill="url(#svg_292)"/>
        <path stroke="null" id="svg_316" class="st9" d="m3189.424161,1971.812311l0,-2.76324l2.80635,0l0,2.76324l-2.80635,0zm0.05397,18.49244l0,-16.42001l2.75238,0l0,16.42001l-2.75238,0z" fill="url(#svg_291)"/>
        <path stroke="null" id="svg_317" class="st10" d="m3198.059081,1975.319501c1.34921,-0.74395 3.13016,-1.64732 5.07302,-1.70045c6.09841,-0.15942 6.47619,2.7101 6.47619,6.69554l0,9.99017l-2.75238,0l0,-9.83075c0,-3.40091 -0.26984,-5.04822 -4.31746,-5.04822c-1.45714,0 -3.02222,0.79709 -4.15556,1.43476l0,13.49736l-2.75238,0l0,-16.47315l2.15873,0l0.26984,1.43476l0,-0.00002z" fill="url(#svg_290)"/>
        <path stroke="null" id="svg_318" class="st11" d="m3214.951151,1994.130771c1.0254,0.10628 2.3746,0.15942 3.88571,0.15942c4.20952,0 4.74921,-1.11592 4.80317,-5.47334c-1.24127,0.69081 -2.96825,1.4879 -4.74921,1.54104c-6.09841,0.10628 -6.47619,-3.13521 -6.47619,-8.23658s0.32381,-8.50227 6.20635,-8.50227c1.99683,0 3.83175,0.90337 5.28889,1.80673l0.26984,-1.4879l2.15873,0l0,14.56014c0,5.89845 -1.34921,7.70518 -6.85397,7.70518c-1.61905,0 -3.2381,-0.15942 -4.80317,-0.37197l0.26984,-1.70045l0.00001,0zm8.63492,-17.2171c-1.1873,-0.74395 -2.69841,-1.4879 -4.15556,-1.4879c-4.04762,0 -4.31746,2.23185 -4.31746,6.69554c0,4.35741 0.26984,6.42984 4.31746,6.42984c1.45714,0 3.02222,-0.79709 4.15556,-1.38162l0,-10.25586z" fill="url(#svg_289)"/>
       </g>
      </g>
     </g>
    </g>
   </g>
  </g>
  <defs>
   <linearGradient id="svg_346" x1="-0.077907" y1="0.639413" x2="3.957573" y2="-0.334557">
    <stop offset="0" stop-color="#21E418"/>
    <stop offset="0.3" stop-color="#31B6E9"/>
    <stop offset="0.9757" stop-color="#21E418"/>
   </linearGradient>
   <linearGradient id="svg_345" x1="-3.392486" y1="1.376935" x2="8.340855" y2="-1.266456">
    <stop offset="0" stop-color="#21E418"/>
    <stop offset="0.3" stop-color="#31B6E9"/>
    <stop offset="0.9757" stop-color="#21E418"/>
   </linearGradient>
   <linearGradient id="svg_344" x1="-32.725831" y1="1.540572" x2="51.889541" y2="-1.109427">
    <stop offset="0" stop-color="#21E418"/>
    <stop offset="0.3" stop-color="#31B6E9"/>
    <stop offset="0.9757" stop-color="#21E418"/>
   </linearGradient>
   <linearGradient id="svg_343" x1="-6.972192" y1="1.943688" x2="10.215307" y2="-1.368813">
    <stop offset="0" stop-color="#21E418"/>
    <stop offset="0.3" stop-color="#31B6E9"/>
    <stop offset="0.9757" stop-color="#21E418"/>
   </linearGradient>
   <linearGradient id="svg_342" x1="-12.032631" y1="2.123026" x2="13.40092" y2="-1.252772">
    <stop offset="0" stop-color="#21E418"/>
    <stop offset="0.3" stop-color="#31B6E9"/>
    <stop offset="0.9757" stop-color="#21E418"/>
   </linearGradient>
   <linearGradient id="svg_341" x1="-8.349159" y1="2.298741" x2="7.947163" y2="-1.013761">
    <stop offset="0" stop-color="#21E418"/>
    <stop offset="0.3" stop-color="#31B6E9"/>
    <stop offset="0.9757" stop-color="#21E418"/>
   </linearGradient>
   <linearGradient id="svg_340" x1="-9.850326" y1="2.012937" x2="7.20394" y2="-0.481181">
    <stop offset="0" stop-color="#21E418"/>
    <stop offset="0.3" stop-color="#31B6E9"/>
    <stop offset="0.9757" stop-color="#21E418"/>
   </linearGradient>
   <linearGradient id="svg_339" x1="-11.046951" y1="2.767392" x2="6.007334" y2="-0.544638">
    <stop offset="0" stop-color="#21E418"/>
    <stop offset="0.3" stop-color="#31B6E9"/>
    <stop offset="0.9757" stop-color="#21E418"/>
   </linearGradient>
   <linearGradient id="svg_338" x1="-7.361625" y1="3.078445" x2="2.918755" y2="-0.284609">
    <stop offset="0" stop-color="#21E418"/>
    <stop offset="0.3" stop-color="#31B6E9"/>
    <stop offset="0.9757" stop-color="#21E418"/>
   </linearGradient>
   <linearGradient id="svg_337" x1="-69.913691" y1="2.70523" x2="14.701681" y2="0.05523">
    <stop offset="0" stop-color="#21E418"/>
    <stop offset="0.3" stop-color="#31B6E9"/>
    <stop offset="0.9757" stop-color="#21E418"/>
   </linearGradient>
   <linearGradient id="svg_336" x1="-14.394465" y1="3.455726" x2="2.593952" y2="0.09192">
    <stop offset="0" stop-color="#21E418"/>
    <stop offset="0.3" stop-color="#31B6E9"/>
    <stop offset="0.9757" stop-color="#21E418"/>
   </linearGradient>
   <linearGradient id="svg_335" x1="-15.543199" y1="2.845495" x2="1.511086" y2="0.351377">
    <stop offset="0" stop-color="#21E418"/>
    <stop offset="0.3" stop-color="#31B6E9"/>
    <stop offset="0.9757" stop-color="#21E418"/>
   </linearGradient>
  </defs>
  <g stroke="null" id="svg_365">
   <g stroke="null" transform="matrix(1.0096340588122283,0,0,1.0723142404163253,-3488.9332048945475,-2058.4750090360108) " id="svg_349">
    <title stroke="null" transform="translate(-7.923663139343262,-18.397186279296875) translate(3460.872314453125,0) translate(0,1933.4285888671875) ">Layer 1</title>
    <g stroke="null" id="svg_350">
     <g stroke="null" id="svg_351">
      <title stroke="null" transform="translate(-7.923663139343262,-18.397186279296875) translate(3460.872314453125,0) translate(0,1933.4285888671875) ">Asset 1</title>
      <g stroke="null" id="svg_352">
       <g stroke="null" id="svg_347">
        <path stroke="null" id="svg_353" class="st0" d="m3489.861351,1961.614923c-16.24444,0 -29.4127,12.96596 -29.4127,29.014c0,2.86952 0.43175,5.68589 1.29524,8.39599c0.53968,-0.74395 1.07937,-1.4879 1.56508,-2.28499c2.05079,-2.97579 4.04762,-5.95159 6.04444,-8.98052l1.45714,-2.28499c0.48571,-0.74395 0.97143,-1.54104 1.40317,-2.28499c0.97143,-1.54104 1.88889,-3.08207 2.75238,-4.62311c0.43175,-0.79709 0.86349,-1.54104 1.34921,-2.33812s0.86349,-1.54104 1.29524,-2.33812c0.43175,-0.79709 0.86349,-1.59418 1.24127,-2.33812l1.1873,-2.39126l0.10794,-0.15942c0.64762,-1.27534 2.2127,-1.80673 3.5619,-1.2222c0.97143,0.53139 1.56508,1.54104 1.51111,2.65696l0,0c0,1.38162 -0.26984,2.81638 -0.37778,4.198s-0.1619,2.81638 -0.26984,4.25114c-0.10794,2.81638 -0.1619,5.68589 -0.1619,8.50227s0.1619,5.63275 0.43175,8.34285c0.1619,1.32848 0.37778,2.65696 0.64762,3.98544c0.21587,1.16906 0.59365,2.33812 1.13333,3.40091c0.1619,0.31884 0.37778,0.63767 0.64762,0.90337c0.1619,0.10628 0.05397,0.05314 0.1619,0.05314s0.05397,0 0.10794,0l0.10794,-0.05314l0.05397,0l0,0l0.1619,-0.05314l0,0c0.05397,-0.05314 0.1619,-0.10628 0.21587,-0.15942c0.43175,-0.31884 0.80952,-0.69081 1.1873,-1.11592c0.86349,-1.00964 1.67302,-2.01929 2.3746,-3.13521c0.75556,-1.11592 1.45714,-2.33812 2.15873,-3.56033c1.40317,-2.4444 2.69841,-4.94195 3.93968,-7.49263c0.59365,-1.27534 1.24127,-2.55068 1.83492,-3.87916c0.59365,-1.27534 1.1873,-2.60382 1.72698,-3.87916c0.53968,-1.32848 2.10476,-1.96615 3.45397,-1.43476c0.86349,0.31884 1.45714,1.06278 1.61905,1.96615l0,0c0,0.31884 0.05397,0.74395 0.10794,1.16906l0.1619,1.2222c0.10794,0.79709 0.21587,1.59418 0.37778,2.39126c0.26984,1.59418 0.59365,3.18835 1.0254,4.72939s0.97143,3.08207 1.61905,4.56997c0.64762,1.4879 1.45714,2.86952 2.48254,4.14486l0,0c0.21587,0.31884 0.1619,0.74395 -0.10794,0.95651s-0.64762,0.21256 -0.86349,0c-1.34921,-1.16906 -2.53651,-2.49754 -3.5619,-3.9323c-1.0254,-1.43476 -1.88889,-2.97579 -2.69841,-4.51683c-0.53968,-1.06278 -0.97143,-2.12557 -1.45714,-3.18835c-0.32381,0.63767 -0.59365,1.27534 -0.91746,1.85987c-1.29524,2.60382 -2.59048,5.20764 -4.10159,7.81146c-0.75556,1.38162 -1.51111,2.65696 -2.3746,3.9323c-0.86349,1.32848 -1.83492,2.60382 -2.86032,3.77288c-0.59365,0.69081 -1.29524,1.27534 -1.99683,1.85987c-0.21587,0.15942 -0.43175,0.31884 -0.70159,0.42511l-0.48571,0.2657l-0.26984,0.10628l-0.05397,0l-0.1619,0.05314l-0.10794,0l-0.21587,0.05314c-0.1619,0.05314 -0.26984,0.10628 -0.43175,0.10628c-0.32381,0.05314 -0.64762,0.10628 -0.97143,0.15942c-0.70159,0.05314 -1.45714,-0.05314 -2.10476,-0.2657s-1.24127,-0.58453 -1.78095,-1.00964c-0.80952,-0.69081 -1.51111,-1.54104 -1.99683,-2.49754c-0.75556,-1.4879 -1.29524,-3.08207 -1.61905,-4.72939c-0.32381,-1.4879 -0.53968,-3.02893 -0.70159,-4.51683c-0.32381,-2.97579 -0.43175,-5.89845 -0.48571,-8.87425c0,-1.38162 0,-2.81638 0,-4.198c-0.53968,1.00964 -1.07937,2.01929 -1.61905,2.97579c-0.43175,0.79709 -0.86349,1.59418 -1.34921,2.39126l-1.34921,2.39126c-1.83492,3.18835 -3.72381,6.32356 -5.72063,9.45878c-1.24127,2.01929 -2.53651,4.03858 -3.83175,6.00473c8.90476,13.39108 27.14603,17.11082 40.74603,8.34285s17.37778,-26.72901 8.47302,-40.12009c-5.45079,-8.02402 -14.67936,-12.96596 -24.60952,-12.96596l0.00001,0z" fill="url(#svg_346)"/>
        <path stroke="null" id="svg_354" class="st1" d="m3544.747061,2001.044203l0,-19.23639l-0.48571,0l-6.26032,19.28953l-1.56508,0l-6.26032,-19.28953l-0.48571,0l0,19.23639l-2.59048,0l0,-21.25568l4.5873,0l5.55873,16.89826l5.45079,-16.89826l4.64127,0l0,21.30882l-2.59048,0l0,-0.05314l0.00001,0z" fill="url(#svg_345)"/>
        <path stroke="null" id="svg_355" class="st2" d="m3551.115321,1982.551763l0,-2.76324l2.80635,0l0,2.76324l-2.80635,0zm0.05397,18.49244l0,-16.42001l2.75238,0l0,16.42001l-2.75238,0z" fill="url(#svg_344)"/>
        <path stroke="null" id="svg_356" class="st3" d="m3570.597861,1995.677143c0,3.18835 -1.24127,5.63275 -6.6381,5.63275c-6.8,0 -7.17778,-3.82602 -7.17778,-8.50227s0.37778,-8.50227 7.17778,-8.50227c5.39683,0 6.6381,2.4444 6.6381,5.63275l-2.59048,0c0,-2.60382 -0.91746,-3.87916 -4.04762,-3.87916c-4.20952,0 -4.4254,2.23185 -4.4254,6.69554s0.21587,6.69554 4.4254,6.69554c3.13016,0 4.04762,-1.27534 4.04762,-3.87916l2.59048,0.10628z" fill="url(#svg_343)"/>
        <path stroke="null" id="svg_357" class="st4" d="m3575.940711,1986.377783c1.29524,-0.79709 2.96825,-1.85987 4.53333,-1.91301c0.32381,-0.05314 0.64762,-0.05314 0.97143,-0.05314c0.43175,0 0.80952,0 1.29524,0.05314l-0.21587,1.96615c-0.43175,-0.05314 -0.80952,-0.05314 -1.1873,-0.05314c-0.32381,0 -0.64762,0 -1.0254,0.05314c-1.45714,0.05314 -3.02222,1.11592 -4.15556,1.75359l0,12.91282l-2.75238,0l0,-16.47315l2.15873,0l0.37778,1.75359l0,0.00001z" fill="url(#svg_342)"/>
        <path stroke="null" id="svg_358" class="st5" d="m3598.175631,1992.860773c0,4.67625 -0.37778,8.50227 -7.28571,8.50227s-7.28571,-3.82602 -7.28571,-8.50227s0.37778,-8.50227 7.28571,-8.50227s7.28571,3.82602 7.28571,8.50227zm-11.81905,0c0,4.46369 0.21587,6.69554 4.53333,6.69554s4.53333,-2.17871 4.53333,-6.69554s-0.21587,-6.69554 -4.53333,-6.69554s-4.53333,2.17871 -4.53333,6.69554l0,0z" fill="url(#svg_341)"/>
        <path stroke="null" id="svg_359" class="st6" d="m3603.194681,2004.870223c1.0254,0.10628 2.3746,0.15942 3.88571,0.15942c4.20952,0 4.74921,-1.11592 4.80317,-5.47334c-1.24127,0.69081 -2.96825,1.4879 -4.74921,1.54104c-6.09841,0.10628 -6.47619,-3.13521 -6.47619,-8.23658s0.32381,-8.50227 6.20635,-8.50227c1.99683,0 3.83175,0.90337 5.28889,1.80673l0.26984,-1.4879l2.15873,0l0,14.56014c0,5.89845 -1.34921,7.70518 -6.85397,7.70518c-1.61905,0 -3.2381,-0.15942 -4.80317,-0.37197l0.26984,-1.70045l0.00001,0zm8.68889,-17.2171c-1.1873,-0.74395 -2.69841,-1.4879 -4.15556,-1.4879c-4.04762,0 -4.31746,2.23185 -4.31746,6.69554c0,4.35741 0.26984,6.42984 4.31746,6.42984c1.45714,0 3.02222,-0.79709 4.15556,-1.38162l0,-10.25586z" fill="url(#svg_340)"/>
        <path stroke="null" id="svg_360" class="st7" d="m3629.531191,2001.044203l-0.26984,-1.4879c-1.34921,0.85023 -3.13016,1.80673 -5.07302,1.80673c-6.09841,0.10628 -6.47619,-3.29463 -6.47619,-8.50227s0.32381,-8.50227 6.36825,-8.50227c1.99683,0 3.77778,0.90337 5.12698,1.70045l0.26984,-1.43476l2.15873,0l0,16.42001l-2.10476,0l0.00001,0.00001zm-0.53968,-13.49736c-1.13333,-0.63767 -2.69841,-1.38162 -4.15556,-1.38162c-4.04762,0 -4.31746,2.23185 -4.31746,6.69554s0.26984,6.69554 4.31746,6.69554c1.45714,0 2.96825,-0.79709 4.15556,-1.4879l0,-10.52156z" fill="url(#svg_339)"/>
        <path stroke="null" id="svg_361" class="st8" d="m3637.464521,1986.058953c1.24127,-0.74395 2.91429,-1.64732 4.69524,-1.70045c2.80635,-0.10628 4.26349,0.63767 4.96508,1.80673c1.29524,-0.79709 3.02222,-1.75359 4.91111,-1.80673c5.72063,-0.15942 6.09841,2.7101 6.09841,6.69554l0,9.99017l-2.75238,0l0,-9.83075c0,-3.40091 -0.21587,-5.04822 -3.93968,-5.04822c-1.34921,0 -2.75238,0.79709 -3.88571,1.4879c0.26984,1.16906 0.37778,2.39126 0.32381,3.61347l0,9.83075l-2.3746,0l0,-9.88389c0,-3.40091 -0.21587,-5.04822 -3.93968,-5.04822c-1.29524,0 -2.69841,0.79709 -3.77778,1.38162l0,13.49736l-2.75238,0l0,-16.42001l2.15873,0l0.26984,1.43476l-0.00001,-0.00003z" fill="url(#svg_338)"/>
        <path stroke="null" id="svg_362" class="st9" d="m3661.534361,1982.551763l0,-2.76324l2.80635,0l0,2.76324l-2.80635,0zm0.05397,18.49244l0,-16.42001l2.75238,0l0,16.42001l-2.75238,0z" fill="url(#svg_337)"/>
        <path stroke="null" id="svg_363" class="st10" d="m3670.169281,1986.058953c1.34921,-0.74395 3.13016,-1.64732 5.07302,-1.70045c6.09841,-0.15942 6.47619,2.7101 6.47619,6.69554l0,9.99017l-2.75238,0l0,-9.83075c0,-3.40091 -0.26984,-5.04822 -4.31746,-5.04822c-1.45714,0 -3.02222,0.79709 -4.15556,1.43476l0,13.49736l-2.75238,0l0,-16.47315l2.15873,0l0.26984,1.43476l0,-0.00002z" fill="url(#svg_336)"/>
        <path stroke="null" id="svg_364" class="st11" d="m3687.061351,2004.870223c1.0254,0.10628 2.3746,0.15942 3.88571,0.15942c4.20952,0 4.74921,-1.11592 4.80317,-5.47334c-1.24127,0.69081 -2.96825,1.4879 -4.74921,1.54104c-6.09841,0.10628 -6.47619,-3.13521 -6.47619,-8.23658s0.32381,-8.50227 6.20635,-8.50227c1.99683,0 3.83175,0.90337 5.28889,1.80673l0.26984,-1.4879l2.15873,0l0,14.56014c0,5.89845 -1.34921,7.70518 -6.85397,7.70518c-1.61905,0 -3.2381,-0.15942 -4.80317,-0.37197l0.26984,-1.70045l0.00001,0zm8.63492,-17.2171c-1.1873,-0.74395 -2.69841,-1.4879 -4.15556,-1.4879c-4.04762,0 -4.31746,2.23185 -4.31746,6.69554c0,4.35741 0.26984,6.42984 4.31746,6.42984c1.45714,0 3.02222,-0.79709 4.15556,-1.38162l0,-10.25586z" fill="url(#svg_335)"/>
       </g>
      </g>
     </g>
    </g>
   </g>
  </g>
 </g>
</svg>