<svg width="126" height="32" viewBox="0 0 126 32" fill="none" xmlns="http://www.w3.org/2000/svg">
<path d="M19.3003 15.3759C19.3137 14.3326 19.5909 13.3096 20.1059 12.4021C20.6209 11.4947 21.3571 10.7323 22.246 10.1858C21.6813 9.37937 20.9364 8.71569 20.0704 8.24751C19.2043 7.77932 18.2411 7.51951 17.257 7.48873C15.158 7.2684 13.1231 8.74476 12.0534 8.74476C10.9631 8.74476 9.31624 7.5106 7.54283 7.54709C6.39574 7.58415 5.27781 7.91771 4.29797 8.51528C3.31812 9.11286 2.50978 9.95405 1.9517 10.9569C-0.465794 15.1424 1.33744 21.2937 3.65319 24.677C4.81181 26.3336 6.16591 28.1842 7.93772 28.1186C9.67154 28.0467 10.3191 27.013 12.412 27.013C14.4854 27.013 15.0929 28.1186 16.9007 28.0769C18.7612 28.0467 19.9333 26.4128 21.0513 24.7404C21.8838 23.56 22.5244 22.2553 22.9493 20.8748C21.8685 20.4177 20.9461 19.6524 20.2972 18.6746C19.6483 17.6967 19.3016 16.5495 19.3003 15.3759Z" fill="white"/>
<path d="M15.8863 5.2639C16.9007 4.04614 17.4005 2.48092 17.2795 0.900635C15.7297 1.06341 14.2981 1.80411 13.27 2.97514C12.7673 3.54722 12.3823 4.21276 12.137 4.93372C11.8917 5.65468 11.7909 6.41692 11.8404 7.17687C12.6155 7.18485 13.3824 7.01683 14.0832 6.68547C14.7841 6.35411 15.4006 5.86805 15.8863 5.2639Z" fill="white"/>
<path d="M41.2168 23.9243H35.3L33.8791 28.1199H31.373L36.9773 12.5974H39.581L45.1853 28.1199H42.6364L41.2168 23.9243ZM35.9128 21.9883H40.6028L38.2908 15.1792H38.2261L35.9128 21.9883Z" fill="white"/>
<path d="M57.2893 22.463C57.2893 25.9799 55.407 28.2394 52.5664 28.2394C51.8469 28.277 51.1312 28.1112 50.5015 27.7611C49.8718 27.4109 49.3534 26.8905 49.0057 26.2594H48.9519V31.8648H46.6289V16.8038H48.8775V18.6862H48.9202C49.2839 18.0581 49.811 17.5404 50.4456 17.188C51.0801 16.8357 51.7983 16.662 52.5237 16.6854C55.396 16.6854 57.2893 18.9559 57.2893 22.463ZM54.9016 22.463C54.9016 20.1718 53.7175 18.6654 51.9109 18.6654C50.136 18.6654 48.9422 20.2035 48.9422 22.463C48.9422 24.7433 50.136 26.2704 51.9109 26.2704C53.7175 26.2704 54.9016 24.775 54.9016 22.463Z" fill="white"/>
<path d="M69.7444 22.463C69.7444 25.9798 67.8621 28.2393 65.0215 28.2393C64.3019 28.277 63.5863 28.1112 62.9566 27.7611C62.3268 27.4109 61.8084 26.8905 61.4607 26.2594H61.407V31.8648H59.084V16.8038H61.3325V18.6862H61.3752C61.7389 18.0581 62.2661 17.5403 62.9006 17.188C63.5352 16.8357 64.2533 16.662 64.9787 16.6854C67.8511 16.6854 69.7444 18.9559 69.7444 22.463ZM67.3567 22.463C67.3567 20.1718 66.1726 18.6654 64.366 18.6654C62.5911 18.6654 61.3972 20.2035 61.3972 22.463C61.3972 24.7433 62.5911 26.2704 64.366 26.2704C66.1726 26.2704 67.3567 24.775 67.3567 22.463H67.3567Z" fill="white"/>
<path d="M77.9756 23.7954C78.1477 25.3347 79.6431 26.3454 81.6865 26.3454C83.6445 26.3454 85.0532 25.3347 85.0532 23.9468C85.0532 22.7419 84.2036 22.0205 82.1919 21.5261L80.1802 21.0415C77.3299 20.353 76.0066 19.02 76.0066 16.8569C76.0066 14.1787 78.3406 12.3391 81.6548 12.3391C84.9348 12.3391 87.1833 14.1787 87.259 16.8569H84.914C84.7737 15.3079 83.4931 14.3728 81.6218 14.3728C79.7505 14.3728 78.47 15.3189 78.47 16.6958C78.47 17.7932 79.2878 18.439 81.2886 18.9333L82.9988 19.3532C86.1836 20.1064 87.5068 21.3857 87.5068 23.6562C87.5068 26.5602 85.1936 28.3791 81.5144 28.3791C78.072 28.3791 75.7478 26.6029 75.5977 23.7953L77.9756 23.7954Z" fill="white"/>
<path d="M92.5234 14.1245V16.8027H94.6755V18.6423H92.5234V24.8813C92.5234 25.8505 92.9543 26.3022 93.9004 26.3022C94.1559 26.2978 94.4109 26.2798 94.6645 26.2485V28.0771C94.2392 28.1565 93.8069 28.1925 93.3742 28.1845C91.083 28.1845 90.1894 27.3239 90.1894 25.1291V18.6423H88.5439V16.8027H90.1894V14.1245H92.5234Z" fill="white"/>
<path d="M95.9209 22.4619C95.9209 18.9011 98.018 16.6636 101.288 16.6636C104.57 16.6636 106.657 18.9011 106.657 22.4619C106.657 26.0324 104.581 28.2602 101.288 28.2602C97.9972 28.2602 95.9209 26.0324 95.9209 22.4619ZM104.29 22.4619C104.29 20.0193 103.171 18.5776 101.288 18.5776C99.406 18.5776 98.2878 20.0303 98.2878 22.4619C98.2878 24.9143 99.406 26.3449 101.288 26.3449C103.171 26.3449 104.29 24.9143 104.29 22.4619H104.29Z" fill="white"/>
<path d="M108.572 16.8037H110.788V18.73H110.842C110.991 18.1284 111.344 17.5967 111.84 17.2244C112.335 16.852 112.944 16.6617 113.564 16.6853C113.831 16.6844 114.098 16.7135 114.36 16.772V18.9448C114.022 18.8416 113.669 18.7941 113.316 18.8045C112.978 18.7908 112.642 18.8503 112.33 18.9789C112.017 19.1075 111.737 19.3022 111.507 19.5495C111.277 19.7969 111.103 20.0911 110.997 20.4119C110.892 20.7327 110.857 21.0726 110.895 21.4082V28.1208H108.572L108.572 16.8037Z" fill="white"/>
<path d="M125.071 24.7959C124.759 26.8503 122.758 28.2602 120.198 28.2602C116.906 28.2602 114.862 26.0544 114.862 22.5156C114.862 18.9658 116.917 16.6636 120.1 16.6636C123.231 16.6636 125.2 18.8144 125.2 22.2458V23.0417H117.207V23.1821C117.17 23.5986 117.223 24.0182 117.36 24.413C117.498 24.8078 117.718 25.1688 118.006 25.4719C118.294 25.7751 118.643 26.0136 119.03 26.1715C119.418 26.3293 119.834 26.403 120.252 26.3877C120.801 26.4391 121.352 26.3119 121.822 26.0252C122.293 25.7383 122.659 25.3072 122.865 24.7959L125.071 24.7959ZM117.218 21.4182H122.876C122.897 21.0437 122.84 20.6689 122.709 20.3174C122.579 19.9659 122.376 19.6452 122.116 19.3755C121.855 19.1058 121.542 18.8929 121.195 18.7501C120.848 18.6074 120.475 18.5378 120.1 18.5459C119.722 18.5436 119.347 18.6163 118.997 18.7597C118.647 18.9032 118.329 19.1145 118.061 19.3815C117.793 19.6486 117.58 19.966 117.436 20.3156C117.291 20.6652 117.217 21.0399 117.218 21.4182V21.4182Z" fill="white"/>
<path d="M35.6199 0.913981C36.1069 0.879032 36.5956 0.952607 37.0507 1.1294C37.5059 1.30619 37.9161 1.58179 38.2518 1.93632C38.5875 2.29085 38.8404 2.71547 38.9922 3.17956C39.1439 3.64364 39.1908 4.13563 39.1294 4.62002C39.1294 7.00282 37.8415 8.3725 35.6199 8.3725H32.9258V0.913981H35.6199ZM34.0842 7.31771H35.4905C35.8385 7.33851 36.1867 7.28145 36.5099 7.15068C36.8331 7.01992 37.123 6.81873 37.3586 6.56178C37.5943 6.30482 37.7696 5.99856 37.8719 5.66529C37.9743 5.33202 38.001 4.98012 37.9502 4.63522C37.9973 4.29168 37.9679 3.94196 37.864 3.61114C37.7601 3.28031 37.5843 2.97655 37.3492 2.72164C37.1141 2.46673 36.8256 2.26697 36.5042 2.13668C36.1829 2.00638 35.8367 1.94878 35.4905 1.96799H34.0842V7.31771Z" fill="white"/>
<path d="M40.4383 5.5562C40.403 5.18631 40.4453 4.8131 40.5626 4.46051C40.6799 4.10793 40.8696 3.78375 41.1195 3.50878C41.3694 3.2338 41.6741 3.01409 42.0139 2.86375C42.3537 2.7134 42.7212 2.63574 43.0927 2.63574C43.4643 2.63574 43.8318 2.7134 44.1716 2.86375C44.5114 3.01409 44.8161 3.2338 45.066 3.50878C45.3159 3.78375 45.5056 4.10793 45.6229 4.46051C45.7402 4.8131 45.7825 5.18631 45.7472 5.5562C45.7832 5.92648 45.7414 6.30021 45.6244 6.65336C45.5074 7.00652 45.3178 7.33129 45.0679 7.6068C44.8179 7.88232 44.513 8.10249 44.1728 8.25316C43.8327 8.40382 43.4648 8.48166 43.0927 8.48166C42.7207 8.48166 42.3528 8.40382 42.0127 8.25316C41.6725 8.10249 41.3676 7.88232 41.1176 7.6068C40.8677 7.33129 40.6781 7.00652 40.5611 6.65336C40.4441 6.30021 40.4023 5.92648 40.4383 5.5562ZM44.6046 5.5562C44.6046 4.33612 44.0565 3.62262 43.0946 3.62262C42.129 3.62262 41.5858 4.33612 41.5858 5.55622C41.5858 6.78608 42.129 7.49407 43.0946 7.49407C44.0565 7.49406 44.6046 6.78118 44.6046 5.5562H44.6046Z" fill="white"/>
<path d="M52.8037 8.37254H51.6514L50.488 4.22704H50.4001L49.2417 8.37254H48.1003L46.5488 2.7439H47.6755L48.6838 7.03888H48.7668L49.9241 2.7439H50.9897L52.147 7.03888H52.2348L53.2383 2.7439H54.3491L52.8037 8.37254Z" fill="white"/>
<path d="M55.6543 2.74432H56.7236V3.63848H56.8066C56.9475 3.31733 57.185 3.04811 57.4861 2.86836C57.7871 2.6886 58.1368 2.60726 58.4863 2.63567C58.7602 2.61508 59.0352 2.65637 59.2909 2.75649C59.5467 2.85661 59.7766 3.01299 59.9637 3.21404C60.1508 3.4151 60.2903 3.65567 60.3718 3.91795C60.4533 4.18022 60.4748 4.45747 60.4346 4.72916V8.3729H59.3237V5.00811C59.3237 4.10358 58.9307 3.65374 58.1091 3.65374C57.9232 3.64508 57.7376 3.67673 57.565 3.74651C57.3924 3.8163 57.237 3.92258 57.1093 4.05806C56.9817 4.19354 56.8848 4.35502 56.8254 4.53143C56.766 4.70785 56.7454 4.89502 56.7651 5.08012V8.37296H55.6543L55.6543 2.74432Z" fill="white"/>
<path d="M62.2041 0.546631H63.3149V8.37253H62.2041V0.546631Z" fill="white"/>
<path d="M64.8582 5.55629C64.8229 5.18637 64.8652 4.81314 64.9825 4.46055C65.0999 4.10795 65.2896 3.78377 65.5396 3.50878C65.7895 3.2338 66.0942 3.0141 66.434 2.86375C66.7739 2.71341 67.1414 2.63574 67.513 2.63574C67.8846 2.63574 68.2522 2.71341 68.592 2.86375C68.9318 3.0141 69.2365 3.2338 69.4865 3.50878C69.7364 3.78377 69.9262 4.10795 70.0435 4.46055C70.1608 4.81314 70.2032 5.18637 70.1678 5.55629C70.2038 5.92658 70.162 6.3003 70.0449 6.65346C69.9279 7.00661 69.7383 7.33137 69.4883 7.60687C69.2382 7.88238 68.9333 8.10254 68.5932 8.2532C68.253 8.40386 67.8851 8.48169 67.513 8.48169C67.141 8.48169 66.773 8.40386 66.4329 8.2532C66.0927 8.10254 65.7878 7.88238 65.5378 7.60687C65.2877 7.33137 65.0981 7.00661 64.9811 6.65346C64.8641 6.3003 64.8222 5.92658 64.8582 5.55629ZM69.0246 5.55629C69.0246 4.33621 68.4765 3.62272 67.5145 3.62272C66.5489 3.62272 66.0058 4.33621 66.0058 5.5563C66.0058 6.78615 66.549 7.49414 67.5145 7.49414C68.4765 7.49413 69.0246 6.78125 69.0246 5.55629H69.0246Z" fill="white"/>
<path d="M71.3389 6.78124C71.3389 5.76805 72.0932 5.18395 73.4323 5.10094L74.9569 5.01305V4.52722C74.9569 3.93273 74.5639 3.59704 73.8046 3.59704C73.1845 3.59704 72.7548 3.8247 72.6315 4.22265H71.5561C71.6697 3.25585 72.5791 2.63574 73.8559 2.63574C75.267 2.63574 76.0628 3.33824 76.0628 4.52722V8.37304H74.9935V7.58203H74.9056C74.7273 7.86577 74.4768 8.09708 74.1797 8.25234C73.8827 8.4076 73.5498 8.48126 73.215 8.46577C72.9787 8.49035 72.7399 8.46514 72.514 8.39177C72.288 8.3184 72.08 8.19849 71.9032 8.03978C71.7264 7.88107 71.5849 7.68707 71.4877 7.4703C71.3905 7.25354 71.3398 7.0188 71.3389 6.78124ZM74.9569 6.30028V5.8297L73.5824 5.91759C72.8073 5.96946 72.4558 6.23314 72.4558 6.72935C72.4558 7.23594 72.8952 7.53074 73.4995 7.53074C73.6765 7.54866 73.8554 7.53078 74.0254 7.47817C74.1954 7.42556 74.3531 7.33928 74.489 7.22448C74.625 7.10968 74.7365 6.9687 74.8169 6.80993C74.8973 6.65115 74.9449 6.47783 74.9569 6.30028Z" fill="white"/>
<path d="M77.5225 5.55579C77.5225 3.77723 78.4368 2.65052 79.8589 2.65052C80.2106 2.63432 80.5598 2.71857 80.8654 2.89344C81.1711 3.0683 81.4206 3.32656 81.5849 3.63802H81.668V0.546631H82.7788V8.37253H81.7144V7.48325H81.6265C81.4495 7.79261 81.1912 8.04765 80.8796 8.22075C80.5681 8.39386 80.2151 8.47842 79.8589 8.46529C78.427 8.46535 77.5225 7.33862 77.5225 5.55579ZM78.67 5.55579C78.67 6.74964 79.2327 7.46802 80.1739 7.46802C81.1101 7.46802 81.6887 6.73927 81.6887 5.56068C81.6887 4.38758 81.104 3.64845 80.1739 3.64845C79.2388 3.64845 78.6699 4.37171 78.6699 5.55579H78.67Z" fill="white"/>
<path d="M87.3749 5.5562C87.3395 5.18631 87.3818 4.8131 87.4991 4.46051C87.6164 4.10793 87.8061 3.78375 88.056 3.50878C88.3059 3.2338 88.6106 3.01409 88.9504 2.86375C89.2902 2.7134 89.6577 2.63574 90.0293 2.63574C90.4009 2.63574 90.7683 2.7134 91.1082 2.86375C91.448 3.01409 91.7526 3.2338 92.0025 3.50878C92.2524 3.78375 92.4421 4.10793 92.5594 4.46051C92.6767 4.8131 92.7191 5.18631 92.6837 5.5562C92.7197 5.92648 92.6779 6.30021 92.5609 6.65336C92.4439 7.00652 92.2544 7.33129 92.0044 7.6068C91.7544 7.88232 91.4495 8.10249 91.1094 8.25316C90.7692 8.40382 90.4013 8.48166 90.0293 8.48166C89.6572 8.48166 89.2893 8.40382 88.9492 8.25316C88.609 8.10249 88.3042 7.88232 88.0542 7.6068C87.8042 7.33129 87.6146 7.00652 87.4976 6.65336C87.3806 6.30021 87.3388 5.92648 87.3749 5.5562ZM91.5411 5.5562C91.5411 4.33612 90.993 3.62262 90.0311 3.62262C89.0655 3.62262 88.5224 4.33612 88.5224 5.55622C88.5224 6.78608 89.0656 7.49407 90.0311 7.49407C90.993 7.49406 91.5411 6.78118 91.5411 5.5562Z" fill="white"/>
<path d="M94.1738 2.74432H95.2432V3.63848H95.3262C95.467 3.31733 95.7045 3.04811 96.0056 2.86836C96.3067 2.6886 96.6563 2.60726 97.0059 2.63567C97.2797 2.61508 97.5547 2.65637 97.8105 2.75649C98.0662 2.85661 98.2962 3.01299 98.4833 3.21404C98.6704 3.4151 98.8098 3.65567 98.8913 3.91795C98.9728 4.18022 98.9943 4.45747 98.9541 4.72916V8.3729H97.8433V5.00811C97.8433 4.10358 97.4502 3.65374 96.6287 3.65374C96.4427 3.64508 96.2571 3.67673 96.0845 3.74651C95.9119 3.8163 95.7565 3.92258 95.6289 4.05806C95.5012 4.19354 95.4043 4.35502 95.3449 4.53143C95.2855 4.70785 95.265 4.89502 95.2847 5.08012V8.37296H94.1738V2.74432Z" fill="white"/>
<path d="M105.23 1.34229V2.76928H106.45V3.70495H105.23V6.59923C105.23 7.18883 105.473 7.447 106.026 7.447C106.168 7.44655 106.309 7.43799 106.45 7.42136V8.34665C106.25 8.38234 106.048 8.40132 105.845 8.40341C104.61 8.40341 104.118 7.96884 104.118 6.88364V3.7049H103.225V2.76923H104.118V1.34229H105.23Z" fill="white"/>
<path d="M107.969 0.546631H109.07V3.64843H109.158C109.305 3.32428 109.549 3.05355 109.857 2.87311C110.164 2.69268 110.519 2.61132 110.874 2.64014C111.146 2.62531 111.419 2.6708 111.672 2.77335C111.924 2.8759 112.152 3.03299 112.337 3.23341C112.522 3.43384 112.66 3.67265 112.743 3.93282C112.825 4.19298 112.849 4.46809 112.812 4.73852V8.37254H111.7V5.01255C111.7 4.11351 111.282 3.65818 110.497 3.65818C110.306 3.64252 110.114 3.66877 109.934 3.73509C109.754 3.80141 109.591 3.90619 109.456 4.04211C109.321 4.17803 109.218 4.34181 109.153 4.52198C109.088 4.70215 109.063 4.89437 109.08 5.08518V8.37252H107.969L107.969 0.546631Z" fill="white"/>
<path d="M119.288 6.85213C119.137 7.36655 118.81 7.81153 118.364 8.10921C117.918 8.4069 117.382 8.53834 116.849 8.48053C116.478 8.49032 116.109 8.4193 115.769 8.27239C115.428 8.12548 115.124 7.9062 114.876 7.62978C114.629 7.35336 114.444 7.02641 114.336 6.67164C114.228 6.31686 114.198 5.94276 114.249 5.57528C114.199 5.20668 114.23 4.83176 114.338 4.47592C114.446 4.12008 114.629 3.79162 114.875 3.51278C115.121 3.23394 115.424 3.01123 115.764 2.85972C116.104 2.70821 116.472 2.63144 116.844 2.63462C118.41 2.63462 119.355 3.70461 119.355 5.47211V5.85972H115.38V5.92197C115.363 6.12852 115.389 6.33644 115.456 6.53237C115.524 6.72831 115.632 6.90795 115.773 7.05976C115.914 7.21158 116.085 7.33223 116.276 7.41398C116.466 7.49573 116.672 7.53676 116.879 7.53446C117.145 7.56636 117.414 7.51852 117.653 7.39701C117.891 7.2755 118.088 7.08582 118.218 6.85209L119.288 6.85213ZM115.38 5.03817H118.223C118.237 4.84926 118.211 4.65951 118.148 4.48112C118.084 4.30272 117.984 4.13962 117.853 4.0023C117.723 3.86498 117.565 3.75647 117.39 3.68375C117.215 3.61103 117.027 3.57571 116.838 3.58005C116.646 3.57764 116.455 3.61371 116.277 3.68614C116.099 3.75857 115.937 3.86589 115.801 4.00178C115.666 4.13768 115.558 4.29938 115.486 4.47738C115.414 4.65537 115.378 4.84605 115.38 5.03817H115.38Z" fill="white"/>
</svg>
