<svg width="28" height="28" viewBox="0 0 28 28" fill="none" xmlns="http://www.w3.org/2000/svg">
<path fill-rule="evenodd" clip-rule="evenodd" d="M7.29232 6.41667C7.29232 4.32259 8.98991 2.625 11.084 2.625C12.2567 2.625 13.3051 3.15743 14.0007 3.99375C14.6962 3.15743 15.7446 2.625 16.9173 2.625C19.0114 2.625 20.709 4.32259 20.709 6.41667C20.709 7.29664 20.4092 8.1066 19.9062 8.75H21.0007C22.6115 8.75 23.9173 10.0558 23.9173 11.6667V13.125C23.9173 13.6082 23.5256 14 23.0423 14H15.2257C15.0324 14 14.8757 13.8433 14.8757 13.65V9.61227C14.5455 9.40093 14.2504 9.13984 14.0007 8.83958C13.7509 9.13984 13.4558 9.40093 13.1257 9.61227V13.65C13.1257 13.8433 12.969 14 12.7757 14H4.95898C4.47574 14 4.08398 13.6082 4.08398 13.125V11.6667C4.08398 10.0558 5.38982 8.75 7.00065 8.75H8.09508C7.59209 8.1066 7.29232 7.29664 7.29232 6.41667ZM13.1257 6.41667C13.1257 5.28909 12.2116 4.375 11.084 4.375C9.9564 4.375 9.04232 5.28909 9.04232 6.41667C9.04232 7.54425 9.9564 8.45833 11.084 8.45833C12.2116 8.45833 13.1257 7.54425 13.1257 6.41667ZM14.8757 6.41667C14.8757 7.54425 15.7897 8.45833 16.9173 8.45833C18.0449 8.45833 18.959 7.54425 18.959 6.41667C18.959 5.28909 18.0449 4.375 16.9173 4.375C15.7897 4.375 14.8757 5.28909 14.8757 6.41667Z" fill="#0450FF"/>
<path d="M13.1257 15.925C13.1257 15.7317 12.969 15.575 12.7757 15.575H6.59117C6.11791 15.575 5.7135 15.916 5.63356 16.3825C5.37451 17.8943 5.37451 19.4391 5.63356 20.9509L5.89526 22.4781C6.07147 23.5064 6.90663 24.2941 7.94346 24.41L9.1861 24.5489C10.3772 24.682 11.5724 24.7656 12.7686 24.7996C12.9646 24.8052 13.1257 24.6472 13.1257 24.4511L13.1257 15.925Z" fill="#0450FF"/>
<path d="M15.2327 24.7996C15.0367 24.8052 14.8757 24.6472 14.8757 24.4511L14.8757 15.925C14.8757 15.7317 15.0324 15.575 15.2257 15.575H21.4101C21.8834 15.575 22.2878 15.916 22.3677 16.3825C22.6268 17.8943 22.6268 19.4391 22.3677 20.9509L22.106 22.4781C21.9298 23.5064 21.0947 24.2941 20.0578 24.41L18.8152 24.5489C17.6241 24.682 16.4289 24.7656 15.2327 24.7996Z" fill="#0450FF"/>
</svg>
