<svg width="28" height="28" viewBox="0 0 28 28" fill="none" xmlns="http://www.w3.org/2000/svg">
<path d="M23.1418 19.7243C23.6588 14.7549 23.6588 9.74524 23.1418 4.77583C22.98 3.22146 21.1879 2.4341 19.9337 3.3664L15.1461 6.92521C13.6369 8.04704 11.8065 8.65284 9.92606 8.65284H5.45866C4.81433 8.65284 4.29199 9.17517 4.29199 9.8195V14.6806C4.29199 15.3249 4.81433 15.8473 5.45866 15.8473L9.92605 15.8473C11.8065 15.8473 13.6369 16.4531 15.1461 17.5749L19.9337 21.1337C21.1879 22.066 22.98 21.2787 23.1418 19.7243Z" fill="#0450FF"/>
<path d="M10.6077 18.4357C10.6747 18.1738 10.6169 17.8957 10.4511 17.6822C10.2854 17.4687 10.0303 17.3438 9.75998 17.3438L7.42664 17.3438C7.09522 17.3437 6.79223 17.531 6.64401 17.8274L5.47735 20.1608C5.27811 20.5592 5.41008 21.0438 5.78385 21.2862L8.27349 22.9009C8.50986 23.0542 8.8056 23.0843 9.06801 22.9817C9.33043 22.8792 9.52743 22.6566 9.59729 22.3837L10.6077 18.4357Z" fill="#0450FF"/>
</svg>
