<svg width="28" height="28" viewBox="0 0 28 28" fill="none" xmlns="http://www.w3.org/2000/svg">
<path fill-rule="evenodd" clip-rule="evenodd" d="M21.8756 12.8334L21.8684 13.1171L21.8756 13.4167L21.8687 13.7024L21.8755 14L21.6554 23.6288C21.628 24.8271 20.7166 25.8195 19.525 25.9485C15.8526 26.3462 12.148 26.3462 8.47557 25.9485C7.28393 25.8195 6.37255 24.8271 6.34516 23.6288L6.12504 14L6.13189 13.7004L6.12506 13.4167L6.13224 13.1183L6.125 12.8334L6.32182 5.08498C6.32312 5.03377 6.3256 4.98285 6.32923 4.93223L6.34221 4.39303C6.37187 3.1602 7.31346 2.14168 8.54016 2.01548C8.64226 2.00498 8.74437 1.99477 8.8465 1.98486C8.98503 1.95266 9.12707 1.92919 9.27205 1.91506C12.4168 1.60856 15.5838 1.60856 18.7285 1.91506C18.8735 1.92919 19.0155 1.95266 19.154 1.98485C19.2562 1.99476 19.3583 2.00497 19.4605 2.01548C20.6872 2.14168 21.6288 3.1602 21.6584 4.39303L21.6714 4.93345C21.675 4.98367 21.6775 5.03419 21.6787 5.08498L21.8756 12.8334ZM18.667 20.7083C19.1502 20.7083 19.542 20.3165 19.542 19.8333C19.542 19.35 19.1502 18.9583 18.667 18.9583H9.33362C8.85037 18.9583 8.45862 19.35 8.45862 19.8333C8.45862 20.3165 8.85037 20.7083 9.33362 20.7083H18.667ZM14.0003 25.3167C14.9668 25.3167 15.7503 24.5332 15.7503 23.5667C15.7503 22.6002 14.9668 21.8167 14.0003 21.8167C13.0338 21.8167 12.2503 22.6002 12.2503 23.5667C12.2503 24.5332 13.0338 25.3167 14.0003 25.3167Z" fill="#0450FF"/>
</svg>
