<svg width="28" height="28" viewBox="0 0 28 28" fill="none" xmlns="http://www.w3.org/2000/svg">
<path d="M13.277 3C12.6858 3.00001 12.132 3.30241 11.7941 3.80969L6.33138 12.0119C5.30556 13.5521 4.84835 15.4289 5.04443 17.2946L5.4645 21.2915C5.64401 22.9996 6.92644 24.3525 8.55835 24.5555L11.2912 24.8954C13.378 25.155 15.494 24.93 17.4882 24.2365C18.884 23.751 20.002 22.6433 20.5407 21.212L22.7463 15.3516C22.853 15.0681 22.9267 14.7723 22.9659 14.4704C23.3071 11.8423 21.0359 9.66509 18.5614 10.2481L13.5297 11.4335L15.0269 5.36109C15.3218 4.16525 14.4581 2.99998 13.277 3Z" fill="#0450FF"/>
</svg>
