<svg width="28" height="28" viewBox="0 0 28 28" fill="none" xmlns="http://www.w3.org/2000/svg">
<path fill-rule="evenodd" clip-rule="evenodd" d="M24.5119 11.8666L24.5149 16.0932C24.4851 16.4959 24.4468 16.8981 24.3998 17.2995C24.3213 17.9709 23.7756 18.5124 23.0903 18.589C20.9439 18.8288 18.7228 18.8288 16.5764 18.589C15.8911 18.5124 15.3454 17.9709 15.2669 17.2995C15.0105 15.1074 15.0105 12.8928 15.2669 10.7006C15.3454 10.0293 15.8911 9.48779 16.5764 9.4112C18.7228 9.17131 20.9439 9.17131 23.0903 9.4112C23.7756 9.48779 24.3213 10.0293 24.3998 10.7006C24.4452 11.0886 24.4826 11.4774 24.5119 11.8666ZM19.8334 12.2501C18.8669 12.2501 18.0834 13.0336 18.0834 14.0001C18.0834 14.9666 18.8669 15.7501 19.8334 15.7501C20.7999 15.7501 21.5834 14.9666 21.5834 14.0001C21.5834 13.0336 20.7999 12.2501 19.8334 12.2501Z" fill="#0450FF"/>
<path d="M23.8042 7.04641C23.9856 7.36055 23.6452 7.71232 23.2847 7.67203C21.0091 7.4177 18.6576 7.4177 16.3821 7.67203C14.9011 7.83754 13.7034 9.00367 13.5287 10.4973C13.2566 12.8246 13.2566 15.1756 13.5287 17.5028C13.7034 18.9965 14.9011 20.1626 16.382 20.3281C18.6576 20.5824 21.0091 20.5824 23.2847 20.3281C23.6476 20.2876 23.9908 20.6418 23.8077 20.9577C22.8993 22.5243 21.2799 23.6177 19.398 23.8157L18.6375 23.8958C14.7748 24.3022 10.8788 24.2754 7.02209 23.8158L6.51816 23.7558C4.43901 23.508 2.79162 21.8836 2.51469 19.8082C2.00031 15.9532 2.00031 12.047 2.51469 8.192C2.79162 6.11654 4.43901 4.49213 6.51816 4.24437L7.02209 4.18432C10.8788 3.72474 14.7748 3.69793 18.6375 4.10441L19.398 4.18443C21.2814 4.38263 22.8983 5.47768 23.8042 7.04641Z" fill="#0450FF"/>
</svg>
