<svg width="16" height="18" viewBox="0 0 16 18" fill="none" xmlns="http://www.w3.org/2000/svg">
<path d="M10.9476 1.30901C10.1992 0.464863 9.15381 0 8 0C6.84003 0 5.79121 0.462051 5.04624 1.30097C4.29318 2.14914 3.92627 3.30186 4.01242 4.54658C4.18318 7.00228 5.97198 8.99995 8 8.99995C10.028 8.99995 11.8137 7.00268 11.9872 4.54738C12.0745 3.31391 11.7053 2.1636 10.9476 1.30901Z" fill="white"/>
<path d="M14.769 17.9999H1.23096C1.05375 18.0023 0.878268 17.9634 0.717263 17.8861C0.556259 17.8087 0.413787 17.6948 0.300212 17.5527C0.0502186 17.2405 -0.0505479 16.8142 0.0240655 16.3831C0.348672 14.502 1.36172 12.9218 2.95399 11.8124C4.36856 10.8277 6.16044 10.2857 8 10.2857C9.83957 10.2857 11.6314 10.8281 13.046 11.8124C14.6383 12.9214 15.6513 14.5016 15.9759 16.3827C16.0505 16.8138 15.9498 17.2401 15.6998 17.5523C15.5863 17.6945 15.4438 17.8084 15.2828 17.8859C15.1218 17.9633 14.9463 18.0023 14.769 17.9999Z" fill="white"/>
</svg>
