<svg width="85" height="85" viewBox="0 0 85 85" fill="none" xmlns="http://www.w3.org/2000/svg">
<path d="M42.5007 7.0835C22.9869 7.0835 7.08398 22.9864 7.08398 42.5002C7.08398 62.0139 22.9869 77.9168 42.5007 77.9168C62.0144 77.9168 77.9173 62.0139 77.9173 42.5002C77.9173 22.9864 62.0144 7.0835 42.5007 7.0835ZM42.5007 56.6668C34.6737 56.6668 28.334 50.3271 28.334 42.5002C28.334 34.6732 34.6737 28.3335 42.5007 28.3335C50.3276 28.3335 56.6673 34.6732 56.6673 42.5002C56.6673 50.3271 50.3276 56.6668 42.5007 56.6668Z" fill="url(#paint0_linear_2045_6070)"/>
<path d="M35.3464 30.317C33.2574 31.4861 31.4866 33.2569 30.3175 35.3459L15.0527 20.0811C16.6109 18.2757 18.2762 16.6104 20.0816 15.0522L35.3464 30.317Z" fill="#DA2057"/>
<path d="M69.948 64.9191C68.3899 66.7245 66.7245 68.3899 64.9191 69.948L49.6543 54.6832C51.7433 53.5142 53.5142 51.7433 54.6832 49.6543L69.948 64.9191Z" fill="#DA2057"/>
<path d="M69.948 20.0811L54.6832 35.3459C53.5142 33.2569 51.7433 31.4861 49.6543 30.317L64.9191 15.0522C66.7245 16.6104 68.3899 18.2757 69.948 20.0811Z" fill="#DA2057"/>
<path d="M35.3464 54.6833L20.0816 69.9481C18.2762 68.39 16.6109 66.7246 15.0527 64.9192L30.3175 49.6544C31.4866 51.7434 33.2574 53.5143 35.3464 54.6833Z" fill="#DA2057"/>
<defs>
<linearGradient id="paint0_linear_2045_6070" x1="7.08398" y1="42.5002" x2="77.9173" y2="42.5002" gradientUnits="userSpaceOnUse">
<stop stop-color="#FF2566"/>
<stop offset="1" stop-color="#FF769F"/>
</linearGradient>
</defs>
</svg>
