<svg width="85" height="85" viewBox="0 0 85 85" fill="none" xmlns="http://www.w3.org/2000/svg">
<path d="M72.7916 77.5433C73.8897 78.0915 75.1954 78.0327 76.2381 77.3877C77.2809 76.7426 77.9173 75.603 77.9173 74.3752V17.7085C77.9173 11.8495 73.1513 7.0835 67.2923 7.0835H17.709H17.7038C11.8466 7.08695 7.08398 11.8513 7.08398 17.7085C7.08398 19.6644 8.66978 21.2502 10.6257 21.2502C12.5815 21.2502 14.1673 19.6644 14.1673 17.7085C14.1673 15.7561 15.7566 14.1668 17.709 14.1668C19.6614 14.1668 21.2507 15.7561 21.2507 17.7085V74.3752C21.2507 75.603 21.887 76.7426 22.9298 77.3877C23.9726 78.0327 25.2783 78.0915 26.3764 77.5433L38.7048 71.3782L47.6195 77.3219C48.8092 78.114 50.3587 78.114 51.5485 77.3219L60.4632 71.3782L72.7916 77.5433Z" fill="url(#paint0_linear_2045_6083)"/>
<path d="M56.6673 28.3335H42.5007C40.5448 28.3335 38.959 26.7477 38.959 24.7918C38.959 22.8359 40.5448 21.2501 42.5007 21.2501H56.6673C58.6232 21.2501 60.209 22.8359 60.209 24.7918C60.209 26.7477 58.6232 28.3335 56.6673 28.3335Z" fill="#DA2057"/>
<path d="M60.2096 42.5003H38.9596C37.0038 42.5003 35.418 40.9145 35.418 38.9587C35.418 37.0028 37.0038 35.417 38.9596 35.417H60.2096C62.1655 35.417 63.7513 37.0028 63.7513 38.9587C63.7513 40.9145 62.1655 42.5003 60.2096 42.5003Z" fill="#DA2057"/>
<path d="M60.2096 56.6668H38.9596C37.0038 56.6668 35.418 55.081 35.418 53.1252C35.418 51.1693 37.0038 49.5835 38.9596 49.5835H60.2096C62.1655 49.5835 63.7513 51.1693 63.7513 53.1252C63.7513 55.081 62.1655 56.6668 60.2096 56.6668Z" fill="#DA2057"/>
<defs>
<linearGradient id="paint0_linear_2045_6083" x1="7.08398" y1="42.5001" x2="77.9173" y2="42.5001" gradientUnits="userSpaceOnUse">
<stop stop-color="#FF769F"/>
<stop offset="1" stop-color="#FF2566"/>
</linearGradient>
</defs>
</svg>
