<svg width="85" height="85" viewBox="0 0 85 85" fill="none" xmlns="http://www.w3.org/2000/svg">
<path d="M49.5827 7.08331C46.8521 7.08331 44.3843 8.14858 42.4993 9.84678C40.6144 8.14858 38.1466 7.08331 35.416 7.08331C29.557 7.08331 24.791 11.8493 24.791 17.7083C24.791 23.5673 29.557 28.3333 35.416 28.3333H42.4993H49.5827C55.4417 28.3333 60.2077 23.5673 60.2077 17.7083C60.2077 11.8493 55.4417 7.08331 49.5827 7.08331ZM31.8743 17.7083C31.8743 15.7559 33.4636 14.1666 35.416 14.1666C37.3684 14.1666 38.9577 15.7559 38.9577 17.7083V21.25H35.416C33.4636 21.25 31.8743 19.6607 31.8743 17.7083ZM49.5827 21.25H46.041V17.7083C46.041 15.7559 47.6303 14.1666 49.5827 14.1666C51.5351 14.1666 53.1243 15.7559 53.1243 17.7083C53.1243 19.6607 51.5351 21.25 49.5827 21.25Z" fill="url(#paint0_linear_2045_6054)"/>
<path d="M67.291 38.9583H17.7077C15.7518 38.9583 14.166 40.5441 14.166 42.5V67.2916C14.166 73.1506 18.932 77.9166 24.791 77.9166H60.2077C66.0667 77.9166 70.8327 73.1506 70.8327 67.2916V42.5C70.8327 40.5441 69.2469 38.9583 67.291 38.9583Z" fill="url(#paint1_linear_2045_6054)"/>
<path d="M63.75 21.25H21.25C15.391 21.25 10.625 26.016 10.625 31.875V42.5C10.625 44.4559 12.2108 46.0417 14.1667 46.0417H70.8333C72.7892 46.0417 74.375 44.4559 74.375 42.5V31.875C74.375 26.016 69.609 21.25 63.75 21.25Z" fill="url(#paint2_linear_2045_6054)"/>
<path d="M38.959 21.2498H46.0423V77.9165H38.959V21.2498Z" fill="#DA2057"/>
<defs>
<linearGradient id="paint0_linear_2045_6054" x1="24.791" y1="17.7083" x2="60.2077" y2="17.7083" gradientUnits="userSpaceOnUse">
<stop stop-color="#FF769F"/>
<stop offset="1" stop-color="#FF2566"/>
</linearGradient>
<linearGradient id="paint1_linear_2045_6054" x1="14.166" y1="58.4375" x2="70.8327" y2="58.4375" gradientUnits="userSpaceOnUse">
<stop stop-color="#FF769F"/>
<stop offset="1" stop-color="#FF2566"/>
</linearGradient>
<linearGradient id="paint2_linear_2045_6054" x1="10.625" y1="33.6458" x2="74.375" y2="33.6458" gradientUnits="userSpaceOnUse">
<stop stop-color="#FF2566"/>
<stop offset="1" stop-color="#FF769F"/>
</linearGradient>
</defs>
</svg>
