<svg width="85" height="85" viewBox="0 0 85 85" fill="none" xmlns="http://www.w3.org/2000/svg">
<path d="M17.763 31.8313C13.8582 31.8313 10.6797 28.6545 10.6797 24.748C10.6797 20.8414 13.8236 17.1925 17.6835 16.6149L56.8009 10.7594C57.1537 10.7075 57.4788 10.6851 57.8005 10.6851C59.2911 10.6851 60.6954 11.1883 61.7502 12.1014C63.0749 13.2445 63.8047 14.9115 63.8047 16.7931V31.8313H17.763Z" fill="#DA2057"/>
<path d="M67.347 28.2896V16.7792C67.347 13.9102 66.1434 11.2194 64.0544 9.41222C61.9653 7.6068 59.1292 6.82688 56.262 7.25229L17.1619 13.0957C11.5312 13.9465 7.13867 19.0809 7.13867 24.7479V67.2479C7.13867 73.0913 11.9185 77.8729 17.7637 77.8729H67.347C73.1921 77.8729 77.972 73.0913 77.972 67.2479V38.9146C77.972 33.0712 73.1921 28.2896 67.347 28.2896ZM60.2637 28.2896H17.7637C15.8164 28.2896 14.222 26.6951 14.222 24.7479C14.222 22.588 16.1001 20.4263 18.2237 20.1081L57.3238 14.2647C58.1401 14.1575 58.9183 14.3356 59.4474 14.7956C59.9801 15.2556 60.2637 15.9647 60.2637 16.7792V28.2896Z" fill="url(#paint0_linear_2045_6002)"/>
<path d="M63.8047 42.4561C57.9457 42.4561 53.1797 47.2221 53.1797 53.0811C53.1797 58.94 57.9457 63.7061 63.8047 63.7061H77.9714V42.4561H63.8047Z" fill="#DA2057"/>
<defs>
<linearGradient id="paint0_linear_2045_6002" x1="7.13867" y1="42.5058" x2="77.972" y2="42.5058" gradientUnits="userSpaceOnUse">
<stop stop-color="#FF769F"/>
<stop offset="1" stop-color="#FF2566"/>
</linearGradient>
</defs>
</svg>
