<svg width="13" height="11" viewBox="0 0 13 11" fill="none" xmlns="http://www.w3.org/2000/svg">
<path d="M8.23664 1.77628H4.17136V0.545567C4.17136 0.095629 3.62385 -0.16904 3.25428 0.122096L0.215583 2.43795C-0.071861 2.66292 -0.071861 3.07316 0.215583 3.29813L3.25428 5.62722C3.62385 5.90512 4.17136 5.65368 4.17136 5.20374V3.97303H8.23664C9.61911 3.97303 10.7415 5.05818 10.7415 6.39476C10.7415 7.73134 9.61911 8.80325 8.23664 8.80325H2.78889C2.15925 8.80325 1.6528 9.29288 1.6528 9.90162C1.6528 10.5104 2.15925 11 2.78889 11H8.23664C10.8647 11 13 8.93558 13 6.39476C13 3.8407 10.8647 1.77628 8.23664 1.77628Z" fill="#0450FF"/>
</svg>
